<svg xmlns="http://www.w3.org/2000/svg" xmlns:xlink="http://www.w3.org/1999/xlink" width="210" height="24" preserveAspectRatio="xMidYMid meet" version="1.1" viewBox="0 0 210 24"><defs><path id="e4l9HamqM" d="M35.42 5.56L35.85 5.61L36.27 5.69L36.66 5.78L37.03 5.9L37.39 6.04L37.71 6.2L38.02 6.38L38.3 6.59L38.57 6.81L38.81 7.05L39.03 7.32L39.23 7.6L39.41 7.91L39.57 8.24L39.7 8.59L39.82 8.96L39.91 9.35L39.99 9.76L40.04 10.2L40.07 10.65L40.08 11.12L40.08 11.24L40.08 11.35L40.07 11.45L40.03 11.65L40.01 11.74L39.99 11.83L39.96 11.91L39.89 12.06L39.85 12.12L39.8 12.18L39.76 12.24L39.7 12.29L39.65 12.34L39.59 12.37L39.53 12.41L39.46 12.44L39.38 12.46L39.31 12.48L39.23 12.49L39.15 12.5L30.25 12.5L30.25 12.43L30.23 12.43L30.23 14.27L30.24 14.51L30.27 14.75L30.3 14.98L30.36 15.2L30.43 15.4L30.52 15.6L30.62 15.77L30.74 15.95L30.87 16.1L31.02 16.26L31.19 16.39L31.37 16.52L31.57 16.63L31.78 16.74L32.01 16.83L32.25 16.92L32.52 16.98L32.79 17.05L33.09 17.1L33.4 17.13L33.72 17.16L34.06 17.18L34.42 17.19L34.55 17.19L34.68 17.18L34.81 17.18L34.93 17.17L35.06 17.17L35.18 17.16L35.3 17.15L35.53 17.13L35.64 17.12L35.75 17.1L35.96 17.07L36.06 17.06L36.16 17.04L36.45 16.98L36.54 16.95L36.63 16.93L36.71 16.9L36.8 16.87L36.88 16.84L36.93 16.83L36.98 16.81L37.03 16.79L37.08 16.77L37.14 16.74L37.2 16.72L37.26 16.69L37.32 16.66L37.53 16.55L37.61 16.51L37.68 16.46L37.85 16.37L37.93 16.32L38.02 16.27L38.11 16.21L38.3 16.08L38.4 16.02L38.5 15.95L38.61 15.88L38.73 15.76L38.86 15.66L38.92 15.61L38.97 15.57L39.03 15.53L39.08 15.48L39.17 15.41L39.27 15.35L39.31 15.32L39.35 15.3L39.39 15.27L39.46 15.24L39.49 15.23L39.53 15.22L39.55 15.21L39.6 15.2L39.69 15.2L39.79 15.21L39.84 15.22L39.89 15.23L39.94 15.24L39.98 15.26L40.05 15.3L40.09 15.33L40.15 15.39L40.18 15.42L40.21 15.46L40.25 15.54L40.26 15.59L40.28 15.64L40.29 15.7L40.3 15.75L40.31 15.8L40.31 15.87L40.31 15.94L40.31 16L40.3 16.07L40.29 16.13L40.28 16.2L40.22 16.4L40.19 16.46L40.15 16.53L40.12 16.6L40.08 16.67L40.03 16.74L39.98 16.8L39.88 16.94L39.75 17.07L39.62 17.21L39.46 17.35L39.37 17.41L39.29 17.49L39.14 17.59L38.99 17.7L38.83 17.8L38.67 17.9L38.5 17.99L38.32 18.08L38.14 18.16L37.95 18.23L37.76 18.31L37.55 18.38L37.34 18.44L37.13 18.5L36.91 18.55L36.68 18.6L36.21 18.69L35.96 18.72L35.71 18.75L35.45 18.77L35.19 18.79L34.92 18.8L34.64 18.81L34.36 18.81L33.88 18.81L33.41 18.78L32.96 18.74L32.54 18.67L32.13 18.6L31.75 18.51L31.39 18.4L31.05 18.27L30.74 18.12L30.44 17.96L30.17 17.78L29.91 17.58L29.69 17.37L29.48 17.14L29.29 16.89L29.13 16.63L28.99 16.34L28.86 16.05L28.76 15.73L28.69 15.39L28.63 15.04L28.6 14.67L28.59 14.28L28.59 9.57L28.6 9.43L28.61 9.31L28.62 9.18L28.64 9.05L28.66 8.92L28.7 8.79L28.73 8.67L28.77 8.55L28.81 8.43L28.86 8.31L28.91 8.19L29.03 7.96L29.09 7.85L29.16 7.73L29.24 7.63L29.32 7.52L29.4 7.42L29.49 7.31L29.68 7.11L29.78 7.01L29.91 6.88L30.21 6.64L30.36 6.53L30.53 6.42L30.7 6.32L30.87 6.23L31.05 6.14L31.24 6.06L31.43 5.98L31.63 5.91L31.84 5.85L32.05 5.79L32.27 5.74L32.5 5.69L32.72 5.65L32.96 5.62L33.2 5.58L33.44 5.56L33.69 5.54L33.95 5.53L34.21 5.52L34.48 5.52L34.95 5.53L35.42 5.56ZM33.38 7.16L32.97 7.23L32.58 7.33L32.2 7.46L31.83 7.61L31.48 7.79L31.16 8.04L30.89 8.3L30.66 8.58L30.47 8.88L30.34 9.19L30.26 9.51L30.23 9.86L30.23 10.82L38.42 10.82L38.33 9.84L38.08 9.01L37.65 8.32L37.05 7.79L36.29 7.41L35.34 7.18L34.23 7.11L33.8 7.12L33.38 7.16Z"/><path id="dgWzPGAFq" d="M107.21 5.56L107.64 5.61L108.06 5.69L108.45 5.78L108.82 5.9L109.17 6.04L109.5 6.2L109.81 6.38L110.1 6.59L110.36 6.81L110.6 7.05L110.82 7.32L111.03 7.6L111.2 7.91L111.36 8.24L111.5 8.59L111.61 8.96L111.71 9.35L111.78 9.76L111.83 10.2L111.86 10.65L111.87 11.12L111.87 11.24L111.86 11.35L111.85 11.45L111.84 11.55L111.82 11.65L111.8 11.74L111.77 11.83L111.75 11.91L111.72 11.98L111.68 12.06L111.64 12.12L111.59 12.18L111.54 12.24L111.44 12.34L111.31 12.41L111.18 12.46L111.1 12.48L111.02 12.49L110.94 12.5L102.02 12.51L102.02 14.27L102.03 14.51L102.05 14.75L102.09 14.98L102.15 15.2L102.22 15.4L102.3 15.6L102.41 15.77L102.52 15.95L102.66 16.1L102.81 16.26L102.98 16.39L103.16 16.52L103.35 16.63L103.57 16.74L103.8 16.83L104.04 16.92L104.3 16.98L104.58 17.05L104.88 17.1L105.19 17.13L105.51 17.16L105.85 17.18L106.21 17.19L106.34 17.19L106.47 17.18L106.6 17.18L106.85 17.17L106.97 17.16L107.09 17.15L107.31 17.13L107.43 17.12L107.54 17.1L107.85 17.06L108.05 17.02L108.24 16.98L108.33 16.95L108.42 16.93L108.51 16.9L108.59 16.87L108.72 16.83L108.76 16.81L108.82 16.79L108.87 16.77L108.93 16.74L108.98 16.72L109.05 16.69L109.11 16.66L109.25 16.59L109.32 16.55L109.39 16.51L109.47 16.46L109.55 16.42L109.63 16.37L109.72 16.32L109.81 16.27L109.9 16.21L109.99 16.15L110.19 16.02L110.29 15.95L110.4 15.88L110.46 15.82L110.53 15.76L110.58 15.71L110.65 15.66L110.7 15.61L110.76 15.57L110.87 15.48L110.92 15.45L110.97 15.41L111.01 15.38L111.06 15.35L111.1 15.32L111.14 15.3L111.18 15.27L111.25 15.24L111.28 15.23L111.34 15.21L111.37 15.2L111.39 15.2L111.48 15.2L111.53 15.2L111.59 15.21L111.68 15.23L111.73 15.24L111.77 15.26L111.81 15.28L111.85 15.3L111.88 15.33L111.94 15.39L111.97 15.42L112 15.46L112.04 15.54L112.05 15.59L112.07 15.64L112.09 15.75L112.1 15.8L112.1 15.87L112.1 16L112.09 16.07L112.08 16.13L112.07 16.2L112.05 16.27L112.03 16.34L112.01 16.4L111.98 16.46L111.94 16.53L111.91 16.6L111.82 16.74L111.77 16.8L111.72 16.87L111.61 17.01L111.4 17.21L111.17 17.41L111.08 17.49L110.78 17.7L110.63 17.8L110.46 17.9L110.29 17.99L110.11 18.08L109.93 18.16L109.74 18.23L109.54 18.31L109.34 18.38L109.13 18.44L108.92 18.5L108.7 18.55L108.47 18.6L108.24 18.64L108 18.69L107.75 18.72L107.5 18.75L107.24 18.77L106.98 18.79L106.43 18.81L106.15 18.81L105.66 18.81L105.2 18.78L104.75 18.74L104.32 18.67L103.93 18.6L103.54 18.51L103.18 18.4L102.85 18.27L102.52 18.12L102.23 17.96L101.96 17.78L101.71 17.58L101.48 17.37L101.26 17.14L101.08 16.89L100.91 16.63L100.77 16.34L100.65 16.05L100.55 15.73L100.47 15.39L100.42 15.04L100.38 14.67L100.37 14.28L100.37 9.7L100.38 9.57L100.38 9.43L100.4 9.31L100.41 9.18L100.43 9.05L100.48 8.79L100.52 8.67L100.56 8.55L100.6 8.43L100.65 8.31L100.7 8.19L100.81 7.96L100.88 7.85L100.95 7.73L101.02 7.63L101.11 7.52L101.19 7.42L101.28 7.31L101.47 7.11L101.57 7.01L101.71 6.88L101.85 6.76L102 6.64L102.15 6.53L102.32 6.42L102.49 6.32L102.66 6.23L102.85 6.14L103.03 6.06L103.22 5.98L103.42 5.91L103.84 5.79L104.06 5.74L104.28 5.69L104.51 5.65L104.74 5.62L104.99 5.58L105.23 5.56L105.48 5.54L105.74 5.53L106 5.52L106.27 5.52L106.75 5.53L107.21 5.56ZM105.17 7.16L104.76 7.23L104.37 7.33L103.99 7.46L103.62 7.61L103.28 7.79L102.94 8.04L102.65 8.3L102.42 8.58L102.25 8.88L102.12 9.19L102.05 9.51L102.02 9.86L102.02 10.82L110.21 10.82L110.12 9.84L109.87 9.01L109.44 8.32L108.84 7.79L108.08 7.41L107.13 7.18L106.02 7.11L105.59 7.12L105.17 7.16Z"/><path id="a39KL8ABZG" d="M203.57 0.17C203.45 0.29 203.33 0.46 203.33 0.62C203.33 0.91 203.67 1.31 204.3 1.95C206.93 4.48 208.25 7.57 208.24 11.3C208.23 15.43 206.84 18.75 204.14 21.31C203.57 21.82 203.34 22.22 203.34 22.56C203.34 22.73 203.46 22.9 203.57 23.07C203.68 23.19 203.91 23.3 204.08 23.3C204.7 23.3 205.58 22.57 206.72 21.13C208.94 18.41 209.94 15.4 210 11.31C210.05 7.21 208.77 4.43 206.25 1.56C205.35 0.53 204.59 0 204.08 0C203.91 0 203.73 0.06 203.57 0.17Z"/><path id="a4e1yNy6hF" d="M124.75 1.76C125.89 2.62 126.48 3.83 126.48 5.31C126.48 5.99 126.19 6.33 125.62 6.33C125.23 6.33 124.94 5.99 124.77 5.31C124.66 4.74 124.43 4.23 124.15 3.69C123.63 2.79 122.54 2.37 120.83 2.37C119.34 2.37 118.31 2.71 117.69 3.45C117.12 4.13 116.78 5.17 116.78 6.71C116.78 7.3 116.78 12.06 116.78 12.66C116.78 14.21 117.12 15.29 117.75 15.97C118.43 16.71 119.47 17.1 120.95 17.1C123.18 17.1 124.49 16.31 124.77 14.76C124.89 14.19 124.94 13.9 124.94 13.85C125.06 13.51 125.29 13.34 125.62 13.34C126.19 13.34 126.48 13.68 126.48 14.36C126.48 15.8 125.91 16.88 124.7 17.74C123.73 18.36 122.52 18.7 120.93 18.7C119.09 18.7 117.67 18.3 116.63 17.45C115.47 16.65 114.9 15.29 114.9 13.51C114.9 13.51 114.9 13.51 114.9 13.51C114.9 13.51 114.9 13.51 114.9 13.51C114.9 9.22 114.9 6.83 114.9 6.35C114.9 2.58 116.85 0.74 120.85 0.74C122.46 0.74 123.71 1.08 124.75 1.76Z"/><path id="a8BKscd4Et" d="M14.21 6.57C14.21 6.01 14.55 5.78 15.23 5.78C15.56 5.78 18.21 5.78 18.55 5.78C19.12 5.78 19.4 6.29 19.4 7.22C20.42 6.14 21.52 5.49 22.66 5.49C23.62 5.49 24.38 5.78 24.89 6.35C25.46 6.92 25.69 7.73 25.69 8.64C25.69 9.27 25.4 9.61 24.89 9.61C24.55 9.61 24.32 9.38 24.21 8.98C23.98 8.18 23.87 7.79 23.81 7.73C23.59 7.34 23.13 7.11 22.56 7.11C21.94 7.11 21.31 7.34 20.78 7.79C20.44 8.02 19.98 8.53 19.4 9.28C19.4 9.8 19.4 12.35 19.4 16.95C21.25 16.95 22.28 16.95 22.48 16.95C23.16 16.95 23.51 17.24 23.51 17.75C23.51 18.32 23.16 18.61 22.48 18.61C21.75 18.61 15.89 18.61 15.15 18.61C14.47 18.61 14.13 18.32 14.13 17.81C14.13 17.24 14.47 17.01 15.15 17.01C15.32 17.01 16.16 17.01 17.67 17.01C17.67 17.01 17.67 16.98 17.67 16.94C17.67 16.94 17.68 16.94 17.69 16.94C17.69 11.2 17.69 8.01 17.69 7.37C16.16 7.37 15.34 7.37 15.23 7.37C14.55 7.37 14.21 7.09 14.21 6.57Z"/><path id="a1x7Vy22vm" d="M96.68 0.04L96.74 0.06L96.8 0.09L96.85 0.12L96.91 0.16L96.95 0.2L97.04 0.29L97.07 0.35L97.11 0.41L97.14 0.48L97.16 0.55L97.2 0.71L97.24 0.89L97.25 1.09L97.25 1.19L97.25 18.03L97.25 18.11L97.24 18.18L97.24 18.25L97.2 18.38L97.19 18.43L97.16 18.49L97.14 18.54L97.08 18.63L97.01 18.71L96.96 18.74L96.92 18.77L96.87 18.8L96.82 18.82L96.77 18.84L96.71 18.86L96.59 18.88L96.52 18.89L96.41 18.89L96.28 18.87L96.24 18.86L96.2 18.84L96.16 18.83L96.13 18.81L96.1 18.8L96.07 18.77L96.04 18.75L95.98 18.7L95.96 18.67L95.89 18.55L95.88 18.51L95.86 18.46L95.85 18.42L95.83 18.37L95.83 18.32L95.83 18.24L95.83 18.2L95.83 18.16L95.82 18.12L95.82 18.08L95.81 18.04L95.81 18L95.81 17.96L95.8 17.91L95.8 17.87L95.8 17.82L95.79 17.73L95.79 17.67L95.78 17.63L95.78 17.57L95.78 17.46L95.77 17.4L95.77 17.27L95.64 17.36L95.51 17.44L95.38 17.53L95.14 17.67L95.03 17.75L94.91 17.82L94.7 17.94L94.6 18L94.51 18.06L94.41 18.11L94.16 18.25L94.09 18.29L94.02 18.33L93.88 18.39L93.76 18.44L93.71 18.46L93.62 18.5L93.53 18.53L93.44 18.55L93.25 18.61L92.95 18.67L92.85 18.69L92.64 18.72L92.42 18.75L92.31 18.77L92.08 18.79L91.96 18.79L91.84 18.8L91.73 18.8L91.61 18.81L91.15 18.81L90.94 18.8L90.74 18.79L90.54 18.77L90.35 18.76L90.15 18.73L89.97 18.71L89.6 18.64L89.26 18.56L89.08 18.51L88.92 18.46L88.76 18.41L88.44 18.29L88.29 18.22L88.14 18.16L88 18.08L87.86 18L87.72 17.92L87.59 17.84L87.45 17.74L87.17 17.52L87.05 17.41L86.93 17.28L86.82 17.16L86.71 17.03L86.61 16.89L86.52 16.75L86.35 16.46L86.28 16.31L86.21 16.15L86.15 15.99L86.1 15.83L86.05 15.65L86.01 15.47L85.98 15.3L85.96 15.11L85.93 14.92L85.92 14.73L85.92 9.52L85.93 9.33L85.96 9.15L85.98 8.97L86.01 8.79L86.05 8.62L86.09 8.45L86.14 8.29L86.2 8.13L86.26 7.98L86.34 7.83L86.41 7.68L86.5 7.54L86.59 7.4L86.69 7.27L86.79 7.14L86.89 7.02L87.01 6.9L87.13 6.78L87.39 6.56L87.53 6.46L87.66 6.38L87.79 6.3L87.92 6.22L88.07 6.15L88.21 6.08L88.35 6.01L88.66 5.89L88.81 5.84L89.14 5.74L89.47 5.66L89.65 5.63L89.83 5.6L90.01 5.57L90.19 5.54L90.56 5.51L90.75 5.5L90.94 5.49L91.39 5.49L91.64 5.51L91.76 5.51L91.89 5.51L92.01 5.53L92.13 5.54L92.24 5.55L92.35 5.56L92.57 5.6L92.68 5.61L92.89 5.65L92.99 5.67L93.08 5.69L93.36 5.77L93.45 5.8L93.54 5.84L93.62 5.87L93.71 5.9L93.79 5.94L93.88 5.97L93.97 6.01L94.07 6.06L94.24 6.15L94.53 6.31L94.62 6.36L94.91 6.55L95.11 6.69L95.2 6.76L95.3 6.84L95.4 6.92L95.6 7.08L95.6 1.19L95.61 1.09L95.61 0.89L95.65 0.71L95.66 0.63L95.69 0.55L95.71 0.48L95.74 0.41L95.77 0.35L95.81 0.29L95.85 0.25L95.89 0.2L95.93 0.16L95.98 0.12L96.03 0.09L96.08 0.06L96.14 0.04L96.27 0.01L96.33 0L96.47 0L96.54 0.01L96.68 0.04ZM90.98 7.23L90.72 7.26L90.46 7.28L90.21 7.33L89.97 7.38L89.74 7.43L89.53 7.51L89.32 7.59L89.13 7.68L88.95 7.78L88.75 7.93L88.55 8.09L88.38 8.26L88.23 8.43L88.09 8.62L87.98 8.82L87.88 9.02L87.8 9.25L87.75 9.48L87.71 9.71L87.7 9.97L87.7 14.49L87.71 14.75L87.74 15L87.79 15.23L87.86 15.46L87.95 15.67L88.07 15.87L88.2 16.06L88.36 16.23L88.53 16.39L88.73 16.53L88.95 16.67L89.14 16.76L89.35 16.84L89.56 16.92L89.78 16.99L90 17.05L90.24 17.11L90.49 17.15L90.75 17.19L91.02 17.22L91.3 17.23L91.58 17.24L92.05 17.23L92.27 17.21L92.49 17.19L92.92 17.13L93.13 17.09L93.33 17.03L93.52 16.97L93.71 16.91L93.88 16.84L94.02 16.74L94.18 16.63L94.33 16.52L94.49 16.4L94.66 16.28L94.82 16.15L95 16.02L95.17 15.87L95.35 15.72L95.53 15.56L95.71 15.4L95.71 8.81L95.5 8.65L95.29 8.51L95.09 8.37L94.89 8.24L94.7 8.12L94.52 8.01L94.35 7.9L94.19 7.81L94.04 7.74L93.89 7.67L93.76 7.61L93.57 7.54L93.38 7.48L93.19 7.42L92.99 7.37L92.79 7.33L92.59 7.29L92.38 7.26L92.17 7.24L91.96 7.23L91.53 7.22L91.25 7.22L90.98 7.23Z"/><path id="b1rLfWrhq8" d="M195.66 12.04C194.67 11.79 198.72 7.01 191.53 1.29C191.53 1.29 192.47 4.29 187.72 10.98C182.96 17.66 189.83 21.64 189.83 21.64C189.83 21.64 186.61 19.92 190.36 13.8C191.03 12.69 191.91 11.69 193 9.42C193 9.42 193.96 10.79 193.46 13.74C192.71 18.21 196.73 16.93 196.79 16.99C198.2 18.64 195.63 21.55 195.47 21.64C195.31 21.73 202.81 17.14 197.48 10.22C197.12 10.58 196.65 12.3 195.66 12.04Z"/><path id="cFpq4XqFH" d="M135.26 5.37L135.45 5.38L135.63 5.4L135.81 5.41L135.99 5.43L136.16 5.45L136.33 5.47L136.49 5.49L136.65 5.53L136.8 5.55L136.94 5.59L137.09 5.62L137.23 5.66L137.37 5.7L137.5 5.74L137.63 5.78L137.75 5.83L137.87 5.88L137.99 5.93L138.11 5.99L138.22 6.04L138.32 6.1L138.43 6.16L138.55 6.24L138.65 6.33L138.76 6.42L138.86 6.52L138.96 6.62L139.05 6.73L139.14 6.84L139.22 6.96L139.3 7.08L139.37 7.2L139.44 7.33L139.51 7.46L139.63 7.75L139.68 7.89L139.72 8.04L139.77 8.2L139.81 8.35L139.84 8.52L139.86 8.68L139.88 8.86L139.9 9.04L139.91 9.22L139.93 9.4L139.93 15.5L139.93 15.58L139.93 15.66L139.94 15.8L139.95 15.94L139.96 16.01L139.97 16.07L139.98 16.13L140 16.19L140.01 16.25L140.04 16.36L140.06 16.41L140.12 16.55L140.15 16.59L140.17 16.63L140.2 16.67L140.26 16.74L140.33 16.81L140.34 16.82L140.36 16.83L140.36 16.84L140.39 16.84L140.4 16.86L140.45 16.88L140.47 16.89L140.52 16.91L140.55 16.93L140.59 16.94L140.7 16.98L140.82 17.03L140.87 17.05L140.92 17.07L140.96 17.08L141.01 17.1L141.06 17.13L141.12 17.15L141.15 17.16L141.22 17.19L141.24 17.21L141.27 17.23L141.32 17.27L141.34 17.29L141.36 17.32L141.38 17.34L141.4 17.37L141.42 17.4L141.45 17.46L141.46 17.5L141.47 17.53L141.48 17.57L141.49 17.61L141.49 17.65L141.5 17.69L141.51 17.74L141.51 17.79L141.52 17.84L141.52 18.05L141.5 18.1L141.5 18.14L141.49 18.19L141.48 18.23L141.46 18.27L141.45 18.31L141.43 18.34L141.4 18.38L141.35 18.44L141.33 18.47L141.29 18.49L141.18 18.55L141.1 18.59L141.05 18.6L141 18.61L140.9 18.62L140.84 18.62L140.73 18.62L140.71 18.62L140.7 18.62L140.67 18.61L140.65 18.61L140.63 18.61L140.53 18.59L140.5 18.57L140.47 18.57L140.44 18.56L140.41 18.55L140.3 18.52L140.26 18.51L140.22 18.5L140.18 18.49L140.13 18.48L140.09 18.47L140.04 18.45L139.89 18.4L139.83 18.38L139.76 18.36L139.69 18.33L139.57 18.29L139.51 18.27L139.45 18.25L139.4 18.23L139.35 18.21L139.3 18.2L139.26 18.18L139.21 18.17L139.17 18.16L139.13 18.14L139.1 18.13L139.03 18.11L138.96 18.08L138.93 18.07L138.92 18.06L138.9 18.05L138.87 18.05L138.83 18.05L138.8 18.03L138.77 18.02L138.73 18.01L138.71 17.99L138.68 17.97L138.65 17.95L138.62 17.92L138.6 17.89L138.57 17.86L138.55 17.83L138.53 17.79L138.5 17.75L138.48 17.71L138.47 17.67L138.44 17.63L138.42 17.58L138.39 17.49L138.33 17.28L138.31 17.22L138.08 17.38L137.86 17.53L137.76 17.6L137.56 17.72L137.46 17.79L137.29 17.9L137.12 18.01L137.04 18.05L136.97 18.1L136.83 18.18L136.76 18.22L136.7 18.26L136.54 18.34L136.49 18.36L136.4 18.4L136.36 18.41L136.3 18.45L136.23 18.47L136.08 18.52L135.84 18.58L135.76 18.6L135.68 18.62L135.6 18.63L135.42 18.66L135.33 18.67L135.24 18.69L134.96 18.72L134.86 18.73L134.76 18.74L134.66 18.74L134.55 18.75L134.45 18.75L133.96 18.75L133.8 18.75L133.64 18.74L133.33 18.72L133.03 18.69L132.88 18.67L132.73 18.64L132.45 18.59L132.18 18.53L132.04 18.49L131.91 18.45L131.79 18.41L131.66 18.36L131.42 18.27L131.3 18.21L131.19 18.16L131.08 18.1L130.97 18.03L130.86 17.97L130.76 17.9L130.64 17.82L130.52 17.74L130.3 17.55L130.2 17.45L130.11 17.35L130.01 17.25L129.93 17.14L129.85 17.03L129.77 16.92L129.7 16.8L129.63 16.68L129.57 16.56L129.51 16.43L129.46 16.31L129.41 16.18L129.33 15.91L129.3 15.77L129.27 15.63L129.23 15.33L129.21 15.03L129.21 14.71L129.22 14.56L129.23 14.4L129.25 14.26L129.3 13.96L129.37 13.68L129.42 13.54L129.53 13.28L129.59 13.15L129.65 13.02L129.8 12.78L129.88 12.67L129.96 12.56L130.05 12.45L130.15 12.34L130.25 12.24L130.35 12.14L130.46 12.05L130.69 11.87L130.82 11.79L131.04 11.63L131.15 11.55L131.39 11.42L131.65 11.29L131.78 11.24L132.04 11.13L132.18 11.08L132.46 11L132.6 10.96L132.75 10.93L132.89 10.89L133.04 10.87L133.19 10.84L133.35 10.82L133.5 10.81L133.66 10.79L133.82 10.78L133.98 10.77L134.14 10.76L134.44 10.76L134.57 10.77L134.71 10.77L135 10.79L135.14 10.81L135.29 10.83L135.43 10.85L135.59 10.87L135.73 10.89L135.88 10.93L136.04 10.95L136.19 10.98L136.51 11.06L137 11.18L137.16 11.23L137.33 11.28L137.5 11.33L137.67 11.38L137.85 11.44L138.03 11.5L138.2 11.56L138.2 9.55L138.2 9.43L138.19 9.32L138.18 9.22L138.17 9.1L138.15 9.01L138.13 8.9L138.09 8.8L138.06 8.7L138.03 8.61L137.98 8.52L137.94 8.43L137.83 8.27L137.77 8.18L137.71 8.11L137.64 8.03L137.49 7.89L137.41 7.82L137.23 7.7L137.13 7.64L137.03 7.59L136.93 7.54L136.82 7.48L136.75 7.45L136.59 7.39L136.25 7.28L135.99 7.22L135.89 7.2L135.8 7.19L135.7 7.17L135.61 7.16L135.51 7.15L135.31 7.13L135.21 7.11L135.11 7.11L135 7.1L134.9 7.09L134.79 7.09L134.69 7.09L134.22 7.09L133.97 7.1L133.73 7.11L133.5 7.13L133.29 7.16L133.08 7.19L132.88 7.22L132.69 7.26L132.52 7.31L132.35 7.37L132.19 7.42L132.04 7.49L131.9 7.56L131.77 7.63L131.65 7.72L131.53 7.8L131.43 7.9L131.34 8L131.25 8.11L131.17 8.22L131.11 8.33L131.05 8.46L131 8.59L130.96 8.73L130.93 8.87L130.92 8.94L130.9 9L130.88 9.11L130.86 9.22L130.84 9.31L130.83 9.36L130.82 9.4L130.81 9.43L130.81 9.47L130.8 9.5L130.79 9.53L130.78 9.59L130.77 9.63L130.77 9.65L130.76 9.67L130.76 9.68L130.76 9.69L130.76 9.72L130.74 9.75L130.71 9.82L130.7 9.84L130.65 9.9L130.64 9.92L130.61 9.94L130.59 9.96L130.56 9.99L130.54 10L130.52 10.02L130.49 10.03L130.46 10.05L130.43 10.06L130.4 10.07L130.37 10.08L130.33 10.09L130.3 10.1L130.27 10.11L130.23 10.11L130.19 10.11L130.16 10.12L130.01 10.12L129.95 10.11L129.82 10.09L129.76 10.08L129.61 10.02L129.56 9.99L129.51 9.96L129.47 9.92L129.43 9.89L129.35 9.81L129.32 9.76L129.27 9.67L129.24 9.61L129.23 9.55L129.21 9.49L129.19 9.43L129.18 9.37L129.18 9.3L129.17 9.22L129.17 9.05L129.18 8.95L129.18 8.85L129.2 8.75L129.21 8.65L129.25 8.45L129.3 8.25L129.33 8.15L129.36 8.06L129.4 7.96L129.44 7.86L129.49 7.76L129.58 7.57L129.76 7.29L129.82 7.2L129.89 7.11L130.11 6.84L130.19 6.75L130.29 6.64L130.51 6.44L130.63 6.35L130.89 6.17L131.03 6.09L131.18 6.01L131.34 5.93L131.49 5.87L131.66 5.8L131.84 5.74L132.02 5.69L132.21 5.64L132.4 5.59L132.6 5.55L132.81 5.51L133.02 5.47L133.46 5.42L133.69 5.4L133.92 5.38L134.16 5.37L134.41 5.37L134.66 5.36L134.86 5.36L135.06 5.37L135.26 5.37ZM132.85 12.68L132.17 12.92L131.63 13.27L131.25 13.71L131.02 14.25L130.95 14.89L130.97 15.23L131.03 15.54L131.14 15.84L131.29 16.11L131.49 16.36L131.74 16.56L132.03 16.73L132.28 16.86L132.56 16.98L132.86 17.07L133.18 17.15L133.52 17.2L133.88 17.23L134.26 17.24L134.6 17.23L134.92 17.21L135.24 17.17L135.55 17.1L135.85 17.03L136.15 16.92L136.44 16.79L136.64 16.67L136.86 16.52L137.11 16.36L137.37 16.18L137.65 15.97L137.95 15.75L138.26 15.52L138.26 13.11L137.72 12.95L137.19 12.81L136.66 12.7L136.14 12.61L135.63 12.54L135.14 12.5L134.66 12.49L133.68 12.54L132.85 12.68Z"/><path id="bOvGZE4Te" d="M0.97 5.8C1.09 5.8 1.7 5.8 2.81 5.8C2.81 4.83 2.81 4.3 2.81 4.19C2.81 1.39 4.25 0 7.05 0C8.19 0 9.17 0.23 9.91 0.63C10.87 1.2 11.41 2.13 11.41 3.21C11.41 3.94 11.12 4.23 10.61 4.23C10.27 4.23 9.93 4 9.75 3.6C9.53 2.87 9.3 2.47 9.19 2.28C8.85 1.88 8.16 1.65 7.18 1.65C5.46 1.65 4.61 2.5 4.61 4.23C4.61 4.33 4.61 4.85 4.61 5.78C6.6 5.78 7.7 5.78 7.92 5.78C8.66 5.78 9 6.07 9 6.57C9 7.14 8.66 7.37 7.92 7.37C7.7 7.37 6.6 7.37 4.61 7.37C4.61 13.66 4.61 17.15 4.61 17.85C4.61 18.47 4.32 18.81 3.81 18.81C3.24 18.81 3.01 18.47 3.01 17.85C3.01 17.15 3.01 13.68 3.01 7.39C3.01 7.39 1.07 7.39 0.97 7.39C0.34 7.39 0 7.11 0 6.6C0 6.02 0.34 5.8 0.97 5.8Z"/><path id="i1diQmUsMz" d="M78.8 5.55L79.41 5.63L79.97 5.75L80.49 5.9L80.97 6.08L81.4 6.3L81.78 6.55L82.12 6.84L82.41 7.16L82.66 7.51L82.87 7.9L83.03 8.32L83.14 8.77L83.21 9.26L83.23 9.77L83.23 14.48L83.21 15L83.14 15.48L83.03 15.94L82.88 16.36L82.68 16.74L82.44 17.09L82.15 17.41L81.82 17.7L81.44 17.95L81.02 18.17L80.55 18.36L80.04 18.51L79.49 18.62L78.89 18.71L78.25 18.76L77.57 18.78L76.85 18.77L76.17 18.73L75.54 18.65L74.96 18.54L74.43 18.39L73.95 18.21L73.52 17.99L73.13 17.74L72.79 17.45L72.49 17.13L72.24 16.77L72.03 16.39L71.88 15.96L71.77 15.5L71.7 15.01L71.68 14.48L71.68 9.77L71.7 9.26L71.77 8.77L71.88 8.32L72.04 7.9L72.24 7.51L72.5 7.16L72.79 6.84L73.13 6.55L73.52 6.3L73.95 6.08L74.42 5.9L74.94 5.75L75.5 5.63L76.11 5.55L76.76 5.49L77.46 5.48L78.15 5.49L78.8 5.55ZM76.13 7.16L75.6 7.26L75.13 7.39L74.71 7.56L74.34 7.77L74.03 8.01L73.78 8.29L73.58 8.61L73.44 8.96L73.35 9.35L73.33 9.77L73.33 14.48L73.35 14.9L73.44 15.29L73.58 15.65L73.79 15.96L74.05 16.24L74.36 16.48L74.73 16.68L75.16 16.85L75.65 16.97L76.2 17.06L76.8 17.1L77.46 17.1L78.1 17.1L78.69 17.06L79.23 16.98L79.71 16.86L80.13 16.7L80.5 16.5L80.81 16.27L81.07 15.99L81.27 15.67L81.41 15.31L81.5 14.91L81.53 14.48L81.53 9.77L81.5 9.35L81.41 8.96L81.27 8.61L81.07 8.29L80.8 8.01L80.49 7.77L80.11 7.56L79.67 7.39L79.18 7.26L78.63 7.16L78.01 7.11L77.34 7.09L76.71 7.11L76.13 7.16Z"/><path id="h3m8hqQlYO" d="M181.88 0.18C182 0.29 182.11 0.46 182.11 0.63C182.11 0.92 181.77 1.31 181.14 1.95C178.52 4.48 177.2 7.57 177.21 11.31C177.22 15.43 178.61 18.75 181.31 21.32C181.87 21.82 182.11 22.22 182.11 22.56C182.11 22.73 181.99 22.91 181.88 23.07C181.77 23.19 181.54 23.31 181.37 23.31C180.74 23.31 179.87 22.57 178.73 21.13C176.51 18.41 175.51 15.41 175.45 11.31C175.4 7.21 176.68 4.43 179.2 1.56C180.1 0.54 180.86 0 181.37 0C181.54 0 181.71 0.06 181.88 0.18Z"/><path id="i4GONwpx3k" d="M149.59 6.94C150.04 6.37 150.44 6.02 150.84 5.86C151.23 5.63 151.8 5.52 152.44 5.52C154.4 5.52 155.42 6.48 155.42 8.37C155.42 9.3 155.42 16.73 155.42 17.66C155.42 18.45 155.14 18.8 154.57 18.8C154 18.8 153.77 18.45 153.77 17.66C153.77 16.79 153.77 9.83 153.77 8.96C153.77 7.77 153.26 7.13 152.28 7.13C151.54 7.13 150.78 7.58 150.16 8.45C150.16 9.38 150.16 16.81 150.16 17.74C150.16 18.53 149.87 18.87 149.36 18.87C148.85 18.87 148.56 18.53 148.56 17.74C148.56 16.88 148.56 10.01 148.56 9.15C148.56 7.82 148 7.2 146.95 7.2C146.27 7.2 145.63 7.66 144.95 8.53C144.95 9.45 144.95 16.83 144.95 17.75C144.95 18.55 144.66 18.89 144.09 18.89C143.52 18.89 143.3 18.55 143.3 17.75C143.3 16.61 143.3 7.5 143.3 6.37C143.3 5.8 143.52 5.57 143.98 5.57C144.21 5.57 144.43 5.74 144.55 6.08C144.66 6.23 144.72 6.52 144.72 6.86C144.72 6.86 144.72 6.86 144.72 6.86C144.72 6.86 144.72 6.86 144.72 6.86C145.25 6.29 145.59 5.95 145.74 5.83C146.08 5.61 146.54 5.49 147.18 5.49C148.09 5.49 148.9 5.95 149.59 6.94Z"/><path id="etFoQckmu" d="M49.79 5.56L50.23 5.61L50.64 5.69L51.04 5.78L51.41 5.9L51.76 6.04L52.09 6.2L52.4 6.38L52.68 6.59L52.95 6.81L53.19 7.05L53.41 7.32L53.61 7.6L53.79 7.91L53.95 8.24L54.08 8.59L54.19 8.96L54.29 9.35L54.36 9.76L54.42 10.2L54.45 10.65L54.46 11.12L54.46 11.24L54.45 11.35L54.44 11.45L54.41 11.65L54.39 11.74L54.36 11.83L54.34 11.91L54.26 12.06L54.23 12.12L54.18 12.18L54.13 12.24L54.08 12.29L54.02 12.34L53.97 12.37L53.9 12.41L53.83 12.44L53.76 12.46L53.69 12.48L53.61 12.49L53.52 12.5L44.63 12.5L44.63 12.43L44.61 12.43L44.61 14.27L44.62 14.51L44.64 14.75L44.68 14.98L44.74 15.2L44.8 15.4L44.89 15.6L44.99 15.77L45.11 15.95L45.25 16.1L45.4 16.26L45.56 16.39L45.74 16.52L45.94 16.63L46.16 16.74L46.38 16.83L46.63 16.92L46.89 16.98L47.17 17.05L47.46 17.1L47.77 17.13L48.1 17.16L48.44 17.18L48.8 17.19L48.93 17.19L49.06 17.18L49.18 17.18L49.31 17.17L49.43 17.17L49.55 17.16L49.67 17.15L49.9 17.13L50.01 17.12L50.13 17.1L50.44 17.06L50.54 17.04L50.63 17.02L50.73 17L50.82 16.98L50.92 16.95L51.01 16.93L51.09 16.9L51.17 16.87L51.26 16.84L51.3 16.83L51.35 16.81L51.41 16.79L51.46 16.77L51.51 16.74L51.57 16.72L51.63 16.69L51.7 16.66L51.84 16.59L51.91 16.55L51.98 16.51L52.06 16.46L52.14 16.42L52.22 16.37L52.31 16.32L52.4 16.27L52.48 16.21L52.67 16.08L52.77 16.02L52.88 15.95L52.98 15.88L53.11 15.76L53.24 15.66L53.29 15.61L53.35 15.57L53.4 15.53L53.46 15.48L53.55 15.41L53.64 15.35L53.69 15.32L53.73 15.3L53.77 15.27L53.84 15.24L53.87 15.23L53.9 15.22L53.93 15.21L53.98 15.2L54.07 15.2L54.17 15.21L54.22 15.22L54.27 15.23L54.32 15.24L54.36 15.26L54.43 15.3L54.47 15.33L54.53 15.39L54.56 15.42L54.59 15.46L54.63 15.54L54.64 15.59L54.65 15.64L54.67 15.7L54.67 15.75L54.68 15.8L54.68 15.87L54.69 15.94L54.68 16L54.68 16.07L54.67 16.13L54.66 16.2L54.59 16.4L54.56 16.46L54.53 16.53L54.5 16.6L54.41 16.74L54.36 16.8L54.25 16.94L54.13 17.07L53.99 17.21L53.83 17.35L53.75 17.41L53.67 17.49L53.52 17.59L53.37 17.7L53.21 17.8L53.05 17.9L52.88 17.99L52.7 18.08L52.52 18.16L52.33 18.23L52.13 18.31L51.93 18.38L51.72 18.44L51.5 18.5L51.28 18.55L51.06 18.6L50.59 18.69L50.34 18.72L50.09 18.75L49.83 18.77L49.57 18.79L49.02 18.81L48.74 18.81L48.25 18.81L47.78 18.78L47.34 18.74L46.91 18.67L46.51 18.6L46.13 18.51L45.77 18.4L45.43 18.27L45.11 18.12L44.82 17.96L44.55 17.78L44.29 17.58L44.06 17.37L43.85 17.14L43.66 16.89L43.5 16.63L43.36 16.34L43.24 16.05L43.14 15.73L43.06 15.39L43 15.04L42.97 14.67L42.96 14.28L42.96 9.57L42.97 9.43L42.98 9.31L43 9.18L43.02 9.05L43.04 8.92L43.07 8.79L43.1 8.67L43.15 8.55L43.19 8.43L43.23 8.31L43.29 8.19L43.4 7.96L43.47 7.85L43.54 7.73L43.61 7.63L43.69 7.52L43.78 7.42L43.87 7.31L44.05 7.11L44.15 7.01L44.29 6.88L44.58 6.64L44.74 6.53L44.9 6.42L45.07 6.32L45.25 6.23L45.43 6.14L45.62 6.06L45.81 5.98L46.01 5.91L46.22 5.85L46.43 5.79L46.65 5.74L46.87 5.69L47.1 5.65L47.33 5.62L47.57 5.58L47.81 5.56L48.07 5.54L48.33 5.53L48.59 5.52L48.85 5.52L49.33 5.53L49.79 5.56ZM47.75 7.16L47.35 7.23L46.95 7.33L46.57 7.46L46.21 7.61L45.86 7.79L45.52 8.04L45.24 8.3L45.01 8.58L44.84 8.88L44.71 9.19L44.63 9.51L44.61 9.86L44.61 10.82L52.79 10.82L52.71 9.84L52.45 9.01L52.03 8.32L51.43 7.79L50.66 7.41L49.72 7.18L48.61 7.11L48.17 7.12L47.75 7.16Z"/><path id="h9xJji9hf" d="M67.34 1.76C68.48 2.62 69.07 3.83 69.07 5.31C69.07 5.99 68.78 6.33 68.21 6.33C67.81 6.33 67.53 5.99 67.36 5.31C67.24 4.74 67.02 4.23 66.74 3.69C66.22 2.79 65.13 2.37 63.42 2.37C61.92 2.37 60.9 2.71 60.28 3.45C59.71 4.13 59.36 5.17 59.36 6.71C59.36 7.3 59.36 12.06 59.36 12.66C59.36 14.21 59.71 15.29 60.33 15.97C61.01 16.71 62.06 17.1 63.54 17.1C65.77 17.1 67.08 16.31 67.36 14.76C67.47 14.19 67.53 13.9 67.53 13.85C67.64 13.51 67.87 13.34 68.21 13.34C68.78 13.34 69.07 13.68 69.07 14.36C69.07 15.8 68.49 16.88 67.28 17.74C66.32 18.36 65.1 18.7 63.51 18.7C61.68 18.7 60.26 18.3 59.21 17.45C58 16.65 57.49 15.29 57.49 13.51C57.49 13.51 57.49 13.51 57.49 13.51C57.49 13.51 57.49 13.51 57.49 13.51C57.49 9.22 57.49 6.83 57.49 6.35C57.49 2.58 59.42 0.74 63.44 0.74C65.05 0.74 66.3 1.08 67.34 1.76Z"/><path id="d13fhg61s8" d="M158.79 5.43L158.82 5.44L158.88 5.46L158.91 5.47L158.94 5.49L158.97 5.5L159 5.53L159.03 5.55L159.06 5.57L159.09 5.6L159.12 5.62L159.17 5.69L159.22 5.76L159.25 5.8L159.28 5.84L159.3 5.89L159.32 5.93L159.33 5.97L159.35 6.06L159.36 6.1L159.38 6.14L159.39 6.19L159.4 6.23L159.42 6.27L159.43 6.32L159.48 6.44L159.5 6.49L159.53 6.57L159.54 6.62L159.55 6.66L159.57 6.74L159.59 6.78L159.6 6.82L159.61 6.86L159.86 6.74L160.35 6.51L160.59 6.4L160.82 6.3L161.05 6.21L161.28 6.12L161.5 6.04L161.71 5.96L161.92 5.89L162.12 5.83L162.32 5.76L162.52 5.71L162.9 5.62L163.09 5.58L163.26 5.55L163.43 5.52L163.6 5.5L163.76 5.49L163.92 5.48L164.08 5.48L164.54 5.49L164.98 5.52L165.41 5.56L165.8 5.62L166.18 5.71L166.54 5.81L166.87 5.93L167.18 6.07L167.47 6.22L167.74 6.39L167.99 6.59L168.21 6.79L168.42 7.02L168.6 7.26L168.76 7.52L168.9 7.8L169.02 8.1L169.11 8.41L169.19 8.74L169.25 9.09L169.28 9.45L169.29 9.83L169.29 14.59L169.28 14.78L169.27 14.96L169.26 15.13L169.23 15.31L169.21 15.48L169.17 15.64L169.13 15.8L169.08 15.96L169.03 16.11L168.97 16.26L168.91 16.41L168.83 16.55L168.76 16.69L168.67 16.83L168.58 16.96L168.49 17.08L168.39 17.21L168.28 17.33L168.16 17.45L168.05 17.57L167.92 17.68L167.79 17.79L167.67 17.88L167.55 17.97L167.42 18.05L167.29 18.13L167.15 18.2L167.02 18.27L166.87 18.34L166.72 18.4L166.57 18.45L166.25 18.56L165.92 18.64L165.75 18.68L165.57 18.71L165.39 18.74L165.03 18.78L164.84 18.8L164.64 18.81L164.45 18.81L164.01 18.81L163.77 18.8L163.53 18.78L163.3 18.77L163.07 18.74L162.84 18.71L162.62 18.67L162.18 18.58L161.97 18.52L161.76 18.47L161.55 18.4L161.34 18.32L161.14 18.24L160.94 18.16L160.74 18.06L160.55 17.96L160.35 17.86L160.16 17.75L159.97 17.63L159.79 17.5L159.61 17.37L159.61 22.86L159.6 22.96L159.59 23.06L159.58 23.15L159.56 23.24L159.54 23.32L159.52 23.4L159.5 23.48L159.47 23.55L159.43 23.62L159.4 23.67L159.36 23.73L159.32 23.78L159.28 23.83L159.23 23.87L159.18 23.91L159.12 23.93L159.07 23.96L159.01 23.98L158.95 23.99L158.88 24L158.74 24L158.68 24L158.61 23.98L158.56 23.96L158.5 23.94L158.39 23.88L158.35 23.84L158.3 23.8L158.26 23.75L158.22 23.7L158.18 23.64L158.15 23.58L158.13 23.51L158.1 23.43L158.08 23.35L158.06 23.27L158.04 23.17L158.03 23.08L158.02 22.97L158.02 22.87L158.02 6.56L158.02 6.46L158.03 6.37L158.04 6.27L158.05 6.18L158.06 6.1L158.08 6.02L158.11 5.95L158.13 5.87L158.18 5.75L158.22 5.69L158.25 5.64L158.29 5.59L158.33 5.56L158.38 5.52L158.42 5.49L158.47 5.46L158.58 5.43L158.64 5.42L158.73 5.42L158.76 5.43L158.79 5.43ZM163.28 7.17L163.05 7.19L162.82 7.21L162.6 7.24L162.39 7.27L162.18 7.32L161.99 7.37L161.8 7.42L161.62 7.49L161.44 7.56L161.29 7.63L161.13 7.71L160.98 7.81L160.81 7.92L160.65 8.04L160.48 8.18L160.31 8.33L160.13 8.49L159.95 8.67L159.75 8.86L159.55 9.06L159.55 15.6L159.61 15.6L159.61 15.57L160.08 15.85L160.53 16.1L160.98 16.34L161.4 16.53L161.81 16.71L162.21 16.85L162.59 16.97L162.95 17.06L163.3 17.13L163.64 17.17L163.96 17.19L164.24 17.18L164.51 17.17L164.77 17.14L165.01 17.11L165.26 17.07L165.49 17.02L165.71 16.96L165.92 16.89L166.12 16.81L166.31 16.72L166.48 16.62L166.69 16.49L166.87 16.34L167.04 16.19L167.18 16.03L167.3 15.86L167.4 15.67L167.48 15.48L167.54 15.28L167.59 15.06L167.61 14.84L167.62 14.61L167.62 9.86L167.61 9.58L167.58 9.32L167.53 9.09L167.46 8.86L167.37 8.65L167.26 8.45L167.12 8.27L166.97 8.1L166.79 7.95L166.59 7.8L166.37 7.68L166.19 7.59L166 7.5L165.8 7.44L165.59 7.37L165.37 7.32L165.13 7.27L164.89 7.23L164.63 7.2L164.36 7.18L164.08 7.17L163.79 7.16L163.54 7.17L163.28 7.17Z"/></defs><g><g><g><g><use fill="#0a0a23" fill-opacity="1" opacity="1" xlink:href="#e4l9HamqM"/><g><use fill-opacity="0" stroke="#000" stroke-opacity="0" stroke-width="1" opacity="1" xlink:href="#e4l9HamqM"/></g></g><g><use fill="#0a0a23" fill-opacity="1" opacity="1" xlink:href="#dgWzPGAFq"/><g><use fill-opacity="0" stroke="#000" stroke-opacity="0" stroke-width="1" opacity="1" xlink:href="#dgWzPGAFq"/></g></g><g><use fill="#0a0a23" fill-opacity="1" opacity="1" xlink:href="#a39KL8ABZG"/><g><use fill-opacity="0" stroke="#000" stroke-opacity="0" stroke-width="1" opacity="1" xlink:href="#a39KL8ABZG"/></g></g><g><use fill="#0a0a23" fill-opacity="1" opacity="1" xlink:href="#a4e1yNy6hF"/><g><use fill-opacity="0" stroke="#000" stroke-opacity="0" stroke-width="1" opacity="1" xlink:href="#a4e1yNy6hF"/></g></g><g><use fill="#0a0a23" fill-opacity="1" opacity="1" xlink:href="#a8BKscd4Et"/><g><use fill-opacity="0" stroke="#000" stroke-opacity="0" stroke-width="1" opacity="1" xlink:href="#a8BKscd4Et"/></g></g><g><use fill="#0a0a23" fill-opacity="1" opacity="1" xlink:href="#a1x7Vy22vm"/><g><use fill-opacity="0" stroke="#000" stroke-opacity="0" stroke-width="1" opacity="1" xlink:href="#a1x7Vy22vm"/></g></g><g><use fill="#0a0a23" fill-opacity="1" opacity="1" xlink:href="#b1rLfWrhq8"/><g><use fill-opacity="0" stroke="#000" stroke-opacity="0" stroke-width="1" opacity="1" xlink:href="#b1rLfWrhq8"/></g></g><g><use fill="#0a0a23" fill-opacity="1" opacity="1" xlink:href="#cFpq4XqFH"/><g><use fill-opacity="0" stroke="#000" stroke-opacity="0" stroke-width="1" opacity="1" xlink:href="#cFpq4XqFH"/></g></g><g><use fill="#0a0a23" fill-opacity="1" opacity="1" xlink:href="#bOvGZE4Te"/><g><use fill-opacity="0" stroke="#000" stroke-opacity="0" stroke-width="1" opacity="1" xlink:href="#bOvGZE4Te"/></g></g><g><use fill="#0a0a23" fill-opacity="1" opacity="1" xlink:href="#i1diQmUsMz"/><g><use fill-opacity="0" stroke="#000" stroke-opacity="0" stroke-width="1" opacity="1" xlink:href="#i1diQmUsMz"/></g></g><g><use fill="#0a0a23" fill-opacity="1" opacity="1" xlink:href="#h3m8hqQlYO"/><g><use fill-opacity="0" stroke="#000" stroke-opacity="0" stroke-width="1" opacity="1" xlink:href="#h3m8hqQlYO"/></g></g><g><use fill="#0a0a23" fill-opacity="1" opacity="1" xlink:href="#i4GONwpx3k"/><g><use fill-opacity="0" stroke="#000" stroke-opacity="0" stroke-width="1" opacity="1" xlink:href="#i4GONwpx3k"/></g></g><g><use fill="#0a0a23" fill-opacity="1" opacity="1" xlink:href="#etFoQckmu"/><g><use fill-opacity="0" stroke="#000" stroke-opacity="0" stroke-width="1" opacity="1" xlink:href="#etFoQckmu"/></g></g><g><use fill="#0a0a23" fill-opacity="1" opacity="1" xlink:href="#h9xJji9hf"/><g><use fill-opacity="0" stroke="#000" stroke-opacity="0" stroke-width="1" opacity="1" xlink:href="#h9xJji9hf"/></g></g><g><use fill="#0a0a23" fill-opacity="1" opacity="1" xlink:href="#d13fhg61s8"/><g><use fill-opacity="0" stroke="#000" stroke-opacity="0" stroke-width="1" opacity="1" xlink:href="#d13fhg61s8"/></g></g></g></g></g></svg>