<?xml version="1.0" standalone="no"?>
<!DOCTYPE svg PUBLIC "-//W3C//DTD SVG 20010904//EN"
 "http://www.w3.org/TR/2001/REC-SVG-20010904/DTD/svg10.dtd">
<svg version="1.0" xmlns="http://www.w3.org/2000/svg"
 width="707.000000pt" height="707.000000pt" viewBox="0 0 707.000000 707.000000"
 preserveAspectRatio="xMidYMid meet">
<metadata>
Created by potrace 1.11, written by Peter Selinger 2001-2013
</metadata>
<g transform="translate(0.000000,707.000000) scale(0.100000,-0.100000)"
fill="#000000" stroke="none">
<path d="M1105 5825 c-83 -42 -180 -121 -289 -236 -74 -78 -213 -243 -256
-305 -140 -200 -176 -259 -257 -420 -151 -297 -250 -642 -280 -970 -15 -161
-8 -546 11 -694 2 -14 6 -50 10 -80 30 -232 116 -559 196 -745 83 -192 171
-353 279 -510 81 -118 242 -314 340 -414 157 -159 247 -216 343 -216 69 0 103
22 135 85 46 89 16 146 -180 342 -242 244 -377 429 -518 707 -102 203 -196
502 -229 729 -5 37 -12 76 -14 87 -14 71 -21 224 -20 450 1 210 6 284 22 385
22 133 30 175 38 202 3 9 6 25 8 35 14 73 64 225 113 343 33 81 121 260 132
270 4 3 15 21 25 40 75 139 231 331 440 544 145 147 201 218 213 265 8 34 -24
90 -66 115 -56 32 -119 29 -196 -9z"/>
<path d="M5804 5826 c-17 -8 -44 -31 -60 -52 -24 -30 -29 -47 -28 -89 0 -68
35 -123 151 -237 197 -193 287 -301 409 -484 213 -323 330 -646 398 -1104 34
-224 27 -661 -14 -875 -14 -75 -19 -102 -25 -132 -3 -16 -8 -35 -11 -43 -3 -8
-8 -26 -10 -39 -19 -97 -151 -429 -210 -528 -10 -17 -34 -57 -52 -87 -61 -105
-197 -288 -287 -385 -42 -46 -142 -146 -246 -246 -71 -69 -119 -138 -119 -172
0 -40 26 -89 60 -113 70 -50 184 -22 313 77 94 72 256 239 351 361 11 15 24
32 29 37 83 107 199 282 252 380 21 39 48 88 60 110 109 201 231 584 260 820
4 28 8 57 10 65 23 86 23 612 1 740 -2 14 -7 49 -10 79 -4 30 -9 64 -11 75 -2
12 -6 35 -9 51 -87 569 -391 1169 -801 1581 -114 115 -221 194 -290 213 -51
14 -73 13 -111 -3z"/>
<path d="M2801 5553 c-29 -24 -20 -48 28 -73 53 -27 136 -111 186 -189 87
-134 120 -301 91 -454 -36 -185 -125 -366 -351 -712 -225 -343 -305 -484 -361
-635 -20 -52 -37 -101 -39 -110 -2 -8 -9 -37 -15 -65 -12 -52 -15 -210 -6
-280 30 -223 129 -444 274 -607 79 -89 148 -149 262 -227 144 -99 407 -210
464 -195 55 14 30 64 -43 84 -48 13 -146 77 -187 122 -124 136 -193 327 -194
531 -1 99 1 116 25 186 34 105 162 254 299 351 28 19 60 47 113 94 175 157
214 397 88 533 -52 55 -58 89 -20 99 14 3 37 3 52 -1 43 -10 128 -72 186 -135
123 -132 164 -265 131 -420 -49 -227 31 -381 199 -383 116 -1 207 62 207 144
0 20 -13 81 -28 136 -16 55 -27 104 -24 111 5 15 70 -13 106 -46 55 -52 129
-188 151 -277 81 -335 2 -570 -285 -854 -51 -51 -90 -98 -90 -109 0 -30 36
-55 75 -54 42 2 95 27 195 95 206 138 363 314 469 525 23 44 41 86 41 94 0 8
4 18 9 24 12 13 59 201 68 277 13 98 6 363 -11 474 -8 56 -27 144 -42 195 -34
122 -128 314 -200 408 -115 151 -334 356 -430 403 -86 41 -96 -4 -30 -126 129
-238 114 -402 -40 -437 -56 -13 -107 3 -143 46 -39 49 -73 156 -111 354 -38
199 -38 199 -45 230 -4 14 -8 35 -11 48 -26 124 -104 302 -178 406 -42 59
-141 162 -199 207 -45 34 -186 112 -257 141 -59 25 -179 59 -255 73 -89 16
-101 16 -124 -2z"/>
<path d="M1873 1757 c-167 -34 -203 -267 -56 -358 l38 -24 1682 0 1681 0 37
30 c46 37 84 103 91 158 9 71 -34 144 -109 184 -30 16 -145 17 -1679 18 -905
0 -1664 -3 -1685 -8z"/>
</g>
</svg>
