<svg xmlns="http://www.w3.org/2000/svg" xmlns:xlink="http://www.w3.org/1999/xlink" width="592" height="212" preserveAspectRatio="xMidYMid meet" version="1.1" viewBox="0 0 592 212"><defs><path id="beshhowX9" d="M76.72 39.62L77.07 39.65L77.42 39.69L77.77 39.74L78.14 39.81L78.5 39.89L78.83 39.97L79.15 40.05L79.47 40.14L79.78 40.25L80.08 40.36L80.38 40.48L80.67 40.61L80.95 40.75L81.23 40.89L81.5 41.05L81.76 41.21L82.01 41.38L82.26 41.56L82.5 41.75L82.73 41.94L82.96 42.14L83.18 42.35L83.39 42.56L83.59 42.79L83.78 43.01L83.96 43.25L84.14 43.49L84.31 43.74L84.47 44L84.62 44.26L84.76 44.52L84.89 44.8L85.02 45.08L85.13 45.36L85.24 45.65L85.33 45.94L85.42 46.24L85.5 46.55L85.56 46.86L85.62 47.18L85.67 47.49L85.7 47.82L85.73 48.15L85.74 48.48L85.75 48.82L85.76 49.64L85.76 50.47L85.77 51.3L85.78 52.13L85.78 52.96L85.79 53.79L85.79 54.61L85.8 55.44L85.8 56.27L85.81 57.1L85.81 57.93L85.82 58.76L85.82 59.59L85.82 60.42L85.83 61.26L85.83 62.09L85.83 62.92L85.84 63.75L85.84 64.58L85.84 65.41L85.84 66.24L85.84 67.07L85.85 67.9L85.85 68.73L85.85 69.56L85.85 70.4L85.85 71.23L85.85 72.06L85.85 72.89L85.85 73.72L85.85 74.55L85.85 75.38L85.85 76.21L85.85 77.03L85.85 77.86L85.85 78.69L85.85 79.52L85.85 80.35L85.85 81.18L85.85 82L85.85 122.44L85.85 122.58L85.86 122.73L85.86 122.86L85.87 123L85.88 123.13L85.89 123.25L85.91 123.37L85.93 123.49L85.95 123.6L85.97 123.7L85.99 123.81L86.02 123.9L86.06 124L86.09 124.09L86.13 124.17L86.17 124.25L86.22 124.33L86.27 124.4L86.32 124.47L86.38 124.54L86.44 124.6L86.51 124.66L86.57 124.71L86.65 124.76L86.73 124.8L86.81 124.85L86.89 124.88L86.99 124.92L87.08 124.95L87.18 124.98L87.29 125L87.4 125.02L87.52 125.04L87.64 125.05L87.76 125.06L87.9 125.07L88.03 125.07L88.18 125.07L88.32 125.07L88.48 125.06L88.69 125.05L88.9 125.03L89.12 125.02L89.33 125.01L89.54 125L89.76 124.99L89.97 124.98L90.18 124.97L90.39 124.96L90.61 124.96L90.82 124.95L91.03 124.95L91.25 124.95L91.46 124.94L91.67 124.94L91.89 124.94L92.1 124.94L92.32 124.94L92.53 124.94L92.75 124.94L92.96 124.95L93.18 124.95L93.39 124.95L93.61 124.96L93.82 124.96L94.04 124.97L94.25 124.97L94.47 124.98L94.69 124.98L94.9 124.99L95.12 124.99L95.34 125L95.56 125.01L95.77 125.02L95.99 125.02L96.21 125.03L96.43 125.04L96.65 125.05L96.87 125.05L97.09 125.06L97.49 125.08L97.88 125.1L98.27 125.15L98.65 125.2L99.03 125.26L99.39 125.34L99.76 125.43L100.11 125.54L100.46 125.65L100.8 125.78L101.13 125.91L101.45 126.06L101.77 126.22L102.08 126.39L102.37 126.57L102.66 126.76L102.95 126.96L103.22 127.17L103.48 127.39L103.73 127.62L103.98 127.86L104.21 128.11L104.43 128.37L104.65 128.63L104.85 128.91L105.04 129.19L105.22 129.48L105.39 129.78L105.54 130.08L105.69 130.39L105.82 130.71L105.94 131.04L106.05 131.37L106.14 131.72L106.23 132.06L106.3 132.41L106.35 132.77L106.39 133.14L106.42 133.51L106.44 133.88L106.44 134.25L106.43 134.61L106.4 134.97L106.36 135.32L106.3 135.67L106.24 136.01L106.16 136.34L106.06 136.67L105.96 136.99L105.84 137.3L105.71 137.61L105.57 137.91L105.41 138.2L105.25 138.48L105.07 138.76L104.88 139.03L104.68 139.29L104.47 139.55L104.25 139.79L104.02 140.03L103.78 140.26L103.53 140.47L103.27 140.68L103 140.89L102.72 141.08L102.43 141.26L102.13 141.43L101.82 141.59L101.51 141.75L101.18 141.89L100.85 142.02L100.51 142.14L100.16 142.25L99.8 142.35L99.44 142.44L99.07 142.52L98.69 142.58L98.3 142.63L97.91 142.68L97.51 142.71L97.31 142.71L97.1 142.72L96.9 142.73L96.69 142.74L96.48 142.74L96.28 142.75L96.07 142.76L95.86 142.77L95.65 142.77L95.45 142.78L95.24 142.79L95.03 142.79L94.82 142.8L94.61 142.8L94.41 142.81L94.2 142.81L93.99 142.82L93.78 142.82L93.57 142.82L93.36 142.82L93.15 142.83L92.95 142.83L92.74 142.83L92.53 142.83L92.32 142.83L92.11 142.82L91.9 142.82L91.69 142.82L91.49 142.81L91.28 142.81L91.07 142.8L90.86 142.8L90.66 142.79L90.45 142.78L90.24 142.77L90.04 142.76L89.83 142.75L89.62 142.73L89.42 142.72L89.21 142.71L89.04 142.69L88.86 142.68L88.7 142.67L88.54 142.67L88.38 142.67L88.23 142.68L88.09 142.69L87.95 142.7L87.81 142.72L87.69 142.74L87.56 142.77L87.45 142.8L87.33 142.83L87.23 142.87L87.12 142.92L87.03 142.97L86.93 143.02L86.84 143.08L86.76 143.15L86.68 143.22L86.61 143.29L86.54 143.37L86.47 143.46L86.41 143.55L86.35 143.65L86.3 143.75L86.25 143.86L86.21 143.98L86.16 144.1L86.13 144.23L86.09 144.36L86.07 144.5L86.04 144.65L86.02 144.8L86 144.96L85.98 145.12L85.97 145.3L85.97 145.48L85.96 145.66L85.96 145.86L85.97 146.59L85.97 147.32L85.98 148.05L85.99 148.79L85.99 149.52L86 150.25L86 150.98L86.01 151.72L86.01 152.45L86.02 153.18L86.02 153.91L86.03 154.65L86.03 155.38L86.03 156.11L86.03 156.84L86.03 157.58L86.04 158.31L86.04 159.04L86.04 159.77L86.04 160.51L86.04 161.24L86.04 161.97L86.04 162.7L86.03 163.44L86.03 164.17L86.03 164.9L86.03 165.63L86.03 166.37L86.02 167.1L86.02 167.83L86.01 168.56L86.01 169.3L86 170.03L86 170.76L85.99 171.49L85.99 172.23L85.98 172.96L85.97 173.69L85.97 174.42L85.96 175.16L85.95 175.49L85.94 175.83L85.91 176.16L85.87 176.48L85.82 176.81L85.75 177.13L85.68 177.44L85.6 177.75L85.5 178.06L85.4 178.36L85.29 178.65L85.16 178.94L85.03 179.23L84.89 179.5L84.73 179.78L84.57 180.05L84.4 180.31L84.23 180.56L84.04 180.81L83.85 181.05L83.64 181.29L83.43 181.51L83.21 181.73L82.99 181.95L82.75 182.15L82.51 182.35L82.27 182.54L82.01 182.72L81.75 182.89L81.48 183.06L81.21 183.21L80.93 183.36L80.65 183.5L80.36 183.63L80.06 183.75L79.76 183.85L79.45 183.95L79.14 184.04L78.82 184.12L78.5 184.19L78.05 184.27L77.59 184.34L77.14 184.38L76.7 184.41L76.26 184.41L75.82 184.4L75.39 184.37L74.96 184.32L74.54 184.25L74.13 184.16L73.72 184.06L73.32 183.94L72.93 183.8L72.54 183.65L72.16 183.48L71.8 183.3L71.44 183.09L71.09 182.88L70.76 182.65L70.43 182.4L70.11 182.14L69.81 181.87L69.52 181.59L69.24 181.29L68.97 180.97L68.72 180.65L68.48 180.31L68.26 179.96L68.05 179.6L67.85 179.23L67.68 178.84L67.51 178.45L67.37 178.04L67.24 177.63L67.13 177.21L67.03 176.77L66.96 176.33L66.9 175.88L66.86 175.42L66.84 174.95L66.84 174.22L66.83 173.5L66.82 172.77L66.82 172.05L66.81 171.32L66.81 170.6L66.81 169.87L66.8 169.15L66.8 168.42L66.8 167.7L66.8 166.97L66.8 166.25L66.8 165.52L66.8 164.8L66.8 164.07L66.8 163.35L66.8 162.62L66.8 161.89L66.8 161.17L66.81 160.44L66.81 159.71L66.81 158.99L66.81 158.26L66.81 157.53L66.82 156.81L66.82 156.08L66.82 155.35L66.83 154.62L66.83 153.89L66.83 153.16L66.83 152.43L66.83 151.7L66.84 150.97L66.84 150.24L66.84 149.51L66.84 148.78L66.84 148.05L66.84 147.32L66.84 146.59L66.84 145.86L66.83 145.79L66.82 145.71L66.8 145.64L66.79 145.57L66.78 145.5L66.76 145.43L66.75 145.36L66.74 145.29L66.73 145.22L66.72 145.14L66.71 145.07L66.71 145L66.7 144.93L66.69 144.85L66.69 144.78L66.68 144.71L66.67 144.64L66.67 144.56L66.67 144.49L66.66 144.41L66.66 144.34L66.65 144.26L66.65 144.19L66.65 144.11L66.65 144.03L66.64 143.96L66.64 143.88L66.64 143.8L66.64 143.72L66.64 143.64L66.64 143.56L66.64 143.48L66.64 143.4L66.64 143.32L66.64 143.23L66.64 143.15L66.64 143.07L66.63 142.98L66.63 142.9L66.63 142.81L66.53 142.8L66.43 142.8L66.33 142.79L66.23 142.78L66.13 142.78L66.03 142.77L65.94 142.76L65.84 142.76L65.74 142.75L65.65 142.75L65.55 142.75L65.46 142.74L65.37 142.74L65.27 142.73L65.18 142.73L65.09 142.73L65 142.73L64.91 142.72L64.82 142.72L64.73 142.72L64.64 142.72L64.56 142.72L64.47 142.71L64.38 142.71L64.3 142.71L64.21 142.71L64.13 142.71L64.04 142.71L63.96 142.71L63.87 142.71L63.79 142.71L63.71 142.71L63.63 142.71L63.54 142.71L63.46 142.71L63.38 142.71L63.3 142.71L63.22 142.71L63.06 142.71L61.77 142.71L60.48 142.71L59.19 142.71L57.9 142.71L56.61 142.71L55.31 142.71L54.02 142.71L52.73 142.7L51.44 142.7L50.15 142.7L48.85 142.7L47.56 142.7L46.27 142.7L44.98 142.7L43.69 142.7L42.4 142.7L41.1 142.7L39.81 142.7L38.52 142.69L37.23 142.69L35.94 142.69L34.65 142.69L33.35 142.69L32.06 142.68L30.77 142.68L29.48 142.68L28.19 142.67L26.89 142.67L25.6 142.67L24.31 142.66L23.02 142.66L21.73 142.65L20.44 142.65L19.14 142.64L17.85 142.64L16.56 142.63L15.27 142.62L13.98 142.62L12.69 142.61L11.39 142.6L11.24 142.6L11.09 142.6L10.94 142.6L10.79 142.59L10.64 142.59L10.48 142.58L10.33 142.58L10.18 142.57L10.02 142.56L9.87 142.55L9.71 142.54L9.56 142.53L9.4 142.52L9.25 142.5L9.09 142.48L8.94 142.47L8.78 142.45L8.63 142.43L8.48 142.4L8.32 142.38L8.17 142.35L8.02 142.32L7.86 142.29L7.71 142.26L7.56 142.23L7.41 142.19L7.26 142.15L7.11 142.11L6.96 142.07L6.82 142.02L6.67 141.98L6.52 141.93L6.38 141.88L6.24 141.82L6.1 141.77L5.96 141.71L5.82 141.65L5.68 141.58L5.54 141.51L5.41 141.45L4.96 141.21L4.53 140.96L4.12 140.7L3.73 140.42L3.36 140.14L3.01 139.84L2.68 139.53L2.36 139.2L2.07 138.87L1.79 138.53L1.54 138.18L1.3 137.82L1.08 137.45L0.89 137.07L0.71 136.68L0.55 136.29L0.41 135.89L0.29 135.49L0.2 135.08L0.12 134.66L0.06 134.24L0.02 133.81L0 133.38L0 132.95L0.02 132.51L0.06 132.07L0.12 131.63L0.21 131.18L0.31 130.74L0.43 130.3L0.57 129.85L0.74 129.4L0.92 128.96L1.12 128.52L1.35 128.07L1.59 127.63L1.86 127.2L2.15 126.76L2.45 126.33L2.78 125.9L3.29 125.26L3.81 124.61L4.32 123.96L4.83 123.32L5.34 122.67L5.85 122.03L6.37 121.38L6.88 120.74L7.39 120.09L7.9 119.45L8.41 118.8L8.93 118.15L9.44 117.51L9.95 116.86L10.46 116.22L10.97 115.57L11.49 114.93L12 114.29L12.51 113.64L13.02 113L13.53 112.35L14.05 111.71L14.56 111.07L15.07 110.42L15.58 109.78L16.09 109.14L16.61 108.5L17.12 107.85L17.63 107.21L18.14 106.57L18.65 105.93L19.17 105.29L19.68 104.65L20.19 104.01L20.7 103.37L21.21 102.73L21.73 102.09L22.24 101.45L22.75 100.81L23.26 100.17L24.36 98.79L25.47 97.4L26.57 96.01L27.67 94.63L28.77 93.25L29.88 91.86L30.98 90.48L32.08 89.09L33.19 87.71L34.29 86.33L35.39 84.94L36.49 83.56L37.6 82.18L38.7 80.79L39.8 79.41L40.9 78.03L42.01 76.65L43.11 75.26L44.21 73.88L46.42 71.12L47.52 69.73L48.62 68.35L49.73 66.97L50.83 65.59L51.93 64.2L53.03 62.82L54.14 61.44L55.24 60.06L56.34 58.67L57.45 57.29L58.55 55.91L59.65 54.52L60.75 53.14L61.86 51.75L62.96 50.37L64.06 48.98L65.16 47.6L66.27 46.21L67.37 44.83L67.58 44.56L67.8 44.3L68.02 44.04L68.24 43.79L68.46 43.54L68.69 43.3L68.91 43.06L69.14 42.83L69.38 42.61L69.61 42.39L69.85 42.17L70.09 41.97L70.34 41.77L70.59 41.58L70.84 41.39L71.09 41.21L71.35 41.04L71.61 40.88L71.88 40.73L72.15 40.59L72.42 40.45L72.7 40.32L72.98 40.21L73.27 40.1L73.56 40L73.85 39.92L74.15 39.84L74.46 39.77L74.77 39.72L75.08 39.67L75.4 39.64L75.72 39.62L76.05 39.61L76.38 39.61L76.72 39.62ZM63.32 76.6L62.03 78.25L60.74 79.91L59.45 81.56L58.15 83.22L56.86 84.87L55.57 86.53L54.28 88.18L52.99 89.84L51.69 91.49L50.4 93.15L49.1 94.81L47.81 96.46L46.51 98.12L45.22 99.78L43.92 101.44L42.63 103.1L41.33 104.77L40.03 106.43L38.73 108.09L37.43 109.76L36.13 111.43L34.82 113.1L33.52 114.77L32.22 116.45L30.91 118.12L29.6 119.8L28.3 121.48L26.99 123.17L25.68 124.85L66.42 124.85L66.42 73.5L66.4 73.49L66.39 73.48L66.37 73.47L66.35 73.46L66.33 73.45L66.31 73.45L66.3 73.44L66.28 73.43L66.26 73.43L66.25 73.42L66.23 73.42L66.22 73.41L66.2 73.4L66.17 73.39L66.14 73.38L66.12 73.38L66.11 73.37L66.09 73.37L66.08 73.36L66.06 73.36L66.05 73.35L66.03 73.34L66.01 73.34L65.99 73.33L65.98 73.32L65.96 73.31L65.94 73.31L65.92 73.3L65.9 73.29L64.61 74.94L63.32 76.6Z"/><path id="a1p7EfWTqL" d="M562.71 39.59L563.06 39.62L563.42 39.67L563.78 39.73L564.15 39.8L564.52 39.89L564.84 39.97L565.14 40.06L565.45 40.16L565.74 40.27L566.03 40.39L566.32 40.51L566.6 40.65L566.87 40.79L567.14 40.94L567.4 41.09L567.65 41.25L567.9 41.42L568.14 41.6L568.37 41.79L568.6 41.98L568.82 42.18L569.03 42.38L569.23 42.6L569.43 42.82L569.62 43.04L569.8 43.27L569.97 43.51L570.14 43.75L570.29 44L570.44 44.26L570.58 44.52L570.71 44.79L570.84 45.06L570.95 45.34L571.05 45.62L571.15 45.91L571.23 46.2L571.31 46.5L571.37 46.8L571.43 47.11L571.48 47.42L571.51 47.74L571.54 48.06L571.56 48.38L571.56 48.71L571.57 49.43L571.58 50.15L571.58 50.86L571.59 51.58L571.6 52.3L571.6 53.02L571.61 53.74L571.61 54.46L571.62 55.18L571.62 55.9L571.63 56.62L571.63 57.34L571.63 58.06L571.64 58.78L571.64 59.5L571.64 60.22L571.65 60.94L571.65 61.66L571.65 62.38L571.65 63.1L571.65 63.82L571.66 64.54L571.66 65.26L571.66 65.98L571.66 66.7L571.66 67.42L571.66 68.14L571.66 68.86L571.66 69.58L571.66 70.3L571.66 71.02L571.67 71.74L571.67 72.46L571.67 73.18L571.67 73.9L571.67 74.62L571.67 75.34L571.67 76.05L571.67 76.77L571.67 77.49L571.67 125.06L571.96 125.06L572.26 125.06L572.56 125.06L572.85 125.06L573.15 125.06L573.44 125.06L573.73 125.05L574.03 125.05L574.32 125.05L574.61 125.05L574.89 125.04L575.18 125.04L575.47 125.04L575.75 125.04L576.04 125.03L576.32 125.03L576.61 125.03L576.89 125.03L577.17 125.02L577.46 125.02L577.74 125.02L578.02 125.02L578.3 125.02L578.58 125.02L578.86 125.02L579.14 125.02L579.41 125.02L579.69 125.02L579.97 125.02L580.25 125.02L580.52 125.02L580.8 125.02L581.08 125.02L581.35 125.03L581.63 125.03L581.91 125.04L582.18 125.04L582.46 125.05L582.73 125.05L583.01 125.06L583.45 125.08L583.89 125.11L584.32 125.16L584.74 125.23L585.15 125.32L585.55 125.42L585.94 125.53L586.33 125.66L586.7 125.81L587.06 125.97L587.41 126.14L587.75 126.33L588.08 126.54L588.4 126.75L588.71 126.98L589 127.22L589.28 127.47L589.56 127.74L589.81 128.02L590.06 128.3L590.29 128.6L590.51 128.91L590.71 129.23L590.9 129.56L591.08 129.9L591.24 130.25L591.39 130.6L591.52 130.97L591.64 131.34L591.74 131.72L591.82 132.11L591.89 132.51L591.94 132.91L591.98 133.32L592 133.73L592 134.15L591.98 134.58L591.95 135.01L591.9 135.44L591.83 135.88L591.78 136.15L591.72 136.41L591.65 136.67L591.57 136.93L591.48 137.18L591.38 137.43L591.28 137.68L591.16 137.92L591.04 138.16L590.91 138.39L590.77 138.62L590.63 138.85L590.47 139.07L590.31 139.28L590.14 139.49L589.97 139.7L589.78 139.9L589.59 140.09L589.4 140.28L589.19 140.46L588.98 140.64L588.77 140.81L588.54 140.97L588.31 141.13L588.08 141.28L587.84 141.42L587.59 141.56L587.34 141.68L587.09 141.81L586.82 141.92L586.56 142.03L586.29 142.12L586.01 142.21L585.73 142.29L585.44 142.37L585.15 142.43L584.86 142.49L584.56 142.53L584.26 142.57L583.95 142.6L583.71 142.62L583.46 142.63L583.22 142.64L582.97 142.66L582.73 142.67L582.48 142.68L582.24 142.69L581.99 142.7L581.74 142.71L581.5 142.72L581.25 142.73L581 142.74L580.75 142.74L580.51 142.75L580.26 142.75L580.01 142.76L579.76 142.76L579.51 142.77L579.27 142.77L579.02 142.77L578.77 142.77L578.52 142.77L578.27 142.77L578.03 142.77L577.78 142.77L577.53 142.77L577.28 142.77L577.03 142.77L576.79 142.77L576.54 142.76L576.29 142.76L576.05 142.76L575.8 142.75L575.55 142.75L575.31 142.74L575.06 142.73L574.82 142.73L574.57 142.72L574.33 142.71L574.08 142.71L573.93 142.7L573.79 142.7L573.66 142.7L573.53 142.7L573.4 142.71L573.28 142.72L573.16 142.73L573.05 142.75L572.95 142.77L572.85 142.79L572.75 142.82L572.66 142.85L572.57 142.88L572.49 142.92L572.41 142.96L572.33 143L572.26 143.05L572.19 143.1L572.13 143.16L572.07 143.22L572.02 143.28L571.97 143.35L571.92 143.42L571.87 143.49L571.83 143.57L571.79 143.65L571.76 143.74L571.73 143.83L571.7 143.92L571.67 144.02L571.65 144.12L571.63 144.23L571.61 144.34L571.6 144.45L571.59 144.57L571.58 144.69L571.57 144.82L571.57 144.95L571.56 145.09L571.56 145.23L571.57 145.97L571.58 146.71L571.58 147.45L571.59 148.19L571.6 148.93L571.6 149.67L571.61 150.41L571.61 151.15L571.62 151.89L571.62 152.63L571.62 153.37L571.63 154.11L571.63 154.85L571.63 155.59L571.63 156.33L571.64 157.07L571.64 157.81L571.64 158.55L571.64 159.29L571.64 160.03L571.64 160.77L571.64 161.52L571.64 162.26L571.64 163L571.63 163.74L571.63 164.48L571.63 165.22L571.63 165.96L571.62 166.7L571.62 167.44L571.62 168.18L571.61 168.92L571.61 169.66L571.6 170.4L571.6 171.14L571.59 171.88L571.58 172.62L571.58 173.36L571.57 174.1L571.56 174.84L571.54 175.34L571.5 175.83L571.45 176.31L571.37 176.78L571.27 177.24L571.15 177.69L571.02 178.12L570.87 178.55L570.7 178.96L570.51 179.36L570.31 179.75L570.09 180.12L569.86 180.48L569.61 180.83L569.34 181.16L569.07 181.48L568.77 181.79L568.47 182.08L568.15 182.35L567.82 182.61L567.48 182.86L567.12 183.09L566.76 183.3L566.38 183.49L566 183.67L565.6 183.83L565.19 183.97L564.78 184.1L564.36 184.21L563.93 184.29L563.49 184.36L563.04 184.41L562.59 184.44L562.13 184.45L561.67 184.45L561.2 184.42L560.72 184.36L560.24 184.29L559.76 184.2L559.27 184.08L558.98 184.01L558.7 183.92L558.42 183.82L558.14 183.71L557.86 183.59L557.6 183.46L557.33 183.32L557.07 183.17L556.82 183.01L556.57 182.85L556.32 182.67L556.09 182.48L555.85 182.29L555.63 182.08L555.41 181.87L555.19 181.66L554.98 181.43L554.78 181.2L554.59 180.96L554.4 180.71L554.22 180.46L554.05 180.2L553.89 179.93L553.73 179.66L553.58 179.38L553.44 179.1L553.31 178.81L553.19 178.52L553.07 178.23L552.97 177.93L552.87 177.62L552.78 177.31L552.71 177L552.64 176.68L552.58 176.37L552.53 176.05L552.5 175.72L552.47 175.4L552.45 175.07L552.45 174.74L552.44 174.02L552.43 173.3L552.43 172.59L552.42 171.87L552.42 171.15L552.41 170.43L552.41 169.71L552.41 168.99L552.4 168.27L552.4 167.55L552.4 166.83L552.4 166.11L552.4 165.39L552.4 164.67L552.4 163.95L552.4 163.23L552.4 162.51L552.4 161.79L552.41 161.07L552.41 160.35L552.41 159.63L552.41 158.91L552.41 158.19L552.42 157.47L552.42 156.75L552.42 156.03L552.42 155.31L552.43 154.59L552.43 153.87L552.43 153.15L552.43 152.43L552.44 151.71L552.44 150.99L552.44 150.27L552.44 149.55L552.44 148.83L552.45 148.11L552.45 147.4L552.45 146.68L552.45 145.96L552.45 142.81L552.35 142.8L552.24 142.8L552.15 142.79L552.05 142.78L551.95 142.77L551.85 142.76L551.76 142.76L551.57 142.74L551.48 142.73L551.39 142.73L551.29 142.72L551.21 142.71L551.12 142.7L551.03 142.7L550.94 142.69L550.85 142.68L550.77 142.68L550.68 142.67L550.6 142.67L550.51 142.66L550.43 142.65L550.34 142.65L550.26 142.64L550.18 142.64L550.1 142.63L550.02 142.63L549.94 142.63L549.85 142.62L549.77 142.62L549.69 142.62L549.61 142.61L549.53 142.61L549.46 142.61L549.38 142.61L549.3 142.6L549.22 142.6L549.14 142.6L549.06 142.6L548.98 142.6L547.69 142.6L546.4 142.6L545.11 142.6L543.81 142.6L542.52 142.6L541.23 142.6L539.94 142.6L538.65 142.6L537.36 142.6L536.06 142.6L534.77 142.6L533.48 142.6L532.19 142.6L530.9 142.6L529.61 142.6L528.31 142.59L527.02 142.59L525.73 142.59L524.44 142.59L523.15 142.59L521.85 142.59L520.56 142.58L519.27 142.58L517.98 142.58L516.69 142.58L515.4 142.57L514.1 142.57L512.81 142.56L511.52 142.56L510.23 142.56L508.94 142.55L507.65 142.55L506.35 142.54L505.06 142.54L503.77 142.53L502.48 142.52L501.19 142.52L499.89 142.51L498.6 142.5L497.31 142.5L497.16 142.5L497.01 142.49L496.86 142.49L496.71 142.49L496.55 142.49L496.4 142.48L496.25 142.47L496.09 142.47L495.94 142.46L495.78 142.45L495.63 142.44L495.48 142.43L495.32 142.41L495.17 142.4L495.01 142.38L494.86 142.37L494.7 142.35L494.55 142.33L494.39 142.31L494.24 142.29L494.09 142.26L493.93 142.24L493.78 142.21L493.63 142.18L493.48 142.15L493.33 142.11L493.18 142.08L493.03 142.04L492.88 142L492.73 141.96L492.59 141.92L492.44 141.88L492.3 141.83L492.15 141.78L492.01 141.73L491.87 141.68L491.73 141.62L491.6 141.57L491.46 141.51L491.32 141.45L490.88 141.22L490.46 140.98L490.06 140.72L489.67 140.45L489.3 140.17L488.95 139.88L488.62 139.57L488.31 139.26L488.01 138.93L487.74 138.59L487.48 138.24L487.24 137.89L487.02 137.52L486.82 137.15L486.63 136.77L486.47 136.38L486.33 135.99L486.2 135.58L486.09 135.18L486.01 134.76L485.94 134.35L485.89 133.92L485.87 133.5L485.86 133.07L485.87 132.63L485.9 132.2L485.95 131.76L486.03 131.32L486.12 130.88L486.23 130.44L486.36 130L486.52 129.56L486.69 129.12L486.88 128.68L487.1 128.25L487.34 127.81L487.59 127.38L487.87 126.96L488.17 126.53L488.49 126.11L489.01 125.45L489.53 124.79L490.05 124.13L490.57 123.47L491.09 122.81L491.61 122.16L492.13 121.5L492.65 120.84L493.17 120.19L493.69 119.53L494.21 118.88L494.73 118.22L495.25 117.57L495.77 116.91L496.29 116.26L496.81 115.61L497.33 114.95L497.85 114.3L498.37 113.65L498.89 113L499.41 112.35L499.93 111.69L500.45 111.04L500.97 110.39L501.49 109.74L502.01 109.09L502.53 108.44L503.05 107.79L503.57 107.14L504.08 106.48L504.6 105.83L505.12 105.18L505.64 104.53L506.16 103.88L506.68 103.23L507.2 102.57L507.72 101.92L508.24 101.27L508.76 100.62L509.28 99.96L510.38 98.58L511.47 97.21L512.57 95.83L513.67 94.45L514.76 93.07L515.86 91.69L516.96 90.31L518.05 88.93L519.15 87.56L520.25 86.18L521.35 84.8L522.44 83.42L523.54 82.04L524.64 80.66L525.74 79.29L526.84 77.91L527.94 76.53L529.04 75.15L530.13 73.77L532.33 71.02L533.43 69.64L534.53 68.26L535.63 66.88L536.73 65.5L537.82 64.12L538.92 62.75L540.02 61.37L541.12 59.99L542.22 58.61L543.32 57.23L544.41 55.85L545.51 54.47L546.61 53.1L547.7 51.72L548.8 50.34L549.9 48.96L550.99 47.58L552.09 46.2L553.18 44.83L553.4 44.55L553.63 44.28L553.85 44.02L554.08 43.76L554.31 43.51L554.54 43.26L554.77 43.02L555.01 42.78L555.25 42.55L555.49 42.33L555.73 42.11L555.98 41.9L556.23 41.7L556.48 41.5L556.73 41.32L556.99 41.14L557.26 40.97L557.52 40.8L557.79 40.65L558.07 40.51L558.34 40.37L558.63 40.25L558.91 40.13L559.2 40.02L559.5 39.93L559.8 39.84L560.1 39.77L560.41 39.71L560.72 39.65L561.04 39.61L561.36 39.58L561.69 39.57L562.03 39.56L562.37 39.57L562.71 39.59ZM549.13 76.49L547.84 78.15L546.55 79.8L545.26 81.46L543.98 83.11L542.69 84.77L541.4 86.42L540.11 88.08L538.82 89.73L537.53 91.39L536.24 93.04L534.95 94.7L533.66 96.36L532.37 98.02L531.07 99.68L529.78 101.34L528.48 103L527.19 104.66L525.89 106.32L524.59 107.99L523.29 109.66L521.98 111.33L520.68 113L519.37 114.67L518.06 116.34L516.75 118.02L515.44 119.7L514.13 121.38L512.81 123.06L511.49 124.75L552.34 124.75L552.34 73.5L551.71 73.18L550.42 74.84L549.13 76.49Z"/><path id="b13NcSCAue" d="M200.25 5.68C200.25 8.31 197.17 11.88 191.46 17.74C167.65 40.66 155.67 68.74 155.75 102.59C155.84 140.05 168.44 170.14 192.92 193.45C198.07 198.05 200.18 201.67 200.19 204.77C200.19 206.29 199.14 207.87 198.09 209.39C197.11 210.44 195 211.5 193.48 211.5C187.82 211.51 179.89 204.82 169.54 191.79C149.39 167.08 140.27 139.81 139.76 102.63C139.29 65.44 150.95 40.21 173.78 14.18C181.99 4.87 188.84 0.04 193.52 0.03C195.03 0.02 196.61 0.54 198.13 1.59C199.19 2.64 200.24 4.16 200.25 5.68Z"/><path id="a1SQEFJ1VK" d="M200.25 5.68C200.25 8.31 197.17 11.88 191.46 17.74C167.65 40.66 155.67 68.74 155.75 102.59C155.84 140.05 168.44 170.14 192.92 193.45C198.07 198.05 200.18 201.67 200.19 204.77C200.19 206.29 199.14 207.87 198.09 209.39C197.11 210.44 195 211.5 193.48 211.5C187.82 211.51 179.89 204.82 169.54 191.79C149.39 167.08 140.27 139.81 139.76 102.63C139.29 65.44 150.95 40.21 173.78 14.18C181.99 4.87 188.84 0.04 193.52 0.03C195.03 0.02 196.61 0.54 198.13 1.59C199.19 2.64 200.24 4.16 200.25 5.68Z"/><path id="aVNMaQrUV" d="M285.71 11.72C285.71 11.72 294.27 38.91 251.1 99.61C207.92 160.28 270.3 196.42 270.3 196.42C270.3 196.42 241.02 180.82 275.06 125.26C281.15 115.19 289.13 106.06 299.02 85.52C299.02 85.52 307.79 97.89 303.21 124.7C296.37 165.21 332.88 153.62 333.44 154.18C346.2 169.2 322.88 195.59 321.46 196.42C320.05 197.23 388.04 155.52 339.74 92.75C336.43 96.05 332.13 111.59 323.19 109.3C314.24 107.01 350.95 63.64 285.71 11.72Z"/><path id="i2wATntVt7" d="M285.71 11.72C285.71 11.72 294.27 38.91 251.1 99.61C207.92 160.28 270.3 196.42 270.3 196.42C270.3 196.42 241.02 180.82 275.06 125.26C281.15 115.19 289.13 106.06 299.02 85.52C299.02 85.52 307.79 97.89 303.21 124.7C296.37 165.21 332.88 153.62 333.44 154.18C346.2 169.2 322.88 195.59 321.46 196.42C320.05 197.23 388.04 155.52 339.74 92.75C336.43 96.05 332.13 111.59 323.19 109.3C314.24 107.01 350.95 63.64 285.71 11.72Z"/><path id="h2yE06hZnc" d="M392.82 5.65C392.82 8.28 395.9 11.85 401.61 17.71C425.42 40.63 437.4 68.71 437.32 102.57C437.23 140.03 424.63 170.11 400.15 193.42C395 198.03 392.89 201.64 392.88 204.74C392.88 206.26 393.93 207.84 394.98 209.36C395.96 210.41 398.07 211.47 399.59 211.47C405.25 211.49 413.18 204.79 423.53 191.76C443.68 167.06 452.8 139.78 453.31 102.6C453.78 65.41 442.12 40.19 419.29 14.15C411.08 4.84 404.23 0.01 399.55 0C398.04 0 396.46 0.52 394.94 1.57C393.88 2.62 392.83 4.13 392.82 5.65Z"/><path id="b5VyRbxtjz" d="M392.82 5.65C392.82 8.28 395.9 11.85 401.61 17.71C425.42 40.63 437.4 68.71 437.32 102.57C437.23 140.03 424.63 170.11 400.15 193.42C395 198.03 392.89 201.64 392.88 204.74C392.88 206.26 393.93 207.84 394.98 209.36C395.96 210.41 398.07 211.47 399.59 211.47C405.25 211.49 413.18 204.79 423.53 191.76C443.68 167.06 452.8 139.78 453.31 102.6C453.78 65.41 442.12 40.19 419.29 14.15C411.08 4.84 404.23 0.01 399.55 0C398.04 0 396.46 0.52 394.94 1.57C393.88 2.62 392.83 4.13 392.82 5.65Z"/></defs><g><g><g><use fill="#858591" fill-opacity="1" opacity="1" xlink:href="#beshhowX9"/><g><use fill-opacity="0" stroke="#000" stroke-opacity="0" stroke-width="1" opacity="1" xlink:href="#beshhowX9"/></g></g><g><use fill="#858591" fill-opacity="1" opacity="1" xlink:href="#a1p7EfWTqL"/><g><use fill-opacity="0" stroke="#000" stroke-opacity="0" stroke-width="1" opacity="1" xlink:href="#a1p7EfWTqL"/></g></g><g><g><use fill="#858591" fill-opacity="1" opacity="1" xlink:href="#b13NcSCAue"/><g><use fill-opacity="0" stroke="#000" stroke-opacity="0" stroke-width="1" opacity="1" xlink:href="#b13NcSCAue"/></g></g><g><use fill="#858591" fill-opacity="1" opacity="1" xlink:href="#a1SQEFJ1VK"/><g><use fill-opacity="0" stroke="#000" stroke-opacity="0" stroke-width="1" opacity="1" xlink:href="#a1SQEFJ1VK"/></g></g><g><use fill="#858591" fill-opacity="1" opacity="1" xlink:href="#aVNMaQrUV"/><g><use fill-opacity="0" stroke="#000" stroke-opacity="0" stroke-width="1" opacity="1" xlink:href="#aVNMaQrUV"/></g></g><g><use fill="#858591" fill-opacity="1" opacity="1" xlink:href="#i2wATntVt7"/><g><use fill-opacity="0" stroke="#000" stroke-opacity="0" stroke-width="1" opacity="1" xlink:href="#i2wATntVt7"/></g></g><g><use fill="#858591" fill-opacity="1" opacity="1" xlink:href="#h2yE06hZnc"/><g><use fill-opacity="0" stroke="#000" stroke-opacity="0" stroke-width="1" opacity="1" xlink:href="#h2yE06hZnc"/></g></g><g><use fill="#858591" fill-opacity="1" opacity="1" xlink:href="#b5VyRbxtjz"/><g><use fill-opacity="0" stroke="#000" stroke-opacity="0" stroke-width="1" opacity="1" xlink:href="#b5VyRbxtjz"/></g></g></g></g></g></svg>