<svg width="592" height="212" viewBox="0 0 592 212" fill="none" xmlns="http://www.w3.org/2000/svg">
<g clip-path="url(#clip0_183_34)">
<path d="M76.72 39.6194L77.07 39.6494L77.42 39.6894L77.77 39.7394L78.14 39.8094L78.5 39.8894L78.83 39.9694L79.15 40.0494L79.47 40.1394L79.78 40.2494L80.08 40.3594L80.38 40.4794L80.67 40.6094L80.95 40.7494L81.23 40.8894L81.5 41.0494L81.76 41.2094L82.01 41.3794L82.26 41.5594L82.5 41.7494L82.73 41.9394L82.96 42.1394L83.18 42.3494L83.39 42.5594L83.59 42.7894L83.78 43.0094L83.96 43.2494L84.14 43.4894L84.31 43.7394L84.47 43.9994L84.62 44.2594L84.76 44.5194L84.89 44.7994L85.02 45.0794L85.13 45.3594L85.24 45.6494L85.33 45.9394L85.42 46.2394L85.5 46.5494L85.56 46.8594L85.62 47.1794L85.67 47.4894L85.7 47.8194L85.73 48.1494L85.74 48.4794L85.75 48.8194L85.76 49.6394V50.4694L85.77 51.2994L85.78 52.1294V52.9594L85.79 53.7894V54.6094L85.8 55.4394V56.2694L85.81 57.0994V57.9294L85.82 58.7594V59.5894V60.4194L85.83 61.2594V62.0894V62.9194L85.84 63.7494V64.5794V65.4094V66.2394V67.0694L85.85 67.8994V68.7294V69.5594V70.3994V71.2294V72.0594V72.8894V73.7194V74.5494V75.3794V76.2094V77.0294V77.8594V78.6894V79.5194V80.3494V81.1794V81.9994V122.439V122.579L85.86 122.729V122.859L85.87 122.999L85.88 123.129L85.89 123.249L85.91 123.369L85.93 123.489L85.95 123.599L85.97 123.699L85.99 123.809L86.02 123.899L86.06 123.999L86.09 124.089L86.13 124.169L86.17 124.249L86.22 124.329L86.27 124.399L86.32 124.469L86.38 124.539L86.44 124.599L86.51 124.659L86.57 124.709L86.65 124.759L86.73 124.799L86.81 124.849L86.89 124.879L86.99 124.919L87.08 124.949L87.18 124.979L87.29 124.999L87.4 125.019L87.52 125.039L87.64 125.049L87.76 125.059L87.9 125.069H88.03H88.18H88.32L88.48 125.059L88.69 125.049L88.9 125.029L89.12 125.019L89.33 125.009L89.54 124.999L89.76 124.989L89.97 124.979L90.18 124.969L90.39 124.959H90.61L90.82 124.949H91.03H91.25L91.46 124.939H91.67H91.89H92.1H92.32H92.53H92.75L92.96 124.949H93.18H93.39L93.61 124.959H93.82L94.04 124.969H94.25L94.47 124.979H94.69L94.9 124.989H95.12L95.34 124.999L95.56 125.009L95.77 125.019H95.99L96.21 125.029L96.43 125.039L96.65 125.049H96.87L97.09 125.059L97.49 125.079L97.88 125.099L98.27 125.149L98.65 125.199L99.03 125.259L99.39 125.339L99.76 125.429L100.11 125.539L100.46 125.649L100.8 125.779L101.13 125.909L101.45 126.059L101.77 126.219L102.08 126.389L102.37 126.569L102.66 126.759L102.95 126.959L103.22 127.169L103.48 127.389L103.73 127.619L103.98 127.859L104.21 128.109L104.43 128.369L104.65 128.629L104.85 128.909L105.04 129.189L105.22 129.479L105.39 129.779L105.54 130.079L105.69 130.389L105.82 130.709L105.94 131.039L106.05 131.369L106.14 131.719L106.23 132.059L106.3 132.409L106.35 132.769L106.39 133.139L106.42 133.509L106.44 133.879V134.249L106.43 134.609L106.4 134.969L106.36 135.319L106.3 135.669L106.24 136.009L106.16 136.339L106.06 136.669L105.96 136.989L105.84 137.299L105.71 137.609L105.57 137.909L105.41 138.199L105.25 138.479L105.07 138.759L104.88 139.029L104.68 139.289L104.47 139.549L104.25 139.789L104.02 140.029L103.78 140.259L103.53 140.469L103.27 140.679L103 140.889L102.72 141.079L102.43 141.259L102.13 141.429L101.82 141.589L101.51 141.749L101.18 141.889L100.85 142.019L100.51 142.139L100.16 142.249L99.8 142.349L99.44 142.439L99.07 142.519L98.69 142.579L98.3 142.629L97.91 142.679L97.51 142.709H97.31L97.1 142.719L96.9 142.729L96.69 142.739H96.48L96.28 142.749L96.07 142.759L95.86 142.769H95.65L95.45 142.779L95.24 142.789H95.03L94.82 142.799H94.61L94.41 142.809H94.2L93.99 142.819H93.78H93.57H93.36L93.15 142.829H92.95H92.74H92.53H92.32L92.11 142.819H91.9H91.69L91.49 142.809H91.28L91.07 142.799H90.86L90.66 142.789L90.45 142.779L90.24 142.769L90.04 142.759L89.83 142.749L89.62 142.729L89.42 142.719L89.21 142.709L89.04 142.689L88.86 142.679L88.7 142.669H88.54H88.38L88.23 142.679L88.09 142.689L87.95 142.699L87.81 142.719L87.69 142.739L87.56 142.769L87.45 142.799L87.33 142.829L87.23 142.869L87.12 142.919L87.03 142.969L86.93 143.019L86.84 143.079L86.76 143.149L86.68 143.219L86.61 143.289L86.54 143.369L86.47 143.459L86.41 143.549L86.35 143.649L86.3 143.749L86.25 143.859L86.21 143.979L86.16 144.099L86.13 144.229L86.09 144.359L86.07 144.499L86.04 144.649L86.02 144.799L86 144.959L85.98 145.119L85.97 145.299V145.479L85.96 145.659V145.859L85.97 146.589V147.319L85.98 148.049L85.99 148.789V149.519L86 150.249V150.979L86.01 151.719V152.449L86.02 153.179V153.909L86.03 154.649V155.379V156.109V156.839V157.579L86.04 158.309V159.039V159.769V160.509V161.239V161.969V162.699L86.03 163.439V164.169V164.899V165.629V166.369L86.02 167.099V167.829L86.01 168.559V169.299L86 170.029V170.759L85.99 171.489V172.229L85.98 172.959L85.97 173.689V174.419L85.96 175.159L85.95 175.489L85.94 175.829L85.91 176.159L85.87 176.479L85.82 176.809L85.75 177.129L85.68 177.439L85.6 177.749L85.5 178.059L85.4 178.359L85.29 178.649L85.16 178.939L85.03 179.229L84.89 179.499L84.73 179.779L84.57 180.049L84.4 180.309L84.23 180.559L84.04 180.809L83.85 181.049L83.64 181.289L83.43 181.509L83.21 181.729L82.99 181.949L82.75 182.149L82.51 182.349L82.27 182.539L82.01 182.719L81.75 182.889L81.48 183.059L81.21 183.209L80.93 183.359L80.65 183.499L80.36 183.629L80.06 183.749L79.76 183.849L79.45 183.949L79.14 184.039L78.82 184.119L78.5 184.189L78.05 184.269L77.59 184.339L77.14 184.379L76.7 184.409H76.26L75.82 184.399L75.39 184.369L74.96 184.319L74.54 184.249L74.13 184.159L73.72 184.059L73.32 183.939L72.93 183.799L72.54 183.649L72.16 183.479L71.8 183.299L71.44 183.089L71.09 182.879L70.76 182.649L70.43 182.399L70.11 182.139L69.81 181.869L69.52 181.589L69.24 181.289L68.97 180.969L68.72 180.649L68.48 180.309L68.26 179.959L68.05 179.599L67.85 179.229L67.68 178.839L67.51 178.449L67.37 178.039L67.24 177.629L67.13 177.209L67.03 176.769L66.96 176.329L66.9 175.879L66.86 175.419L66.84 174.949V174.219L66.83 173.499L66.82 172.769V172.049L66.81 171.319V170.599V169.869L66.8 169.149V168.419V167.699V166.969V166.249V165.519V164.799V164.069V163.349V162.619V161.889V161.169L66.81 160.439V159.709V158.989V158.259V157.529L66.82 156.809V156.079V155.349L66.83 154.619V153.889V153.159V152.429V151.699L66.84 150.969V150.239V149.509V148.779V148.049V147.319V146.589V145.859L66.83 145.789L66.82 145.709L66.8 145.639L66.79 145.569L66.78 145.499L66.76 145.429L66.75 145.359L66.74 145.289L66.73 145.219L66.72 145.139L66.71 145.069V144.999L66.7 144.929L66.69 144.849V144.779L66.68 144.709L66.67 144.639V144.559V144.489L66.66 144.409V144.339L66.65 144.259V144.189V144.109V144.029L66.64 143.959V143.879V143.799V143.719V143.639V143.559V143.479V143.399V143.319V143.229V143.149V143.069L66.63 142.979V142.899V142.809L66.53 142.799H66.43L66.33 142.789L66.23 142.779H66.13L66.03 142.769L65.94 142.759H65.84L65.74 142.749H65.65H65.55L65.46 142.739H65.37L65.27 142.729H65.18H65.09H65L64.91 142.719H64.82H64.73H64.64H64.56L64.47 142.709H64.38H64.3H64.21H64.13H64.04H63.96H63.87H63.79H63.71H63.63H63.54H63.46H63.38H63.3H63.22H63.06H61.77H60.48H59.19H57.9H56.61H55.31H54.02L52.73 142.699H51.44H50.15H48.85H47.56H46.27H44.98H43.69H42.4H41.1H39.81L38.52 142.689H37.23H35.94H34.65H33.35L32.06 142.679H30.77H29.48L28.19 142.669H26.89H25.6L24.31 142.659H23.02L21.73 142.649H20.44L19.14 142.639H17.85L16.56 142.629L15.27 142.619H13.98L12.69 142.609L11.39 142.599H11.24H11.09H10.94L10.79 142.589H10.64L10.48 142.579H10.33L10.18 142.569L10.02 142.559L9.87 142.549L9.71 142.539L9.56 142.529L9.4 142.519L9.25 142.499L9.09 142.479L8.94 142.469L8.78 142.449L8.63 142.429L8.48 142.399L8.32 142.379L8.17 142.349L8.02 142.319L7.86 142.289L7.71 142.259L7.56 142.229L7.41 142.189L7.26 142.149L7.11 142.109L6.96 142.069L6.82 142.019L6.67 141.979L6.52 141.929L6.38 141.879L6.24 141.819L6.1 141.769L5.96 141.709L5.82 141.649L5.68 141.579L5.54 141.509L5.41 141.449L4.96 141.209L4.53 140.959L4.12 140.699L3.73 140.419L3.36 140.139L3.01 139.839L2.68 139.529L2.36 139.199L2.07 138.869L1.79 138.529L1.54 138.179L1.3 137.819L1.08 137.449L0.89 137.069L0.71 136.679L0.55 136.289L0.41 135.889L0.29 135.489L0.2 135.079L0.12 134.659L0.06 134.239L0.02 133.809L0 133.379V132.949L0.02 132.509L0.06 132.069L0.12 131.629L0.21 131.179L0.31 130.739L0.43 130.299L0.57 129.849L0.74 129.399L0.92 128.959L1.12 128.519L1.35 128.069L1.59 127.629L1.86 127.199L2.15 126.759L2.45 126.329L2.78 125.899L3.29 125.259L3.81 124.609L4.32 123.959L4.83 123.319L5.34 122.669L5.85 122.029L6.37 121.379L6.88 120.739L7.39 120.089L7.9 119.449L8.41 118.799L8.93 118.149L9.44 117.509L9.95 116.859L10.46 116.219L10.97 115.569L11.49 114.929L12 114.289L12.51 113.639L13.02 112.999L13.53 112.349L14.05 111.709L14.56 111.069L15.07 110.419L15.58 109.779L16.09 109.139L16.61 108.499L17.12 107.849L17.63 107.209L18.14 106.569L18.65 105.929L19.17 105.289L19.68 104.649L20.19 104.009L20.7 103.369L21.21 102.729L21.73 102.089L22.24 101.449L22.75 100.809L23.26 100.169L24.36 98.7894L25.47 97.3994L26.57 96.0094L27.67 94.6294L28.77 93.2494L29.88 91.8594L30.98 90.4794L32.08 89.0894L33.19 87.7094L34.29 86.3294L35.39 84.9394L36.49 83.5594L37.6 82.1794L38.7 80.7894L39.8 79.4094L40.9 78.0294L42.01 76.6494L43.11 75.2594L44.21 73.8794L46.42 71.1194L47.52 69.7294L48.62 68.3494L49.73 66.9694L50.83 65.5894L51.93 64.1994L53.03 62.8194L54.14 61.4394L55.24 60.0594L56.34 58.6694L57.45 57.2894L58.55 55.9094L59.65 54.5194L60.75 53.1394L61.86 51.7494L62.96 50.3694L64.06 48.9794L65.16 47.5994L66.27 46.2094L67.37 44.8294L67.58 44.5594L67.8 44.2994L68.02 44.0394L68.24 43.7894L68.46 43.5394L68.69 43.2994L68.91 43.0594L69.14 42.8294L69.38 42.6094L69.61 42.3894L69.85 42.1694L70.09 41.9694L70.34 41.7694L70.59 41.5794L70.84 41.3894L71.09 41.2094L71.35 41.0394L71.61 40.8794L71.88 40.7294L72.15 40.5894L72.42 40.4494L72.7 40.3194L72.98 40.2094L73.27 40.0994L73.56 39.9994L73.85 39.9194L74.15 39.8394L74.46 39.7694L74.77 39.7194L75.08 39.6694L75.4 39.6394L75.72 39.6194L76.05 39.6094H76.38L76.72 39.6194ZM63.32 76.5994L62.03 78.2494L60.74 79.9094L59.45 81.5594L58.15 83.2194L56.86 84.8694L55.57 86.5294L54.28 88.1794L52.99 89.8394L51.69 91.4894L50.4 93.1494L49.1 94.8094L47.81 96.4594L46.51 98.1194L45.22 99.7794L43.92 101.439L42.63 103.099L41.33 104.769L40.03 106.429L38.73 108.089L37.43 109.759L36.13 111.429L34.82 113.099L33.52 114.769L32.22 116.449L30.91 118.119L29.6 119.799L28.3 121.479L26.99 123.169L25.68 124.849H66.42V73.4994L66.4 73.4894L66.39 73.4794L66.37 73.4694L66.35 73.4594L66.33 73.4494H66.31L66.3 73.4394L66.28 73.4294H66.26L66.25 73.4194H66.23L66.22 73.4094L66.2 73.3994L66.17 73.3894L66.14 73.3794H66.12L66.11 73.3694H66.09L66.08 73.3594H66.06L66.05 73.3494L66.03 73.3394H66.01L65.99 73.3294L65.98 73.3194L65.96 73.3094H65.94L65.92 73.2994L65.9 73.2894L64.61 74.9394L63.32 76.5994Z" fill="#858591"/>
<path d="M562.709 39.5905L563.059 39.6205L563.419 39.6705L563.779 39.7305L564.149 39.8005L564.519 39.8905L564.839 39.9705L565.139 40.0605L565.449 40.1605L565.739 40.2705L566.029 40.3905L566.319 40.5105L566.599 40.6505L566.869 40.7905L567.139 40.9405L567.399 41.0905L567.649 41.2505L567.899 41.4205L568.139 41.6005L568.369 41.7905L568.599 41.9805L568.819 42.1805L569.029 42.3805L569.229 42.6005L569.429 42.8205L569.619 43.0405L569.799 43.2705L569.969 43.5105L570.139 43.7505L570.289 44.0005L570.439 44.2605L570.579 44.5205L570.709 44.7905L570.839 45.0605L570.949 45.3405L571.049 45.6205L571.149 45.9105L571.229 46.2005L571.309 46.5005L571.369 46.8005L571.429 47.1105L571.479 47.4205L571.509 47.7405L571.539 48.0605L571.559 48.3805V48.7105L571.569 49.4305L571.579 50.1505V50.8605L571.589 51.5805L571.599 52.3005V53.0205L571.609 53.7405V54.4605L571.619 55.1805V55.9005L571.629 56.6205V57.3405V58.0605L571.639 58.7805V59.5005V60.2205L571.649 60.9405V61.6605V62.3805V63.1005V63.8205L571.659 64.5405V65.2605V65.9805V66.7005V67.4205V68.1405V68.8605V69.5805V70.3005V71.0205L571.669 71.7405V72.4605V73.1805V73.9005V74.6205V75.3405V76.0505V76.7705V77.4905V125.061H571.959H572.259H572.559H572.849H573.149H573.439L573.729 125.051H574.029H574.319H574.609L574.889 125.041H575.179H575.469H575.749L576.039 125.031H576.319H576.609H576.889L577.169 125.021H577.459H577.739H578.019H578.299H578.579H578.859H579.139H579.409H579.689H579.969H580.249H580.519H580.799H581.079L581.349 125.031H581.629L581.909 125.041H582.179L582.459 125.051H582.729L583.009 125.061L583.449 125.081L583.889 125.111L584.319 125.161L584.739 125.231L585.149 125.321L585.549 125.421L585.939 125.531L586.329 125.661L586.699 125.811L587.059 125.971L587.409 126.141L587.749 126.331L588.079 126.541L588.399 126.751L588.709 126.981L588.999 127.221L589.279 127.471L589.559 127.741L589.809 128.021L590.059 128.301L590.289 128.601L590.509 128.911L590.709 129.231L590.899 129.561L591.079 129.901L591.239 130.251L591.389 130.601L591.519 130.971L591.639 131.341L591.739 131.721L591.819 132.111L591.889 132.511L591.939 132.911L591.979 133.321L591.999 133.731V134.151L591.979 134.581L591.949 135.011L591.899 135.441L591.829 135.881L591.779 136.151L591.719 136.411L591.649 136.671L591.569 136.931L591.479 137.181L591.379 137.431L591.279 137.681L591.159 137.921L591.039 138.161L590.909 138.391L590.769 138.621L590.629 138.851L590.469 139.071L590.309 139.281L590.139 139.491L589.969 139.701L589.779 139.901L589.589 140.091L589.399 140.281L589.189 140.461L588.979 140.641L588.769 140.811L588.539 140.971L588.309 141.131L588.079 141.281L587.839 141.421L587.589 141.561L587.339 141.681L587.089 141.811L586.819 141.921L586.559 142.031L586.289 142.121L586.009 142.211L585.729 142.291L585.439 142.371L585.149 142.431L584.859 142.491L584.559 142.531L584.259 142.571L583.949 142.601L583.709 142.621L583.459 142.631L583.219 142.641L582.969 142.661L582.729 142.671L582.479 142.681L582.239 142.691L581.989 142.701L581.739 142.711L581.499 142.721L581.249 142.731L580.999 142.741H580.749L580.509 142.751H580.259L580.009 142.761H579.759L579.509 142.771H579.269H579.019H578.769H578.519H578.269H578.029H577.779H577.529H577.279H577.029H576.789L576.539 142.761H576.289H576.049L575.799 142.751H575.549L575.309 142.741L575.059 142.731H574.819L574.569 142.721L574.329 142.711H574.079L573.929 142.701H573.789H573.659H573.529L573.399 142.711L573.279 142.721L573.159 142.731L573.049 142.751L572.949 142.771L572.849 142.791L572.749 142.821L572.659 142.851L572.569 142.881L572.489 142.921L572.409 142.961L572.329 143.001L572.259 143.051L572.189 143.101L572.129 143.161L572.069 143.221L572.019 143.281L571.969 143.351L571.919 143.421L571.869 143.491L571.829 143.571L571.789 143.651L571.759 143.741L571.729 143.831L571.699 143.921L571.669 144.021L571.649 144.121L571.629 144.231L571.609 144.341L571.599 144.451L571.589 144.571L571.579 144.691L571.569 144.821V144.951L571.559 145.091V145.231L571.569 145.971L571.579 146.711V147.451L571.589 148.191L571.599 148.931V149.671L571.609 150.411V151.151L571.619 151.891V152.631V153.371L571.629 154.111V154.851V155.591V156.331L571.639 157.071V157.811V158.551V159.291V160.031V160.771V161.521V162.261V163.001L571.629 163.741V164.481V165.221V165.961L571.619 166.701V167.441V168.181L571.609 168.921V169.661L571.599 170.401V171.141L571.589 171.881L571.579 172.621V173.361L571.569 174.101L571.559 174.841L571.539 175.341L571.499 175.831L571.449 176.311L571.369 176.781L571.269 177.241L571.149 177.691L571.019 178.121L570.869 178.551L570.699 178.961L570.509 179.361L570.309 179.751L570.089 180.121L569.859 180.481L569.609 180.831L569.339 181.161L569.069 181.481L568.769 181.791L568.469 182.081L568.149 182.351L567.819 182.611L567.479 182.861L567.119 183.091L566.759 183.301L566.379 183.491L565.999 183.671L565.599 183.831L565.189 183.971L564.779 184.101L564.359 184.211L563.929 184.291L563.489 184.361L563.039 184.411L562.589 184.441L562.129 184.451H561.669L561.199 184.421L560.719 184.361L560.239 184.291L559.759 184.201L559.269 184.081L558.979 184.011L558.699 183.921L558.419 183.821L558.139 183.711L557.859 183.591L557.599 183.461L557.329 183.321L557.069 183.171L556.819 183.011L556.569 182.851L556.319 182.671L556.089 182.481L555.849 182.291L555.629 182.081L555.409 181.871L555.189 181.661L554.979 181.431L554.779 181.201L554.589 180.961L554.399 180.711L554.219 180.461L554.049 180.201L553.889 179.931L553.729 179.661L553.579 179.381L553.439 179.101L553.309 178.811L553.189 178.521L553.069 178.231L552.969 177.931L552.869 177.621L552.779 177.311L552.709 177.001L552.639 176.681L552.579 176.371L552.529 176.051L552.499 175.721L552.469 175.401L552.449 175.071V174.741L552.439 174.021L552.429 173.301V172.591L552.419 171.871V171.151L552.409 170.431V169.711V168.991L552.399 168.271V167.551V166.831V166.111V165.391V164.671V163.951V163.231V162.511V161.791L552.409 161.071V160.351V159.631V158.911V158.191L552.419 157.471V156.751V156.031V155.311L552.429 154.591V153.871V153.151V152.431L552.439 151.711V150.991V150.271V149.551V148.831L552.449 148.111V147.401V146.681V145.961V142.811L552.349 142.801H552.239L552.149 142.791L552.049 142.781L551.949 142.771L551.849 142.761H551.759L551.569 142.741L551.479 142.731H551.389L551.289 142.721L551.209 142.711L551.119 142.701H551.029L550.939 142.691L550.849 142.681H550.769L550.679 142.671H550.599L550.509 142.661L550.429 142.651H550.339L550.259 142.641H550.179L550.099 142.631H550.019H549.939L549.849 142.621H549.769H549.689L549.609 142.611H549.529H549.459H549.379L549.299 142.601H549.219H549.139H549.059H548.979H547.689H546.399H545.109H543.809H542.519H541.229H539.939H538.649H537.359H536.059H534.769H533.479H532.189H530.899H529.609L528.309 142.591H527.019H525.729H524.439H523.149H521.849L520.559 142.581H519.269H517.979H516.689L515.399 142.571H514.099L512.809 142.561H511.519H510.229L508.939 142.551H507.649L506.349 142.541H505.059L503.769 142.531L502.479 142.521H501.189L499.889 142.511L498.599 142.501H497.309H497.159L497.009 142.491H496.859H496.709H496.549L496.399 142.481L496.249 142.471H496.089L495.939 142.461L495.779 142.451L495.629 142.441L495.479 142.431L495.319 142.411L495.169 142.401L495.009 142.381L494.859 142.371L494.699 142.351L494.549 142.331L494.389 142.311L494.239 142.291L494.089 142.261L493.929 142.241L493.779 142.211L493.629 142.181L493.479 142.151L493.329 142.111L493.179 142.081L493.029 142.041L492.879 142.001L492.729 141.961L492.589 141.921L492.439 141.881L492.299 141.831L492.149 141.781L492.009 141.731L491.869 141.681L491.729 141.621L491.599 141.571L491.459 141.511L491.319 141.451L490.879 141.221L490.459 140.981L490.059 140.721L489.669 140.451L489.299 140.171L488.949 139.881L488.619 139.571L488.309 139.261L488.009 138.931L487.739 138.591L487.479 138.241L487.239 137.891L487.019 137.521L486.819 137.151L486.629 136.771L486.469 136.381L486.329 135.991L486.199 135.581L486.089 135.181L486.009 134.761L485.939 134.351L485.889 133.921L485.869 133.501L485.859 133.071L485.869 132.631L485.899 132.201L485.949 131.761L486.029 131.321L486.119 130.881L486.229 130.441L486.359 130.001L486.519 129.561L486.689 129.121L486.879 128.681L487.099 128.251L487.339 127.811L487.589 127.381L487.869 126.961L488.169 126.531L488.489 126.111L489.009 125.451L489.529 124.791L490.049 124.131L490.569 123.471L491.089 122.811L491.609 122.161L492.129 121.501L492.649 120.841L493.169 120.191L493.689 119.531L494.209 118.881L494.729 118.221L495.249 117.571L495.769 116.911L496.289 116.261L496.809 115.611L497.329 114.951L497.849 114.301L498.369 113.651L498.889 113.001L499.409 112.351L499.929 111.691L500.449 111.041L500.969 110.391L501.489 109.741L502.009 109.091L502.529 108.441L503.049 107.791L503.569 107.141L504.079 106.481L504.599 105.831L505.119 105.181L505.639 104.531L506.159 103.881L506.679 103.231L507.199 102.571L507.719 101.921L508.239 101.271L508.759 100.621L509.279 99.9605L510.379 98.5805L511.469 97.2105L512.569 95.8305L513.669 94.4505L514.759 93.0705L515.859 91.6905L516.959 90.3105L518.049 88.9305L519.149 87.5605L520.249 86.1805L521.349 84.8005L522.439 83.4205L523.539 82.0405L524.639 80.6605L525.739 79.2905L526.839 77.9105L527.939 76.5305L529.039 75.1505L530.129 73.7705L532.329 71.0205L533.429 69.6405L534.529 68.2605L535.629 66.8805L536.729 65.5005L537.819 64.1205L538.919 62.7505L540.019 61.3705L541.119 59.9905L542.219 58.6105L543.319 57.2305L544.409 55.8505L545.509 54.4705L546.609 53.1005L547.699 51.7205L548.799 50.3405L549.899 48.9605L550.989 47.5805L552.089 46.2005L553.179 44.8305L553.399 44.5505L553.629 44.2805L553.849 44.0205L554.079 43.7605L554.309 43.5105L554.539 43.2605L554.769 43.0205L555.009 42.7805L555.249 42.5505L555.489 42.3305L555.729 42.1105L555.979 41.9005L556.229 41.7005L556.479 41.5005L556.729 41.3205L556.989 41.1405L557.259 40.9705L557.519 40.8005L557.789 40.6505L558.069 40.5105L558.339 40.3705L558.629 40.2505L558.909 40.1305L559.199 40.0205L559.499 39.9305L559.799 39.8405L560.099 39.7705L560.409 39.7105L560.719 39.6505L561.039 39.6105L561.359 39.5805L561.689 39.5705L562.029 39.5605L562.369 39.5705L562.709 39.5905ZM549.129 76.4905L547.839 78.1505L546.549 79.8005L545.259 81.4605L543.979 83.1105L542.689 84.7705L541.399 86.4205L540.109 88.0805L538.819 89.7305L537.529 91.3905L536.239 93.0405L534.949 94.7005L533.659 96.3605L532.369 98.0205L531.069 99.6805L529.779 101.341L528.479 103.001L527.189 104.661L525.889 106.321L524.589 107.991L523.289 109.661L521.979 111.331L520.679 113.001L519.369 114.671L518.059 116.341L516.749 118.021L515.439 119.701L514.129 121.381L512.809 123.061L511.489 124.751H552.339V73.5005L551.709 73.1805L550.419 74.8405L549.129 76.4905Z" fill="#858591"/>
<path d="M200.25 5.67944C200.25 8.30944 197.17 11.8794 191.46 17.7394C167.65 40.6594 155.67 68.7394 155.75 102.589C155.84 140.049 168.44 170.139 192.92 193.449C198.07 198.049 200.18 201.669 200.19 204.769C200.19 206.289 199.14 207.869 198.09 209.389C197.11 210.439 195 211.499 193.48 211.499C187.82 211.509 179.89 204.819 169.54 191.789C149.39 167.079 140.27 139.809 139.76 102.629C139.29 65.4394 150.95 40.2094 173.78 14.1794C181.99 4.86944 188.84 0.0394384 193.52 0.0294384C195.03 0.0194384 196.61 0.539438 198.13 1.58944C199.19 2.63944 200.24 4.15944 200.25 5.67944Z" fill="#858591"/>
<path d="M200.25 5.67944C200.25 8.30944 197.17 11.8794 191.46 17.7394C167.65 40.6594 155.67 68.7394 155.75 102.589C155.84 140.049 168.44 170.139 192.92 193.449C198.07 198.049 200.18 201.669 200.19 204.769C200.19 206.289 199.14 207.869 198.09 209.389C197.11 210.439 195 211.499 193.48 211.499C187.82 211.509 179.89 204.819 169.54 191.789C149.39 167.079 140.27 139.809 139.76 102.629C139.29 65.4394 150.95 40.2094 173.78 14.1794C181.99 4.86944 188.84 0.0394384 193.52 0.0294384C195.03 0.0194384 196.61 0.539438 198.13 1.58944C199.19 2.63944 200.24 4.15944 200.25 5.67944Z" fill="#858591"/>
<path d="M285.709 11.7207C285.709 11.7207 294.269 38.9107 251.099 99.6107C207.919 160.281 270.299 196.421 270.299 196.421C270.299 196.421 241.019 180.821 275.059 125.261C281.149 115.191 289.129 106.061 299.019 85.5207C299.019 85.5207 307.789 97.8907 303.209 124.701C296.369 165.211 332.879 153.621 333.439 154.181C346.199 169.201 322.879 195.591 321.459 196.421C320.049 197.231 388.039 155.521 339.739 92.7507C336.429 96.0507 332.129 111.591 323.189 109.301C314.239 107.011 350.949 63.6407 285.709 11.7207Z" fill="#858591"/>
<path d="M285.709 11.7207C285.709 11.7207 294.269 38.9107 251.099 99.6107C207.919 160.281 270.299 196.421 270.299 196.421C270.299 196.421 241.019 180.821 275.059 125.261C281.149 115.191 289.129 106.061 299.019 85.5207C299.019 85.5207 307.789 97.8907 303.209 124.701C296.369 165.211 332.879 153.621 333.439 154.181C346.199 169.201 322.879 195.591 321.459 196.421C320.049 197.231 388.039 155.521 339.739 92.7507C336.429 96.0507 332.129 111.591 323.189 109.301C314.239 107.011 350.949 63.6407 285.709 11.7207Z" fill="#D06400"/>
<path d="M392.82 5.65C392.82 8.28 395.9 11.85 401.61 17.71C425.42 40.63 437.4 68.71 437.32 102.57C437.23 140.03 424.63 170.11 400.15 193.42C395 198.03 392.89 201.64 392.88 204.74C392.88 206.26 393.93 207.84 394.98 209.36C395.96 210.41 398.07 211.47 399.59 211.47C405.25 211.49 413.18 204.79 423.53 191.76C443.68 167.06 452.8 139.78 453.31 102.6C453.78 65.41 442.12 40.19 419.29 14.15C411.08 4.84 404.23 0.01 399.55 0C398.04 0 396.46 0.52 394.94 1.57C393.88 2.62 392.83 4.13 392.82 5.65Z" fill="#858591"/>
<path d="M392.82 5.65C392.82 8.28 395.9 11.85 401.61 17.71C425.42 40.63 437.4 68.71 437.32 102.57C437.23 140.03 424.63 170.11 400.15 193.42C395 198.03 392.89 201.64 392.88 204.74C392.88 206.26 393.93 207.84 394.98 209.36C395.96 210.41 398.07 211.47 399.59 211.47C405.25 211.49 413.18 204.79 423.53 191.76C443.68 167.06 452.8 139.78 453.31 102.6C453.78 65.41 442.12 40.19 419.29 14.15C411.08 4.84 404.23 0.01 399.55 0C398.04 0 396.46 0.52 394.94 1.57C393.88 2.62 392.83 4.13 392.82 5.65Z" fill="#858591"/>
</g>
<defs>
<clipPath id="clip0_183_34">
<rect width="592" height="212" fill="white"/>
</clipPath>
</defs>
</svg>
