<svg xmlns="http://www.w3.org/2000/svg" xmlns:xlink="http://www.w3.org/1999/xlink" id="eCrSp4Ju7sm1" viewBox="0 0 150 150" shape-rendering="geometricPrecision" text-rendering="geometricPrecision">
<style><![CDATA[
#eCrSp4Ju7sm4 {animation: eCrSp4Ju7sm4__m 4000ms linear infinite normal forwards}@keyframes eCrSp4Ju7sm4__m { 0% {d: path('M251.450565,436.80592C253.250288,434.711991,253.602,434.071,256.41,434.071C259.44,434.071,261.139,434.071,264.169,434.071C267.421,434.071,269.244,434.071,272.495,434.071C275.082,434.071,276.056373,434.938948,278.042469,437.516553C279.432013,439.848715,280.005101,440.782042,280.005101,440.782042C280.005101,440.782042,281.269,444.217,281.673,447.021C282.224,450.842,282.846,452.955,283.944,456.695C285.317,461.369,287.604602,463.35942,289.647848,467.765512C291.603648,471.983034,291.904567,471.248107,293.453362,478.903249C288.670805,476.926794,287.364906,477.715477,284.777069,478.08707C282.918414,478.353958,283.504516,480.603768,279.849516,480.273768C278.073262,480.400594,275.413944,479.276796,273.638944,479.242796C271.645944,479.204796,272.180535,480.831322,270.187535,480.807322C268.339535,480.784322,266.687768,479.730206,264.841768,479.653206C262.378768,479.549206,263.544206,480.996139,261.078206,481.029139C258.319206,481.065139,260.149796,480.442518,257.390796,480.430518C256.342974,480.740147,256.008637,481.46516,256.008637,481.46516C256.008637,481.46516,251.658834,478.65309,250.114478,471.931578C249.770182,467.261123,246.311636,462.701023,245.817786,457.533932C245.517221,454.389156,246.000672,451.184512,246.522672,447.360512C247.162585,444.457746,248.612522,441.473135,248.612522,441.473135C248.612522,441.473135,249.912461,438.830338,251.450565,436.80592Z')} 25% {d: path('M251.450565,436.80592C253.250288,434.711991,253.602,434.071,256.41,434.071C259.44,434.071,261.139,434.071,264.169,434.071C267.421,434.071,269.244,434.071,272.495,434.071C275.082,434.071,276.056373,434.938948,278.042469,437.516553C279.432013,439.848715,280.005101,440.782042,280.005101,440.782042C280.005101,440.782042,281.269,444.217,281.673,447.021C282.224,450.842,282.846,452.955,283.944,456.695C285.317,461.369,287.604602,463.35942,289.647848,467.765512C291.603648,471.983034,291.550905,469.824422,293.0997,477.479564C288.034286,476.646396,288.152693,479.581273,285.564856,479.952866C283.706201,480.219754,283.389301,478.645662,279.734301,478.315662C277.958047,478.442488,276.71564,480.397296,274.94064,480.363296C272.94764,480.325296,271.657958,479.121246,269.664958,479.097246C267.816958,479.074246,267.216497,480.671434,265.370497,480.594434C262.907497,480.490434,263.283857,480.203881,260.817857,480.236881C258.058857,480.272881,259.688628,481.384876,256.929628,481.372876C255.881806,481.682505,256.008637,481.46516,256.008637,481.46516C256.008637,481.46516,251.658834,478.65309,250.114478,471.931578C249.770182,467.261123,246.311636,462.701023,245.817786,457.533932C245.517221,454.389156,246.000672,451.184512,246.522672,447.360512C247.162585,444.457746,248.612522,441.473135,248.612522,441.473135C248.612522,441.473135,249.912461,438.830338,251.450565,436.80592Z')} 50% {d: path('M251.450565,436.80592C253.250288,434.711991,253.602,434.071,256.41,434.071C259.44,434.071,261.139,434.071,264.169,434.071C267.421,434.071,269.244,434.071,272.495,434.071C275.082,434.071,276.056373,434.938948,278.042469,437.516553C279.432013,439.848715,280.005101,440.782042,280.005101,440.782042C280.005101,440.782042,281.269,444.217,281.673,447.021C282.224,450.842,282.846,452.955,283.944,456.695C285.317,461.369,287.604602,463.35942,289.647848,467.765512C291.603648,471.983034,291.904567,471.248107,293.453362,478.903249C288.670805,476.926794,287.364906,477.715477,284.777069,478.08707C282.918414,478.353958,283.504516,480.603768,279.849516,480.273768C278.073262,480.400594,275.413944,479.276796,273.638944,479.242796C271.645944,479.204796,272.180535,480.831322,270.187535,480.807322C268.339535,480.784322,266.687768,479.730206,264.841768,479.653206C262.378768,479.549206,263.544206,480.996139,261.078206,481.029139C258.319206,481.065139,260.149796,480.442518,257.390796,480.430518C256.342974,480.740147,256.008637,481.46516,256.008637,481.46516C256.008637,481.46516,251.658834,478.65309,250.114478,471.931578C249.770182,467.261123,246.311636,462.701023,245.817786,457.533932C245.517221,454.389156,246.000672,451.184512,246.522672,447.360512C247.162585,444.457746,248.612522,441.473135,248.612522,441.473135C248.612522,441.473135,249.912461,438.830338,251.450565,436.80592Z')} 75% {d: path('M251.450565,436.80592C253.250288,434.711991,253.602,434.071,256.41,434.071C259.44,434.071,261.139,434.071,264.169,434.071C267.421,434.071,269.244,434.071,272.495,434.071C275.082,434.071,276.056373,434.938948,278.042469,437.516553C279.432013,439.848715,280.005101,440.782042,280.005101,440.782042C280.005101,440.782042,281.269,444.217,281.673,447.021C282.224,450.842,282.846,452.955,283.944,456.695C285.317,461.369,287.604602,463.35942,289.647848,467.765512C291.603648,471.983034,291.904567,471.248107,293.453362,478.903249C287.877912,476.072516,288.152693,479.581273,285.564856,479.952866C283.706201,480.219754,283.389301,478.645662,279.734301,478.315662C277.958047,478.442488,276.71564,480.397296,274.94064,480.363296C272.94764,480.325296,271.657958,479.121246,269.664958,479.097246C267.816958,479.074246,267.216497,480.671434,265.370497,480.594434C262.907497,480.490434,263.283857,480.203881,260.817857,480.236881C258.058857,480.272881,259.688628,481.384876,256.929628,481.372876C255.881806,481.682505,256.008637,481.46516,256.008637,481.46516C256.008637,481.46516,251.658834,478.65309,250.114478,471.931578C249.770182,467.261123,246.311636,462.701023,245.817786,457.533932C245.517221,454.389156,246.000672,451.184512,246.522672,447.360512C247.162585,444.457746,248.612522,441.473135,248.612522,441.473135C248.612522,441.473135,249.912461,438.830338,251.450565,436.80592Z')} 100% {d: path('M251.450565,436.80592C253.250288,434.711991,253.602,434.071,256.41,434.071C259.44,434.071,261.139,434.071,264.169,434.071C267.421,434.071,269.244,434.071,272.495,434.071C275.082,434.071,276.056373,434.938948,278.042469,437.516553C279.432013,439.848715,280.005101,440.782042,280.005101,440.782042C280.005101,440.782042,281.269,444.217,281.673,447.021C282.224,450.842,282.846,452.955,283.944,456.695C285.317,461.369,287.604602,463.35942,289.647848,467.765512C291.603648,471.983034,291.904567,471.248107,293.453362,478.903249C288.670805,476.926794,287.364906,477.715477,284.777069,478.08707C282.918414,478.353958,283.504516,480.603768,279.849516,480.273768C278.073262,480.400594,275.413944,479.276796,273.638944,479.242796C271.645944,479.204796,272.180535,480.831322,270.187535,480.807322C268.339535,480.784322,266.687768,479.730206,264.841768,479.653206C262.378768,479.549206,263.544206,480.996139,261.078206,481.029139C258.319206,481.065139,260.149796,480.442518,257.390796,480.430518C256.342974,480.740147,256.008637,481.46516,256.008637,481.46516C256.008637,481.46516,251.658834,478.65309,250.114478,471.931578C249.770182,467.261123,246.311636,462.701023,245.817786,457.533932C245.517221,454.389156,246.000672,451.184512,246.522672,447.360512C247.162585,444.457746,248.612522,441.473135,248.612522,441.473135C248.612522,441.473135,249.912461,438.830338,251.450565,436.80592Z')}}
]]></style>
<g transform="matrix(.484289-.227341 0.227337 0.484282-104.263309-88.377901)"><g transform="matrix(.987173-.159654 0.159654 0.987173-61.16558 30.932521)"><path id="eCrSp4Ju7sm4" d="M251.450565,436.80592c1.799723-2.093929,2.151435-2.73492,4.959435-2.73492c3.03,0,4.729,0,7.759,0c3.252,0,5.075,0,8.326,0c2.587,0,3.561373.867948,5.547469,3.445553c1.389544,2.332162,1.962632,3.265489,1.962632,3.265489s1.263899,3.434958,1.667899,6.238958c.551,3.821,1.173,5.934,2.271,9.674c1.373,4.674,3.660602,6.66442,5.703848,11.070512c1.9558,4.217522,2.256719,3.482595,3.805514,11.137737-4.782557-1.976455-6.088456-1.187772-8.676293-.816179-1.858655.266888-1.272553,2.516698-4.927553,2.186698-1.776254.126826-4.435572-.996972-6.210572-1.030972-1.993-.038-1.458409,1.588526-3.451409,1.564526-1.848-.023-3.499767-1.077116-5.345767-1.154116-2.463-.104-1.297562,1.342933-3.763562,1.375933-2.759.036-.92841-.586621-3.68741-.598621-1.047822.309629-1.382159,1.034642-1.382159,1.034642s-4.349803-2.81207-5.894159-9.533582c-.344296-4.670455-3.802842-9.230555-4.296692-14.397646-.300565-3.144776.182886-6.34942.704886-10.17342.639913-2.902766,2.08985-5.887377,2.08985-5.887377s1.299939-2.642797,2.838043-4.667215Z" transform="matrix(2.757212 1.087087-1.227981 3.114566-28.028032-1254.259584)" fill="#ea6853"/><g transform="matrix(.869558-.493831 0.493831 0.869558-213.898689 121.930623)"><ellipse rx="11.1566" ry="18.3233" transform="matrix(.91456 0.404451-.404458 0.914556 100.826575 492.276973)" fill="#e3c5aa"/><path d="M99.9011,502.21l.8149.363-3.1017,6.963-1.0187.093l3.3055-7.419Z"/><path d="M92.5637,498.941l.8153.363-3.1196,7.002-.5516-.955l2.8559-6.41Z"/></g><g transform="matrix(.858281-.51318 0.51318 0.858281-232.97255 148.42205)"><ellipse rx="11.1566" ry="18.3233" transform="matrix(.91456 0.404451-.404458 0.914556 137.514375 508.620973)" fill="#e3c5aa"/><path d="M136.589,518.554l.815.364-3.102,6.963-1.019.093l3.306-7.42Z"/><path d="M129.251,515.285l.815.364-3.119,7.002-.552-.955l2.856-6.411Z"/></g><g transform="translate(.000001 0)"><path d="M187.482,467.62c-17.052,38.274-42.853,41.691-67.843,30.558-24.9899-11.133-39.705-32.6-22.6532-70.875c17.0522-38.275,51.1332-60.278,76.1232-49.145c24.99,11.134,31.425,51.187,14.373,89.462Z" fill="#e3c5aa"/><path d="M170.158,467.028c-11.484,25.777-29.088,27.977-46.198,20.355-17.11-7.623-27.2475-22.182-15.764-47.959c11.484-25.777,34.664-40.494,51.774-32.871s21.671,34.698,10.188,60.475Z" fill="#fff"/><path d="M173.109,378.158c-24.99-11.133-59.074,10.876-76.1295,49.159-4.279531,9.425958-7.862545,15.918501-8.195524,30.222438l91.264576,26.469679c3.924562-5.945064,4.783794-7.510794,8.863344-17.07719C207.657892,424.272927,198.099,389.292,173.109,378.158Z" fill="#59a3a8"/></g><g transform="matrix(.573547 0.393842-.392929 0.572219 328.597333 104.535053)"><path d="M21.514249,518.588423l.2134-25.542726l29.82278-.163223-.045026,25.870427-15.063389,8.734057-14.927765-8.898535Z" fill="#fff"/><path d="M24.4951,495.495v21.378l12.0173,7.03l12.753-7.03v-21.378h-24.7703Zm5.5693,5.105c-.0003-.108-.0753-.216-.1504-.29-.1082-.075-.2205-.112-.3284-.112-.3323.001-.8194.345-1.4035,1.006-1.6231,1.852-2.4524,3.646-2.4188,6.291.0363,2.644.6843,4.584,2.1175,6.341.736.926,1.2997,1.403,1.7026,1.402.1078,0,.2575-.076.3278-.151.0747-.108.149-.22.149-.328-.0006-.22-.1509-.478-.5171-.805-1.7408-1.658-2.6365-3.798-2.6429-6.461-.0057-2.408.8459-4.405,2.5389-6.035.406-.417.6256-.671.6253-.858Zm8.7421,7.369c-.1651-.042-.1114-.282-.0226-.677.2533-1.128.7922-3.529-2.6426-6.263c0,0,.6087,1.934-2.4607,6.251-2.9089,4.087.9182,6.609,1.3302,6.863.0225.015.0353.022.0353.022s-.0123-.007-.0353-.022c-.2638-.17-1.8568-1.398.3737-5.039.1308-.216.2739-.427.4293-.655v0c.3589-.528.7834-1.152,1.2745-2.171c0,0,.6231.879.2978,2.786-.4304,2.55,1.5525,2.198,2.0428,2.111v0c.0638-.012.1024-.019.107-.014.8902,1.048-.6911,2.876-.8448,2.999-.0081.005-.0107.007-.0071.005.0018-.001.0042-.003.0071-.005l.0007-.001c.2302-.153,4.6027-3.064,1.2916-7.367-.066.066-.1376.2-.2205.356v0c-.2124.399-.499.938-.9564.821Zm4.9517-7.371c.0003-.108.0753-.216.1503-.291.1082-.074.2206-.112.3285-.111.3323,0,.8194.344,1.4035,1.006c1.6231,1.852,2.4523,3.646,2.4188,6.291-.0364,2.644-.6843,4.584-2.1175,6.34-.7361.927-1.2998,1.403-1.7026,1.402-.1079,0-.2576-.075-.3278-.15-.0747-.108-.1491-.221-.1491-.328.0007-.221.151-.478.5171-.805c1.7409-1.658,2.6366-3.798,2.643-6.462.0057-2.408-.8459-4.405-2.5389-6.035-.406-.416-.6256-.67-.6253-.857Z" clip-rule="evenodd" fill="#feb13e" fill-rule="evenodd"/></g></g><g transform="matrix(1.57075 0.643243-.646562 1.578857 392.791742-530.645631)"><path d="M87.8696,552.69c1.3487,1.942,1.7395,7.062,1.049,6.463s-3.4411-.9-4.7438-2.724c-1.3545-1.897-2.3852-6.928-2.3852-6.928s4.7412,1.261,6.08,3.189Z" fill="#be4532"/><path d="M80.3887,555.943c1.2994-1.976,1.5612-7.103.886-6.487-.6752.615-3.4174.986-4.6738,2.842-1.3063,1.931-2.21,6.985-2.21,6.985s4.7079-1.379,5.9978-3.34Z" fill="#be4532"/><path d="M85.3435,552c0,2.209-.2692,3-3.5,3-3.5,0-3.5-.791-3.5-3s1.1209-3,3.5-3s3.5.791,3.5,3Z" fill="#ea6853"/></g><g transform="translate(2.489851 4.317978)"><path d="M180.904,411.466c-10.06-9.736,2.457-22.671,12.518-12.935c5.749,5.563,1.877,1.761,6.907,6.629c9.342,9.04-3.175,21.975-12.517,12.935-5.749-5.563-3.315-3.152-6.908-6.629Z" transform="matrix(.226157 0.974091-.974091 0.226157 534.913358 134.00947)" fill="#5d9093"/><g transform="matrix(.918229-.396051 0.396051 0.918229-164.243468 117.428336)"><path d="M184.181,402.102c-3.379-13.586,14.089-17.931,17.468-4.345c1.931,7.764.66,2.488,2.35,9.281c3.137,12.616-14.33,16.96-17.468,4.345-1.931-7.764-1.143-4.429-2.35-9.281Z" fill="#5d9093"/><path d="M184.181,402.102c-4.215-16.95,13.253-21.294,17.468-4.345l-17.468,4.345Z" fill="#cab9a7"/><path d="M186.004,389.545l.83-.817l1.047,4.297-.971.236-.906-3.716Z"/><path d="M192.613,387.101l1.094.264.975,4.001-.971.237-1.098-4.502Z"/></g></g><g transform="matrix(.772405-.63513 0.63513 0.772405-215.208723 174.54536)"><path d="M139.897,402.005c8.105-11.414-6.572-21.836-14.677-10.421-4.632,6.523-1.523,2.076-5.575,7.783-7.527,10.6,7.15,21.021,14.676,10.421c4.632-6.522,2.681-3.706,5.576-7.783Z" transform="matrix(-.663429 0.748239-.748239-.663429 521.290429 552.274662)" fill="#5d9093"/><g transform="matrix(-.736789 0.676122-.676122-.736789 500.364561 594.973222)"><path d="M115.778,420.75c-12.565,6.174-20.5032-9.981-7.939-16.155c7.181-3.529,2.293-1.171,8.575-4.258c11.668-5.734,19.606,10.421,7.939,16.155-7.18,3.528-4.087,2.052-8.575,4.258Z" fill="#5d9093"/><path d="M115.778,420.75c-15.675,7.702-23.6136-8.453-7.938-16.155l7.938,16.155Z" fill="#cab9a7"/><path d="M103.12,421.622l-.974-.638l3.978-1.932.437.899-3.441,1.671Z"/><path d="M99.334,415.679l.0275-1.125l3.7045-1.799.437.9-4.169,2.024Z"/></g></g><g transform="matrix(.581701 0.813403-.813403 0.581701 364.244448 11.962417)"><path d="M136.584,315.019c-2.813-4.458-8.272-6.808-13.656-5.437-6.691,1.704-10.733,8.508-9.029,15.198.955,3.749,3.511,6.666,6.751,8.207-4.617,8.671-6.191,18.301-3.804,27.676c5.998,23.549,34.722,36.562,64.158,29.065s48.437-32.663,42.44-56.213c-1.914-7.515-6.143-13.957-11.97-19.001c4.453-3.865,5.669-10.47,2.585-15.743-3.486-5.959-11.142-7.965-17.101-4.48-3.672,2.147-5.842,5.877-6.152,9.819-9.644-2.398-20.533-2.458-31.52.34-8.572,2.183-16.26,5.865-22.702,10.569Z" transform="translate(.070749 0.187754)" clip-rule="evenodd" fill="#cab9a7" fill-rule="evenodd"/><g transform="translate(-2.269446 2.93068)"><path d="M176.279,363.07c10.704-2.726,17.282-13.18,14.692-23.349-2.59-10.168-13.367-16.202-24.071-13.476s-17.282,13.179-14.692,23.348s13.367,16.203,24.071,13.477Z" transform="translate(.003384 1.376136)" fill="#fff"/><g transform="translate(-2.291879-.23596)"><path d="M169.122,334.967c1.445,5.676,2.35671,9.432097,3.80271,15.109097" fill="none" stroke="#000"/><path d="M173.116,330.587c.89.651.391,2.848-.362,3.881-.755,1.032-2.77,2.277-3.659,1.627-.89-.649-.317-2.948.437-3.98.753-1.033,2.695-2.177,3.584-1.528Z"/><path d="M163.788,332.621c.562-.947,2.798-.658,3.897-.005c1.099.652,2.529,2.541,1.967,3.488-.563.947-2.906.594-4.005-.059-1.099-.652-2.421-2.478-1.859-3.424Z"/><path d="M171.253115,347.488738c2.117944-.318611,5.467757-1.59974,5.467757-1.59974-.05559.125062.785954,2.176665.664451,2.319967-.347257,6.016178-8.348009,7.713021-11.290879,2.01591-.027365-.044066-.690705-2.140609-.636741-2.089066c0,0,3.092149.018486,5.507943-.563018" transform="translate(1.881103 2.494127)" clip-rule="evenodd" fill-rule="evenodd"/></g></g><g transform="translate(-.993993 0.829753)"><path d="M141.537,337.048l-1.801.07c0,0-1.541-.356-1.28-.782.261-.427.949-.592.949-.592l1.801-.071.331,1.375Z" clip-rule="evenodd" fill-rule="evenodd"/><path d="M148.362,341.223c-1.441,2.355-4.519,3.097-6.875,1.656-2.355-1.441-3.097-4.519-1.656-6.875.305-.498.683-.924,1.113-1.273.736352-.710068,2.69277-1.661879,4.749-.857.347.118.687.275,1.013.474c2.355,1.441,3.096,4.52,1.656,6.875Z"/><path d="M273.256684,362.788445l1.462383-.591177c0,0,.945599,3.418116,3.403834,3.167033c3.285793-.335609,3.596938-3.447063,3.596938-3.447063l1.493498.093343c0,0-.466718,4.604952-4.974024,4.782046-4.204766-.08375-4.982629-4.004182-4.982629-4.004182Z" transform="matrix(.978601-.205766 0.205766 0.978601-202.558038 41.790392)" stroke-width="1.2"/><path d="M145.573,338.48c-.72,1.178-2.259,1.549-3.437.828s-1.548-2.259-.828-3.437c.721-1.178,2.259-1.549,3.437-.828s1.549,2.259.828,3.437Z" transform="translate(-.340946 0.069075)" fill="#fff"/><path d="M144.946,341.389c.236.144.544.07.688-.166.144-.235.07-.543-.166-.687-.235-.144-.543-.07-.687.165-.144.236-.07.544.165.688Z" transform="translate(.848632 0.019538)" fill="#fff"/></g><g transform="translate(-4.387609 2.479996)"><path d="M195.241,323.315l1.589-.851c0,0,1.148-1.087.708-1.323-.441-.235-1.118-.03-1.118-.03l-1.589.85.41,1.354Z" clip-rule="evenodd" fill-rule="evenodd"/><path d="M191.467,330.369c2.434,1.302,5.465.384,6.767-2.05c1.303-2.435.385-5.465-2.05-6.768-.515-.275-1.057-.451-1.604-.535-1.801871-.265691-3.249956.042612-4.53,1.664-.24.277-.453.585-.633.922-1.303,2.434-.385,5.465,2.05,6.767Z" transform="translate(.035403 0.160097)"/><path d="M273.256684,362.788445l1.462383-.591177c0,0,.945599,3.418116,3.403834,3.167033c3.285793-.335609,3.596938-3.447063,3.596938-3.447063l1.493498.093343c0,0-.466718,4.604952-4.974024,4.782046-4.204766-.08375-4.982629-4.004182-4.982629-4.004182Z" transform="matrix(.980728-.153182 0.154321 0.988021-134.777752 11.253911)" stroke-width="1.2"/><path d="M191.204,327.588c1.218.652,2.733.193,3.384-1.025s.193-2.732-1.025-3.384c-1.218-.651-2.732-.192-3.384,1.025-.651,1.218-.192,2.733,1.025,3.384Z" transform="translate(.332746-.429981)" fill="#fff"/><path d="M196.118,327.913c-.131.243-.434.335-.677.205-.244-.131-.335-.434-.205-.677.13-.244.433-.335.677-.205.243.13.335.433.205.677Z" transform="translate(.572578 0.571174)" fill="#fff"/></g><path d="M136.52,367.004c5.084-1.295,8.211-6.25,6.985-11.067-1.227-4.816-6.343-7.671-11.428-6.377-5.084,1.295-8.211,6.25-6.985,11.067c1.227,4.816,6.343,7.672,11.428,6.377Z" transform="translate(-3.867924-3.714489)" fill="#ea6853"/><path d="M212.107,347.754c5.084-1.295,8.211-6.25,6.985-11.067-1.227-4.816-6.343-7.672-11.428-6.377-5.084,1.295-8.211,6.25-6.985,11.066c1.227,4.817,6.343,7.672,11.428,6.378Z" transform="translate(-3.867924-3.714489)" fill="#ea6853"/><path d="M125.633,318.18c-2.675.682-4.292,3.404-3.611,6.079.404,1.586,1.039,2.922,2.441,3.506c0,0,1.79-2.88,3.012-4.378c1.174-1.439,3.26-3.41,3.26-3.41-1.157-1.661-3.025-2.326-5.102-1.797Z"/><path d="M200.623,302.692c2.919-.467,5.456,1.316,6.21,4.128.429,1.607.248,1.978-.533,4.225c0,0-3.548-2.011-5.331-2.882-1.712-.836-4.519-1.79-4.519-1.79.437-1.974,1.962-3.329,4.173-3.681Z"/><g transform="matrix(1.014712-.200747 0.200747 1.014712 29.06285-168.474325)"><path d="M61.586574,5.854656L75.828111,3.53414l8.78289,10.388957l1.415887,2.356521l4.094613,3.577174-5.918765,2.563727-.008003-4.867527-1.422479-2.257545-2.479675.267289c0,0-1.410987,3.963632-2.011678,5.664426-4.801456,2.900354-14.499651.582466-15.911385-6.020702.79422-2.33873,2.250543-5.428104,2.250543-5.428104l-3.033485-3.9237Z" transform="matrix(1.971694-.741138 0.76138 2.025546-114.729256 491.178818)" fill="#616394" stroke-width="0.5"/><path d="M21.9233,474.51l.031-10.5l14.9778,7.544l16.0235-7.952-.0325,11c0,0-6.4206,6.981-16.0206,6.952-9.5999-.028-14.9792-7.044-14.9792-7.044Z"/><path d="M66.493248,461.678998L59.9733,457.622L37.0118,444.555L14.9735,457.49l21.9674,11.064l23.0324-10.932l5.77387,5.195054l3.044041,7.948688l5.545992-5.963448-7.843955-3.123296Z"/><path d="M59.9733,457.622l6.062636,4.541303M59.9733,457.622L37.0118,444.555L14.9735,457.49l21.9674,11.064l23.0324-10.932Zm6.198654,4.757879l7.889702,2.577679-5.207403,4.833495-2.682299-7.411174ZM52.9556,463.602l-.0325,11c0,0-6.4206,6.981-16.0206,6.952-9.5999-.028-14.9792-7.044-14.9792-7.044l.031-10.5l14.9778,7.544l16.0235-7.952Z" fill="none" stroke="#000"/></g></g></g></svg>