<svg xmlns="http://www.w3.org/2000/svg" xmlns:xlink="http://www.w3.org/1999/xlink" width="600" zoomAndPan="magnify" viewBox="0 0 450 389.999986" height="520" preserveAspectRatio="xMidYMid meet" version="1.0"><defs><filter x="0%" y="0%" width="100%" height="100%" id="baff28e3f0"><feColorMatrix values="0 0 0 0 1 0 0 0 0 1 0 0 0 0 1 0 0 0 1 0" color-interpolation-filters="sRGB"/></filter><mask id="d50328fc32"><g filter="url(#baff28e3f0)"><rect x="-45" width="540" fill="#000000" y="-38.999999" height="467.999983" fill-opacity="0.098"/></g></mask><clipPath id="0fdc98ae09"><path d="M 74.246094 388.5 L 75.996094 388.5 L 75.996094 389.996094 L 74.246094 389.996094 Z M 74.246094 388.5 " clip-rule="nonzero"/></clipPath><clipPath id="0aceabd1c8"><path d="M 111.730469 373 L 141.214844 373 L 141.214844 389.996094 L 111.730469 389.996094 Z M 111.730469 373 " clip-rule="nonzero"/></clipPath><clipPath id="78aeb93c10"><path d="M 75 356.75 L 132.21875 356.75 L 132.21875 389.996094 L 75 389.996094 Z M 75 356.75 " clip-rule="nonzero"/></clipPath><clipPath id="4a6db88088"><path d="M 159 356.75 L 169.703125 356.75 L 169.703125 389.996094 L 159 389.996094 Z M 159 356.75 " clip-rule="nonzero"/></clipPath><clipPath id="95c25f9eef"><path d="M 205.433594 324.75 L 207.183594 324.75 L 207.183594 389.996094 L 205.433594 389.996094 Z M 205.433594 324.75 " clip-rule="nonzero"/></clipPath><clipPath id="534ad6c5d8"><path d="M 223.425781 324.75 L 264.15625 324.75 L 264.15625 389.996094 L 223.425781 389.996094 Z M 223.425781 324.75 " clip-rule="nonzero"/></clipPath><clipPath id="70080d3d98"><path d="M 177.699219 324.75 L 189.191406 324.75 L 189.191406 389.996094 L 177.699219 389.996094 Z M 177.699219 324.75 " clip-rule="nonzero"/></clipPath><clipPath id="258207f31b"><path d="M 18.023438 324.75 L 75.246094 324.75 L 75.246094 389.996094 L 18.023438 389.996094 Z M 18.023438 324.75 " clip-rule="nonzero"/></clipPath><clipPath id="1f3352e6bf"><path d="M 0.0351562 324.75 L 39.265625 324.75 L 39.265625 389.996094 L 0.0351562 389.996094 Z M 0.0351562 324.75 " clip-rule="nonzero"/></clipPath><clipPath id="6acddc08fa"><path d="M 393 128.5 L 449.957031 128.5 L 449.957031 163.25 L 393 163.25 Z M 393 128.5 " clip-rule="nonzero"/></clipPath><clipPath id="0941ee930b"><path d="M 449.316406 65 L 449.957031 65 L 449.957031 130 L 449.316406 130 Z M 449.316406 65 " clip-rule="nonzero"/></clipPath><clipPath id="8e5c0d086e"><path d="M 412.585938 172.5 L 449.957031 172.5 L 449.957031 196.5 L 412.585938 196.5 Z M 412.585938 172.5 " clip-rule="nonzero"/></clipPath><clipPath id="71e8614943"><path d="M 449.316406 194 L 449.957031 194 L 449.957031 195 L 449.316406 195 Z M 449.316406 194 " clip-rule="nonzero"/></clipPath><clipPath id="9524aeb8a5"><path d="M 430.574219 150.75 L 449.957031 150.75 L 449.957031 164 L 430.574219 164 Z M 430.574219 150.75 " clip-rule="nonzero"/></clipPath><clipPath id="2473fbb5fd"><path d="M 449.316406 130 L 449.957031 130 L 449.957031 131.5 L 449.316406 131.5 Z M 449.316406 130 " clip-rule="nonzero"/></clipPath><clipPath id="412759e578"><path d="M 393 0 L 449.957031 0 L 449.957031 33.25 L 393 33.25 Z M 393 0 " clip-rule="nonzero"/></clipPath><clipPath id="05366d3938"><path d="M 412.585938 42.5 L 449.957031 42.5 L 449.957031 66.5 L 412.585938 66.5 Z M 412.585938 42.5 " clip-rule="nonzero"/></clipPath><clipPath id="d2606f15b4"><path d="M 449.316406 64 L 449.957031 64 L 449.957031 65 L 449.316406 65 Z M 449.316406 64 " clip-rule="nonzero"/></clipPath><clipPath id="2926a452c3"><path d="M 430.574219 20.75 L 449.957031 20.75 L 449.957031 34 L 430.574219 34 Z M 430.574219 20.75 " clip-rule="nonzero"/></clipPath><clipPath id="30e5734067"><path d="M 449.316406 0 L 449.957031 0 L 449.957031 1.5 L 449.316406 1.5 Z M 449.316406 0 " clip-rule="nonzero"/></clipPath><clipPath id="abe4b403cc"><path d="M 393 226 L 449.957031 226 L 449.957031 293.25 L 393 293.25 Z M 393 226 " clip-rule="nonzero"/></clipPath><clipPath id="9d2847a57c"><path d="M 449.316406 194.75 L 449.957031 194.75 L 449.957031 260 L 449.316406 260 Z M 449.316406 194.75 " clip-rule="nonzero"/></clipPath><clipPath id="dbe507aaa8"><path d="M 412.585938 302.5 L 449.957031 302.5 L 449.957031 325 L 412.585938 325 Z M 412.585938 302.5 " clip-rule="nonzero"/></clipPath><clipPath id="47ee5c52d7"><path d="M 449.316406 324 L 449.957031 324 L 449.957031 325 L 449.316406 325 Z M 449.316406 324 " clip-rule="nonzero"/></clipPath><clipPath id="e7d13be447"><path d="M 430.574219 280.75 L 449.957031 280.75 L 449.957031 294 L 430.574219 294 Z M 430.574219 280.75 " clip-rule="nonzero"/></clipPath><clipPath id="a82c976afd"><path d="M 449.316406 260 L 449.957031 260 L 449.957031 261.5 L 449.316406 261.5 Z M 449.316406 260 " clip-rule="nonzero"/></clipPath><clipPath id="1ffd3c7d06"><path d="M 336.621094 373 L 366.105469 373 L 366.105469 389.996094 L 336.621094 389.996094 Z M 336.621094 373 " clip-rule="nonzero"/></clipPath><clipPath id="89e788a95a"><path d="M 243 259.75 L 376.601562 259.75 L 376.601562 389.996094 L 243 389.996094 Z M 243 259.75 " clip-rule="nonzero"/></clipPath><clipPath id="fa4bd2625c"><path d="M 402.589844 324.75 L 414.332031 324.75 L 414.332031 389.996094 L 402.589844 389.996094 Z M 402.589844 324.75 " clip-rule="nonzero"/></clipPath><clipPath id="be9f9c79dd"><path d="M 384 356.75 L 394.59375 356.75 L 394.59375 389.996094 L 384 389.996094 Z M 384 356.75 " clip-rule="nonzero"/></clipPath><clipPath id="3795031eea"><path d="M 448.566406 324.75 L 449.957031 324.75 L 449.957031 389.996094 L 448.566406 389.996094 Z M 448.566406 324.75 " clip-rule="nonzero"/></clipPath><clipPath id="9579b14855"><path d="M 430.574219 324.75 L 432.324219 324.75 L 432.324219 389.996094 L 430.574219 389.996094 Z M 430.574219 324.75 " clip-rule="nonzero"/></clipPath><clipPath id="2a0d6cd983"><rect x="0" width="450" y="0" height="390"/></clipPath></defs><g mask="url(#d50328fc32)"><g transform="matrix(1, 0, 0, 1, 0, 0)"><g clip-path="url(#2a0d6cd983)"><path fill="#3b3b4f" d="M 56.691406 31.851562 L 55.570312 33.796875 L 55.570312 52.871094 L 47.3125 48.101562 L 46.566406 49.398438 L 55.570312 54.601562 L 55.570312 65 L 57.070312 65 L 57.070312 32.496094 C 57.070312 32.21875 56.914062 31.980469 56.691406 31.851562 " fill-opacity="1" fill-rule="nonzero"/><path fill="#3b3b4f" d="M 94.574219 33.796875 L 94.578125 33.800781 L 94.578125 0 L 93.078125 0 L 93.078125 31.203125 L 93.078125 31.199219 L 93.078125 65 L 94.574219 65 L 94.574219 33.796875 " fill-opacity="1" fill-rule="nonzero"/><path fill="#3b3b4f" d="M 65.320312 16.902344 L 74.324219 22.101562 L 74.324219 64.566406 L 73.574219 65 L 75.820312 65 L 75.820312 0.433594 L 76.570312 0 L 75.074219 0 L 74.324219 1.300781 L 74.324219 20.371094 L 66.070312 15.601562 L 65.320312 16.902344 " fill-opacity="1" fill-rule="nonzero"/><path fill="#3b3b4f" d="M 47.316406 81.898438 L 75.449219 65.648438 C 75.6875 65.507812 75.820312 65.257812 75.820312 65 L 73.574219 65 L 57.066406 74.535156 L 57.066406 65 L 55.566406 65 L 55.566406 75.402344 L 46.566406 80.601562 L 47.316406 81.898438 " fill-opacity="1" fill-rule="nonzero"/><path fill="#3b3b4f" d="M 66.070312 114.398438 L 93.078125 98.796875 L 94.578125 96.195312 L 65.320312 113.097656 L 66.070312 114.398438 " fill-opacity="1" fill-rule="nonzero"/><path fill="#3b3b4f" d="M 55.570312 96.199219 L 56.691406 98.144531 L 56.695312 98.148438 L 111.832031 66.296875 L 112.582031 65 L 112.582031 64.996094 L 114.058594 64.996094 L 113.308594 64.566406 L 113.308594 63.742188 L 113.332031 63.699219 L 113.332031 44.628906 L 121.570312 49.382812 L 121.5625 49.398438 L 148.570312 64.996094 L 151.570312 64.996094 L 122.328125 48.109375 L 122.335938 48.097656 C 122.335938 48.097656 122.335938 48.097656 122.332031 48.097656 L 113.332031 42.894531 L 113.332031 0.433594 L 114.082031 0 L 111.832031 0 L 111.832031 64.566406 L 111.082031 65 L 94.574219 74.535156 L 94.574219 65 L 93.074219 65 L 93.074219 75.398438 L 56.320312 96.632812 L 55.570312 96.199219 " fill-opacity="1" fill-rule="nonzero"/><path fill="#3b3b4f" d="M 74.324219 128.695312 L 75.074219 129.996094 L 75.449219 129.347656 L 75.824219 128.695312 L 75.074219 129.128906 L 74.324219 128.695312 " fill-opacity="1" fill-rule="nonzero"/><path fill="#3b3b4f" d="M 130.945312 33.136719 L 130.941406 33.148438 L 130.9375 33.152344 L 186.078125 65 L 187.574219 65 L 186.824219 63.699219 L 170.316406 54.164062 L 178.570312 49.398438 L 177.820312 48.097656 L 168.816406 53.296875 L 132.0625 32.066406 L 132.0625 31.242188 L 132.085938 31.203125 L 132.085938 12.128906 L 140.324219 16.886719 L 140.316406 16.902344 L 168.449219 33.152344 C 168.6875 33.289062 168.972656 33.277344 169.195312 33.148438 L 168.074219 31.203125 L 151.5625 21.667969 L 159.820312 16.898438 L 159.070312 15.601562 L 150.066406 20.800781 L 141.082031 15.613281 L 141.089844 15.597656 L 132.085938 10.398438 L 132.085938 0 L 130.585938 0 L 130.585938 32.5 C 130.585938 32.773438 130.730469 33.003906 130.945312 33.136719 " fill-opacity="1" fill-rule="nonzero"/><path fill="#3b3b4f" d="M 130.960938 96.851562 L 75.824219 128.699219 L 75.074219 129.996094 L 76.574219 129.996094 L 93.082031 120.460938 L 93.082031 129.996094 L 94.578125 129.996094 C 94.578125 129.996094 94.578125 129.996094 94.582031 129.996094 L 94.582031 119.59375 L 131.335938 98.367188 L 132.085938 98.796875 L 130.960938 96.851562 " fill-opacity="1" fill-rule="nonzero"/><path fill="#3b3b4f" d="M 140.335938 113.097656 L 112.203125 129.347656 C 111.964844 129.488281 111.832031 129.738281 111.832031 129.996094 L 114.078125 129.996094 L 130.585938 120.460938 L 130.589844 129.996094 L 132.085938 129.996094 L 132.085938 119.59375 L 141.085938 114.394531 L 140.335938 113.097656 " fill-opacity="1" fill-rule="nonzero"/><path fill="#3b3b4f" d="M 93.078125 98.800781 L 122.332031 81.898438 L 121.585938 80.601562 L 94.574219 96.203125 L 93.078125 98.800781 " fill-opacity="1" fill-rule="nonzero"/><path fill="#3b3b4f" d="M 112.207031 65.648438 L 111.832031 66.296875 L 112.582031 65.867188 L 113.332031 66.296875 L 112.582031 65 L 112.207031 65.648438 " fill-opacity="1" fill-rule="nonzero"/><path fill="#3b3b4f" d="M 112.582031 65 L 113.332031 66.296875 L 129.839844 75.835938 L 121.585938 80.601562 L 122.335938 81.898438 L 131.339844 76.699219 L 168.09375 97.933594 L 168.09375 98.796875 L 169.21875 96.851562 L 114.082031 65 L 112.582031 65 " fill-opacity="1" fill-rule="nonzero"/><path fill="#3b3b4f" d="M 130.960938 96.851562 L 132.085938 98.796875 L 148.59375 108.328125 L 140.339844 113.101562 L 141.089844 114.398438 L 150.09375 109.195312 L 159.09375 114.394531 L 159.84375 113.097656 L 131.710938 96.847656 C 131.46875 96.707031 131.1875 96.71875 130.960938 96.851562 " fill-opacity="1" fill-rule="nonzero"/><path fill="#3b3b4f" d="M 148.589844 65 L 177.847656 81.898438 L 178.597656 80.601562 L 151.585938 65 L 148.589844 65 " fill-opacity="1" fill-rule="nonzero"/><path fill="#3b3b4f" d="M 187.597656 65 L 186.101562 65 L 186.847656 65.433594 L 186.847656 66.296875 L 187.597656 65 " fill-opacity="1" fill-rule="nonzero"/><path fill="#3b3b4f" d="M 169.222656 96.851562 L 168.097656 98.796875 L 168.097656 117.867188 L 159.84375 113.101562 L 159.09375 114.398438 L 168.097656 119.601562 L 168.097656 129.996094 L 169.597656 129.996094 L 169.597656 97.496094 C 169.597656 97.21875 169.445312 96.980469 169.222656 96.851562 " fill-opacity="1" fill-rule="nonzero"/><path fill="#3b3b4f" d="M 207.105469 98.796875 L 207.105469 98.800781 L 207.105469 65 L 205.605469 65 L 205.605469 96.199219 L 205.605469 96.195312 L 205.605469 129.996094 L 207.105469 129.996094 L 207.105469 98.796875 " fill-opacity="1" fill-rule="nonzero"/><path fill="#3b3b4f" d="M 178.597656 80.601562 L 177.847656 81.898438 C 177.847656 81.898438 177.847656 81.902344 177.847656 81.902344 L 186.851562 87.101562 L 186.851562 129.566406 L 186.101562 129.996094 L 188.351562 129.996094 L 188.351562 65.433594 L 189.101562 65 L 205.609375 55.460938 L 205.609375 64.996094 L 207.109375 64.996094 L 207.109375 54.597656 L 243.863281 33.367188 L 244.613281 33.796875 L 243.492188 31.851562 L 243.488281 31.851562 L 188.351562 63.699219 L 187.601562 65 L 186.851562 66.296875 L 186.851562 85.371094 L 178.597656 80.601562 " fill-opacity="1" fill-rule="nonzero"/><path fill="#3b3b4f" d="M 188.351562 129.996094 L 186.105469 129.996094 L 169.597656 139.535156 L 169.59375 130 L 168.097656 130 L 168.097656 140.402344 L 159.097656 145.601562 L 159.847656 146.898438 L 187.976562 130.648438 C 188.21875 130.507812 188.351562 130.257812 188.351562 129.996094 " fill-opacity="1" fill-rule="nonzero"/><path fill="#3b3b4f" d="M 178.601562 179.394531 L 205.609375 163.792969 L 207.109375 161.195312 L 177.851562 178.097656 L 178.601562 179.394531 " fill-opacity="1" fill-rule="nonzero"/><path fill="#3b3b4f" d="M 187.976562 194.347656 L 188.351562 193.695312 L 187.601562 194.132812 L 186.851562 193.695312 L 187.601562 194.996094 L 187.976562 194.347656 " fill-opacity="1" fill-rule="nonzero"/><path fill="#3b3b4f" d="M 234.863281 113.09375 L 225.859375 107.894531 L 225.859375 65.433594 L 226.609375 65 L 224.359375 65 L 224.359375 129.566406 L 223.609375 129.996094 L 207.101562 139.535156 L 207.101562 130 C 207.101562 130 207.101562 130 207.101562 129.996094 L 205.601562 129.996094 C 205.601562 130 205.601562 130 205.601562 130 L 205.601562 140.398438 L 168.847656 161.632812 L 168.097656 161.199219 L 169.222656 163.144531 L 169.222656 163.148438 L 224.359375 131.296875 L 225.109375 129.996094 L 226.585938 129.996094 L 225.835938 129.566406 L 225.835938 128.738281 L 225.859375 128.699219 L 225.859375 109.628906 L 234.097656 114.382812 L 234.089844 114.398438 L 261.101562 129.996094 L 264.097656 129.996094 L 234.859375 113.109375 L 234.863281 113.097656 C 234.863281 113.09375 234.863281 113.09375 234.863281 113.09375 " fill-opacity="1" fill-rule="nonzero"/><path fill="#3b3b4f" d="M 252.867188 178.097656 L 224.734375 194.347656 C 224.492188 194.484375 224.363281 194.738281 224.363281 194.996094 L 226.605469 194.996094 L 243.117188 185.460938 L 243.117188 194.996094 L 244.617188 194.996094 L 244.617188 184.59375 L 253.617188 179.394531 L 252.867188 178.097656 " fill-opacity="1" fill-rule="nonzero"/><path fill="#3b3b4f" d="M 205.605469 163.800781 L 234.863281 146.898438 L 234.113281 145.601562 L 207.105469 161.203125 L 205.605469 163.800781 " fill-opacity="1" fill-rule="nonzero"/><path fill="#3b3b4f" d="M 205.609375 194.996094 L 207.109375 194.996094 L 207.109375 184.59375 L 243.863281 163.363281 L 244.613281 163.796875 L 243.492188 161.851562 L 243.488281 161.847656 L 188.351562 193.699219 L 187.601562 194.996094 L 186.851562 196.296875 L 186.851562 215.367188 L 178.597656 210.601562 L 177.847656 211.898438 L 186.851562 217.101562 L 186.851562 259.5625 L 186.101562 259.996094 L 188.351562 259.996094 L 188.351562 195.429688 L 189.101562 194.996094 L 205.609375 185.460938 L 205.609375 194.996094 " fill-opacity="1" fill-rule="nonzero"/><path fill="#3b3b4f" d="M 225.109375 130 L 224.359375 131.296875 L 225.109375 130.867188 L 225.859375 131.296875 L 225.109375 130 " fill-opacity="1" fill-rule="nonzero"/><path fill="#3b3b4f" d="M 264.117188 129.996094 L 261.117188 129.996094 L 290.324219 146.867188 L 290.304688 146.898438 C 290.304688 146.898438 290.304688 146.898438 290.304688 146.902344 L 299.308594 152.101562 L 299.308594 194.5625 L 298.558594 194.996094 L 300.808594 194.996094 L 300.808594 130.429688 L 301.558594 129.996094 L 300.058594 129.996094 L 300.058594 130 L 298.628906 130 L 299.378906 130.433594 L 299.378906 131.179688 L 299.308594 131.296875 L 299.308594 150.371094 L 291.109375 145.632812 L 291.125 145.601562 L 264.117188 129.996094 " fill-opacity="1" fill-rule="nonzero"/><path fill="#3b3b4f" d="M 159.847656 16.902344 L 187.976562 0.648438 C 188.21875 0.511719 188.351562 0.257812 188.351562 0 L 186.105469 0 L 169.597656 9.539062 L 169.59375 0 L 168.097656 0 L 168.097656 10.402344 L 159.097656 15.601562 L 159.847656 16.902344 " fill-opacity="1" fill-rule="nonzero"/><path fill="#3b3b4f" d="M 178.601562 49.398438 L 205.609375 33.796875 L 207.109375 31.199219 L 177.851562 48.097656 L 178.601562 49.398438 " fill-opacity="1" fill-rule="nonzero"/><path fill="#3b3b4f" d="M 168.097656 31.199219 L 169.222656 33.148438 L 169.222656 33.152344 L 224.359375 1.300781 L 225.109375 0 L 223.609375 0 L 207.101562 9.535156 L 207.101562 0.00390625 C 207.101562 0 207.101562 0 207.101562 0 L 205.601562 0 C 205.601562 0 205.601562 0 205.601562 0.00390625 L 205.601562 10.402344 L 168.847656 31.632812 L 168.097656 31.199219 " fill-opacity="1" fill-rule="nonzero"/><path fill="#3b3b4f" d="M 187.976562 64.347656 L 188.351562 63.699219 L 187.601562 64.132812 L 186.851562 63.699219 L 187.601562 64.996094 L 187.976562 64.347656 " fill-opacity="1" fill-rule="nonzero"/><path fill="#3b3b4f" d="M 252.867188 48.097656 L 224.734375 64.347656 C 224.492188 64.488281 224.363281 64.742188 224.363281 64.996094 L 226.605469 64.996094 L 243.117188 55.460938 L 243.117188 64.996094 L 244.617188 64.996094 L 244.617188 54.59375 L 253.617188 49.398438 L 252.867188 48.097656 " fill-opacity="1" fill-rule="nonzero"/><path fill="#3b3b4f" d="M 205.605469 33.800781 L 234.863281 16.902344 L 234.113281 15.601562 L 207.105469 31.203125 L 205.605469 33.800781 " fill-opacity="1" fill-rule="nonzero"/><path fill="#3b3b4f" d="M 225.109375 0 L 224.734375 0.648438 L 224.359375 1.300781 L 225.109375 0.867188 L 225.859375 1.300781 L 225.109375 0 " fill-opacity="1" fill-rule="nonzero"/><path fill="#3b3b4f" d="M 242.371094 10.835938 L 234.117188 15.601562 C 234.117188 15.601562 234.117188 15.601562 234.113281 15.601562 L 234.863281 16.902344 C 234.863281 16.902344 234.867188 16.902344 234.867188 16.902344 L 243.867188 11.699219 L 280.621094 32.933594 L 280.621094 33.679688 L 280.554688 33.796875 L 280.554688 52.871094 L 272.351562 48.128906 L 272.371094 48.097656 L 244.238281 31.847656 C 244 31.710938 243.714844 31.71875 243.492188 31.851562 L 244.613281 33.796875 L 261.121094 43.332031 L 252.867188 48.101562 L 253.617188 49.398438 L 262.621094 44.195312 L 271.570312 49.367188 L 271.554688 49.398438 L 280.554688 54.601562 L 280.554688 65 L 282.054688 65 L 282.054688 32.496094 C 282.054688 32.242188 281.925781 32.019531 281.730469 31.886719 L 281.746094 31.851562 L 226.609375 0 L 225.113281 0 L 225.859375 1.300781 L 242.371094 10.835938 " fill-opacity="1" fill-rule="nonzero"/><path fill="#3b3b4f" d="M 57.070312 194.996094 L 57.070312 162.496094 C 57.070312 162.21875 56.914062 161.976562 56.691406 161.851562 L 55.570312 163.792969 L 55.570312 182.867188 L 47.3125 178.101562 L 46.566406 179.398438 L 55.570312 184.601562 L 55.570312 194.996094 L 57.070312 194.996094 " fill-opacity="1" fill-rule="nonzero"/><path fill="#3b3b4f" d="M 66.070312 145.601562 L 65.320312 146.898438 C 65.320312 146.898438 65.320312 146.898438 65.320312 146.902344 L 74.324219 152.101562 L 74.324219 194.5625 L 73.574219 194.996094 L 75.820312 194.996094 L 75.820312 130.429688 L 76.570312 129.996094 L 75.074219 129.996094 L 74.324219 131.296875 L 74.324219 150.371094 L 66.070312 145.601562 " fill-opacity="1" fill-rule="nonzero"/><path fill="#3b3b4f" d="M 56.695312 228.148438 L 111.832031 196.296875 L 112.582031 194.996094 L 114.058594 194.996094 L 113.308594 194.5625 L 113.308594 193.738281 L 113.332031 193.699219 L 113.332031 174.625 L 121.570312 179.382812 L 121.5625 179.394531 L 148.570312 194.996094 L 151.570312 194.996094 L 122.328125 178.105469 L 122.335938 178.09375 C 122.335938 178.09375 122.335938 178.09375 122.332031 178.09375 L 113.332031 172.894531 L 113.332031 130.429688 L 114.082031 129.996094 L 111.832031 129.996094 L 111.832031 194.5625 L 111.082031 194.996094 L 94.574219 204.53125 L 94.574219 195 C 94.574219 195 94.574219 195 94.574219 194.996094 L 93.074219 194.996094 C 93.074219 195 93.074219 195 93.074219 195 L 93.074219 205.398438 L 56.320312 226.632812 L 55.570312 226.195312 L 56.691406 228.144531 L 56.695312 228.148438 " fill-opacity="1" fill-rule="nonzero"/><path fill="#3b3b4f" d="M 47.316406 211.898438 L 75.449219 195.648438 C 75.6875 195.507812 75.820312 195.257812 75.820312 195 L 73.574219 195 L 57.066406 204.535156 L 57.066406 195 L 55.566406 195 L 55.566406 205.398438 L 46.566406 210.601562 L 47.316406 211.898438 " fill-opacity="1" fill-rule="nonzero"/><path fill="#3b3b4f" d="M 93.078125 228.792969 L 94.578125 226.195312 L 65.320312 243.09375 L 66.070312 244.394531 L 93.078125 228.792969 " fill-opacity="1" fill-rule="nonzero"/><path fill="#3b3b4f" d="M 75.449219 259.34375 L 75.824219 258.695312 L 75.074219 259.128906 L 74.324219 258.695312 L 75.074219 259.996094 L 75.449219 259.34375 " fill-opacity="1" fill-rule="nonzero"/><path fill="#3b3b4f" d="M 168.449219 163.148438 C 168.6875 163.289062 168.972656 163.277344 169.195312 163.148438 L 168.074219 161.203125 L 151.5625 151.664062 L 159.820312 146.898438 L 159.070312 145.597656 L 150.066406 150.796875 L 141.082031 145.609375 L 141.089844 145.597656 L 132.085938 140.398438 L 132.085938 129.996094 L 130.585938 129.996094 L 130.585938 162.5 C 130.585938 162.769531 130.730469 163.003906 130.945312 163.136719 L 130.941406 163.144531 L 130.9375 163.148438 L 186.078125 194.996094 L 187.574219 194.996094 L 186.824219 193.699219 L 170.316406 184.164062 L 178.570312 179.394531 L 177.820312 178.09375 C 177.820312 178.09375 177.820312 178.09375 177.820312 178.097656 L 168.816406 183.296875 L 132.0625 162.0625 L 132.0625 161.238281 L 132.085938 161.203125 L 132.085938 142.128906 L 140.324219 146.886719 L 140.316406 146.898438 L 168.449219 163.148438 " fill-opacity="1" fill-rule="nonzero"/><path fill="#3b3b4f" d="M 93.078125 161.199219 L 93.078125 161.195312 L 93.078125 194.996094 L 94.574219 194.996094 L 94.574219 163.796875 L 94.578125 163.796875 L 94.578125 129.996094 L 93.078125 129.996094 L 93.078125 161.199219 " fill-opacity="1" fill-rule="nonzero"/><path fill="#3b3b4f" d="M 140.335938 243.09375 L 112.203125 259.34375 C 111.964844 259.484375 111.832031 259.738281 111.832031 259.996094 L 114.078125 259.996094 L 130.585938 250.460938 L 130.589844 259.996094 L 132.085938 259.996094 L 132.085938 249.59375 L 141.085938 244.394531 L 140.335938 243.09375 " fill-opacity="1" fill-rule="nonzero"/><path fill="#3b3b4f" d="M 93.078125 228.796875 L 122.332031 211.898438 L 121.585938 210.597656 L 94.574219 226.199219 L 93.078125 228.796875 " fill-opacity="1" fill-rule="nonzero"/><path fill="#3b3b4f" d="M 94.582031 259.996094 L 94.582031 249.59375 L 131.335938 228.363281 L 132.085938 228.796875 L 130.960938 226.851562 L 130.960938 226.847656 L 75.824219 258.695312 L 75.074219 259.996094 L 76.574219 259.996094 L 93.082031 250.460938 L 93.082031 259.996094 L 94.578125 259.996094 C 94.578125 259.996094 94.578125 259.996094 94.582031 259.996094 " fill-opacity="1" fill-rule="nonzero"/><path fill="#3b3b4f" d="M 112.582031 195 L 111.832031 196.296875 L 112.582031 195.863281 L 113.332031 196.296875 L 112.582031 195 " fill-opacity="1" fill-rule="nonzero"/><path fill="#3b3b4f" d="M 178.597656 210.597656 L 151.585938 195 L 148.589844 195 L 177.847656 211.898438 L 178.597656 210.597656 " fill-opacity="1" fill-rule="nonzero"/><path fill="#3b3b4f" d="M 150.09375 239.195312 L 159.09375 244.394531 L 159.84375 243.09375 L 131.710938 226.84375 C 131.46875 226.707031 131.1875 226.71875 130.960938 226.847656 L 132.085938 228.792969 L 148.59375 238.328125 L 140.339844 243.097656 L 141.089844 244.398438 L 150.09375 239.195312 " fill-opacity="1" fill-rule="nonzero"/><path fill="#3b3b4f" d="M 169.21875 226.851562 L 169.21875 226.847656 L 114.082031 194.996094 L 112.582031 194.996094 L 113.332031 196.296875 L 129.839844 205.832031 L 121.585938 210.601562 L 122.335938 211.898438 L 131.339844 206.699219 L 168.09375 227.929688 L 168.09375 228.796875 L 169.21875 226.851562 " fill-opacity="1" fill-rule="nonzero"/><path fill="#3b3b4f" d="M 187.597656 195 L 186.101562 195 L 186.847656 195.429688 L 186.847656 196.296875 L 187.597656 195 " fill-opacity="1" fill-rule="nonzero"/><path fill="#3b3b4f" d="M 168.097656 259.996094 L 169.597656 259.996094 L 169.597656 227.496094 C 169.597656 227.21875 169.445312 226.976562 169.222656 226.847656 L 168.097656 228.792969 L 168.097656 247.867188 L 159.84375 243.097656 L 159.09375 244.398438 L 168.097656 249.597656 L 168.097656 259.996094 " fill-opacity="1" fill-rule="nonzero"/><path fill="#3b3b4f" d="M 159.847656 276.898438 L 187.976562 260.648438 C 188.21875 260.507812 188.351562 260.253906 188.351562 259.996094 L 186.105469 259.996094 L 169.597656 269.53125 L 169.59375 259.996094 L 168.097656 259.996094 L 168.097656 270.398438 L 159.097656 275.597656 L 159.847656 276.898438 " fill-opacity="1" fill-rule="nonzero"/><path fill="#3b3b4f" d="M 207.109375 291.195312 L 177.851562 308.09375 L 178.601562 309.390625 L 205.609375 293.792969 L 207.109375 291.195312 " fill-opacity="1" fill-rule="nonzero"/><path fill="#3b3b4f" d="M 187.976562 324.34375 L 188.351562 323.695312 L 187.601562 324.128906 L 186.851562 323.695312 L 187.601562 324.996094 L 187.976562 324.34375 " fill-opacity="1" fill-rule="nonzero"/><path fill="#3b3b4f" d="M 234.863281 243.09375 L 225.859375 237.890625 L 225.859375 195.429688 L 226.609375 194.996094 L 224.359375 194.996094 L 224.359375 259.5625 L 223.613281 259.996094 L 223.609375 259.996094 L 207.101562 269.53125 L 207.101562 259.996094 L 207.105469 259.996094 L 207.105469 194.996094 L 205.605469 194.996094 L 205.605469 226.199219 L 205.605469 226.195312 L 205.605469 259.996094 L 205.601562 259.996094 L 205.601562 270.398438 L 168.847656 291.628906 L 168.097656 291.195312 L 169.222656 293.140625 L 169.222656 293.144531 L 224.359375 261.296875 L 225.109375 259.996094 L 226.585938 259.996094 L 225.835938 259.5625 L 225.835938 258.738281 L 225.859375 258.695312 L 225.859375 239.625 L 234.097656 244.382812 L 234.089844 244.394531 L 261.101562 259.996094 L 264.097656 259.996094 L 234.859375 243.105469 L 234.863281 243.09375 " fill-opacity="1" fill-rule="nonzero"/><path fill="#3b3b4f" d="M 252.867188 308.09375 L 224.734375 324.34375 C 224.492188 324.484375 224.363281 324.734375 224.363281 324.996094 L 226.605469 324.996094 L 243.117188 315.457031 L 243.117188 324.996094 L 244.617188 324.996094 L 244.617188 314.59375 L 253.617188 309.390625 L 252.867188 308.09375 " fill-opacity="1" fill-rule="nonzero"/><path fill="#3b3b4f" d="M 234.113281 275.597656 L 207.105469 291.199219 L 205.605469 293.796875 L 234.863281 276.898438 L 234.113281 275.597656 " fill-opacity="1" fill-rule="nonzero"/><path fill="#3b3b4f" d="M 224.359375 261.296875 L 225.109375 260.863281 L 225.859375 261.296875 L 225.109375 259.996094 L 224.734375 260.648438 L 224.359375 261.296875 " fill-opacity="1" fill-rule="nonzero"/><path fill="#3b3b4f" d="M 244.613281 293.796875 L 243.492188 291.851562 L 243.488281 291.847656 L 188.351562 323.695312 L 187.601562 324.996094 L 189.101562 324.996094 L 205.609375 315.460938 L 205.609375 324.996094 L 207.109375 324.996094 L 207.109375 314.59375 L 243.863281 293.363281 L 244.613281 293.796875 " fill-opacity="1" fill-rule="nonzero"/><path fill="#3b3b4f" d="M 55.570312 324.996094 L 57.070312 324.996094 L 57.070312 292.496094 C 57.070312 292.21875 56.914062 291.976562 56.691406 291.847656 L 55.570312 293.792969 L 55.570312 312.867188 L 47.3125 308.097656 L 46.566406 309.398438 L 55.570312 314.597656 L 55.570312 324.996094 " fill-opacity="1" fill-rule="nonzero"/><path fill="#3b3b4f" d="M 47.316406 341.898438 L 75.449219 325.644531 C 75.6875 325.507812 75.820312 325.253906 75.820312 324.996094 L 73.574219 324.996094 L 57.066406 334.53125 L 57.066406 324.996094 L 55.566406 324.996094 L 55.566406 335.398438 L 46.566406 340.597656 L 47.316406 341.898438 " fill-opacity="1" fill-rule="nonzero"/><path fill="#3b3b4f" d="M 94.578125 356.191406 L 65.320312 373.09375 L 66.070312 374.390625 L 93.078125 358.792969 L 94.578125 356.191406 " fill-opacity="1" fill-rule="nonzero"/><g clip-path="url(#0fdc98ae09)"><path fill="#3b3b4f" d="M 75.074219 389.996094 L 75.449219 389.34375 L 75.824219 388.695312 L 75.074219 389.128906 L 74.324219 388.695312 L 75.074219 389.996094 " fill-opacity="1" fill-rule="nonzero"/></g><path fill="#3b3b4f" d="M 187.574219 324.996094 L 186.824219 323.695312 L 170.316406 314.160156 L 178.570312 309.390625 L 177.820312 308.09375 L 168.816406 313.296875 L 132.0625 292.0625 L 132.0625 291.238281 L 132.085938 291.199219 L 132.085938 272.128906 L 140.320312 276.882812 L 140.316406 276.898438 L 168.449219 293.148438 C 168.6875 293.289062 168.972656 293.273438 169.195312 293.144531 L 168.074219 291.199219 L 151.5625 281.664062 L 159.820312 276.894531 L 159.070312 275.59375 L 150.066406 280.796875 L 141.082031 275.609375 L 141.089844 275.59375 L 132.085938 270.394531 L 132.085938 259.996094 L 130.585938 259.996094 L 130.585938 292.496094 C 130.585938 292.765625 130.730469 293.003906 130.945312 293.132812 L 130.941406 293.140625 L 130.9375 293.144531 L 186.078125 324.996094 L 187.574219 324.996094 " fill-opacity="1" fill-rule="nonzero"/><path fill="#3b3b4f" d="M 122.328125 308.105469 L 122.335938 308.09375 C 122.335938 308.09375 122.335938 308.09375 122.332031 308.09375 L 113.332031 302.890625 L 113.332031 260.429688 L 114.082031 259.996094 L 111.832031 259.996094 L 111.832031 324.5625 L 111.082031 324.996094 L 94.574219 334.53125 L 94.574219 324.996094 L 93.074219 324.996094 L 93.074219 335.398438 L 56.320312 356.628906 L 55.570312 356.195312 L 56.691406 358.140625 L 56.695312 358.144531 L 111.832031 326.296875 L 112.582031 324.996094 L 114.058594 324.996094 L 113.308594 324.5625 L 113.308594 323.738281 L 113.332031 323.695312 L 113.332031 304.625 L 121.566406 309.382812 L 121.5625 309.390625 L 148.570312 324.996094 L 151.570312 324.996094 L 122.328125 308.105469 " fill-opacity="1" fill-rule="nonzero"/><path fill="#3b3b4f" d="M 93.078125 291.195312 L 93.078125 324.996094 L 94.574219 324.996094 L 94.574219 293.792969 L 94.578125 293.796875 L 94.578125 259.996094 L 93.078125 259.996094 L 93.078125 291.195312 " fill-opacity="1" fill-rule="nonzero"/><path fill="#3b3b4f" d="M 76.570312 259.996094 L 75.074219 259.996094 L 74.324219 261.296875 L 74.324219 280.367188 L 66.070312 275.601562 L 65.320312 276.898438 L 74.324219 282.101562 L 74.324219 324.5625 L 73.574219 324.996094 L 75.820312 324.996094 L 75.820312 260.429688 L 76.570312 259.996094 " fill-opacity="1" fill-rule="nonzero"/><g clip-path="url(#0aceabd1c8)"><path fill="#3b3b4f" d="M 140.335938 373.09375 L 112.203125 389.34375 C 111.964844 389.484375 111.832031 389.734375 111.832031 389.996094 L 114.078125 389.996094 L 130.585938 380.457031 L 130.589844 389.996094 L 132.085938 389.996094 L 132.085938 379.59375 L 141.085938 374.390625 L 140.335938 373.09375 " fill-opacity="1" fill-rule="nonzero"/></g><path fill="#3b3b4f" d="M 121.585938 340.597656 L 94.574219 356.195312 L 93.078125 358.796875 L 122.332031 341.894531 L 121.585938 340.597656 " fill-opacity="1" fill-rule="nonzero"/><g clip-path="url(#78aeb93c10)"><path fill="#3b3b4f" d="M 132.085938 358.796875 L 130.960938 356.847656 L 130.960938 356.84375 L 75.824219 388.695312 L 75.074219 389.996094 L 76.574219 389.996094 L 93.082031 380.457031 L 93.082031 389.992188 C 93.082031 389.992188 93.082031 389.996094 93.082031 389.996094 L 94.578125 389.996094 L 94.578125 389.992188 L 94.582031 379.59375 L 131.335938 358.359375 L 132.085938 358.796875 " fill-opacity="1" fill-rule="nonzero"/></g><path fill="#3b3b4f" d="M 112.582031 324.996094 L 112.207031 325.644531 L 111.832031 326.296875 L 112.582031 325.863281 L 113.332031 326.296875 L 112.582031 324.996094 " fill-opacity="1" fill-rule="nonzero"/><path fill="#3b3b4f" d="M 131.710938 356.84375 C 131.46875 356.703125 131.1875 356.71875 130.960938 356.84375 L 132.085938 358.792969 L 148.59375 368.328125 L 140.339844 373.09375 L 141.089844 374.394531 L 150.09375 369.191406 L 159.09375 374.390625 L 159.84375 373.09375 L 131.710938 356.84375 " fill-opacity="1" fill-rule="nonzero"/><path fill="#3b3b4f" d="M 151.585938 324.996094 L 148.589844 324.996094 L 177.847656 341.894531 L 178.597656 340.597656 L 151.585938 324.996094 " fill-opacity="1" fill-rule="nonzero"/><path fill="#3b3b4f" d="M 169.21875 356.847656 L 169.21875 356.84375 L 114.082031 324.996094 L 112.582031 324.996094 L 113.332031 326.296875 L 129.839844 335.828125 L 121.585938 340.597656 L 122.335938 341.898438 L 131.339844 336.695312 L 168.09375 357.929688 L 168.09375 358.796875 L 169.21875 356.847656 " fill-opacity="1" fill-rule="nonzero"/><path fill="#3b3b4f" d="M 187.597656 324.996094 L 186.101562 324.996094 L 186.847656 325.429688 L 186.847656 326.296875 L 187.597656 324.996094 " fill-opacity="1" fill-rule="nonzero"/><g clip-path="url(#4a6db88088)"><path fill="#3b3b4f" d="M 169.222656 356.847656 L 168.097656 358.792969 L 168.097656 377.867188 L 159.84375 373.097656 L 159.09375 374.394531 L 168.097656 379.597656 L 168.097656 389.996094 L 169.597656 389.996094 L 169.597656 357.492188 C 169.597656 357.214844 169.445312 356.976562 169.222656 356.847656 " fill-opacity="1" fill-rule="nonzero"/></g><g clip-path="url(#95c25f9eef)"><path fill="#3b3b4f" d="M 205.605469 356.195312 L 205.605469 389.996094 L 207.105469 389.996094 L 207.105469 358.792969 L 207.105469 358.796875 L 207.105469 324.996094 L 205.605469 324.996094 L 205.605469 356.195312 " fill-opacity="1" fill-rule="nonzero"/></g><g clip-path="url(#534ad6c5d8)"><path fill="#3b3b4f" d="M 234.863281 373.09375 L 225.859375 367.890625 L 225.859375 325.429688 L 226.609375 324.996094 L 224.359375 324.996094 L 224.359375 389.5625 L 223.609375 389.996094 L 226.585938 389.996094 L 225.835938 389.558594 L 225.835938 388.734375 L 225.859375 388.695312 L 225.859375 369.621094 L 234.097656 374.382812 L 234.089844 374.390625 L 261.101562 389.996094 L 264.097656 389.996094 L 234.859375 373.105469 L 234.863281 373.09375 " fill-opacity="1" fill-rule="nonzero"/></g><g clip-path="url(#70080d3d98)"><path fill="#3b3b4f" d="M 189.101562 324.996094 L 187.601562 324.996094 L 186.851562 326.296875 L 186.851562 345.367188 L 178.597656 340.601562 C 178.597656 340.601562 178.597656 340.601562 178.597656 340.597656 L 177.847656 341.898438 L 186.851562 347.101562 L 186.851562 389.5625 L 186.101562 389.996094 L 188.351562 389.996094 L 188.351562 325.429688 L 189.101562 324.996094 " fill-opacity="1" fill-rule="nonzero"/></g><path fill="#3b3b4f" d="M 18.390625 98.148438 L 73.527344 129.996094 L 75.027344 129.996094 L 74.277344 128.699219 L 57.769531 119.164062 L 66.023438 114.394531 L 65.273438 113.097656 L 56.269531 118.296875 L 19.515625 97.066406 L 19.515625 96.242188 L 19.535156 96.203125 L 19.535156 77.128906 L 27.773438 81.886719 L 27.765625 81.898438 L 55.898438 98.148438 C 56.140625 98.289062 56.421875 98.277344 56.648438 98.148438 L 55.523438 96.203125 L 39.015625 86.664062 L 47.269531 81.898438 L 46.519531 80.597656 L 37.515625 85.800781 L 28.53125 80.609375 L 28.539062 80.597656 L 19.535156 75.398438 L 19.535156 65 L 18.035156 65 L 18.035156 97.5 C 18.035156 97.769531 18.183594 98.003906 18.394531 98.132812 L 18.390625 98.144531 L 18.390625 98.148438 " fill-opacity="1" fill-rule="nonzero"/><path fill="#3b3b4f" d="M 0.757812 129.996094 L 1.507812 129.996094 L 0.757812 129.566406 L 0.757812 128.742188 L 0.78125 128.699219 L 0.78125 109.628906 L 9.019531 114.382812 L 9.011719 114.398438 L 36.023438 129.996094 L 39.019531 129.996094 L 9.78125 113.109375 L 9.785156 113.097656 C 9.785156 113.09375 9.785156 113.09375 9.785156 113.09375 L 0.78125 107.894531 L 0.78125 65.433594 L 1.53125 65 L 0.0351562 65 L 0.0351562 129.996094 L 0.757812 129.996094 " fill-opacity="1" fill-rule="nonzero"/><path fill="#3b3b4f" d="M 18.039062 185.460938 L 18.039062 194.996094 L 19.539062 194.996094 L 19.539062 184.59375 L 28.539062 179.394531 L 27.789062 178.097656 L 0.0351562 194.128906 L 0.0351562 194.996094 L 1.53125 194.996094 L 18.039062 185.460938 " fill-opacity="1" fill-rule="nonzero"/><path fill="#3b3b4f" d="M 9.035156 145.601562 L 0.0351562 150.800781 L 0.0351562 152.53125 L 9.785156 146.898438 L 9.035156 145.601562 " fill-opacity="1" fill-rule="nonzero"/><path fill="#3b3b4f" d="M 19.535156 163.796875 L 18.414062 161.851562 L 18.410156 161.847656 L 0.0351562 172.464844 L 0.0351562 174.195312 L 18.785156 163.363281 L 19.535156 163.796875 " fill-opacity="1" fill-rule="nonzero"/><path fill="#3b3b4f" d="M 0.0351562 130 L 0.0351562 130.867188 L 0.78125 131.296875 Z M 0.0351562 130 " fill-opacity="1" fill-rule="nonzero"/><path fill="#3b3b4f" d="M 65.296875 146.898438 L 66.046875 145.601562 L 39.039062 129.996094 L 36.039062 129.996094 L 65.296875 146.898438 " fill-opacity="1" fill-rule="nonzero"/><path fill="#3b3b4f" d="M 28.539062 179.398438 L 37.542969 174.195312 L 46.546875 179.394531 L 47.292969 178.097656 L 19.160156 161.84375 C 18.921875 161.707031 18.636719 161.71875 18.414062 161.847656 L 19.535156 163.792969 L 36.046875 173.328125 L 27.789062 178.097656 L 28.539062 179.398438 " fill-opacity="1" fill-rule="nonzero"/><path fill="#3b3b4f" d="M 9.039062 145.601562 L 9.789062 146.898438 L 18.792969 141.699219 L 55.546875 162.929688 L 55.546875 163.796875 L 56.667969 161.851562 L 56.671875 161.847656 L 1.535156 129.996094 L 0.0351562 129.996094 L 0.785156 131.296875 L 17.292969 140.835938 L 9.039062 145.601562 " fill-opacity="1" fill-rule="nonzero"/><path fill="#3b3b4f" d="M 75.050781 130 L 73.550781 130 L 74.300781 130.433594 L 74.300781 131.296875 L 75.050781 130 " fill-opacity="1" fill-rule="nonzero"/><path fill="#3b3b4f" d="M 18.039062 55.460938 L 18.039062 64.996094 L 19.539062 64.996094 L 19.539062 54.59375 L 28.539062 49.398438 L 27.789062 48.097656 L 0.0351562 64.128906 L 0.0351562 64.996094 L 1.53125 64.996094 L 18.039062 55.460938 " fill-opacity="1" fill-rule="nonzero"/><path fill="#3b3b4f" d="M 9.035156 15.601562 L 0.0351562 20.804688 L 0.0351562 22.53125 L 9.785156 16.902344 L 9.035156 15.601562 " fill-opacity="1" fill-rule="nonzero"/><path fill="#3b3b4f" d="M 19.535156 33.796875 L 18.414062 31.851562 L 18.410156 31.851562 L 0.0351562 42.46875 L 0.0351562 44.195312 L 18.785156 33.367188 L 19.535156 33.796875 " fill-opacity="1" fill-rule="nonzero"/><path fill="#3b3b4f" d="M 0.0351562 0.00390625 L 0.0351562 0.867188 L 0.78125 1.300781 Z M 0.0351562 0.00390625 " fill-opacity="1" fill-rule="nonzero"/><path fill="#3b3b4f" d="M 17.292969 10.835938 L 9.039062 15.601562 L 9.789062 16.902344 L 18.792969 11.699219 L 55.546875 32.933594 L 55.546875 33.796875 L 56.667969 31.851562 L 56.671875 31.851562 L 1.535156 0 L 0.0351562 0 L 0.785156 1.300781 L 17.292969 10.835938 " fill-opacity="1" fill-rule="nonzero"/><path fill="#3b3b4f" d="M 66.046875 15.601562 L 39.039062 0 L 36.039062 0 L 65.296875 16.902344 L 66.046875 15.601562 " fill-opacity="1" fill-rule="nonzero"/><path fill="#3b3b4f" d="M 28.539062 49.398438 L 37.542969 44.195312 L 46.546875 49.398438 L 47.292969 48.097656 L 19.160156 31.847656 C 18.921875 31.710938 18.636719 31.71875 18.414062 31.851562 L 19.535156 33.796875 L 36.046875 43.332031 L 27.789062 48.101562 L 28.539062 49.398438 " fill-opacity="1" fill-rule="nonzero"/><path fill="#3b3b4f" d="M 74.300781 1.300781 L 75.050781 0 L 73.550781 0 L 74.300781 0.433594 L 74.300781 1.300781 " fill-opacity="1" fill-rule="nonzero"/><path fill="#3b3b4f" d="M 18.390625 228.148438 L 73.527344 259.996094 L 75.027344 259.996094 L 74.277344 258.695312 L 57.769531 249.160156 L 66.023438 244.394531 L 65.273438 243.09375 L 56.269531 248.296875 L 19.515625 227.0625 L 19.515625 226.238281 L 19.535156 226.199219 L 19.535156 207.128906 L 27.773438 211.882812 L 27.765625 211.898438 L 55.898438 228.148438 C 56.140625 228.289062 56.421875 228.273438 56.648438 228.148438 L 55.523438 226.203125 L 39.015625 216.664062 L 47.269531 211.894531 L 46.519531 210.597656 L 37.515625 215.796875 L 28.53125 210.609375 L 28.539062 210.59375 L 19.535156 205.394531 L 19.535156 194.996094 L 18.035156 194.996094 L 18.035156 227.5 C 18.035156 227.769531 18.183594 228.003906 18.394531 228.132812 L 18.390625 228.144531 L 18.390625 228.148438 " fill-opacity="1" fill-rule="nonzero"/><path fill="#3b3b4f" d="M 0.757812 259.996094 L 1.507812 259.996094 L 0.757812 259.5625 L 0.757812 258.738281 L 0.78125 258.695312 L 0.78125 239.625 L 9.019531 244.382812 L 9.011719 244.394531 L 36.023438 259.996094 L 39.019531 259.996094 L 9.78125 243.105469 L 9.785156 243.09375 L 0.78125 237.890625 L 0.78125 195.429688 L 1.53125 194.996094 L 0.0351562 194.996094 L 0.0351562 259.996094 L 0.757812 259.996094 " fill-opacity="1" fill-rule="nonzero"/><path fill="#3b3b4f" d="M 18.039062 315.457031 L 18.039062 324.996094 L 19.539062 324.996094 L 19.539062 314.59375 L 28.539062 309.390625 L 27.789062 308.09375 L 0.0351562 324.128906 L 0.0351562 324.996094 L 1.53125 324.996094 L 18.039062 315.457031 " fill-opacity="1" fill-rule="nonzero"/><path fill="#3b3b4f" d="M 9.035156 275.597656 L 0.0351562 280.796875 L 0.0351562 282.53125 L 9.785156 276.898438 L 9.035156 275.597656 " fill-opacity="1" fill-rule="nonzero"/><path fill="#3b3b4f" d="M 19.535156 293.796875 L 18.414062 291.851562 L 18.410156 291.847656 L 0.0351562 302.460938 L 0.0351562 304.195312 L 18.785156 293.363281 L 19.535156 293.796875 " fill-opacity="1" fill-rule="nonzero"/><path fill="#3b3b4f" d="M 0.0351562 260 L 0.0351562 260.867188 L 0.78125 261.296875 Z M 0.0351562 260 " fill-opacity="1" fill-rule="nonzero"/><path fill="#3b3b4f" d="M 65.296875 276.898438 L 66.046875 275.597656 L 39.039062 259.996094 L 36.039062 259.996094 L 65.296875 276.898438 " fill-opacity="1" fill-rule="nonzero"/><path fill="#3b3b4f" d="M 28.539062 309.394531 L 37.542969 304.195312 L 46.546875 309.390625 L 47.292969 308.09375 L 19.160156 291.84375 C 18.921875 291.703125 18.636719 291.71875 18.414062 291.847656 L 19.535156 293.792969 L 36.046875 303.328125 L 27.789062 308.097656 L 28.539062 309.394531 " fill-opacity="1" fill-rule="nonzero"/><path fill="#3b3b4f" d="M 9.039062 275.601562 L 9.789062 276.898438 L 18.792969 271.695312 L 55.546875 292.929688 L 55.546875 293.796875 L 56.667969 291.851562 L 56.671875 291.847656 L 1.535156 259.996094 L 0.0351562 259.996094 L 0.785156 261.296875 L 17.292969 270.832031 L 9.039062 275.597656 C 9.039062 275.597656 9.039062 275.601562 9.039062 275.601562 " fill-opacity="1" fill-rule="nonzero"/><path fill="#3b3b4f" d="M 75.050781 259.996094 L 73.550781 259.996094 L 74.300781 260.429688 L 74.300781 261.296875 L 75.050781 259.996094 " fill-opacity="1" fill-rule="nonzero"/><g clip-path="url(#258207f31b)"><path fill="#3b3b4f" d="M 57.769531 379.160156 L 66.023438 374.390625 L 65.273438 373.09375 L 56.269531 378.292969 L 19.515625 357.0625 L 19.515625 356.234375 L 19.535156 356.195312 L 19.535156 337.125 L 27.773438 341.882812 L 27.765625 341.898438 L 55.898438 358.148438 C 56.140625 358.285156 56.421875 358.273438 56.648438 358.144531 L 55.523438 356.199219 L 39.015625 346.664062 L 47.269531 341.894531 L 46.519531 340.59375 L 37.515625 345.796875 L 28.53125 340.609375 L 28.539062 340.59375 L 19.535156 335.390625 L 19.535156 324.996094 L 18.035156 324.996094 L 18.035156 357.496094 C 18.035156 357.765625 18.183594 358 18.394531 358.132812 L 18.390625 358.140625 L 18.390625 358.144531 L 73.527344 389.996094 L 75.027344 389.996094 L 74.277344 388.695312 L 57.769531 379.160156 " fill-opacity="1" fill-rule="nonzero"/></g><g clip-path="url(#1f3352e6bf)"><path fill="#3b3b4f" d="M 9.785156 373.09375 L 0.78125 367.890625 L 0.78125 325.429688 L 1.53125 324.996094 L 0.0351562 324.996094 L 0.0351562 389.996094 L 1.507812 389.996094 L 0.757812 389.558594 L 0.757812 388.734375 L 0.78125 388.695312 L 0.78125 369.621094 L 9.019531 374.382812 L 9.011719 374.390625 L 36.023438 389.996094 L 39.019531 389.996094 L 9.78125 373.105469 L 9.785156 373.09375 " fill-opacity="1" fill-rule="nonzero"/></g><path fill="#3b3b4f" d="M 319.5625 33.796875 L 319.5625 33.800781 L 319.5625 0 L 318.066406 0 L 318.066406 31.203125 L 318.0625 31.199219 L 318.0625 65 L 319.5625 65 L 319.5625 33.796875 " fill-opacity="1" fill-rule="nonzero"/><path fill="#3b3b4f" d="M 300.707031 22.046875 C 300.636719 22.164062 300.539062 22.261719 300.429688 22.324219 C 300.539062 22.261719 300.636719 22.164062 300.707031 22.046875 C 300.8125 21.867188 300.832031 21.664062 300.78125 21.476562 C 300.832031 21.664062 300.8125 21.867188 300.707031 22.046875 Z M 300.058594 22.421875 C 300.125 22.421875 300.1875 22.414062 300.25 22.394531 C 300.1875 22.414062 300.125 22.421875 300.058594 22.421875 Z M 290.304688 16.902344 L 299.308594 22.101562 L 299.308594 64.566406 L 298.558594 65 L 300.808594 65 L 300.808594 0.433594 L 301.558594 0 L 298.628906 0 L 299.378906 0.433594 L 299.378906 1.179688 L 299.308594 1.300781 L 299.308594 20.371094 L 291.109375 15.632812 L 291.125 15.601562 L 264.117188 0 L 261.117188 0 L 290.324219 16.871094 L 290.304688 16.902344 " fill-opacity="1" fill-rule="nonzero"/><path fill="#3b3b4f" d="M 280.621094 96.238281 L 280.601562 96.203125 L 264.09375 86.664062 L 272.347656 81.898438 L 272.335938 81.878906 L 300.4375 65.648438 C 300.675781 65.507812 300.808594 65.257812 300.808594 65 L 298.5625 65 L 282.054688 74.535156 L 282.054688 65 L 280.554688 65 L 280.554688 75.402344 L 271.554688 80.601562 L 271.566406 80.617188 L 262.59375 85.800781 L 253.613281 80.609375 L 253.617188 80.597656 L 244.613281 75.398438 L 244.613281 65 L 243.113281 65 L 243.113281 97.5 C 243.113281 97.769531 243.261719 98.003906 243.476562 98.132812 L 243.46875 98.144531 L 243.46875 98.148438 L 298.605469 129.996094 L 301.558594 129.996094 L 318.066406 120.460938 L 318.066406 129.996094 L 319.566406 129.996094 L 319.566406 119.59375 L 356.320312 98.367188 L 357.070312 98.796875 L 355.949219 96.851562 L 355.945312 96.851562 L 300.808594 128.699219 L 300.082031 129.960938 L 300.4375 129.347656 L 300.8125 128.695312 L 300.0625 129.128906 L 299.375 128.734375 L 299.355469 128.699219 L 282.847656 119.164062 L 291.101562 114.394531 L 291.089844 114.378906 L 318.066406 98.796875 L 319.5625 96.195312 L 290.308594 113.097656 L 290.320312 113.117188 L 281.347656 118.296875 L 244.59375 97.066406 L 244.59375 96.242188 L 244.613281 96.203125 L 244.613281 77.128906 L 252.851562 81.886719 L 252.84375 81.898438 L 280.976562 98.148438 C 281.21875 98.289062 281.5 98.277344 281.726562 98.148438 L 281.714844 98.128906 L 336.820312 66.296875 L 337.566406 65 L 337.566406 64.996094 L 339.046875 64.996094 L 338.296875 64.566406 L 338.296875 63.742188 L 338.316406 63.699219 L 338.316406 44.628906 L 346.554688 49.382812 L 346.550781 49.398438 L 373.554688 64.996094 L 376.554688 64.996094 L 347.316406 48.109375 L 347.320312 48.097656 L 338.316406 42.894531 L 338.316406 0.433594 L 339.066406 0 L 336.820312 0 L 336.820312 64.566406 L 336.070312 65 L 319.558594 74.535156 L 319.558594 65 L 318.058594 65 L 318.058594 75.398438 L 281.304688 96.632812 L 280.621094 96.238281 " fill-opacity="1" fill-rule="nonzero"/><path fill="#3b3b4f" d="M 355.933594 33.136719 L 355.925781 33.148438 L 355.925781 33.152344 L 411.0625 65 L 412.5625 65 L 411.8125 63.699219 L 395.304688 54.164062 L 403.558594 49.398438 L 402.808594 48.097656 L 393.804688 53.296875 L 357.050781 32.066406 L 357.050781 31.242188 L 357.070312 31.203125 L 357.070312 12.128906 L 365.308594 16.886719 L 365.304688 16.902344 L 393.433594 33.152344 C 393.675781 33.289062 393.957031 33.277344 394.183594 33.148438 L 393.0625 31.203125 L 376.550781 21.667969 L 384.804688 16.898438 L 384.054688 15.601562 L 375.054688 20.800781 L 366.070312 15.613281 L 366.078125 15.597656 L 357.070312 10.398438 L 357.070312 0 L 355.570312 0 L 355.570312 32.5 C 355.570312 32.773438 355.71875 33.003906 355.933594 33.136719 " fill-opacity="1" fill-rule="nonzero"/><path fill="#3b3b4f" d="M 336.820312 129.996094 L 339.066406 129.996094 L 355.574219 120.460938 L 355.574219 129.996094 L 357.074219 129.996094 L 357.074219 119.59375 L 366.074219 114.394531 L 365.324219 113.097656 L 337.191406 129.347656 C 336.953125 129.488281 336.820312 129.738281 336.820312 129.996094 " fill-opacity="1" fill-rule="nonzero"/><path fill="#3b3b4f" d="M 318.0625 98.800781 L 347.320312 81.898438 L 346.570312 80.601562 L 319.5625 96.203125 L 318.0625 98.800781 " fill-opacity="1" fill-rule="nonzero"/><path fill="#3b3b4f" d="M 337.566406 65 L 337.191406 65.648438 L 336.820312 66.296875 L 337.566406 65.867188 L 338.316406 66.296875 L 337.566406 65 " fill-opacity="1" fill-rule="nonzero"/><path fill="#3b3b4f" d="M 373.582031 108.328125 L 365.324219 113.101562 L 366.074219 114.398438 L 375.082031 109.195312 L 384.082031 114.394531 L 384.832031 113.097656 L 356.695312 96.847656 C 356.457031 96.707031 356.175781 96.71875 355.949219 96.851562 L 357.070312 98.796875 L 373.582031 108.328125 " fill-opacity="1" fill-rule="nonzero"/><path fill="#3b3b4f" d="M 403.585938 80.601562 L 376.574219 65 L 373.574219 65 L 402.835938 81.898438 L 403.585938 80.601562 " fill-opacity="1" fill-rule="nonzero"/><path fill="#3b3b4f" d="M 347.324219 81.898438 L 356.328125 76.699219 L 393.082031 97.933594 L 393.082031 98.796875 L 394.207031 96.851562 L 339.066406 65 L 337.566406 65 L 338.316406 66.296875 L 354.828125 75.835938 L 346.574219 80.601562 L 347.324219 81.898438 " fill-opacity="1" fill-rule="nonzero"/><path fill="#3b3b4f" d="M 412.585938 65 L 411.089844 65 L 411.839844 65.433594 L 411.839844 66.296875 L 412.585938 65 " fill-opacity="1" fill-rule="nonzero"/><path fill="#3b3b4f" d="M 413.339844 66.296875 L 412.589844 65 L 411.839844 66.296875 L 411.839844 85.371094 L 403.585938 80.601562 L 402.835938 81.898438 C 402.835938 81.898438 402.835938 81.902344 402.835938 81.902344 L 411.839844 87.101562 L 411.839844 129.566406 L 411.089844 129.996094 L 413.339844 129.996094 L 413.339844 66.296875 " fill-opacity="1" fill-rule="nonzero"/><path fill="#3b3b4f" d="M 394.585938 129.996094 L 394.585938 97.496094 C 394.585938 97.21875 394.433594 96.980469 394.207031 96.851562 L 393.085938 98.796875 L 393.085938 117.867188 L 384.832031 113.101562 L 384.082031 114.398438 L 393.085938 119.601562 L 393.085938 129.996094 L 394.585938 129.996094 " fill-opacity="1" fill-rule="nonzero"/><path fill="#3b3b4f" d="M 430.59375 129.996094 L 432.09375 129.996094 L 432.09375 98.796875 L 430.59375 96.195312 L 430.59375 129.996094 " fill-opacity="1" fill-rule="nonzero"/><g clip-path="url(#6acddc08fa)"><path fill="#3b3b4f" d="M 430.6875 141.207031 C 430.625 141.097656 430.589844 140.96875 430.589844 140.835938 C 430.589844 140.96875 430.625 141.097656 430.6875 141.207031 C 430.71875 141.265625 430.761719 141.316406 430.804688 141.359375 C 430.761719 141.316406 430.71875 141.265625 430.6875 141.207031 Z M 449.347656 128.699219 L 449.347656 129.566406 L 448.597656 129.996094 L 432.089844 139.535156 L 432.089844 130 C 432.089844 130 432.089844 130 432.089844 129.996094 L 430.589844 129.996094 C 430.589844 130 430.589844 130 430.589844 130 L 430.589844 140.398438 L 393.835938 161.632812 L 393.085938 161.199219 L 394.207031 163.144531 L 394.207031 163.148438 L 449.347656 131.296875 L 449.957031 130.242188 L 449.957031 129.753906 L 449.722656 129.347656 L 449.347656 128.699219 " fill-opacity="1" fill-rule="nonzero"/></g><path fill="#3b3b4f" d="M 413.335938 129.996094 L 411.09375 129.996094 L 394.582031 139.535156 L 394.582031 130 L 393.082031 130 L 393.085938 140.402344 L 384.082031 145.601562 L 384.832031 146.898438 L 412.964844 130.648438 C 413.207031 130.507812 413.335938 130.257812 413.335938 129.996094 " fill-opacity="1" fill-rule="nonzero"/><path fill="#3b3b4f" d="M 432.09375 161.195312 L 402.835938 178.097656 L 403.585938 179.394531 L 430.59375 163.792969 L 432.09375 161.195312 " fill-opacity="1" fill-rule="nonzero"/><path fill="#3b3b4f" d="M 412.964844 194.347656 L 413.339844 193.695312 L 412.589844 194.132812 L 411.839844 193.695312 L 412.589844 194.996094 L 412.964844 194.347656 " fill-opacity="1" fill-rule="nonzero"/><g clip-path="url(#0941ee930b)"><path fill="#3b3b4f" d="M 449.347656 65 L 449.347656 128.699219 L 449.957031 129.753906 L 449.957031 65 L 449.347656 65 " fill-opacity="1" fill-rule="nonzero"/></g><path fill="#3b3b4f" d="M 432.09375 65 L 430.59375 65 L 430.59375 96.203125 L 432.09375 98.800781 L 432.09375 65 " fill-opacity="1" fill-rule="nonzero"/><g clip-path="url(#8e5c0d086e)"><path fill="#3b3b4f" d="M 432 183.789062 C 432.027344 183.84375 432.054688 183.902344 432.070312 183.964844 C 432.054688 183.902344 432.027344 183.84375 432 183.789062 C 431.964844 183.730469 431.925781 183.679688 431.878906 183.632812 C 431.925781 183.679688 431.964844 183.730469 432 183.789062 Z M 412.589844 194.996094 L 412.964844 195.648438 L 413.339844 196.296875 L 413.339844 195.429688 L 414.089844 194.996094 L 430.597656 185.460938 L 430.59375 194.996094 L 432.09375 194.996094 L 432.097656 184.59375 L 449.957031 174.277344 L 449.957031 172.546875 L 413.339844 193.699219 L 412.589844 194.996094 " fill-opacity="1" fill-rule="nonzero"/></g><g clip-path="url(#71e8614943)"><path fill="#3b3b4f" d="M 449.347656 194.996094 L 449.957031 194.996094 L 449.957031 194.210938 L 449.722656 194.347656 C 449.480469 194.484375 449.347656 194.738281 449.347656 194.996094 " fill-opacity="1" fill-rule="nonzero"/></g><g clip-path="url(#9524aeb8a5)"><path fill="#3b3b4f" d="M 430.59375 163.800781 L 449.957031 152.613281 L 449.957031 150.882812 L 432.09375 161.203125 L 430.59375 163.800781 " fill-opacity="1" fill-rule="nonzero"/></g><g clip-path="url(#2473fbb5fd)"><path fill="#3b3b4f" d="M 449.347656 131.296875 L 449.957031 130.945312 L 449.957031 130.242188 L 449.722656 130.648438 L 449.347656 131.296875 " fill-opacity="1" fill-rule="nonzero"/></g><g clip-path="url(#412759e578)"><path fill="#3b3b4f" d="M 430.6875 11.210938 C 430.625 11.101562 430.589844 10.972656 430.589844 10.835938 C 430.589844 10.972656 430.625 11.101562 430.6875 11.210938 C 430.71875 11.265625 430.761719 11.316406 430.804688 11.363281 C 430.761719 11.316406 430.71875 11.265625 430.6875 11.210938 Z M 448.597656 0 L 432.089844 9.535156 L 432.089844 0.00390625 C 432.089844 0 432.089844 0 432.089844 0 L 430.589844 0 C 430.589844 0 430.589844 0 430.589844 0.00390625 L 430.589844 10.402344 L 393.835938 31.632812 L 393.085938 31.199219 L 394.207031 33.148438 L 394.207031 33.152344 L 449.347656 1.300781 L 449.957031 0.242188 L 449.957031 0 L 448.597656 0 " fill-opacity="1" fill-rule="nonzero"/></g><path fill="#3b3b4f" d="M 384.832031 16.902344 L 412.964844 0.648438 C 413.207031 0.511719 413.335938 0.257812 413.335938 0 L 411.09375 0 L 394.582031 9.539062 L 394.582031 0 L 393.082031 0 L 393.085938 10.402344 L 384.082031 15.601562 L 384.832031 16.902344 " fill-opacity="1" fill-rule="nonzero"/><path fill="#3b3b4f" d="M 432.09375 31.199219 L 402.835938 48.097656 L 403.585938 49.398438 L 430.59375 33.796875 L 432.09375 31.199219 " fill-opacity="1" fill-rule="nonzero"/><path fill="#3b3b4f" d="M 412.964844 64.347656 L 413.339844 63.699219 L 412.589844 64.132812 L 411.839844 63.699219 L 412.589844 64.996094 L 412.964844 64.347656 " fill-opacity="1" fill-rule="nonzero"/><g clip-path="url(#05366d3938)"><path fill="#3b3b4f" d="M 432 53.789062 C 432.027344 53.84375 432.054688 53.90625 432.070312 53.96875 C 432.054688 53.90625 432.027344 53.84375 432 53.789062 C 431.964844 53.734375 431.925781 53.683594 431.878906 53.632812 C 431.925781 53.683594 431.964844 53.734375 432 53.789062 Z M 412.589844 65 L 413.339844 66.296875 L 413.339844 65.433594 L 414.089844 65 L 430.597656 55.460938 L 430.59375 64.996094 L 432.09375 64.996094 L 432.097656 54.597656 L 449.957031 44.28125 L 449.957031 42.546875 L 413.339844 63.699219 L 412.589844 65 " fill-opacity="1" fill-rule="nonzero"/></g><g clip-path="url(#d2606f15b4)"><path fill="#3b3b4f" d="M 449.347656 64.996094 L 449.957031 64.996094 L 449.957031 64.210938 L 449.722656 64.347656 C 449.480469 64.488281 449.347656 64.742188 449.347656 64.996094 " fill-opacity="1" fill-rule="nonzero"/></g><g clip-path="url(#2926a452c3)"><path fill="#3b3b4f" d="M 430.59375 33.800781 L 449.957031 22.617188 L 449.957031 20.882812 L 432.09375 31.203125 L 430.59375 33.800781 " fill-opacity="1" fill-rule="nonzero"/></g><g clip-path="url(#30e5734067)"><path fill="#3b3b4f" d="M 449.347656 1.300781 L 449.957031 0.945312 L 449.957031 0.242188 L 449.722656 0.648438 L 449.347656 1.300781 " fill-opacity="1" fill-rule="nonzero"/></g><path fill="#3b3b4f" d="M 282.054688 194.996094 L 282.054688 162.496094 C 282.054688 162.242188 281.925781 162.015625 281.730469 161.882812 L 281.746094 161.851562 L 281.746094 161.847656 L 226.609375 129.996094 L 225.113281 129.996094 L 225.859375 131.296875 L 242.371094 140.835938 L 234.117188 145.601562 C 234.117188 145.601562 234.117188 145.601562 234.113281 145.601562 L 234.863281 146.898438 C 234.863281 146.898438 234.867188 146.898438 234.867188 146.898438 L 243.867188 141.699219 L 280.621094 162.929688 L 280.621094 163.679688 L 280.554688 163.792969 L 280.554688 182.867188 L 272.351562 178.128906 L 272.371094 178.097656 L 244.238281 161.84375 C 244 161.707031 243.714844 161.71875 243.492188 161.847656 L 244.613281 163.792969 L 261.121094 173.328125 L 252.867188 178.097656 L 253.617188 179.398438 L 262.621094 174.195312 L 271.570312 179.367188 L 271.554688 179.398438 L 280.554688 184.601562 L 280.554688 194.996094 L 282.054688 194.996094 " fill-opacity="1" fill-rule="nonzero"/><path fill="#3b3b4f" d="M 319.5625 163.796875 L 319.5625 129.996094 L 318.066406 129.996094 L 318.066406 161.199219 L 318.0625 161.195312 L 318.0625 194.996094 L 319.5625 194.996094 L 319.5625 163.796875 " fill-opacity="1" fill-rule="nonzero"/><path fill="#3b3b4f" d="M 393.433594 163.148438 C 393.675781 163.289062 393.957031 163.277344 394.183594 163.148438 L 393.0625 161.203125 L 376.550781 151.664062 L 384.804688 146.898438 L 384.054688 145.597656 L 375.054688 150.796875 L 366.070312 145.609375 L 366.078125 145.597656 L 357.070312 140.398438 L 357.070312 129.996094 L 355.570312 129.996094 L 355.570312 162.5 C 355.570312 162.769531 355.71875 163.003906 355.933594 163.132812 L 355.925781 163.144531 L 355.925781 163.148438 L 411.0625 194.996094 L 412.5625 194.996094 L 411.8125 193.699219 L 395.304688 184.164062 L 403.558594 179.394531 L 402.808594 178.09375 C 402.808594 178.09375 402.808594 178.09375 402.808594 178.097656 L 393.804688 183.296875 L 357.050781 162.0625 L 357.050781 161.238281 L 357.070312 161.203125 L 357.070312 142.128906 L 365.308594 146.886719 L 365.304688 146.898438 L 393.433594 163.148438 " fill-opacity="1" fill-rule="nonzero"/><path fill="#3b3b4f" d="M 355.574219 250.460938 L 355.574219 259.996094 L 357.074219 259.996094 L 357.074219 249.59375 L 366.074219 244.394531 L 365.324219 243.09375 L 337.191406 259.34375 C 336.953125 259.484375 336.820312 259.738281 336.820312 259.996094 L 339.066406 259.996094 L 355.574219 250.460938 " fill-opacity="1" fill-rule="nonzero"/><path fill="#3b3b4f" d="M 318.0625 228.796875 L 347.320312 211.898438 L 346.570312 210.597656 L 319.5625 226.199219 L 318.0625 228.796875 " fill-opacity="1" fill-rule="nonzero"/><path fill="#3b3b4f" d="M 319.566406 259.996094 L 319.566406 249.59375 L 356.320312 228.363281 L 357.070312 228.796875 L 355.949219 226.851562 L 355.945312 226.847656 L 300.808594 258.695312 L 300.082031 259.957031 L 300.4375 259.34375 L 300.8125 258.695312 L 300.0625 259.128906 L 299.375 258.734375 L 299.355469 258.695312 L 282.847656 249.160156 L 291.101562 244.394531 L 291.089844 244.375 L 318.066406 228.792969 L 319.5625 226.195312 L 290.308594 243.09375 L 290.320312 243.113281 L 281.347656 248.296875 L 244.59375 227.0625 L 244.59375 226.238281 L 244.613281 226.199219 L 244.613281 207.128906 L 252.851562 211.882812 L 252.84375 211.898438 L 280.976562 228.148438 C 281.21875 228.289062 281.5 228.273438 281.726562 228.148438 L 281.714844 228.125 L 336.820312 196.296875 L 337.566406 194.996094 L 339.046875 194.996094 L 338.296875 194.5625 L 338.296875 193.738281 L 338.316406 193.699219 L 338.316406 174.625 L 346.554688 179.382812 L 346.550781 179.394531 L 373.554688 194.996094 L 376.554688 194.996094 L 347.316406 178.105469 L 347.320312 178.09375 L 338.316406 172.894531 L 338.316406 130.429688 L 339.066406 129.996094 L 336.820312 129.996094 L 336.820312 194.5625 L 336.070312 194.996094 L 319.558594 204.53125 L 319.558594 195 C 319.558594 195 319.558594 195 319.558594 194.996094 L 318.058594 194.996094 C 318.058594 195 318.058594 195 318.058594 195 L 318.058594 205.398438 L 281.304688 226.632812 L 280.621094 226.234375 L 280.601562 226.203125 L 264.09375 216.664062 L 272.347656 211.894531 L 272.335938 211.878906 L 300.4375 195.648438 C 300.675781 195.507812 300.808594 195.257812 300.808594 195 L 298.5625 195 L 282.054688 204.535156 L 282.054688 195 L 280.554688 195 L 280.554688 205.398438 L 271.554688 210.601562 L 271.566406 210.617188 L 262.59375 215.796875 L 253.613281 210.609375 L 253.617188 210.59375 L 244.613281 205.394531 L 244.613281 194.996094 L 243.113281 194.996094 L 243.113281 227.5 C 243.113281 227.769531 243.261719 228.003906 243.476562 228.132812 L 243.46875 228.144531 L 243.46875 228.148438 L 298.605469 259.996094 L 301.558594 259.996094 L 318.066406 250.460938 L 318.066406 259.996094 L 319.566406 259.996094 " fill-opacity="1" fill-rule="nonzero"/><path fill="#3b3b4f" d="M 337.566406 195 L 336.820312 196.296875 L 337.566406 195.863281 L 338.316406 196.296875 L 337.566406 195 " fill-opacity="1" fill-rule="nonzero"/><path fill="#3b3b4f" d="M 403.585938 210.597656 L 376.574219 195 L 373.574219 195 L 402.835938 211.898438 L 403.585938 210.597656 " fill-opacity="1" fill-rule="nonzero"/><path fill="#3b3b4f" d="M 366.074219 244.398438 L 375.082031 239.195312 L 384.082031 244.394531 L 384.832031 243.09375 L 356.695312 226.84375 C 356.457031 226.707031 356.175781 226.71875 355.949219 226.847656 L 357.070312 228.792969 L 373.582031 238.328125 L 365.324219 243.097656 L 366.074219 244.398438 " fill-opacity="1" fill-rule="nonzero"/><path fill="#3b3b4f" d="M 347.324219 211.898438 L 356.328125 206.699219 L 393.082031 227.929688 L 393.082031 228.796875 L 394.207031 226.851562 L 394.207031 226.847656 L 339.066406 194.996094 L 337.566406 194.996094 L 338.316406 196.296875 L 354.828125 205.832031 L 346.574219 210.601562 L 347.324219 211.898438 " fill-opacity="1" fill-rule="nonzero"/><path fill="#3b3b4f" d="M 412.585938 195 L 411.089844 195 L 411.839844 195.429688 L 411.839844 196.296875 L 412.585938 195 " fill-opacity="1" fill-rule="nonzero"/><path fill="#3b3b4f" d="M 413.339844 196.296875 L 412.589844 194.996094 L 411.839844 196.296875 L 411.839844 215.367188 L 403.585938 210.601562 L 402.835938 211.898438 L 411.839844 217.101562 L 411.839844 259.5625 L 411.089844 259.996094 L 413.339844 259.996094 L 413.339844 196.296875 " fill-opacity="1" fill-rule="nonzero"/><path fill="#3b3b4f" d="M 394.585938 259.996094 L 394.585938 227.496094 C 394.585938 227.21875 394.433594 226.976562 394.207031 226.847656 L 393.085938 228.792969 L 393.085938 247.867188 L 384.832031 243.097656 L 384.082031 244.398438 L 393.085938 249.597656 L 393.085938 259.996094 L 394.585938 259.996094 " fill-opacity="1" fill-rule="nonzero"/><g clip-path="url(#abe4b403cc)"><path fill="#3b3b4f" d="M 430.6875 271.207031 C 430.625 271.09375 430.589844 270.96875 430.589844 270.832031 C 430.589844 270.96875 430.625 271.09375 430.6875 271.207031 C 430.71875 271.261719 430.761719 271.316406 430.804688 271.359375 C 430.761719 271.316406 430.71875 271.261719 430.6875 271.207031 Z M 449.347656 258.695312 L 449.347656 259.5625 L 448.601562 259.996094 L 448.597656 259.996094 L 432.089844 269.53125 L 432.089844 259.996094 L 432.09375 259.996094 L 432.09375 228.792969 L 430.59375 226.195312 L 430.59375 259.996094 L 430.589844 259.996094 L 430.589844 270.398438 L 393.835938 291.628906 L 393.085938 291.195312 L 394.207031 293.140625 L 394.207031 293.144531 L 449.347656 261.296875 L 449.957031 260.242188 L 449.957031 259.753906 L 449.722656 259.347656 L 449.347656 258.695312 " fill-opacity="1" fill-rule="nonzero"/></g><path fill="#3b3b4f" d="M 413.335938 259.996094 L 411.09375 259.996094 L 394.582031 269.53125 L 394.582031 259.996094 L 393.082031 259.996094 L 393.085938 270.398438 L 384.082031 275.597656 L 384.832031 276.898438 L 412.964844 260.648438 C 413.207031 260.507812 413.335938 260.253906 413.335938 259.996094 " fill-opacity="1" fill-rule="nonzero"/><path fill="#3b3b4f" d="M 432.09375 291.195312 L 402.835938 308.09375 L 403.585938 309.390625 L 430.59375 293.792969 L 432.09375 291.195312 " fill-opacity="1" fill-rule="nonzero"/><path fill="#3b3b4f" d="M 412.589844 324.996094 L 412.964844 324.34375 L 413.339844 323.695312 L 412.589844 324.128906 L 411.839844 323.695312 L 412.589844 324.996094 " fill-opacity="1" fill-rule="nonzero"/><g clip-path="url(#9d2847a57c)"><path fill="#3b3b4f" d="M 449.347656 194.996094 L 449.347656 258.695312 L 449.957031 259.753906 L 449.957031 194.996094 L 449.347656 194.996094 " fill-opacity="1" fill-rule="nonzero"/></g><path fill="#3b3b4f" d="M 432.09375 194.996094 L 430.59375 194.996094 L 430.59375 226.199219 L 432.09375 228.796875 L 432.09375 194.996094 " fill-opacity="1" fill-rule="nonzero"/><g clip-path="url(#dbe507aaa8)"><path fill="#3b3b4f" d="M 432 313.785156 C 432.027344 313.839844 432.054688 313.898438 432.070312 313.960938 C 432.054688 313.898438 432.027344 313.839844 432 313.785156 C 431.964844 313.730469 431.925781 313.679688 431.878906 313.632812 C 431.925781 313.679688 431.964844 313.730469 432 313.785156 Z M 412.589844 324.996094 L 414.089844 324.996094 L 430.597656 315.460938 L 430.59375 324.996094 L 432.09375 324.996094 L 432.097656 314.59375 L 449.957031 304.273438 L 449.957031 302.546875 L 413.339844 323.695312 L 412.589844 324.996094 " fill-opacity="1" fill-rule="nonzero"/></g><g clip-path="url(#47ee5c52d7)"><path fill="#3b3b4f" d="M 449.347656 324.996094 L 449.957031 324.996094 L 449.957031 324.207031 L 449.722656 324.34375 C 449.480469 324.484375 449.347656 324.734375 449.347656 324.996094 " fill-opacity="1" fill-rule="nonzero"/></g><g clip-path="url(#e7d13be447)"><path fill="#3b3b4f" d="M 430.59375 293.796875 L 449.957031 282.613281 L 449.957031 280.878906 L 432.09375 291.199219 L 430.59375 293.796875 " fill-opacity="1" fill-rule="nonzero"/></g><g clip-path="url(#a82c976afd)"><path fill="#3b3b4f" d="M 449.347656 261.296875 L 449.957031 260.945312 L 449.957031 260.242188 L 449.722656 260.648438 L 449.347656 261.296875 " fill-opacity="1" fill-rule="nonzero"/></g><path fill="#3b3b4f" d="M 282.054688 324.996094 L 282.054688 292.496094 C 282.054688 292.238281 281.925781 292.015625 281.730469 291.878906 L 281.746094 291.851562 L 281.746094 291.847656 L 226.609375 259.996094 L 225.113281 259.996094 L 225.859375 261.296875 L 242.371094 270.832031 L 234.117188 275.597656 C 234.117188 275.597656 234.117188 275.601562 234.113281 275.601562 L 234.863281 276.898438 C 234.863281 276.898438 234.867188 276.898438 234.867188 276.898438 L 243.867188 271.695312 L 280.621094 292.929688 L 280.621094 293.675781 L 280.554688 293.792969 L 280.554688 312.867188 L 272.351562 308.128906 L 272.371094 308.09375 L 244.238281 291.84375 C 244 291.703125 243.714844 291.71875 243.492188 291.847656 L 244.613281 293.792969 L 261.121094 303.328125 L 252.867188 308.097656 L 253.617188 309.394531 L 262.621094 304.195312 L 271.570312 309.367188 L 271.554688 309.398438 L 280.554688 314.597656 L 280.554688 324.996094 L 282.054688 324.996094 " fill-opacity="1" fill-rule="nonzero"/><path fill="#3b3b4f" d="M 393.433594 293.148438 C 393.675781 293.289062 393.957031 293.273438 394.183594 293.144531 L 393.0625 291.199219 L 376.550781 281.664062 L 384.804688 276.894531 L 384.054688 275.59375 L 375.054688 280.796875 L 366.070312 275.609375 L 366.078125 275.59375 L 357.070312 270.394531 L 357.070312 259.996094 L 355.570312 259.996094 L 355.570312 292.496094 C 355.570312 292.765625 355.71875 293.003906 355.933594 293.132812 L 355.925781 293.140625 L 355.925781 293.144531 L 411.0625 324.996094 L 412.5625 324.996094 L 411.8125 323.695312 L 395.304688 314.160156 L 403.558594 309.390625 L 402.808594 308.09375 L 393.804688 313.296875 L 357.050781 292.0625 L 357.050781 291.238281 L 357.070312 291.199219 L 357.070312 272.128906 L 365.308594 276.882812 L 365.304688 276.898438 L 393.433594 293.148438 " fill-opacity="1" fill-rule="nonzero"/><path fill="#3b3b4f" d="M 318.066406 291.195312 L 318.0625 291.195312 L 318.0625 324.996094 L 319.5625 324.996094 L 319.5625 293.792969 L 319.5625 293.796875 L 319.5625 259.996094 L 318.066406 259.996094 L 318.066406 291.195312 " fill-opacity="1" fill-rule="nonzero"/><path fill="#3b3b4f" d="M 301.558594 259.996094 L 298.628906 259.996094 L 299.378906 260.429688 L 299.378906 261.179688 L 299.308594 261.296875 L 299.308594 280.367188 L 291.109375 275.628906 L 291.125 275.597656 L 264.117188 259.996094 L 261.117188 259.996094 L 290.324219 276.867188 L 290.304688 276.898438 L 299.308594 282.101562 L 299.308594 324.5625 L 298.558594 324.996094 L 300.808594 324.996094 L 300.808594 260.429688 L 301.558594 259.996094 " fill-opacity="1" fill-rule="nonzero"/><g clip-path="url(#1ffd3c7d06)"><path fill="#3b3b4f" d="M 365.324219 373.09375 L 337.191406 389.34375 C 336.953125 389.484375 336.820312 389.734375 336.820312 389.996094 L 339.066406 389.996094 L 355.574219 380.457031 L 355.574219 389.996094 L 357.074219 389.996094 L 357.074219 379.59375 L 366.074219 374.390625 L 365.324219 373.09375 " fill-opacity="1" fill-rule="nonzero"/></g><path fill="#3b3b4f" d="M 318.0625 358.796875 L 347.320312 341.894531 L 346.570312 340.597656 L 319.5625 356.195312 L 318.0625 358.796875 " fill-opacity="1" fill-rule="nonzero"/><g clip-path="url(#89e788a95a)"><path fill="#3b3b4f" d="M 357.070312 358.796875 L 355.949219 356.847656 L 355.945312 356.84375 L 300.808594 388.695312 L 300.082031 389.953125 L 300.4375 389.34375 L 300.8125 388.695312 L 300.0625 389.128906 L 299.375 388.734375 L 299.355469 388.695312 L 282.847656 379.160156 L 291.101562 374.390625 L 291.089844 374.371094 L 318.066406 358.792969 L 319.5625 356.191406 L 290.308594 373.09375 L 290.320312 373.113281 L 281.347656 378.292969 L 244.59375 357.0625 L 244.59375 356.234375 L 244.613281 356.195312 L 244.613281 337.125 L 252.851562 341.882812 L 252.84375 341.898438 L 280.976562 358.148438 C 281.21875 358.285156 281.5 358.273438 281.726562 358.144531 L 281.714844 358.125 L 336.820312 326.296875 L 337.566406 324.996094 L 339.046875 324.996094 L 338.296875 324.5625 L 338.296875 323.738281 L 338.316406 323.695312 L 338.316406 304.625 L 346.554688 309.382812 L 346.550781 309.390625 L 373.554688 324.996094 L 376.554688 324.996094 L 347.316406 308.105469 L 347.320312 308.09375 L 338.316406 302.890625 L 338.316406 260.429688 L 339.066406 259.996094 L 336.820312 259.996094 L 336.820312 324.5625 L 336.070312 324.996094 L 319.558594 334.53125 L 319.558594 324.996094 L 318.058594 324.996094 L 318.058594 335.398438 L 281.304688 356.628906 L 280.621094 356.234375 L 280.601562 356.199219 L 264.09375 346.664062 L 272.347656 341.894531 L 272.335938 341.878906 L 300.4375 325.644531 C 300.675781 325.507812 300.808594 325.253906 300.808594 324.996094 L 298.5625 324.996094 L 282.054688 334.53125 L 282.054688 324.996094 L 280.554688 324.996094 L 280.554688 335.398438 L 271.554688 340.597656 L 271.566406 340.617188 L 262.59375 345.796875 L 253.613281 340.609375 L 253.617188 340.59375 L 244.613281 335.390625 L 244.613281 324.996094 L 243.113281 324.996094 L 243.113281 357.496094 C 243.113281 357.765625 243.261719 358 243.476562 358.132812 L 243.46875 358.140625 L 243.46875 358.144531 L 298.605469 389.996094 L 301.558594 389.996094 L 318.066406 380.457031 L 318.066406 389.996094 L 319.566406 389.996094 L 319.566406 379.59375 L 356.320312 358.359375 L 357.070312 358.796875 " fill-opacity="1" fill-rule="nonzero"/></g><path fill="#3b3b4f" d="M 337.566406 324.996094 L 337.191406 325.644531 L 336.820312 326.296875 L 337.566406 325.863281 L 338.316406 326.296875 L 337.566406 324.996094 " fill-opacity="1" fill-rule="nonzero"/><path fill="#3b3b4f" d="M 356.695312 356.84375 C 356.457031 356.703125 356.175781 356.71875 355.949219 356.84375 L 357.070312 358.792969 L 373.582031 368.328125 L 365.324219 373.09375 L 366.074219 374.394531 L 375.082031 369.191406 L 384.082031 374.390625 L 384.832031 373.09375 L 356.695312 356.84375 " fill-opacity="1" fill-rule="nonzero"/><path fill="#3b3b4f" d="M 376.574219 324.996094 L 373.574219 324.996094 L 402.835938 341.894531 L 403.585938 340.597656 L 376.574219 324.996094 " fill-opacity="1" fill-rule="nonzero"/><path fill="#3b3b4f" d="M 394.207031 356.847656 L 394.207031 356.84375 L 339.066406 324.996094 L 337.566406 324.996094 L 338.316406 326.296875 L 354.828125 335.828125 L 346.574219 340.597656 L 347.324219 341.898438 L 356.328125 336.695312 L 393.082031 357.929688 L 393.082031 358.796875 L 394.207031 356.847656 " fill-opacity="1" fill-rule="nonzero"/><path fill="#3b3b4f" d="M 412.585938 324.996094 L 411.089844 324.996094 L 411.839844 325.429688 L 411.839844 326.296875 L 412.585938 324.996094 " fill-opacity="1" fill-rule="nonzero"/><g clip-path="url(#fa4bd2625c)"><path fill="#3b3b4f" d="M 411.839844 326.296875 L 411.839844 345.367188 L 403.585938 340.601562 C 403.585938 340.601562 403.585938 340.601562 403.585938 340.597656 L 402.835938 341.898438 L 411.839844 347.101562 L 411.839844 389.5625 L 411.089844 389.996094 L 413.339844 389.996094 L 413.339844 325.429688 L 414.089844 324.996094 L 412.589844 324.996094 L 411.839844 326.296875 " fill-opacity="1" fill-rule="nonzero"/></g><g clip-path="url(#be9f9c79dd)"><path fill="#3b3b4f" d="M 394.207031 356.847656 L 393.085938 358.792969 L 393.085938 377.867188 L 384.832031 373.097656 L 384.082031 374.394531 L 393.085938 379.597656 L 393.085938 389.996094 L 394.585938 389.996094 L 394.585938 357.492188 C 394.585938 357.214844 394.433594 356.976562 394.207031 356.847656 " fill-opacity="1" fill-rule="nonzero"/></g><g clip-path="url(#3795031eea)"><path fill="#3b3b4f" d="M 449.347656 324.996094 L 449.347656 389.5625 L 448.597656 389.996094 L 449.957031 389.996094 L 449.957031 324.996094 L 449.347656 324.996094 " fill-opacity="1" fill-rule="nonzero"/></g><g clip-path="url(#9579b14855)"><path fill="#3b3b4f" d="M 430.59375 356.195312 L 430.59375 389.996094 L 432.09375 389.996094 L 432.09375 358.792969 L 432.09375 358.796875 L 432.09375 324.996094 L 430.59375 324.996094 L 430.59375 356.195312 " fill-opacity="1" fill-rule="nonzero"/></g></g></g></g></svg>