<svg xmlns="http://www.w3.org/2000/svg" xmlns:xlink="http://www.w3.org/1999/xlink" version="1.1" id="Layer_1" x="0px" y="0px" width="100px" height="100px" fill="#ddd" viewBox="0 0 100 100" enable-background="new 0 0 100 100" xml:space="preserve">
<g>
	<path d="M74.256,81.934l-6.426-2.04l6.426-2.039c0.271-0.085,0.498-0.276,0.629-0.53c0.131-0.252,0.156-0.547,0.07-0.817   l-2.553-8.047c-0.178-0.564-0.776-0.876-1.349-0.698L50.32,74.34l-20.733-6.578c-0.567-0.178-1.171,0.134-1.348,0.698l-2.555,8.047   c-0.084,0.27-0.06,0.565,0.071,0.817c0.132,0.253,0.358,0.444,0.629,0.53l6.426,2.039l-6.426,2.04   c-0.564,0.178-0.878,0.781-0.698,1.346l2.553,8.047c0.085,0.271,0.275,0.497,0.529,0.628c0.153,0.08,0.322,0.121,0.493,0.121   c0.107,0,0.219-0.017,0.325-0.05l20.733-6.578l20.733,6.578c0.106,0.033,0.218,0.05,0.325,0.05c0.172,0,0.34-0.041,0.493-0.121   c0.254-0.131,0.444-0.357,0.53-0.628l2.553-8.047C75.132,82.715,74.82,82.112,74.256,81.934z"/>
	<path d="M50.646,65.841c26.751-2.229,16.186-36.697,11.396-44.995C56.646,11.498,49.336,5.523,49.336,5.523   c1.946,14.062-3.691,23.684-3.691,23.684l-5.788-6.953c-2.086,16.911-11.338,23.52-5.473,34.308   C40.043,66.97,50.646,65.841,50.646,65.841z M47.231,39.783l2.545,3.057c0,0,5.359-7.878,4.503-14.062c0,0,3.304,4.616,4.806,9.119   c1.497,4.485,4.654,20.073-7.108,21.053c0,0-4.663,0.496-7.152-4.081C42.246,50.125,46.314,47.219,47.231,39.783z"/>
</g>
</svg>