<svg xmlns="http://www.w3.org/2000/svg" xmlns:xlink="http://www.w3.org/1999/xlink" version="1.1" id="Capa_1" x="0px" y="0px" width="100px" height="100px" viewBox="0 0 100 100" fill="#222" enable-background="new 0 0 100 100" xml:space="preserve">
<g id="Capa_33" display="none">
</g>
<g id="Capa_35">
	<g>
		<g>
			<path d="M74.626,8.218c-0.592-2.733-3.29-4.471-6.022-3.876c-2.734,0.591-4.47,3.286-3.877,6.019     c0.59,2.741,3.282,4.475,6.019,3.884C73.477,13.655,75.215,10.961,74.626,8.218z"/>
			<path d="M66.124,15.579c-0.037-0.147-0.06-0.294-0.112-0.44c-0.015-0.036-0.035-0.066-0.051-0.103l-0.016-0.051l-0.008,0.002     c-0.367-0.893-1.004-1.589-1.781-2.048l0.009-0.019l-0.254-0.127c-0.065-0.032-0.128-0.066-0.194-0.096l-7.31-3.638L52.533,0     l-2.831,0.998l2.952,10.305c0.186,0.525,0.566,0.958,1.064,1.206l2.967,1.478l-8.979,3.283c-0.032,0.013-0.059,0.032-0.092,0.045     l-12.106-3.551c-0.554-0.163-1.144-0.142-1.684,0.058L20.83,18.633l1.86,5.024l12.162-4.503l9.397,2.757l-7.135,2.669     c-0.217,0.08-0.421,0.189-0.61,0.323L25.482,32.71l3.097,4.372l10.737-7.606l10.576-3.956c0.254-0.043,0.507-0.107,0.758-0.2     l12.541-4.586l1.259,4.209l-5.492,7.727l2.319,1.902l7.209-7.796c0.451-0.551,0.599-1.29,0.395-1.97L66.124,15.579z"/>
		</g>
		<g>
			<path d="M43.964,48.806c0.416,2.766,2.988,4.672,5.762,4.256c2.766-0.416,4.672-2.99,4.258-5.758     c-0.41-2.765-2.99-4.674-5.755-4.26C45.455,43.461,43.548,46.04,43.964,48.806"/>
			<path d="M63.083,42.297l-4.519,9.225l-8.21,3.912c-0.461-0.098-0.933-0.158-1.407-0.158c-0.017,0-0.031,0-0.048,0     c-0.375,0.005-0.714,0.05-1.038,0.113l-8.118-3.867l-4.52-9.225l-2.748,1.209l4.556,11.352c0.167,0.156,0.355,0.287,0.56,0.385     l7.596,3.959l0.144,13.332c0.001,0.047,0.013,0.088,0.015,0.135L42.38,83.805c-0.063,0.228-0.095,0.461-0.096,0.697     l-0.076,14.674l5.356,0.028l0.074-14.319l1.906-7.162l1.674,7.613l1.688,14.202l5.32-0.632l-1.711-14.397     c-0.017-0.132-0.041-0.26-0.076-0.388L53.891,72.57c0.002-0.045,0.014-0.086,0.012-0.131l-0.146-13.57l6.961-3.627     c0.204-0.098,0.393-0.229,0.559-0.385l4.557-11.352L63.083,42.297z"/>
		</g>
		<g>
			<path d="M9.85,54.251c2.542-1.17,3.657-4.171,2.488-6.716c-1.164-2.541-4.174-3.657-6.714-2.49     c-2.548,1.174-3.66,4.181-2.491,6.723C4.301,54.311,7.304,55.422,9.85,54.251z"/>
			<path d="M22.224,84.702l-3.265-12.474l-0.023,0.008c-0.024-0.114-0.033-0.229-0.066-0.342l-3.029-10.043l3.701,0.871     c0.163,0.039,0.327,0.059,0.491,0.059c0.532,0,1.052-0.197,1.453-0.566l7.356-7.654l-2.033-2.205l-7.393,5.938l-5.024-1.185     l5.268-4.353c0.396-0.392,0.624-0.924,0.634-1.479l-0.425-10.711l-2.998-0.062l-0.844,9.818l-7.906,6.434     c-0.018,0.016-0.036,0.03-0.054,0.044l-0.171,0.14l0.016,0.019c-1.152,1.078-1.674,2.745-1.188,4.356l3.715,12.316l-0.024,11.694     L7.099,98.063l5.185,1.349l3.404-13.071c0.058-0.223,0.087-0.453,0.086-0.683l0.016-8.373c0.017-0.004,0.034-0.007,0.05-0.011     l0.526,6.209l0.628,2.406l1.261,13.983l5.335-0.479l-1.282-14.222C22.294,85.011,22.265,84.855,22.224,84.702z"/>
		</g>
		<path d="M23.684,48.955c0,0,0.153-0.117,0.397-0.348c0.252-0.222,0.596-0.552,0.989-0.97c0.414-0.395,0.816-0.933,1.282-1.465    c0.221-0.279,0.423-0.586,0.641-0.886c0.204-0.31,0.456-0.592,0.623-0.93c0.184-0.327,0.366-0.653,0.546-0.973    c0.191-0.312,0.352-0.633,0.465-0.961c0.233-0.653,0.543-1.219,0.646-1.757c0.234-1.052,0.39-1.751,0.39-1.751l1.746,0.362    c0,0-0.291,0.767-0.726,1.914c-0.205,0.572-0.628,1.151-0.982,1.807c-0.173,0.332-0.395,0.647-0.644,0.95    c-0.238,0.308-0.478,0.62-0.72,0.932c-0.224,0.323-0.529,0.581-0.785,0.867c-0.27,0.275-0.52,0.558-0.786,0.807    c-0.556,0.476-1.035,0.953-1.511,1.291c-0.453,0.36-0.845,0.641-1.128,0.824C23.852,48.86,23.684,48.955,23.684,48.955z"/>
		<path d="M74.398,44.419c0,0-0.758-0.443-1.795-1.26c-1.039-0.812-2.367-1.992-3.51-3.375c-0.572-0.688-1.119-1.407-1.562-2.136    c-0.466-0.713-0.83-1.431-1.113-2.061c-0.291-0.629-0.491-1.176-0.606-1.568c-0.129-0.389-0.201-0.612-0.201-0.612l1.984-0.413    c0,0,0.036,0.199,0.098,0.549c0.05,0.354,0.154,0.854,0.33,1.448c0.17,0.593,0.399,1.289,0.731,2.001    c0.306,0.726,0.716,1.471,1.16,2.197c0.885,1.46,2.002,2.793,2.899,3.734C73.714,43.871,74.398,44.419,74.398,44.419z"/>
		<g>
			<path d="M94.376,44.896c-2.54-1.167-5.55-0.051-6.713,2.49c-1.169,2.544-0.056,5.546,2.487,6.716     c2.547,1.17,5.548,0.059,6.718-2.483C98.037,49.077,96.925,46.07,94.376,44.896z"/>
			<path d="M92.15,56.666L92.15,56.666l-7.771-6.343l-0.844-9.818l-2.997,0.062l-0.426,10.712c0.011,0.555,0.238,1.087,0.635,1.479     l5.369,4.449l-5.708-3.961c-0.589-0.569-0.876-1.24-0.89-1.958l0.17-4.283l-0.698-2.045l-2.897,0.773l2.111,10.404     c0.184,0.688,0.695,1.239,1.368,1.473l5.682,1.972l-3.716,12.313c-0.039,0.129-0.048,0.258-0.075,0.389l-0.026-0.008L78.35,84.83     c-0.043,0.152-0.072,0.311-0.086,0.467L76.98,99.52l5.336,0.48l1.262-13.984l0.412-1.679l0.519-6.71l-0.026,8.029     c0,0.229,0.029,0.46,0.086,0.683l3.404,13.071l5.185-1.35L89.84,85.326l0.038-11.396l3.806-12.615     C94.217,59.547,93.545,57.716,92.15,56.666z"/>
		</g>
	</g>
</g>
</svg>