<?xml version="1.0" standalone="no"?>
<!DOCTYPE svg PUBLIC "-//W3C//DTD SVG 20010904//EN"
 "http://www.w3.org/TR/2001/REC-SVG-20010904/DTD/svg10.dtd">
<svg version="1.0" xmlns="http://www.w3.org/2000/svg"
 width="1892.000000pt" height="993.000000pt" viewBox="0 0 1892.000000 993.000000"
 preserveAspectRatio="xMidYMid meet">
<metadata>
Created by potrace 1.16, written by Peter Selinger 2001-2019
</metadata>
<g transform="translate(0.000000,993.000000) scale(0.100000,-0.100000)"
fill="#000000" stroke="none">
<path d="M0 9520 l0 -410 9460 0 9460 0 0 410 0 410 -9460 0 -9460 0 0 -410z
m691 137 c131 -70 146 -251 26 -338 -56 -41 -64 -38 -69 22 -3 49 -2 51 28 64
40 16 62 72 45 113 -5 15 -12 38 -13 52 -2 17 -8 23 -18 21 -35 -11 -133 -12
-161 -2 -22 8 -31 7 -33 -2 -31 -117 -24 -161 29 -183 24 -10 33 -19 29 -29
-8 -21 -38 -19 -59 5 -28 31 -39 24 -15 -10 14 -19 30 -30 46 -30 19 0 24 -5
24 -25 0 -14 -6 -25 -13 -25 -29 0 -95 60 -117 105 -62 129 36 285 180 285 30
0 63 -8 91 -23z m17669 -98 c0 -11 5 -19 11 -19 5 0 7 -4 4 -10 -3 -5 3 -15
15 -22 22 -14 27 -38 8 -38 -8 0 -6 -5 4 -10 15 -9 13 -13 -13 -39 -18 -18
-27 -35 -23 -45 8 -22 -39 -39 -79 -28 -28 7 -31 12 -33 49 -2 43 21 68 37 41
9 -15 14 -11 23 20 5 13 3 22 -4 22 -8 0 -8 6 0 21 13 23 4 41 -9 20 -6 -9
-10 -7 -14 9 -3 13 0 23 9 27 8 3 14 11 14 18 0 8 9 10 25 7 16 -3 25 -11 25
-23z m-13263 -75 c5 -15 7 -15 15 0 6 10 23 16 48 16 l40 0 0 -65 c0 -51 -3
-65 -15 -65 -8 0 -15 9 -15 20 0 15 -7 20 -26 20 -17 0 -28 6 -31 20 -4 15
-14 20 -40 20 -22 0 -32 -4 -27 -11 3 -6 17 -8 31 -4 18 4 24 2 21 -7 -3 -7
-19 -14 -36 -16 -26 -3 -34 2 -43 21 -16 36 3 67 42 67 18 0 32 -6 36 -16z"/>
<path d="M437 8813 c-11 -10 -8 -153 3 -153 5 0 7 7 4 15 -5 12 5 15 55 15 46
0 61 -3 61 -14 0 -8 -8 -17 -17 -19 -14 -4 -12 -5 5 -6 21 -1 22 2 22 84 l0
85 -63 0 c-35 0 -67 -3 -70 -7z"/>
<path d="M3400 8768 c0 -33 -3 -39 -12 -30 -17 17 -35 15 -58 -8 -26 -26 -26
-72 0 -95 17 -15 24 -16 45 -7 15 7 25 8 25 2 0 -6 7 -10 15 -10 12 0 15 17
15 95 0 78 -3 95 -15 95 -11 0 -15 -11 -15 -42z"/>
<path d="M12495 8766 c-12 -18 -13 -30 -5 -50 12 -33 68 -86 91 -86 23 0 86
64 91 94 10 50 -47 87 -80 54 -9 -9 -15 -9 -24 0 -20 20 -56 14 -73 -12z m74
-3 c9 -17 11 -17 23 0 9 12 23 18 39 15 19 -2 25 -10 27 -36 3 -26 -3 -39 -31
-67 -19 -19 -40 -35 -47 -35 -25 0 -80 67 -80 97 0 16 3 33 7 36 13 14 52 7
62 -10z"/>
<path d="M13771 8754 c-17 -14 -31 -34 -31 -44 0 -26 56 -70 90 -70 34 0 90
44 90 70 0 26 -56 70 -90 70 -16 0 -42 -11 -59 -26z"/>
<path d="M15798 7303 c226 -2 598 -2 825 0 226 1 41 2 -413 2 -454 0 -639 -1
-412 -2z"/>
<path d="M15322 7118 c-2 -148 5 -179 45 -197 34 -16 1652 -16 1687 0 39 18
47 52 43 199 l-3 135 -2 -143 c-2 -137 -3 -144 -27 -167 l-24 -25 -829 0
c-802 0 -831 1 -853 19 -23 18 -24 27 -30 168 l-5 148 -2 -137z"/>
<path d="M13580 7181 c0 -16 -8 -20 -37 -23 -36 -3 -38 -5 -38 -38 0 -32 3
-35 35 -40 32 -5 35 -8 38 -43 4 -46 22 -39 22 9 0 31 3 34 28 34 16 0 37 9
47 20 17 19 17 21 0 40 -10 11 -31 20 -47 20 -18 0 -28 5 -28 14 0 8 -4 18
-10 21 -5 3 -10 -3 -10 -14z"/>
<path d="M11972 7178 c-7 -7 -12 -28 -12 -48 0 -30 8 -44 50 -85 l50 -49 47
46 47 47 -51 51 c-41 41 -57 50 -85 50 -19 0 -39 -5 -46 -12z"/>
<path d="M1944 6688 c-29 -13 -44 -49 -44 -103 0 -82 32 -115 110 -115 78 0
110 33 110 115 0 55 -15 90 -47 104 -30 14 -101 13 -129 -1z"/>
<path d="M16590 5270 c0 -45 4 -62 15 -66 8 -4 15 -12 15 -20 0 -18 34 -18 50
0 6 8 26 16 43 18 32 3 32 3 35 66 l3 62 -81 0 -80 0 0 -60z m148 -2 c-3 -53
-3 -53 -38 -56 -19 -2 -41 -8 -47 -14 -9 -7 -13 -7 -13 0 0 5 -9 12 -20 15
-17 4 -20 14 -20 56 l0 51 71 0 70 0 -3 -52z"/>
<path d="M16590 4480 c0 -45 4 -62 15 -66 8 -4 15 -12 15 -20 0 -18 34 -18 50
0 6 8 26 16 43 18 32 3 32 3 35 66 l3 62 -81 0 -80 0 0 -60z m148 -2 c-3 -53
-3 -53 -38 -56 -19 -2 -41 -8 -47 -14 -9 -7 -13 -7 -13 0 0 5 -9 12 -20 15
-17 4 -20 14 -20 56 l0 51 71 0 70 0 -3 -52z"/>
<path d="M16590 3690 c0 -45 4 -62 15 -66 8 -4 15 -12 15 -20 0 -18 34 -18 50
0 6 8 26 16 43 18 32 3 32 3 35 66 l3 62 -81 0 -80 0 0 -60z m148 -2 c-3 -53
-3 -53 -38 -56 -19 -2 -41 -8 -47 -14 -9 -7 -13 -7 -13 0 0 5 -9 12 -20 15
-17 4 -20 14 -20 56 l0 51 71 0 70 0 -3 -52z"/>
<path d="M16590 2900 c0 -45 4 -62 15 -66 8 -4 15 -12 15 -20 0 -18 34 -18 50
0 6 8 26 16 43 18 32 3 32 3 35 66 l3 62 -81 0 -80 0 0 -60z m148 -2 c-3 -53
-3 -53 -38 -56 -19 -2 -41 -8 -47 -14 -9 -7 -13 -7 -13 0 0 5 -9 12 -20 15
-17 4 -20 14 -20 56 l0 51 71 0 70 0 -3 -52z"/>
<path d="M7550 643 c-91 -46 -87 -180 6 -219 29 -12 105 -14 444 -12 397 3
409 4 437 24 15 11 34 39 42 61 13 35 13 46 0 78 -8 21 -27 47 -42 59 -28 20
-39 21 -440 24 -377 2 -415 1 -447 -15z"/>
<path d="M14254 613 c-65 -12 -90 -111 -41 -160 19 -19 36 -26 67 -26 58 0 93
35 93 93 0 64 -53 105 -119 93z m83 -35 c51 -48 15 -138 -56 -138 -47 0 -81
32 -81 79 0 72 84 109 137 59z"/>
<path d="M16570 540 c0 -45 4 -62 15 -66 8 -4 15 -12 15 -20 0 -18 34 -18 50
0 6 8 26 16 43 18 32 3 32 3 35 66 l3 62 -81 0 -80 0 0 -60z m148 -2 c-3 -53
-3 -53 -38 -56 -19 -2 -41 -8 -47 -14 -9 -7 -13 -7 -13 0 0 5 -9 12 -20 15
-17 4 -20 14 -20 56 l0 51 71 0 70 0 -3 -52z"/>
</g>
</svg>
