<?xml version="1.0" standalone="no"?>
<!DOCTYPE svg PUBLIC "-//W3C//DTD SVG 1.1//EN" "http://www.w3.org/Graphics/SVG/1.1/DTD/svg11.dtd" >
<!--
2014-12-3: Created.
-->
<svg xmlns="http://www.w3.org/2000/svg">
<metadata>
Created by FontForge 20120731 at Wed Dec  3 12:38:33 2014
 By Adam Bradley
Created by Adam Bradley with FontForge 2.0 (http://fontforge.sf.net)
</metadata>
<defs>
<font id="Ionicons" horiz-adv-x="448" >
  <font-face 
    font-family="Ionicons"
    font-weight="500"
    font-stretch="normal"
    units-per-em="512"
    panose-1="2 0 6 3 0 0 0 0 0 0"
    ascent="448"
    descent="-64"
    bbox="-0.54049 -64 512.487 448"
    underline-thickness="25.6"
    underline-position="-51.2"
    unicode-range="U+F100-F4F7"
  />
    <missing-glyph />
    <glyph glyph-name="ion-alert-circled" unicode="&#xf100;" 
d="M445 26c3 -5 5 -13 2 -18s-8 -8 -14 -8h-418c-6 0 -11 3 -14 8s-1 13 2 18l207 349c3 5 8 9 14 9s11 -4 14 -9zM256 48v48h-64v-48h64zM256 128v144h-64v-144h64z" />
    <glyph glyph-name="ion-alert" unicode="&#xf101;" horiz-adv-x="128" 
d="M128 -32h-128v96h128v-96zM112 128h-96l-16 288h128z" />
    <glyph glyph-name="ion-android-add-circle" unicode="&#xf359;" horiz-adv-x="416" 
d="M208 400c115 0 208 -93 208 -208s-93 -208 -208 -208s-208 93 -208 208s93 208 208 208zM315 171v42h-86v86h-42v-86h-86v-42h86v-86h42v86h86z" />
    <glyph glyph-name="ion-android-add" unicode="&#xf2c7;" horiz-adv-x="320" 
d="M320 171h-139v-139h-42v139h-139v42h139v139h42v-139h139v-42z" />
    <glyph glyph-name="ion-android-alarm-clock" unicode="&#xf35a;" horiz-adv-x="428" 
d="M428 323l-28 -33l-98 82l28 33zM125 373l-97 -83l-28 33l97 83zM225 275v0v-111l85 -50l-16 -27l-101 61v127h32zM214 360c106 0 193 -86 193 -191s-87 -191 -193 -191c-107 0 -193 86 -193 191s86 191 193 191zM214 20c82 0 150 66 150 149c0 82 -68 149 -150 149
s-150 -67 -150 -149s68 -149 150 -149z" />
    <glyph glyph-name="ion-android-alert" unicode="&#xf35b;" horiz-adv-x="416" 
d="M208 400c114 0 208 -94 208 -208s-94 -208 -208 -208s-208 94 -208 208s94 208 208 208zM232 88v40h-48v-40h48zM232 176v128h-48v-128h48z" />
    <glyph glyph-name="ion-android-apps" unicode="&#xf35c;" horiz-adv-x="320" 
d="M0 272v80h80v-80h-80zM120 32v80h80v-80h-80zM0 32v80h80v-80h-80zM0 152v80h80v-80h-80zM120 152v80h80v-80h-80zM240 352h80v-80h-80v80zM120 272v80h80v-80h-80zM240 152v80h80v-80h-80zM240 32v80h80v-80h-80z" />
    <glyph glyph-name="ion-android-archive" unicode="&#xf2c9;" horiz-adv-x="416" 
d="M406 348c7 -7 10 -17 10 -29v-289c0 -25 -21 -46 -46 -46h-324c-25 0 -46 21 -46 46v289c0 12 3 22 10 29l33 39c6 8 16 13 26 13h278c10 0 20 -5 26 -13zM208 65l127 127h-81v46h-92v-46h-81zM49 354h317l-22 23h-277z" />
    <glyph glyph-name="ion-android-arrow-back" unicode="&#xf2ca;" horiz-adv-x="342" 
d="M342 213v-42h-260l119 -120l-30 -30l-171 171l171 171l31 -30l-120 -120h260z" />
    <glyph glyph-name="ion-android-arrow-down" unicode="&#xf35d;" horiz-adv-x="342" 
d="M192 363v-260l120 120l30 -31l-171 -171l-171 171l30 30l120 -119v260h42z" />
    <glyph glyph-name="ion-android-arrow-dropdown-circle" unicode="&#xf35e;" horiz-adv-x="416" 
d="M208 400c115 0 208 -93 208 -208s-93 -208 -208 -208s-208 93 -208 208s93 208 208 208zM208 128l96 96h-192z" />
    <glyph glyph-name="ion-android-arrow-dropdown" unicode="&#xf35f;" horiz-adv-x="256" 
d="M0 256h256l-128 -128z" />
    <glyph glyph-name="ion-android-arrow-dropleft-circle" unicode="&#xf360;" horiz-adv-x="416" 
d="M416 192c0 -115 -93 -208 -208 -208s-208 93 -208 208s93 208 208 208s208 -93 208 -208zM144 192l96 -96v192z" />
    <glyph glyph-name="ion-android-arrow-dropleft" unicode="&#xf361;" horiz-adv-x="128" 
d="M128 320v-256l-128 128z" />
    <glyph glyph-name="ion-android-arrow-dropright-circle" unicode="&#xf362;" horiz-adv-x="416" 
d="M208 -16c-115 0 -208 93 -208 208s93 208 208 208s208 -93 208 -208s-93 -208 -208 -208zM176 96l96 96l-96 96v-192z" />
    <glyph glyph-name="ion-android-arrow-dropright" unicode="&#xf363;" horiz-adv-x="128" 
d="M0 320l128 -128l-128 -128v256z" />
    <glyph glyph-name="ion-android-arrow-dropup-circle" unicode="&#xf364;" horiz-adv-x="416" 
d="M416 192c0 -115 -93 -208 -208 -208s-208 93 -208 208s93 208 208 208s208 -93 208 -208zM304 160l-96 96l-96 -96h192z" />
    <glyph glyph-name="ion-android-arrow-dropup" unicode="&#xf365;" horiz-adv-x="256" 
d="M0 128l128 128l128 -128h-256z" />
    <glyph glyph-name="ion-android-arrow-forward" unicode="&#xf30f;" horiz-adv-x="342" 
d="M0 171v42h260l-119 120l30 30l171 -171l-171 -171l-31 30l120 120h-260z" />
    <glyph glyph-name="ion-android-arrow-up" unicode="&#xf366;" horiz-adv-x="342" 
d="M192 21h-42v260l-120 -119l-30 30l171 171l171 -171l-30 -31l-120 120v-260z" />
    <glyph glyph-name="ion-android-attach" unicode="&#xf367;" horiz-adv-x="235" 
d="M203 320h32v-235c0 -65 -53 -117 -118 -117s-117 52 -117 117v246c0 47 38 85 85 85s86 -38 86 -85v-246c0 -30 -24 -53 -54 -53s-53 23 -53 53v203h32v-203c0 -12 9 -21 21 -21s22 9 22 21v246c0 30 -24 53 -54 53s-53 -23 -53 -53v-246c0 -47 38 -85 85 -85
s86 38 86 85v235z" />
    <glyph glyph-name="ion-android-bar" unicode="&#xf368;" horiz-adv-x="384" 
d="M171 171l-171 170v43h384v-43l-171 -170v-131h107v-40h-256v40h107v131zM96 299h192l43 42h-278z" />
    <glyph glyph-name="ion-android-bicycle" unicode="&#xf369;" 
d="M299 317c-19 0 -34 14 -34 33s15 34 34 34s33 -15 33 -34s-14 -33 -33 -33zM355 187c51 0 93 -43 93 -94s-42 -93 -93 -93s-94 42 -94 93s43 94 94 94zM355 28c36 0 65 29 65 65s-29 66 -65 66s-66 -30 -66 -66s30 -65 66 -65zM274 224l-30 45l-43 -45l39 -32v-112h-32
v86l-61 38c-9 6 -19 15 -19 27c0 8 3 17 9 23l72 69c6 6 14 9 22 9c11 0 22 -7 28 -16l34 -60h59v-32h-78zM93 187c51 0 94 -43 94 -94s-43 -93 -94 -93s-93 42 -93 93s42 94 93 94zM93 28c36 0 66 29 66 65s-30 66 -66 66s-65 -30 -65 -66s29 -65 65 -65z" />
    <glyph glyph-name="ion-android-boat" unicode="&#xf36a;" 
d="M52 35l-51 139c-2 6 -1 12 1 17s8 8 13 10l38 13v98c0 23 20 43 43 43h64l16 53h96l16 -53h64c23 0 43 -20 43 -43v-98l38 -13c5 -2 11 -5 13 -10s3 -12 1 -17l-51 -139h-1c-34 0 -65 20 -86 43c-21 -23 -51 -43 -85 -43s-64 19 -85 42c-21 -23 -52 -42 -86 -42h-1z
M96 312v-84l128 41l128 -41v84h-256zM309 40c0 0 59 -64 107 -64h-21c-30 0 -59 12 -86 26c-53 -28 -117 -28 -170 0c-27 -14 -56 -26 -86 -26h-21c49 0 107 64 107 64c52 -36 118 -36 170 0z" />
    <glyph glyph-name="ion-android-bookmark" unicode="&#xf36b;" horiz-adv-x="288" 
d="M248 384c22 0 40 -18 40 -40v-344l-144 64l-144 -64v344c0 22 18 40 40 40h208z" />
    <glyph glyph-name="ion-android-bulb" unicode="&#xf36c;" 
d="M224 278c-25 0 -50 -10 -68 -28s-28 -43 -28 -68c0 -34 18 -66 48 -83l16 -10v-18v-71h64v71v18l16 10c15 8 27 20 35 34c9 15 13 31 13 49c0 25 -10 50 -28 68s-43 28 -68 28zM245 416v0v-64h-42v64h42zM374 362v0l30 -30l-38 -38l-30 30zM74 362v0l38 -38l-30 -30
l-38 38zM224 310v0c70 0 128 -58 128 -128c0 -48 -26 -89 -64 -111v-103h-128v103c-38 22 -64 64 -64 111c0 70 58 128 128 128zM448 203v0v-42h-64v42h64zM64 203v0v-42h-64v42h64z" />
    <glyph glyph-name="ion-android-bus" unicode="&#xf36d;" horiz-adv-x="352" 
d="M0 96v204c0 75 82 84 176 84s176 -9 176 -84v-204c0 -18 -14 -24 -27 -36v-39c0 -12 -9 -21 -21 -21h-21c-12 0 -22 9 -22 21v22h-170v-22c0 -12 -10 -21 -22 -21h-21c-12 0 -21 9 -21 21v39c-13 12 -27 17 -27 36zM80 80c18 0 32 14 32 32s-14 32 -32 32
s-32 -14 -32 -32s14 -32 32 -32zM272 80c18 0 32 14 32 32s-14 32 -32 32s-32 -14 -32 -32s14 -32 32 -32zM304 203v106h-256v-106h256z" />
    <glyph glyph-name="ion-android-calendar" unicode="&#xf2d1;" horiz-adv-x="384" 
d="M304 176v-96h-96v96h96zM272 384h48v-32h24c22 0 40 -18 40 -40v-272c0 -22 -18 -40 -40 -40h-304c-22 0 -40 18 -40 40v272c0 22 18 40 40 40h24v32h48v-32h160v32zM344 40v212h-304v-212h304z" />
    <glyph glyph-name="ion-android-call" unicode="&#xf2d2;" horiz-adv-x="384" 
d="M363 117c12 0 21 -9 21 -21v-75c0 -12 -9 -21 -21 -21c-201 0 -363 162 -363 363c0 12 9 21 21 21h75c12 0 21 -9 21 -21c0 -27 4 -52 13 -77c2 -7 0 -16 -5 -21l-47 -47c31 -61 80 -110 141 -141l47 47c5 6 14 7 21 5c23 -7 49 -12 76 -12z" />
    <glyph glyph-name="ion-android-camera" unicode="&#xf2d3;" 
d="M161 168c0 42 21 63 63 63s63 -21 63 -63s-21 -63 -63 -63s-63 21 -63 63zM408 352c11 0 20 -4 28 -12s12 -17 12 -28v-272c0 -11 -4 -20 -12 -28s-17 -12 -28 -12h-368c-11 0 -20 4 -28 12s-12 17 -12 28v272c0 11 4 20 12 28s17 12 28 12h88l32 32h128l32 -32h88z
M224 56c31 0 57 11 79 33s33 48 33 79s-11 57 -33 79s-48 33 -79 33s-57 -11 -79 -33s-33 -48 -33 -79s11 -57 33 -79s48 -33 79 -33z" />
    <glyph glyph-name="ion-android-cancel" unicode="&#xf36e;" horiz-adv-x="416" 
d="M208 400c115 0 208 -93 208 -208s-93 -208 -208 -208s-208 93 -208 208s93 208 208 208zM312 117l-75 75l75 75l-29 29l-75 -75l-75 75l-29 -29l75 -75l-75 -75l29 -29l75 75l75 -75z" />
    <glyph glyph-name="ion-android-car" unicode="&#xf36f;" horiz-adv-x="384" 
d="M339 331l45 -118v-160c0 -12 -9 -21 -21 -21h-22c-12 0 -21 9 -21 21v11h-256v-11c0 -12 -9 -21 -21 -21h-22c-12 0 -21 9 -21 21v160l45 118c4 13 16 21 30 21h234c14 0 26 -8 30 -21zM75 128c18 0 32 14 32 32s-14 32 -32 32s-32 -14 -32 -32s14 -32 32 -32zM309 128
c18 0 32 14 32 32s-14 32 -32 32s-32 -14 -32 -32s14 -32 32 -32zM43 235h298l-32 85h-234z" />
    <glyph glyph-name="ion-android-cart" unicode="&#xf370;" horiz-adv-x="416" 
d="M122 70c23 0 41 -18 41 -41s-18 -42 -41 -42s-42 19 -42 42s19 41 42 41zM0 397h68l19 -42h308c11 0 21 -9 21 -20c0 -4 -1 -8 -2 -10l-75 -129c-7 -14 -20 -22 -36 -22h-155l-21 -32s-2 -5 -2 -6c0 -3 2 -5 5 -5h238v-40h-243c-26 0 -45 14 -45 42c0 7 2 15 5 20l31 51
l-74 151h-42v42zM326 70c23 0 42 -18 42 -41s-19 -42 -42 -42s-41 19 -41 42s18 41 41 41z" />
    <glyph glyph-name="ion-android-chat" unicode="&#xf2d4;" horiz-adv-x="416" 
d="M344 384c4 0 7 -4 7 -8v-214c0 -4 -3 -9 -7 -9h-187l-90 -89v89h-57c-4 0 -10 5 -10 9v214c0 4 6 8 10 8h334zM408 321c4 0 8 -5 8 -9v-214c0 -4 -4 -9 -8 -9h-57v-89l-90 89h-130l39 39h181c18 0 25 10 25 26v167h32z" />
    <glyph glyph-name="ion-android-checkbox-blank" unicode="&#xf371;" horiz-adv-x="384" 
d="M341 384c23 0 43 -20 43 -43v-298c0 -23 -20 -43 -43 -43h-298c-23 0 -43 20 -43 43v298c0 23 20 43 43 43h298z" />
    <glyph glyph-name="ion-android-checkbox-outline-blank" unicode="&#xf372;" horiz-adv-x="384" 
d="M341 341h-298v-298h298v298zM341 384v0c23 0 43 -20 43 -43v-298c0 -23 -20 -43 -43 -43h-298c-23 0 -43 20 -43 43v298c0 23 20 43 43 43h298z" />
    <glyph glyph-name="ion-android-checkbox-outline" unicode="&#xf373;" horiz-adv-x="384" 
d="M105 233l66 -66l183 183l30 -30l-213 -213l-96 96zM341 43v170h43v-170c0 -23 -20 -43 -43 -43h-298c-23 0 -43 20 -43 43v298c0 23 20 43 43 43h213v-43h-213v-298h298z" />
    <glyph glyph-name="ion-android-checkbox" unicode="&#xf374;" horiz-adv-x="384" 
d="M341 384c23 0 43 -20 43 -43v-298c0 -23 -20 -43 -43 -43h-298c-23 0 -43 20 -43 43v298c0 23 20 43 43 43h298zM149 85l192 192l-30 30l-162 -162l-76 77l-30 -30z" />
    <glyph glyph-name="ion-android-checkmark-circle" unicode="&#xf375;" horiz-adv-x="416" 
d="M123 232l64 -64l179 178l29 -29l-208 -208l-93 93zM374 192h42c0 -114 -94 -208 -208 -208s-208 94 -208 208s94 208 208 208c28 0 54 -6 78 -16l-32 -32c-15 4 -30 6 -46 6c-92 0 -166 -74 -166 -166s74 -166 166 -166s166 74 166 166z" />
    <glyph glyph-name="ion-android-clipboard" unicode="&#xf376;" horiz-adv-x="384" 
d="M341 368c23 0 43 -20 43 -43v-314c0 -23 -20 -43 -43 -43h-298c-23 0 -43 20 -43 43v314c0 23 20 43 43 43h87c7 28 32 48 62 48s55 -20 62 -48h87zM192 368c-12 0 -21 -9 -21 -21s9 -22 21 -22s21 10 21 22s-9 21 -21 21zM344 8v320h-40v-72h-224v72h-40v-320h304z" />
    <glyph glyph-name="ion-android-close" unicode="&#xf2d7;" horiz-adv-x="298" 
d="M298 311l-119 -119l119 -119l-30 -30l-119 119l-119 -119l-30 30l119 119l-119 119l30 30l119 -119l119 119z" />
    <glyph glyph-name="ion-android-cloud-circle" unicode="&#xf377;" horiz-adv-x="416" 
d="M208 400c114 0 208 -94 208 -208s-94 -208 -208 -208s-208 94 -208 208s94 208 208 208zM302 109c29 0 52 23 52 52s-23 52 -52 52h-11c0 46 -37 83 -83 83c-38 0 -71 -26 -80 -62h-3c-34 0 -63 -29 -63 -63s29 -62 63 -62h177z" />
    <glyph glyph-name="ion-android-cloud-done" unicode="&#xf378;" horiz-adv-x="480" 
d="M387 231c52 -3 93 -46 93 -99c0 -55 -45 -100 -100 -100h-260c-66 0 -120 54 -120 120c0 62 47 113 107 119c25 48 75 81 133 81c73 0 133 -52 147 -121zM197 85l141 141l-30 30l-111 -111l-44 45l-30 -30z" />
    <glyph glyph-name="ion-android-cloud-outline" unicode="&#xf379;" horiz-adv-x="480" 
d="M387 231c52 -3 93 -46 93 -99c0 -55 -45 -100 -100 -100h-260c-66 0 -120 54 -120 120c0 62 47 113 107 119c25 48 75 81 133 81c73 0 133 -52 147 -121zM380 72c33 0 60 27 60 60s-27 60 -60 60h-30v10c0 61 -49 110 -110 110c-51 0 -93 -34 -106 -80h-14
c-44 0 -80 -36 -80 -80s36 -80 80 -80h260z" />
    <glyph glyph-name="ion-android-cloud" unicode="&#xf37a;" horiz-adv-x="480" 
d="M387 231c52 -3 93 -46 93 -99c0 -55 -45 -100 -100 -100h-260c-66 0 -120 54 -120 120c0 62 47 113 107 119c25 48 75 81 133 81c73 0 133 -52 147 -121z" />
    <glyph glyph-name="ion-android-color-palette" unicode="&#xf37b;" horiz-adv-x="384" 
d="M192 384c106 0 192 -77 192 -171c0 -59 -48 -106 -107 -106h-38c-18 0 -32 -14 -32 -32c0 -9 3 -17 8 -22s9 -12 9 -21c0 -18 -14 -32 -32 -32c-106 0 -192 86 -192 192s86 192 192 192zM75 192c18 0 32 14 32 32s-14 32 -32 32s-32 -14 -32 -32s14 -32 32 -32zM139 277
c18 0 32 14 32 32s-14 32 -32 32s-32 -14 -32 -32s14 -32 32 -32zM245 277c18 0 32 14 32 32s-14 32 -32 32s-32 -14 -32 -32s14 -32 32 -32zM309 192c18 0 32 14 32 32s-14 32 -32 32s-32 -14 -32 -32s14 -32 32 -32z" />
    <glyph glyph-name="ion-android-compass" unicode="&#xf37c;" 
d="M224 217c13 0 25 -12 25 -25s-12 -25 -25 -25s-25 12 -25 25s12 25 25 25zM224 416c123 0 224 -101 224 -224s-101 -224 -224 -224s-224 101 -224 224s101 224 224 224zM273 143l85 183l-183 -85l-85 -183z" />
    <glyph glyph-name="ion-android-contact" unicode="&#xf2d8;" horiz-adv-x="384" 
d="M267 110c59 -18 104 -58 117 -110h-384c13 52 58 92 117 110c22 -13 48 -20 75 -20s53 7 75 20zM192 384c73 0 132 -59 132 -132s-59 -132 -132 -132s-132 59 -132 132s59 132 132 132zM192 153c42 0 78 26 92 63h-184c14 -37 50 -63 92 -63z" />
    <glyph glyph-name="ion-android-contacts" unicode="&#xf2d9;" 
d="M207 104c47 -14 76 -62 87 -104h-294c11 42 40 90 87 104c18 -10 38 -16 60 -16s42 6 60 16zM147 328c58 0 106 -48 106 -106s-48 -106 -106 -106s-106 48 -106 106s48 106 106 106zM147 141c34 0 62 23 74 51h-148c12 -28 40 -51 74 -51zM291 64c-13 20 -34 43 -60 53
c11 9 21 23 28 35c13 -5 27 -8 42 -8c22 0 42 6 60 16c47 -14 76 -54 87 -96h-157zM275 248c-8 37 -31 69 -63 87c19 29 52 49 89 49c58 0 106 -48 106 -106s-48 -106 -106 -106c-11 0 -22 2 -32 5c3 8 6 16 7 25c8 -3 16 -4 25 -4c34 0 62 22 74 50h-100z" />
    <glyph glyph-name="ion-android-contract" unicode="&#xf37d;" horiz-adv-x="384" 
d="M0 77v51h128v-128h-51v77h-77zM77 307v77h51v-128h-128v51h77zM256 0v128h128v-51h-77v-77h-51zM307 307h77v-51h-128v128h51v-77z" />
    <glyph glyph-name="ion-android-create" unicode="&#xf37e;" horiz-adv-x="384" 
d="M0 80l236 236l80 -80l-236 -236h-80v80zM378 298l-40 -40l-80 80l40 40c9 9 20 9 29 0l51 -51c9 -9 9 -20 0 -29z" />
    <glyph glyph-name="ion-android-delete" unicode="&#xf37f;" horiz-adv-x="320" 
d="M32 43v245h256v-245c0 -23 -20 -43 -43 -43h-170c-23 0 -43 20 -43 43zM320 352v-32h-320v32h80l27 32h106l27 -32h80z" />
    <glyph glyph-name="ion-android-desktop" unicode="&#xf380;" 
d="M405 416c23 0 43 -20 43 -43v-282c0 -23 -20 -43 -43 -43h-138l42 -48v-32h-170v32l42 48h-138c-23 0 -43 20 -43 43v282c0 23 20 43 43 43h362zM405 128v245h-362v-245h362z" />
    <glyph glyph-name="ion-android-document" unicode="&#xf381;" horiz-adv-x="320" 
d="M192 400l128 -128v-248c0 -22 -18 -40 -40 -40h-240c-22 0 -40 18 -40 40v336c0 22 18 40 40 40h152zM176 256h112l-112 112v-112z" />
    <glyph glyph-name="ion-android-done-all" unicode="&#xf382;" horiz-adv-x="512" 
d="M388 308l-140 -139l-31 31l140 139zM481 339l31 -31l-264 -263l-122 123l30 31l92 -91zM0 168l32 31l122 -123l-31 -31z" />
    <glyph glyph-name="ion-android-done" unicode="&#xf383;" horiz-adv-x="384" 
d="M122 108l230 230l32 -31l-262 -261l-122 122l32 31z" />
    <glyph glyph-name="ion-android-download" unicode="&#xf2dd;" horiz-adv-x="480" 
d="M387 231c52 -3 93 -46 93 -99c0 -55 -45 -100 -100 -100h-260c-66 0 -120 54 -120 120c0 62 47 113 107 119c25 48 75 81 133 81c73 0 133 -52 147 -121zM208 180h-68l100 -100l100 100h-68v76h-64v-76z" />
    <glyph glyph-name="ion-android-drafts" unicode="&#xf384;" 
d="M448 246v-203c0 -23 -20 -43 -43 -43h-362c-23 0 -43 20 -43 43v203c0 15 8 30 20 37l204 101l204 -101c13 -7 20 -22 20 -37zM224 144l171 112l-171 85l-171 -85z" />
    <glyph glyph-name="ion-android-exit" unicode="&#xf385;" horiz-adv-x="384" 
d="M151 115l55 56h-206v42h207l-56 56l30 30l107 -107l-107 -107zM341 384c23 0 43 -20 43 -43v-298c0 -23 -20 -43 -43 -43h-298c-23 0 -43 20 -43 43v85h43v-85h298v298h-298v-85h-43v85c0 23 20 43 43 43h298z" />
    <glyph glyph-name="ion-android-expand" unicode="&#xf386;" horiz-adv-x="384" 
d="M333 51v77h51v-128h-128v51h77zM333 333h-77v51h128v-128h-51v77zM51 333v-77h-51v128h128v-51h-77zM51 51h77v-51h-128v128h51v-77z" />
    <glyph glyph-name="ion-android-favorite-outline" unicode="&#xf387;" horiz-adv-x="416" 
d="M302 384c64 0 114 -50 114 -115c0 -80 -71 -144 -178 -242l-30 -27l-30 27c-107 98 -178 162 -178 242c0 65 50 115 114 115c36 0 71 -17 94 -44c23 27 58 44 94 44zM221 55c50 46 94 86 123 122c28 35 40 63 40 92c0 23 -9 44 -24 59s-35 24 -58 24
c-26 0 -53 -13 -70 -33l-24 -29l-24 29c-17 20 -44 33 -70 33c-23 0 -43 -9 -58 -24s-24 -36 -24 -59c0 -29 12 -57 40 -92c29 -36 73 -76 123 -122l4 -4l9 -8l9 8z" />
    <glyph glyph-name="ion-android-favorite" unicode="&#xf388;" horiz-adv-x="416" 
d="M208 0l-30 27c-107 98 -178 162 -178 242c0 65 50 115 114 115c36 0 71 -17 94 -44c23 27 58 44 94 44c64 0 114 -50 114 -115c0 -80 -71 -144 -178 -242z" />
    <glyph glyph-name="ion-android-film" unicode="&#xf389;" horiz-adv-x="320" 
d="M280 384h40v-384h-40v43h-40v-43h-160v43h-40v-43h-40v384h40v-43h40v43h160v-43h40v43zM80 85v43h-40v-43h40zM80 171v42h-40v-42h40zM80 256v43h-40v-43h40zM280 85v43h-40v-43h40zM280 171v42h-40v-42h40zM280 256v43h-40v-43h40z" />
    <glyph glyph-name="ion-android-folder-open" unicode="&#xf38a;" 
d="M405 304c23 0 43 -20 43 -43v-186c0 -23 -20 -43 -43 -43h-362c-23 0 -43 20 -43 43v234c0 23 20 43 43 43h138l43 -48h181zM416 75v186c0 6 -5 11 -11 11h-373v-197c0 -6 5 -11 11 -11h362c6 0 11 5 11 11z" />
    <glyph glyph-name="ion-android-folder" unicode="&#xf2e0;" 
d="M181 352l43 -48h181c23 0 43 -20 43 -43v-186c0 -23 -20 -43 -43 -43h-362c-23 0 -43 20 -43 43v234c0 23 20 43 43 43h138z" />
    <glyph glyph-name="ion-android-funnel" unicode="&#xf38b;" 
d="M176 48v48h96v-48h-96zM0 336h448v-48h-448v48zM80 167v50h288v-50h-288z" />
    <glyph glyph-name="ion-android-globe" unicode="&#xf38c;" horiz-adv-x="416" 
d="M208 400c115 0 208 -93 208 -208s-93 -208 -208 -208s-208 93 -208 208s93 208 208 208zM186 15c6 15 21 29 8 39c-8 7 -16 14 -23 21c-2 2 -11 20 -9 23c5 9 6 14 8 24c3 12 -3 16 -13 22c-15 10 -29 23 -43 34c-7 5 -17 10 -20 19s-5 20 -10 28c-14 20 -12 34 -10 58
c0 7 -1 16 -2 25c-28 -32 -42 -73 -42 -116c0 -48 18 -92 52 -126c29 -29 65 -46 104 -51zM334 66c23 23 39 51 47 82c-8 -1 -19 2 -19 2s-21 24 -23 45c-2 22 0 39 -3 57c-3 16 -20 31 -27 46c-7 14 -13 28 -20 42c2 -1 5 -2 7 -3c5 1 10 2 14 2c-23 16 -49 25 -76 29v-8
l4 -9l-14 -13l-9 3l-10 10l-10 12l-14 5c-16 -2 -31 -7 -45 -13v-7c7 3 16 5 23 8c3 1 13 -7 16 -9c-4 -5 -21 -15 -22 -21c0 -2 7 -6 7 -10c0 -6 -1 -11 -1 -17c3 3 20 21 22 21c13 3 35 -19 37 -26s-22 -24 -33 -34c-8 -8 -25 -12 -20 -24c2 -4 10 -20 5 -24
c-6 -5 -14 9 -17 12c-8 10 -26 7 -38 7c0 -17 -1 -31 15 -43c15 -11 30 -25 47 -33c13 -6 36 7 47 -1c16 -11 29 -21 47 -29c8 -3 33 -20 26 -31c-5 -8 -10 -15 -14 -23s-13 -20 -20 -25c-8 -6 -16 -17 -21 -29c35 7 66 23 92 49z" />
    <glyph glyph-name="ion-android-hand" unicode="&#xf2e3;" horiz-adv-x="414" 
d="M401 174c15 -15 18 -36 3 -51c0 0 -96 -103 -126 -121v0c-28 -21 -65 -34 -100 -34c-55 0 -101 36 -117 85v0v1c0 1 -1 2 -1 3l-58 189c-5 15 2 32 17 37s30 -3 35 -18l34 -88c1 -4 2 -2 2 1l-22 161c-3 15 7 30 22 33s30 -8 33 -23l25 -138c0 -2 2 -2 2 0v177
c0 15 13 28 28 28s28 -13 28 -28l8 -175c0 -5 3 -4 4 -1l23 135c2 15 16 27 31 25s27 -17 25 -32l-21 -172c-1 -12 -3 -30 2 -36c8 -9 20 -9 31 2l42 42c15 15 35 13 50 -2z" />
    <glyph glyph-name="ion-android-hangout" unicode="&#xf38d;" horiz-adv-x="352" 
d="M176 400c97 0 176 -77 176 -172c0 -91 -76 -196 -176 -244v71c-97 0 -176 78 -176 173s79 172 176 172zM166 217v61h-62v-61h31l-21 -40h31zM248 217v61h-62v-61h31l-20 -40h31z" />
    <glyph glyph-name="ion-android-happy" unicode="&#xf38e;" horiz-adv-x="416" 
d="M208 400c114 0 208 -94 208 -208s-93 -208 -208 -208s-208 94 -208 208s93 208 208 208zM208 26c92 0 166 74 166 166s-74 166 -166 166s-166 -74 -166 -166s74 -166 166 -166zM281 213c-18 0 -31 13 -31 31s13 31 31 31s31 -13 31 -31s-13 -31 -31 -31zM135 213
c-18 0 -31 13 -31 31s13 31 31 31s31 -13 31 -31s-13 -31 -31 -31zM208 78c-49 0 -89 29 -106 72h212c-17 -43 -57 -72 -106 -72z" />
    <glyph glyph-name="ion-android-home" unicode="&#xf38f;" horiz-adv-x="416" 
d="M160 0h-98v192h-62l208 192l208 -192h-62v-192h-98v128h-96v-128z" />
    <glyph glyph-name="ion-android-image" unicode="&#xf2e4;" horiz-adv-x="384" 
d="M384 43c0 -23 -20 -43 -43 -43h-298c-23 0 -43 20 -43 43v298c0 23 20 43 43 43h298c23 0 43 -20 43 -43v-298zM117 160l-74 -96h298l-96 128l-74 -96z" />
    <glyph glyph-name="ion-android-laptop" unicode="&#xf390;" horiz-adv-x="512" 
d="M437 32h75c0 -23 -64 -32 -96 -32h-320c-32 0 -96 9 -96 32h75c-23 0 -43 20 -43 43v266c0 23 20 43 43 43h362c23 0 43 -20 43 -43v-266c0 -23 -20 -43 -43 -43zM75 341v-272h362v272h-362zM256 13c12 0 21 10 21 22s-9 21 -21 21s-21 -9 -21 -21s9 -22 21 -22z" />
    <glyph glyph-name="ion-android-list" unicode="&#xf391;" horiz-adv-x="384" 
d="M344 384c22 0 40 -18 40 -40v-304c0 -22 -18 -40 -40 -40h-304c-22 0 -40 18 -40 40v304c0 22 18 40 40 40h304zM240 80v48h-160v-48h160zM304 168v48h-224v-48h224zM304 256v48h-224v-48h224z" />
    <glyph glyph-name="ion-android-locate" unicode="&#xf2e9;" 
d="M224 272c44 0 80 -36 80 -80s-36 -80 -80 -80s-80 36 -80 80s36 80 80 80zM415 213h33v-42h-33c-10 -89 -81 -160 -170 -170v-33h-42v33c-89 10 -160 81 -170 170h-33v42h33c10 89 81 160 170 170v33h42v-33c89 -10 160 -81 170 -170zM224 43c82 0 149 67 149 149
s-67 149 -149 149s-149 -67 -149 -149s67 -149 149 -149z" />
    <glyph glyph-name="ion-android-lock" unicode="&#xf392;" horiz-adv-x="320" 
d="M280 262c22 0 40 -18 40 -40v-200c0 -22 -18 -40 -40 -40h-240c-22 0 -40 18 -40 40v200c0 22 18 40 40 40h20v40c0 55 45 100 100 100s100 -45 100 -100v-40h20zM160 80c22 0 40 18 40 40s-18 40 -40 40s-40 -18 -40 -40s18 -40 40 -40zM222 262v40c0 34 -28 62 -62 62
s-62 -28 -62 -62v-40h124z" />
    <glyph glyph-name="ion-android-mail" unicode="&#xf2eb;" 
d="M405 368c23 0 43 -20 43 -43v-266c0 -23 -20 -43 -43 -43h-362c-23 0 -43 20 -43 43v266c0 23 20 43 43 43h362zM400 277v43l-176 -117l-176 117v-43l176 -117z" />
    <glyph glyph-name="ion-android-map" unicode="&#xf393;" horiz-adv-x="384" 
d="M373 384c6 0 11 -5 11 -11v-322c0 -5 -3 -9 -7 -10l-121 -41l-128 45s-105 -41 -108 -42s-7 -3 -9 -3c-6 0 -11 5 -11 11v322c0 5 3 9 7 10l121 41l128 -45s103 40 108 42s7 3 9 3zM256 43v254l-128 44v-254z" />
    <glyph glyph-name="ion-android-menu" unicode="&#xf394;" horiz-adv-x="384" 
d="M0 64v43h384v-43h-384zM0 171v42h384v-42h-384zM0 320h384v-43h-384v43z" />
    <glyph glyph-name="ion-android-microphone-off" unicode="&#xf395;" horiz-adv-x="408" 
d="M316 93l58 -58l-58 58l58 -58l34 -33l-24 -24l-95 95c-19 -11 -40 -20 -62 -23v-82h-46v82c-75 10 -137 76 -137 153h39c0 -68 58 -117 121 -117c20 0 40 5 57 14l-32 33c-8 -3 -16 -5 -25 -5c-38 0 -69 31 -69 69v29l-135 134l24 24l111 -110v0l140 -140l5 -5l9 -9z
M273 197c0 -4 0 -8 -1 -12l-137 137v25c0 38 31 69 69 69s69 -31 69 -69v-150zM365 203c0 -31 -10 -60 -27 -84l-27 28c9 17 15 36 15 56h39zM408 2v0l-34 33z" />
    <glyph glyph-name="ion-android-microphone" unicode="&#xf2ec;" horiz-adv-x="320" 
d="M160 128c-38 0 -69 31 -69 69v150c0 38 31 69 69 69s69 -31 69 -69v-150c0 -38 -31 -69 -69 -69zM281 203h39c0 -78 -62 -142 -137 -153v-82h-46v82c-75 10 -137 75 -137 153h39c0 -69 58 -116 121 -116s121 47 121 116z" />
    <glyph glyph-name="ion-android-more-horizontal" unicode="&#xf396;" horiz-adv-x="320" 
d="M40 232c22 0 40 -18 40 -40s-18 -40 -40 -40s-40 18 -40 40s18 40 40 40zM280 232c22 0 40 -18 40 -40s-18 -40 -40 -40s-40 18 -40 40s18 40 40 40zM160 232c22 0 40 -18 40 -40s-18 -40 -40 -40s-40 18 -40 40s18 40 40 40z" />
    <glyph glyph-name="ion-android-more-vertical" unicode="&#xf397;" horiz-adv-x="80" 
d="M80 312c0 -22 -18 -40 -40 -40s-40 18 -40 40s18 40 40 40s40 -18 40 -40zM80 72c0 -22 -18 -40 -40 -40s-40 18 -40 40s18 40 40 40s40 -18 40 -40zM80 192c0 -22 -18 -40 -40 -40s-40 18 -40 40s18 40 40 40s40 -18 40 -40z" />
    <glyph glyph-name="ion-android-navigate" unicode="&#xf398;" horiz-adv-x="320" 
d="M160 384l160 -369l-15 -15l-145 64l-145 -64l-15 15z" />
    <glyph glyph-name="ion-android-notifications-none" unicode="&#xf399;" horiz-adv-x="352" 
d="M177 328h-2c-6 0 -24 -5 -24 -5c-46 -10 -78 -53 -78 -100v-114v-13l-9 -10l-8 -8h240l-8 8l-9 10v13v114c0 47 -32 90 -78 100c0 0 -17 5 -24 5zM176 400v0c18 0 31 -13 31 -31v-15c59 -14 104 -68 104 -131v-114l41 -42v-21h-352v21l41 42v114c0 63 45 117 104 131v15
c0 18 13 31 31 31zM217 26v0c0 -23 -18 -42 -41 -42s-41 19 -41 42h82z" />
    <glyph glyph-name="ion-android-notifications-off" unicode="&#xf39a;" horiz-adv-x="364" 
d="M182 -16c-23 0 -41 19 -41 42h82c0 -23 -18 -42 -41 -42zM57 341l295 -295v0l12 -12l-24 -24l-36 36h-298v21l41 41v115c0 23 6 44 16 63l-63 64l24 24l33 -33v0zM317 223v-94l-208 207c13 8 27 15 42 18v15c0 18 13 31 31 31s31 -13 31 -31v-15c59 -14 104 -67 104 -131
z" />
    <glyph glyph-name="ion-android-notifications" unicode="&#xf39b;" horiz-adv-x="352" 
d="M176 -16c-23 0 -41 19 -41 42h82c0 -23 -18 -42 -41 -42zM311 109l41 -42v-21h-352v21l41 42v114c0 63 45 117 104 131v15c0 18 13 31 31 31s31 -13 31 -31v-15c59 -14 104 -68 104 -131v-114z" />
    <glyph glyph-name="ion-android-open" unicode="&#xf39c;" horiz-adv-x="384" 
d="M341 43v133h43v-133c0 -23 -20 -43 -43 -43h-298c-23 0 -43 20 -43 43v298c0 23 20 43 43 43h133v-43h-133v-298h298zM224 384h160v-160h-43v87l-215 -215l-30 30l215 215h-87v43z" />
    <glyph glyph-name="ion-android-options" unicode="&#xf39d;" 
d="M0 32v32h272v-32h-272zM368 32v32h80v-32h-80zM352 0c0 -18 -14 -32 -32 -32v0c-18 0 -32 14 -32 32v96c0 18 14 32 32 32v0c18 0 32 -14 32 -32v-96zM0 176v32h80v-32h-80zM176 176v32h272v-32h-272zM160 144c0 -18 -14 -32 -32 -32v0c-18 0 -32 14 -32 32v96
c0 18 14 32 32 32v0c18 0 32 -14 32 -32v-96zM0 320v32h272v-32h-272zM368 320v32h80v-32h-80zM352 288c0 -18 -14 -32 -32 -32v0c-18 0 -32 14 -32 32v96c0 18 14 32 32 32v0c18 0 32 -14 32 -32v-96z" />
    <glyph glyph-name="ion-android-people" unicode="&#xf39e;" 
d="M305 216c-34 0 -61 27 -61 60s27 60 61 60s62 -27 62 -60s-28 -60 -62 -60zM143 216c-34 0 -62 27 -62 60s28 60 62 60s61 -27 61 -60s-27 -60 -61 -60zM143 172c48 0 145 -23 145 -70v-54h-288v54c0 47 95 70 143 70zM305 161c48 0 143 -12 143 -59v-54h-128v54
c0 30 -9 41 -32 58c7 1 11 1 17 1z" />
    <glyph glyph-name="ion-android-person-add" unicode="&#xf39f;" horiz-adv-x="480" 
d="M288 192c-53 0 -96 43 -96 96s43 96 96 96s96 -43 96 -96s-43 -96 -96 -96zM288 144c64 0 192 -32 192 -96v-48h-384v48c0 64 128 96 192 96zM96 224h64v-32h-64v-64h-32v64h-64v32h64v64h32v-64z" />
    <glyph glyph-name="ion-android-person" unicode="&#xf3a0;" horiz-adv-x="384" 
d="M192 192c-53 0 -96 43 -96 96s43 96 96 96s96 -43 96 -96s-43 -96 -96 -96zM192 144c64 0 192 -32 192 -96v-48h-384v48c0 64 128 96 192 96z" />
    <glyph glyph-name="ion-android-phone-landscape" unicode="&#xf3a1;" 
d="M448 89c0 -23 -19 -41 -41 -41h-366c-22 0 -41 18 -41 41v206c0 23 19 41 41 41h366c22 0 41 -18 41 -41v-206zM80 84h288v216h-288v-216z" />
    <glyph glyph-name="ion-android-phone-portrait" unicode="&#xf3a2;" horiz-adv-x="288" 
d="M247 416c23 0 41 -19 41 -41v-366c0 -22 -18 -41 -41 -41h-206c-23 0 -41 19 -41 41v366c0 22 18 41 41 41h206zM252 48v288h-216v-288h216z" />
    <glyph glyph-name="ion-android-pin" unicode="&#xf3a3;" horiz-adv-x="320" 
d="M160 416c88 0 160 -71 160 -157c0 -118 -160 -291 -160 -291s-160 173 -160 291c0 86 72 157 160 157zM160 203c32 0 57 25 57 56s-25 56 -57 56s-57 -25 -57 -56s25 -56 57 -56z" />
    <glyph glyph-name="ion-android-plane" unicode="&#xf3a4;" horiz-adv-x="384" 
d="M384 112l-160 48v-114l48 -31v-31l-80 16l-80 -16v31l48 31v114l-160 -48v40l160 104v113c0 18 15 31 32 31s32 -13 32 -31v-113l160 -104v-40z" />
    <glyph glyph-name="ion-android-playstore" unicode="&#xf2f0;" horiz-adv-x="416" 
d="M416 296c-19 -214 -13 -312 -13 -312h-390s6 96 -13 312h104c0 57 47 104 104 104s104 -47 104 -104h104zM208 374c-43 0 -78 -35 -78 -78h156c0 43 -35 78 -78 78zM156 50l143 85l-143 84v-169z" />
    <glyph glyph-name="ion-android-print" unicode="&#xf3a5;" horiz-adv-x="416" 
d="M352 288c35 0 64 -29 64 -64v-139h-80v-85h-256v85h-80v139c0 35 29 64 64 64h288zM304 32v128h-192v-128h192zM336 384v0v-80h-256v80h256z" />
    <glyph glyph-name="ion-android-radio-button-off" unicode="&#xf3a6;" horiz-adv-x="416" 
d="M208 400c114 0 208 -94 208 -208s-94 -208 -208 -208s-208 94 -208 208s94 208 208 208zM208 26c92 0 166 74 166 166s-74 166 -166 166s-166 -74 -166 -166s74 -166 166 -166z" />
    <glyph glyph-name="ion-android-radio-button-on" unicode="&#xf3a7;" horiz-adv-x="416" 
d="M208 296c57 0 104 -47 104 -104s-47 -104 -104 -104s-104 47 -104 104s47 104 104 104zM208 400c114 0 208 -94 208 -208s-94 -208 -208 -208s-208 94 -208 208s94 208 208 208zM208 26c92 0 166 74 166 166s-74 166 -166 166s-166 -74 -166 -166s74 -166 166 -166z" />
    <glyph glyph-name="ion-android-refresh" unicode="&#xf3a8;" horiz-adv-x="352" 
d="M176 60c56 0 104 34 123 84h46c-21 -74 -88 -128 -169 -128c-98 0 -176 79 -176 176s79 176 176 176c48 0 92 -20 124 -52l52 52v-154h-154l70 70c-23 24 -56 40 -92 40c-73 0 -132 -59 -132 -132s59 -132 132 -132z" />
    <glyph glyph-name="ion-android-remove-circle" unicode="&#xf3a9;" horiz-adv-x="416" 
d="M208 400c115 0 208 -93 208 -208s-93 -208 -208 -208s-208 93 -208 208s93 208 208 208zM315 171v42h-214v-42h214z" />
    <glyph glyph-name="ion-android-remove" unicode="&#xf2f4;" horiz-adv-x="320" 
d="M0 171v42h320v-42h-320z" />
    <glyph glyph-name="ion-android-restaurant" unicode="&#xf3aa;" horiz-adv-x="415" 
d="M116 168l-91 89c-34 33 -34 86 0 119l153 -148zM264 206l-33 -31l150 -145l-30 -30l-150 146l-150 -146l-30 30s163 159 211 207c-15 32 -4 77 31 111c41 40 101 49 132 17c33 -31 24 -89 -17 -129c-34 -34 -80 -45 -114 -30z" />
    <glyph glyph-name="ion-android-sad" unicode="&#xf3ab;" horiz-adv-x="416" 
d="M208 160c45 0 83 -26 102 -64h-204c19 38 57 64 102 64zM208 400c114 0 208 -94 208 -208s-93 -208 -208 -208s-208 94 -208 208s93 208 208 208zM208 26c92 0 166 74 166 166s-74 166 -166 166s-166 -74 -166 -166s74 -166 166 -166zM281 213c-18 0 -31 13 -31 31
s13 31 31 31s31 -13 31 -31s-13 -31 -31 -31zM135 213c-18 0 -31 13 -31 31s13 31 31 31s31 -13 31 -31s-13 -31 -31 -31z" />
    <glyph glyph-name="ion-android-search" unicode="&#xf2f5;" horiz-adv-x="384" 
d="M274 143l110 -110l-33 -33l-109 110v17l-7 6c-25 -21 -58 -34 -93 -34c-79 0 -142 63 -142 142s63 143 141 143c79 0 142 -64 142 -143c0 -36 -13 -68 -34 -93l7 -5h18zM142 143c55 0 99 43 99 98s-44 99 -99 99s-98 -44 -98 -99s43 -98 98 -98z" />
    <glyph glyph-name="ion-android-send" unicode="&#xf2f6;" horiz-adv-x="416" 
d="M0 0v149l298 43l-298 43v149l416 -192z" />
    <glyph glyph-name="ion-android-settings" unicode="&#xf2f7;" horiz-adv-x="416" 
d="M366 171l47 -34c3 -3 4 -10 2 -14l-43 -71c-2 -4 -7 -7 -12 -5l-54 21c-12 -8 -23 -16 -36 -21l-8 -55c-1 -4 -6 -8 -11 -8h-85c-5 0 -10 3 -11 8l-8 55c-13 5 -25 13 -36 21l-54 -21c-4 -2 -10 1 -12 5l-43 71c-3 5 -2 11 2 14l45 34c0 7 -1 14 -1 21s1 14 1 21l-46 34
c-3 3 -4 10 -2 14l43 71c2 4 7 7 12 5l54 -21c12 8 23 16 36 21l8 55c1 4 6 8 11 8h85c5 0 10 -4 11 -8l7 -55c13 -5 25 -13 36 -21l53 21c4 2 11 -1 13 -5l43 -71c3 -5 2 -11 -2 -14l-45 -34c0 -7 1 -14 1 -21s0 -15 -1 -21zM207 119c41 0 75 32 75 73s-34 73 -75 73
s-74 -32 -74 -73s33 -73 74 -73z" />
    <glyph glyph-name="ion-android-share-alt" unicode="&#xf3ac;" horiz-adv-x="384" 
d="M320 104c34 0 62 -28 62 -62s-28 -62 -62 -62s-62 28 -62 62c0 5 1 10 2 14l-152 88c-12 -11 -27 -17 -44 -17c-35 0 -64 29 -64 64s28 64 63 64c17 0 32 -6 44 -17l151 87c-1 5 -2 10 -2 15c0 35 29 64 64 64s64 -29 64 -64s-29 -64 -64 -64c-17 0 -32 6 -44 17
l-151 -87c1 -5 2 -10 2 -15s-1 -10 -2 -15l153 -88c11 11 26 16 42 16z" />
    <glyph glyph-name="ion-android-share" unicode="&#xf2f8;" horiz-adv-x="384" 
d="M384 200l-160 -147v88c-107 0 -171 -34 -224 -109c21 107 75 214 224 235v85z" />
    <glyph glyph-name="ion-android-star-half" unicode="&#xf3ad;" horiz-adv-x="404" 
d="M404 238l-110 -96l33 -142l-125 75l-125 -75l33 142l-110 96l145 12l57 134l57 -134zM219 103l60 -36l-16 68l-5 19l15 12l53 46l-70 6l-19 2l-8 18l-27 64v-189z" />
    <glyph glyph-name="ion-android-star-outline" unicode="&#xf3ae;" horiz-adv-x="404" 
d="M404 238l-110 -96l33 -142l-125 75l-125 -75l33 142l-110 96l145 12l57 134l57 -134zM219 103l60 -36l-16 68l-5 19l15 12l53 46l-70 6l-19 2l-8 18l-27 64l-27 -64l-8 -18l-19 -2l-70 -6l53 -46l15 -12l-5 -19l-16 -68l60 36l17 10z" />
    <glyph glyph-name="ion-android-star" unicode="&#xf2fc;" horiz-adv-x="404" 
d="M202 75l-125 -75l33 142l-110 96l145 12l57 134l57 -134l145 -12l-110 -96l33 -142z" />
    <glyph glyph-name="ion-android-stopwatch" unicode="&#xf2fd;" horiz-adv-x="384" 
d="M168 141v131h48v-131h-48zM344 278c25 -33 40 -74 40 -118c0 -106 -86 -192 -192 -192s-192 86 -192 192s86 192 192 192c44 0 85 -15 118 -40l31 30l33 -33zM298 54c28 28 44 66 44 106s-16 78 -44 106s-66 44 -106 44s-78 -16 -106 -44s-44 -66 -44 -106
s16 -78 44 -106s66 -44 106 -44s78 16 106 44zM128 368v48h128v-48h-128z" />
    <glyph glyph-name="ion-android-subway" unicode="&#xf3af;" horiz-adv-x="352" 
d="M176 400c94 0 176 -10 176 -85v-214c0 -42 -33 -74 -75 -74l27 -27v-16h-256v16l27 27c-42 0 -75 32 -75 74v214c0 75 82 85 176 85zM80 64c18 0 32 14 32 32s-14 32 -32 32s-32 -14 -32 -32s14 -32 32 -32zM160 208v96h-112v-96h112zM272 64c18 0 32 14 32 32
s-14 32 -32 32s-32 -14 -32 -32s14 -32 32 -32zM304 208v96h-112v-96h112z" />
    <glyph glyph-name="ion-android-sunny" unicode="&#xf3b0;" 
d="M224 288c-25 0 -50 -10 -68 -28s-28 -43 -28 -68s10 -50 28 -68s43 -28 68 -28s50 10 68 28s28 43 28 68s-10 50 -28 68s-43 28 -68 28zM245 416v0v-64h-42v64h42zM374 372v0l30 -30l-38 -38l-30 30zM74 372v0l38 -38l-30 -30l-38 38zM224 320v0c70 0 128 -58 128 -128
s-58 -128 -128 -128s-128 58 -128 128s58 128 128 128zM448 213v0v-42h-64v42h64zM64 213v0v-42h-64v42h64zM366 80v0l38 -38l-30 -30l-38 38zM82 80v0l30 -30l-38 -38l-30 30zM245 32v0v-64h-42v64h42z" />
    <glyph glyph-name="ion-android-sync" unicode="&#xf3b1;" horiz-adv-x="320" 
d="M160 355c88 0 160 -73 160 -163c0 -32 -9 -62 -25 -87l-29 30c9 17 14 37 14 57c0 67 -54 122 -120 122v-61l-80 82l80 81v-61zM160 70v61l80 -82l-80 -81v61c-88 0 -160 73 -160 163c0 32 9 63 25 87l29 -30c-9 -17 -14 -37 -14 -57c0 -67 54 -122 120 -122z" />
    <glyph glyph-name="ion-android-textsms" unicode="&#xf3b2;" horiz-adv-x="384" 
d="M344 384c22 0 40 -18 40 -40v-240c0 -22 -18 -40 -40 -40h-280l-64 -64v344c0 22 10 40 32 40h312zM134 206v40h-38v-40h38zM211 206v40h-38v-40h38zM288 206v40h-38v-40h38z" />
    <glyph glyph-name="ion-android-time" unicode="&#xf3b3;" horiz-adv-x="426" 
d="M213 405c117 0 213 -96 213 -213s-95 -213 -213 -213s-213 96 -213 213s95 213 213 213zM213 22c94 0 170 76 170 170s-76 170 -170 170s-170 -76 -170 -170s76 -170 170 -170zM224 298v-111l96 -57l-16 -26l-112 67v127h32z" />
    <glyph glyph-name="ion-android-train" unicode="&#xf3b4;" horiz-adv-x="352" 
d="M0 101v214c0 75 82 85 176 85s176 -10 176 -85v-214c0 -42 -33 -74 -75 -74l27 -27v-16h-256v16l27 27c-42 0 -75 32 -75 74zM176 72c22 0 40 18 40 40s-18 40 -40 40s-40 -18 -40 -40s18 -40 40 -40zM304 224v96h-256v-96h256z" />
    <glyph glyph-name="ion-android-unlock" unicode="&#xf3b5;" horiz-adv-x="320" 
d="M280 262c22 0 40 -18 40 -40v-200c0 -22 -18 -40 -40 -40h-240c-22 0 -40 18 -40 40v200c0 22 18 40 40 40h182v40v0c0 34 -28 62 -62 62s-62 -28 -62 -62h-38c0 55 45 100 100 100s100 -45 100 -100v-40h20zM160 80c22 0 40 18 40 40s-18 40 -40 40s-40 -18 -40 -40
s18 -40 40 -40z" />
    <glyph glyph-name="ion-android-upload" unicode="&#xf3b6;" horiz-adv-x="480" 
d="M387 231c52 -3 93 -46 93 -99c0 -55 -45 -100 -100 -100h-260c-66 0 -120 54 -120 120c0 62 47 113 107 119c25 48 75 81 133 81c73 0 133 -52 147 -121zM272 172h68l-100 100l-100 -100h68v-76h64v76z" />
    <glyph glyph-name="ion-android-volume-down" unicode="&#xf3b7;" horiz-adv-x="288" 
d="M0 256h85l107 112v-352l-107 112h-85v128zM288 192c0 -38 -21 -73 -53 -88v177c32 -16 53 -51 53 -89z" />
    <glyph glyph-name="ion-android-volume-mute" unicode="&#xf3b8;" horiz-adv-x="192" 
d="M0 256h85l107 112v-352l-107 112h-85v128z" />
    <glyph glyph-name="ion-android-volume-off" unicode="&#xf3b9;" horiz-adv-x="384" 
d="M342 192c0 69 -45 128 -107 147v45c85 -20 149 -99 149 -192c0 -35 -8 -68 -24 -96l-32 32c9 19 14 41 14 64zM192 368v-104l-51 51zM357 51v0l24 -24l-24 -24l-40 40c-23 -21 -51 -36 -82 -43v45c19 6 37 15 52 28l-95 95v-152l-107 112h-85v128h85l9 10l-91 91l24 24z
M288 192c0 -7 0 -15 -2 -22l-51 51v60c32 -16 53 -51 53 -89z" />
    <glyph glyph-name="ion-android-volume-up" unicode="&#xf3ba;" horiz-adv-x="384" 
d="M0 256h85l107 112v-352l-107 112h-85v128zM288 192c0 -38 -21 -73 -53 -88v177c32 -16 53 -51 53 -89zM235 384c85 -20 149 -99 149 -192s-64 -172 -149 -192v45c62 19 106 78 106 147s-44 128 -106 147v45z" />
    <glyph glyph-name="ion-android-walk" unicode="&#xf3bb;" horiz-adv-x="272" 
d="M168 336c-22 0 -40 18 -40 40s18 40 40 40s40 -18 40 -40s-18 -40 -40 -40zM168 216l-20 38l-20 -62l57 -96v-128h-38v96l-50 68l-57 -164h-40l81 320l-41 -16v-80h-40v112l111 38c4 1 10 1 13 1c13 0 23 -6 31 -18l45 -69h72v-40h-104z" />
    <glyph glyph-name="ion-android-warning" unicode="&#xf3bc;" 
d="M0 -16l224 416l224 -416h-448zM248 48v48h-48v-48h48zM248 128v96h-48v-96h48z" />
    <glyph glyph-name="ion-android-watch" unicode="&#xf3bd;" horiz-adv-x="320" 
d="M320 192c0 -51 -24 -96 -61 -125l-19 -115h-160l-19 115c-37 29 -61 74 -61 125s24 96 61 125l19 115h160l19 -115c37 -29 61 -74 61 -125zM40 192c0 -66 54 -120 120 -120s120 54 120 120s-54 120 -120 120s-120 -54 -120 -120z" />
    <glyph glyph-name="ion-android-wifi" unicode="&#xf305;" horiz-adv-x="416" 
d="M208 219c23 0 42 -18 42 -41s-19 -41 -42 -41s-42 18 -42 41s19 41 42 41zM333 178c0 -45 -26 -85 -63 -107l-20 36c25 14 41 40 41 71c0 45 -37 82 -83 82s-83 -37 -83 -82c0 -31 16 -57 41 -71l-20 -36c-37 22 -63 62 -63 107c0 68 56 124 125 124s125 -56 125 -124z
M208 384c114 0 208 -93 208 -206c0 -76 -42 -142 -104 -178l-21 36c50 28 83 81 83 142c0 91 -74 165 -166 165s-166 -74 -166 -165c0 -61 33 -113 83 -142l-21 -36c-62 36 -104 102 -104 178c0 113 94 206 208 206z" />
    <glyph glyph-name="ion-aperture" unicode="&#xf313;" 
d="M224 416c124 0 224 -100 224 -224s-100 -224 -224 -224s-224 100 -224 224s100 224 224 224zM360 56c36 36 56 85 56 136s-20 100 -56 136s-85 56 -136 56s-100 -20 -136 -56s-56 -85 -56 -136s20 -100 56 -136s85 -56 136 -56s100 20 136 56zM168 342l56 -86h-147
c17 40 50 71 91 86zM381 160h-102l72 129c21 -27 33 -60 33 -97c0 -11 -1 -22 -3 -32zM328 314l-49 -90l-78 126c8 1 15 2 23 2c40 0 76 -14 104 -38zM67 224h102l-72 -129c-21 27 -33 60 -33 97c0 11 1 22 3 32zM280 42l-56 86h147c-17 -40 -50 -71 -91 -86zM120 70l49 90
l78 -126c-8 -1 -15 -2 -23 -2c-40 0 -76 14 -104 38z" />
    <glyph glyph-name="ion-archive" unicode="&#xf102;" 
d="M224 140l-128 116h80v96h96v-96h80zM433 151c11 -6 17 -19 15 -32l-9 -67c-2 -13 -9 -20 -28 -20h-374c-18 0 -26 7 -28 20l-9 67c-2 13 3 26 14 32l72 55h42l-62 -62h50c2 0 5 -1 6 -3l18 -45h168l18 45c1 2 3 3 5 3h51l-62 62h42z" />
    <glyph glyph-name="ion-arrow-down-a" unicode="&#xf103;" horiz-adv-x="384" 
d="M192 -0l-192 192h112v192h160v-192h112z" />
    <glyph glyph-name="ion-arrow-down-b" unicode="&#xf104;" horiz-adv-x="320" 
d="M3 263c-2 2 -3 6 -3 9c0 9 8 16 17 16v0h286v0c9 0 17 -7 17 -16c0 -3 -1 -6 -3 -8l-2 -3l-136 -156c-5 -5 -11 -9 -19 -9s-14 4 -19 9l-136 156z" />
    <glyph glyph-name="ion-arrow-down-c" unicode="&#xf105;" horiz-adv-x="274" 
d="M265 125l-105 -100c-6 -6 -14 -9 -23 -9s-16 3 -22 9l-106 100c-12 12 -12 31 0 43s34 12 46 0l50 -48v217c0 17 14 31 32 31s32 -14 32 -31v-217l50 48c12 12 34 12 46 0s12 -31 0 -43z" />
    <glyph glyph-name="ion-arrow-expand" unicode="&#xf25e;" horiz-adv-x="320" 
d="M178 238l64 64l-50 50h128v-128l-50 50l-64 -64zM178 146l28 28l64 -64l50 50v-128h-128l50 50zM142 146l-64 -64l50 -50h-128v128l50 -50l64 64zM142 238l-28 -28l-64 64l-50 -50v128h128l-50 -50z" />
    <glyph glyph-name="ion-arrow-graph-down-left" unicode="&#xf25f;" 
d="M0 64v160l61 -61l131 141l107 -112l149 128l-149 -203l-107 107l-94 -98l62 -62h-160z" />
    <glyph glyph-name="ion-arrow-graph-down-right" unicode="&#xf260;" 
d="M288 64l62 62l-94 98l-107 -107l-149 203l149 -128l107 112l131 -141l61 61v-160h-160z" />
    <glyph glyph-name="ion-arrow-graph-up-left" unicode="&#xf261;" 
d="M160 320l-62 -62l94 -98l107 107l149 -203l-149 128l-107 -112l-131 141l-61 -61v160h160z" />
    <glyph glyph-name="ion-arrow-graph-up-right" unicode="&#xf262;" 
d="M288 320h160v-160l-61 61l-131 -141l-107 112l-149 -128l149 203l107 -107l94 98z" />
    <glyph glyph-name="ion-arrow-left-a" unicode="&#xf106;" horiz-adv-x="384" 
d="M0 192l192 192v-112h192v-160h-192v-112z" />
    <glyph glyph-name="ion-arrow-left-b" unicode="&#xf107;" horiz-adv-x="192" 
d="M167 349c2 2 6 3 9 3c9 0 16 -8 16 -17v0v-286v0c0 -9 -7 -17 -16 -17c-3 0 -7 1 -9 3l-2 2l-156 136c-5 5 -9 11 -9 19s4 14 9 19l156 136z" />
    <glyph glyph-name="ion-arrow-left-c" unicode="&#xf108;" horiz-adv-x="352" 
d="M109 320c12 12 32 12 44 0s12 -34 0 -46l-49 -50h217c17 0 31 -14 31 -32s-14 -32 -31 -32h-217l48 -50c12 -12 12 -34 0 -46s-31 -12 -43 0l-100 106c-6 6 -9 13 -9 22s3 17 9 23z" />
    <glyph glyph-name="ion-arrow-move" unicode="&#xf263;" 
d="M448 192l-96 -96v76h-109l1 -108h76l-96 -96l-96 96h76v108h-108v-76l-96 96l96 96v-76h108v108h-76l96 96l96 -96h-76v-108h108v76z" />
    <glyph glyph-name="ion-arrow-resize" unicode="&#xf264;" horiz-adv-x="320" 
d="M192 352h128v-128l-50 50l-9 -9l-183 -183l50 -50h-128v128l50 -50l128 128v0l64 64z" />
    <glyph glyph-name="ion-arrow-return-left" unicode="&#xf265;" horiz-adv-x="384" 
d="M128 352v-64h248c4 0 8 -4 8 -8v-240c0 -4 -4 -8 -8 -8h-304c-4 0 -8 4 -8 8v48c0 4 4 8 8 8h248v128h-192v-64l-128 96z" />
    <glyph glyph-name="ion-arrow-return-right" unicode="&#xf266;" horiz-adv-x="384" 
d="M384 256l-128 -96v64h-192v-128h248c4 0 8 -4 8 -8v-48c0 -4 -4 -8 -8 -8h-304c-4 0 -8 4 -8 8v240c0 4 4 8 8 8h248v64z" />
    <glyph glyph-name="ion-arrow-right-a" unicode="&#xf109;" horiz-adv-x="384" 
d="M384 192l-192 -192v112h-192v160h192v112z" />
    <glyph glyph-name="ion-arrow-right-b" unicode="&#xf10a;" horiz-adv-x="192" 
d="M25 35c-2 -2 -6 -3 -9 -3c-9 0 -16 8 -16 17v0v286v0c0 9 7 17 16 17c3 0 6 -1 8 -3l3 -2l156 -136c5 -5 9 -11 9 -19s-4 -14 -9 -19l-156 -136z" />
    <glyph glyph-name="ion-arrow-right-c" unicode="&#xf10b;" horiz-adv-x="352" 
d="M243 320l100 -105c6 -6 9 -14 9 -23s-3 -16 -9 -22l-100 -106c-12 -12 -31 -12 -43 0s-12 34 0 46l48 50h-217c-17 0 -31 14 -31 32s14 32 31 32h217l-49 50c-12 12 -12 34 0 46s32 12 44 0z" />
    <glyph glyph-name="ion-arrow-shrink" unicode="&#xf267;" horiz-adv-x="384" 
d="M384 356l-82 -82l50 -50h-128v128l50 -50l82 82zM384 28l-28 -28l-82 82l-50 -50v128h128l-50 -50zM0 28l82 82l-50 50h128v-128l-50 50l-82 -82zM0 356l28 28l82 -82l50 50v-128h-128l50 50z" />
    <glyph glyph-name="ion-arrow-swap" unicode="&#xf268;" horiz-adv-x="384" 
d="M0 120c0 4 4 8 8 8h248v64l128 -96l-128 -96v64h-248c-4 0 -8 4 -8 8v48zM384 264c0 -4 -4 -8 -8 -8h-248v-64l-128 96l128 96v-64h248c4 0 8 -4 8 -8v-48z" />
    <glyph glyph-name="ion-arrow-up-a" unicode="&#xf10c;" horiz-adv-x="384" 
d="M192 384l192 -192h-112v-192h-160v192h-112z" />
    <glyph glyph-name="ion-arrow-up-b" unicode="&#xf10d;" horiz-adv-x="320" 
d="M317 121c2 -2 3 -6 3 -9c0 -9 -8 -16 -17 -16v0h-286v0c-9 0 -17 7 -17 16c0 3 1 6 3 8l2 3l136 156c5 5 11 9 19 9s14 -4 19 -9l136 -156z" />
    <glyph glyph-name="ion-arrow-up-c" unicode="&#xf10e;" horiz-adv-x="274" 
d="M9 259l105 100c6 6 14 9 23 9s16 -3 22 -9l106 -100c12 -12 12 -31 0 -43s-34 -12 -46 0l-50 48v-217c0 -17 -14 -31 -32 -31s-32 14 -32 31v217l-50 -49c-12 -12 -34 -12 -46 0s-12 32 0 44z" />
    <glyph glyph-name="ion-asterisk" unicode="&#xf314;" 
d="M448 224v-64l-186 10l104 -170l-56 -32l-86 176l-86 -176l-56 32l104 170l-186 -10v64l187 -7l-109 167l60 32l86 -176l86 176l60 -32l-109 -167z" />
    <glyph glyph-name="ion-at" unicode="&#xf10f;" 
d="M422 41c-24 -25 -52 -43 -85 -55s-69 -18 -105 -18c-35 0 -66 6 -95 17s-53 26 -73 46s-36 43 -47 71s-17 58 -17 90s6 62 18 89s29 51 50 71s46 35 74 47c28 11 58 17 90 17c28 0 55 -4 81 -12s49 -20 69 -36s36 -36 48 -60s18 -53 18 -85c0 -24 -3 -46 -10 -64
s-16 -34 -27 -46s-24 -22 -38 -28s-29 -10 -45 -10s-29 4 -39 12s-15 17 -15 29h-3c-6 -10 -15 -19 -28 -28s-28 -13 -46 -13c-28 0 -49 9 -64 27s-23 42 -23 71c0 17 3 34 9 50s14 31 24 44s23 23 38 31s31 12 49 12c15 0 27 -4 38 -10c10 -6 18 -15 21 -24h1l5 24h54
l-24 -113c-1 -6 -2 -12 -3 -19s-2 -13 -2 -19c0 -7 1 -13 4 -18s7 -7 15 -7c16 0 29 9 39 26s16 40 16 68c0 24 -4 45 -12 64s-20 34 -34 47s-32 23 -52 29s-41 9 -65 9c-26 0 -49 -4 -70 -13s-39 -22 -54 -38s-27 -34 -35 -56c-8 -21 -13 -44 -13 -69c0 -26 4 -51 13 -72
s21 -39 37 -54s35 -27 57 -35s46 -12 72 -12c33 0 61 6 85 16s45 25 65 43zM231 260c-10 0 -18 -2 -25 -8s-14 -13 -19 -22s-8 -18 -11 -28s-4 -20 -4 -30c0 -5 0 -10 1 -16c1 -5 3 -10 6 -15s7 -8 12 -11s11 -5 19 -5c11 0 20 3 28 8s14 13 19 21s9 16 11 26s3 19 3 27
c0 6 0 13 -1 19s-4 12 -7 17s-7 9 -12 12s-12 5 -20 5z" />
    <glyph glyph-name="ion-backspace-outline" unicode="&#xf3be;" horiz-adv-x="512" 
d="M413 116c2 -2 3 -4 3 -6s-1 -4 -3 -6l-21 -22c-2 -2 -4 -2 -6 -2s-4 0 -6 2l-76 77l-76 -77c-2 -2 -4 -2 -6 -2s-4 0 -6 2l-21 22c-2 2 -3 4 -3 6s1 4 3 6l76 76l-77 76c-3 3 -3 9 0 12l22 22c2 2 4 2 6 2s4 0 6 -2l76 -76l76 76c2 2 4 2 6 2s4 0 6 -2l22 -22
c3 -3 3 -9 0 -12l-77 -76zM499 354c9 -9 13 -20 13 -33v-256c0 -27 -20 -49 -46 -49h-298c-13 0 -24 3 -34 9c-9 5 -16 11 -23 20v0l-1 1l-110 146l110 148c14 19 34 28 58 28h298c13 0 24 -5 33 -14zM480 65v256c0 9 -5 15 -14 15h-298c-11 0 -22 -3 -32 -16l-96 -128
l96 -128c8 -10 17 -16 32 -16h298c9 0 14 8 14 17z" />
    <glyph glyph-name="ion-backspace" unicode="&#xf3bf;" horiz-adv-x="512" 
d="M499 354c9 -9 13 -20 13 -33v-256c0 -27 -20 -49 -46 -49h-298c-13 0 -24 3 -34 9c-9 5 -16 11 -23 20v0l-1 1l-110 146l110 148c14 19 34 28 58 28h298c13 0 24 -5 33 -14zM413 116l-76 76l77 76c3 3 3 9 0 12l-22 22c-2 2 -4 2 -6 2s-4 0 -6 -2l-76 -76l-76 76
c-2 2 -4 2 -6 2s-4 0 -6 -2l-22 -22c-3 -3 -3 -9 0 -12l77 -76l-76 -76c-2 -2 -3 -4 -3 -6s1 -4 3 -6l21 -22c2 -2 4 -2 6 -2s4 0 6 2l76 77l76 -77c2 -2 4 -2 6 -2s4 0 6 2l21 22c2 2 3 4 3 6s-1 4 -3 6z" />
    <glyph glyph-name="ion-bag" unicode="&#xf110;" 
d="M416 288l32 -320h-448l32 320h64v4c0 68 56 124 124 124h8c68 0 124 -56 124 -124v-4h64zM128 292v-4h192v4c0 51 -41 92 -92 92v0h-8c-51 0 -92 -41 -92 -92zM36 0h376l-25 256h-35v-36c10 -6 16 -16 16 -28c0 -18 -14 -32 -32 -32s-32 14 -32 32c0 12 6 22 16 28v36
h-192v-36c10 -6 16 -16 16 -28c0 -18 -14 -32 -32 -32s-32 14 -32 32c0 12 6 22 16 28v36h-35z" />
    <glyph glyph-name="ion-battery-charging" unicode="&#xf111;" 
d="M10 64c-6 0 -10 4 -10 10v236c0 6 4 10 10 10h381c6 0 10 -4 10 -10v-54h37c6 0 10 -4 10 -10v-108c0 -6 -4 -10 -10 -10h-37v-54c0 -6 -4 -10 -10 -10h-381zM225 288l-100 -111h61l-27 -81l100 111h-61z" />
    <glyph glyph-name="ion-battery-empty" unicode="&#xf112;" 
d="M438 256c6 0 10 -4 10 -10v-108c0 -6 -4 -10 -10 -10h-37v-54c0 -6 -4 -10 -10 -10h-381c-6 0 -10 4 -10 10v236c0 6 4 10 10 10h381c6 0 10 -4 10 -10v-54h37zM416 160v64h-15h-32v32v32h-337v-192h337v32v32h32h15z" />
    <glyph glyph-name="ion-battery-full" unicode="&#xf113;" 
d="M438 256c6 0 10 -4 10 -10v-108c0 -6 -4 -10 -10 -10h-37v-54c0 -6 -4 -10 -10 -10h-381c-6 0 -10 4 -10 10v236c0 6 4 10 10 10h381c6 0 10 -4 10 -10v-54h37z" />
    <glyph glyph-name="ion-battery-half" unicode="&#xf114;" 
d="M438 256c6 0 10 -4 10 -10v-108c0 -6 -4 -10 -10 -10h-37v-54c0 -6 -4 -10 -10 -10h-381c-6 0 -10 4 -10 10v236c0 6 4 10 10 10h381c6 0 10 -4 10 -10v-54h37zM416 160v64h-15h-32v32v32h-81l32 -192h49v32v32h32h15z" />
    <glyph glyph-name="ion-battery-low" unicode="&#xf115;" 
d="M10 64c-6 0 -10 4 -10 10v236c0 6 4 10 10 10h381c6 0 10 -4 10 -10v-54h37c6 0 10 -4 10 -10v-108c0 -6 -4 -10 -10 -10h-37v-54c0 -6 -4 -10 -10 -10h-381zM369 288h-209l32 -192h177v32v32h32h15v64h-15h-32v32v32z" />
    <glyph glyph-name="ion-beaker" unicode="&#xf269;" horiz-adv-x="384" 
d="M80 256h240v-224c0 -9 -7 -16 -16 -16h-208c-9 0 -16 7 -16 16v224zM296 104v48c0 4 -4 8 -8 8s-8 -4 -8 -8v-48c0 -4 4 -8 8 -8s8 4 8 8zM288 176c4 0 8 4 8 8s-4 8 -8 8s-8 -4 -8 -8s4 -8 8 -8zM381 416c3 0 3 -2 3 -3s-2 -3 -3 -5s-13 -20 -13 -40v-336
c0 -35 -29 -64 -64 -64h-208c-35 0 -64 29 -64 64v307c0 32 -2 33 -32 37c0 12 11 40 65 40h316zM336 368c0 5 0 16 1 16h-273c-1 0 -3 0 -4 -1c5 -7 4 -32 4 -44v-307c0 -18 14 -32 32 -32h210c17 0 30 14 30 32v336z" />
    <glyph glyph-name="ion-beer" unicode="&#xf26a;" 
d="M384 288c35 0 64 -29 64 -64v-96c0 -35 -29 -64 -64 -64h-32v-80c0 -9 -7 -16 -16 -16h-256c-9 0 -16 7 -16 16v223c-26 0 -48 22 -48 48v54v1c-10 11 -16 26 -16 42c0 35 29 64 64 64c18 0 34 -8 46 -20c10 12 26 20 43 20c14 0 27 -6 37 -14c12 9 26 14 42 14
c17 0 34 -6 46 -16c11 10 26 16 42 16c35 0 64 -29 64 -64c0 -24 -18 -44 -32 -48v-16h32zM296 144c4 0 8 3 8 8v0v48c0 4 -4 8 -8 8s-8 -4 -8 -8v-48c0 -3 2 -6 4 -7c1 -1 2 -1 4 -1zM303 220c1 2 1 4 1 6s-1 4 -3 5s-4 1 -6 1s-4 -2 -5 -4s-2 -4 -2 -6s2 -4 4 -5
s4 -1 6 -1s4 2 5 4zM320 288v32h-20c-3 -8 -7 -16 -13 -23c-13 -16 -33 -25 -55 -25c-26 0 -48 13 -61 33c-6 -2 -12 -3 -18 -3c-12 0 -23 4 -32 10c-2 1 -3 3 -5 4c-1 -2 -2 -3 -3 -5c-5 -6 -11 -10 -17 -14v-32v-9h80c0 4 4 8 8 8s8 -4 8 -8h128v32zM351 343c1 3 1 6 1 9
c0 18 -14 32 -32 32c-9 0 -17 -4 -23 -10c-2 -2 -6 -5 -16 -6h-8c-6 1 -12 3 -14 5c-7 7 -16 11 -27 11c-9 0 -18 -4 -25 -9l-7 -7c0 -1 0 -1 -1 -2c-3 -3 -7 -5 -11 -5c-5 0 -8 3 -11 6c-1 2 -2 3 -3 5s-3 4 -5 6c-4 4 -10 6 -16 6c-10 0 -18 -9 -25 -16
c-7 -8 -27 -8 -34 0s-18 16 -30 16c-18 0 -32 -14 -32 -32c0 -2 1 -5 1 -7c2 -9 7 -17 15 -21v-34v-35c0 -9 7 -16 16 -16v26v23v32c10 0 18 4 24 11c2 2 3 4 4 6c0 0 6 10 12 11s20 6 30 -5c4 -5 11 -9 19 -9c3 0 5 1 7 2c3 1 7 2 9 4v0c3 2 6 4 10 4c7 0 12 -4 14 -10
c0 0 1 -1 1 -2c1 -3 1 -5 3 -8c7 -12 20 -20 35 -20c13 0 25 6 32 16c5 7 8 15 8 24s9 8 9 8h7h48c6 0 13 -3 15 -9zM416 128v96c0 18 -14 32 -32 32h-32v-160h32c18 0 32 14 32 32zM128 280c0 5 3 8 8 8s8 -3 8 -8s-3 -8 -8 -8s-8 3 -8 8zM288 280c0 5 3 8 8 8s8 -3 8 -8
s-3 -8 -8 -8s-8 3 -8 8z" />
    <glyph glyph-name="ion-bluetooth" unicode="&#xf116;" horiz-adv-x="256" 
d="M12 304c16 16 18 13 19 12l68 -65v0v0c2 -2 10 -10 10 -3v156v0v2c0 6 6 10 12 10c4 0 7 -2 9 -4v0s117 -113 122 -117s5 -10 1 -14l-84 -81s-4 -4 -4 -8s4 -8 4 -8l84 -81c4 -4 4 -10 -1 -14s-122 -117 -122 -117v0c-2 -2 -5 -4 -9 -4c-6 0 -12 4 -12 10v2v0v156
s-8 -1 -10 -3v0v-1l-68 -64c-1 -1 -3 -4 -19 12s-12 17 -11 18s90 86 90 86s4 3 4 8v0c0 5 -4 8 -4 8s-89 85 -90 86s-5 2 11 18zM152 328v-79c0 -8 8 -1 10 1l30 30s3 5 3 7s-1 5 -3 7l-30 30c-2 2 -10 11 -10 4zM152 135v-79s8 2 10 4l30 30c2 2 3 5 3 7s-1 5 -3 7l-30 30
c-2 2 -10 9 -10 1z" />
    <glyph glyph-name="ion-bonfire" unicode="&#xf315;" horiz-adv-x="384" 
d="M207 97l15 -89c1 -3 1 -5 1 -8c0 -18 -14 -32 -32 -32s-32 14 -32 32c0 2 0 5 1 7l15 92v0c2 7 8 13 16 13s15 -7 16 -15zM242 93v0v0v0zM329 58c9 -8 10 -25 0 -35s-27 -9 -35 0c-1 1 -2 3 -3 4l-49 66c-3 5 -2 11 2 15c5 5 10 5 16 1l64 -47c2 -1 3 -3 5 -4zM309 113v0
v0v0zM371 126c9 -1 13 -7 13 -19c0 -9 -10 -14 -18 -12l-57 18v0v0c-3 2 -6 5 -5 9s4 7 8 6zM75 113v0v0v0zM75 113v0l-58 -18c-8 -2 -17 3 -17 12c0 12 3 18 12 19l60 2c4 1 7 -2 8 -6s-2 -7 -5 -9v0zM124 109c5 4 11 4 16 -1c4 -4 5 -10 2 -15l-49 -66c-1 -1 -2 -3 -3 -4
c-10 -10 -25 -10 -35 0s-10 25 0 35c2 2 3 3 5 4zM288 320c0 -32 -9 -58 -50 -86c-37 -26 -94 -46 -110 -106c0 0 -58 24 -48 96s124 106 112 192c24 0 96 -35 96 -96zM288 192c-16 -50 -44 -64 -80 -64c-15 0 -32 9 -43 26c12 15 28 26 47 37c9 5 20 10 29 16
c21 14 38 31 47 49c5 -15 5 -48 0 -64zM88 288c-6 4 -9 14 -8 27c2 22 34 39 32 69c14 2 31 -3 42 -24c-5 -11 -15 -21 -28 -34s-26 -22 -38 -38z" />
    <glyph glyph-name="ion-bookmark" unicode="&#xf26b;" horiz-adv-x="192" 
d="M184 384c4 0 8 -4 8 -8v-56h-192v56c0 4 4 8 8 8h176zM0 0v304h192v-304l-96 96z" />
    <glyph glyph-name="ion-bowtie" unicode="&#xf3c0;" 
d="M192 236c0 0 8 5 20 7c21 4 39 5 47 -9c10 -17 19 -53 17 -85c-1 -17 -5 -22 -5 -22s-15 -10 -47 -7c-35 3 -40 15 -40 15s5 12 8 43s0 58 0 58zM152 163c-17 -4 -38 -10 -38 -10s45 4 64 9c-4 -21 -10 -34 -10 -34s-83 -80 -116 -80c-28 0 -52 68 -52 144s26 144 52 144
c35 0 106 -57 128 -97c0 0 3 -16 2 -32c-10 5 -24 10 -44 14c-28 6 -42 3 -42 3s18 -4 57 -17c15 -5 22 -8 29 -10c0 -3 -1 -7 -1 -10c0 -5 0 -10 -1 -15c-5 -2 -15 -6 -28 -9zM396 336c26 0 52 -68 52 -144s-24 -144 -52 -144c-37 0 -104 68 -112 79c0 0 4 5 5 22v9
c16 -7 70 -13 70 -13s-21 6 -40 11c-13 4 -25 8 -30 10c-1 11 -2 23 -4 33c17 11 69 34 69 34s-15 -2 -35 -9c-14 -5 -29 -11 -37 -14c-3 10 -7 18 -10 24c0 1 -1 4 -1 4v1c22 40 89 97 125 97z" />
    <glyph glyph-name="ion-briefcase" unicode="&#xf26c;" 
d="M240 176v8h208v-176c0 -4 -4 -8 -8 -8h-432c-4 0 -8 4 -8 8v176h208v-8h32zM440 304c4 0 8 -4 8 -8v-96h-208v8h-32v-8h-208v96c0 4 4 8 8 8h120v31c1 28 22 49 51 49h90c30 0 50 -21 51 -49v-31h120zM288 332v1c0 10 -9 19 -19 19h-90c-10 0 -19 -9 -19 -19v-1v-1v-27
h128v27v1z" />
    <glyph glyph-name="ion-bug" unicode="&#xf2be;" 
d="M343 321c-6 -16 -16 -31 -28 -43c-24 -24 -57 -37 -91 -37s-67 13 -91 37c-12 12 -22 27 -28 43c29 39 72 63 119 63s90 -24 119 -63zM95 305c22 -45 68 -77 121 -80v-225c-40 2 -77 22 -104 54c-7 -6 -10 -9 -13 -15c8 -9 7 -22 -1 -31c-9 -10 -24 -11 -34 -2
s-11 24 -2 34l3 3s2 1 2 1c4 13 13 25 27 36c-15 26 -26 57 -29 90c-7 0 -12 -2 -17 -3c-1 -13 -11 -23 -24 -23s-24 11 -24 24s11 24 24 24h3c4 2 8 5 12 6c7 2 14 4 25 4c1 23 6 45 13 65c-6 4 -11 7 -15 11c-6 5 -11 13 -14 19c-1 0 -3 1 -4 2c-12 6 -15 21 -9 33
s21 15 33 9c11 -6 15 -20 10 -31c2 -3 3 -7 4 -8c2 -2 5 -3 8 -5c2 3 3 5 5 8zM424 192c13 0 24 -11 24 -24s-11 -24 -24 -24s-23 10 -24 23c-5 1 -10 3 -17 3c-3 -33 -14 -64 -29 -90c14 -11 23 -23 27 -36c0 0 1 0 2 -1l3 -3c9 -10 8 -25 -2 -34s-25 -8 -34 2
c-8 9 -9 22 -1 31c-3 6 -6 9 -13 15c-27 -32 -64 -52 -104 -54v225c53 3 99 35 121 80c2 -3 3 -5 5 -8c3 2 6 3 8 5c1 1 2 5 4 8c-5 11 -1 25 10 31c12 6 27 3 33 -9s3 -27 -9 -33c-1 -1 -3 -2 -4 -2c-3 -6 -8 -14 -14 -19c-4 -4 -9 -7 -15 -11c7 -20 12 -42 13 -65
c11 0 18 -2 25 -4c4 -1 8 -4 12 -6h3z" />
    <glyph glyph-name="ion-calculator" unicode="&#xf26d;" horiz-adv-x="320" 
d="M304 416c9 0 16 -7 16 -16v-416c0 -9 -7 -16 -16 -16h-288c-9 0 -16 7 -16 16v416c0 9 7 16 16 16h288zM48 240v-32h32v32h-32zM48 176v-32h32v32h-32zM48 112v-32h32v32h-32zM144 16v32h-96v-32h96zM144 80v32h-32v-32h32zM144 144v32h-32v-32h32zM144 208v32h-32v-32
h32zM208 16v32h-32v-32h32zM208 80v32h-32v-32h32zM208 144v32h-32v-32h32zM208 208v32h-32v-32h32zM272 16v96h-32v-96h32zM272 144v32h-32v-32h32zM272 208v32h-32v-32h32zM272 288v80h-224v-80h224z" />
    <glyph glyph-name="ion-calendar" unicode="&#xf117;" 
d="M112 320c-18 0 -32 14 -32 32v32c0 18 14 32 32 32s32 -14 32 -32v-32c0 -18 -14 -32 -32 -32zM336 320c-18 0 -32 14 -32 32v32c0 18 14 32 32 32s32 -14 32 -32v-32c0 -18 -14 -32 -32 -32zM440 384c4 0 8 -4 8 -8v-400c0 -4 -4 -8 -8 -8h-432c-4 0 -8 4 -8 8v400
c0 4 4 8 8 8h56v-41c0 -22 24 -39 48 -39s48 17 48 39v41h128v-41c0 -22 25 -39 49 -39s47 17 47 39v41h56zM400 16v256h-352v-256h352z" />
    <glyph glyph-name="ion-camera" unicode="&#xf118;" horiz-adv-x="416" 
d="M382 301c18 0 34 -14 34 -33v-202c0 -19 -16 -34 -34 -34h-348c-19 0 -34 15 -34 34v202c0 19 15 33 34 33h69l39 40v0c6 7 15 11 25 11h84c9 0 17 -4 23 -10v0v0v0l41 -41h67zM208 82c51 0 92 42 92 93s-41 93 -92 93s-92 -42 -92 -93s41 -93 92 -93zM376 248
c8 0 14 6 14 14s-6 14 -14 14s-14 -6 -14 -14s6 -14 14 -14zM208 245c38 0 70 -31 70 -70s-32 -70 -70 -70c-39 0 -70 31 -70 70s31 70 70 70z" />
    <glyph glyph-name="ion-card" unicode="&#xf119;" 
d="M420 352c16 0 28 -12 28 -28v0v-264v0c0 -16 -12 -28 -28 -28h-392c-16 0 -28 12 -28 28v0v0v264v0v0c0 16 12 28 28 28h392zM45 320c-7 0 -12 -5 -13 -12v-20h384v20c-1 7 -6 12 -13 12h-358zM403 64c7 0 12 5 13 12v116h-384v-116c1 -7 6 -12 13 -12h358zM64 128v16
h192v-16h-192zM64 96v16h96v-16h-96zM320 96v48h64v-48h-64z" />
    <glyph glyph-name="ion-cash" unicode="&#xf316;" horiz-adv-x="512" 
d="M0 352h512v-256h-512v256zM193 128c-20 23 -33 58 -33 96s13 73 33 96h-97c0 -35 -29 -64 -64 -64v-80c27 0 48 -21 48 -48h113zM298 187c3 4 4 9 4 15c0 3 0 5 -1 8s-2 6 -4 8s-4 4 -7 6s-6 4 -10 5c-1 0 -4 1 -7 2s-5 0 -8 1v31c2 -1 5 -2 7 -3c4 -3 6 -7 7 -13h20
c0 5 -2 9 -4 13s-5 8 -9 11s-9 5 -14 6c-2 1 -5 2 -7 2v9h-18v-9c-2 0 -4 -1 -6 -2c-5 -1 -10 -2 -14 -5s-7 -6 -9 -10s-4 -9 -4 -14c0 -3 0 -5 1 -8s2 -5 4 -7s5 -5 8 -7s7 -4 12 -5c3 -1 6 0 8 -1v-35c-3 1 -6 2 -9 4s-5 4 -6 7s-2 6 -2 9h-20c0 -5 2 -11 4 -16
c3 -5 6 -8 10 -11s9 -6 15 -7c3 -1 5 -2 8 -2v-9h18v9c3 0 6 1 9 2c5 1 10 2 14 5s7 7 10 11zM480 176v80c-35 0 -64 29 -64 64h-97c20 -23 33 -58 33 -96s-13 -73 -33 -96h113c0 27 22 48 48 48zM64 224c0 21 11 32 32 32s32 -11 32 -32s-11 -32 -32 -32s-32 11 -32 32z
M384 224c0 21 11 32 32 32s32 -11 32 -32s-11 -32 -32 -32s-32 11 -32 32zM273 213c2 -1 4 -2 6 -4s3 -5 3 -9c0 -2 0 -4 -1 -6s-2 -4 -4 -5s-5 -3 -8 -4c-1 0 -2 -1 -4 -1v31c3 -1 6 -1 8 -2zM236 257c1 2 3 3 5 4s4 2 6 2v-26c-4 1 -7 3 -9 5s-4 4 -4 8c0 3 1 5 2 7zM0 32
v32h512v-32h-512z" />
    <glyph glyph-name="ion-chatbox-working" unicode="&#xf11a;" horiz-adv-x="416" 
d="M76 48c-42 0 -76 31 -76 71v209c0 40 34 72 76 72h264c42 0 76 -32 76 -72v-209c0 -40 -34 -71 -76 -71h-4v-64s-79 54 -86 59s-7 5 -21 5h-153zM304 256c-18 0 -32 -14 -32 -32s14 -32 32 -32s32 14 32 32s-14 32 -32 32zM208 256c-18 0 -32 -14 -32 -32s14 -32 32 -32
s32 14 32 32s-14 32 -32 32zM112 256c-18 0 -32 -14 -32 -32s14 -32 32 -32s32 14 32 32s-14 32 -32 32z" />
    <glyph glyph-name="ion-chatbox" unicode="&#xf11b;" horiz-adv-x="416" 
d="M76 48c-42 0 -76 31 -76 71v209c0 40 34 72 76 72h264c42 0 76 -32 76 -72v-209c0 -40 -34 -71 -76 -71h-4v-64s-79 54 -86 59s-7 5 -21 5h-153z" />
    <glyph glyph-name="ion-chatboxes" unicode="&#xf11c;" horiz-adv-x="416" 
d="M246 82l26 -18c-4 -21 -29 -32 -52 -32h-90c-8 0 -11 -2 -13 -3l-53 -45v48h-16c-26 0 -48 16 -48 41v129c0 25 20 45 46 45h2v-101c0 -33 29 -59 64 -59h117c10 0 14 -3 17 -5zM353 400c35 0 63 -27 63 -60v-168c0 -33 -28 -60 -63 -60h-17v-64l-75 60c-2 2 -7 4 -17 4
h-101c-35 0 -63 27 -63 60v98v70c0 33 21 60 56 60h217z" />
    <glyph glyph-name="ion-chatbubble-working" unicode="&#xf11d;" horiz-adv-x="416" 
d="M208 -1c-115 0 -208 89 -208 200s93 201 208 201s208 -90 208 -201c0 -40 -12 -77 -33 -108c-1 -1 -2 -3 -3 -4v0c-2 -4 -4 -10 -4 -15l22 -88l-84 31c-4 2 -8 2 -12 2s-7 -1 -11 -2v0c-1 0 -1 -1 -2 -1c-25 -10 -52 -15 -81 -15zM304 224c-18 0 -32 -14 -32 -32
s14 -32 32 -32s32 14 32 32s-14 32 -32 32zM208 224c-18 0 -32 -14 -32 -32s14 -32 32 -32s32 14 32 32s-14 32 -32 32zM112 224c-18 0 -32 -14 -32 -32s14 -32 32 -32s32 14 32 32s-14 32 -32 32z" />
    <glyph glyph-name="ion-chatbubble" unicode="&#xf11e;" horiz-adv-x="416" 
d="M208 -1c-115 0 -208 89 -208 200s93 201 208 201s208 -90 208 -201c0 -40 -12 -77 -33 -108c-1 -1 -2 -3 -3 -4v0c-2 -4 -4 -10 -4 -15l22 -88l-84 31c-4 2 -8 2 -12 2s-7 -1 -11 -2v0c-1 0 -1 -1 -2 -1c-25 -10 -52 -15 -81 -15z" />
    <glyph glyph-name="ion-chatbubbles" unicode="&#xf11f;" horiz-adv-x="416" 
d="M25 57c-1 1 0 2 -1 3c-15 22 -24 49 -24 77c0 42 19 80 49 106c-2 -11 -4 -22 -4 -34c0 -92 78 -168 174 -168c15 0 30 2 44 6c-27 -32 -69 -53 -115 -53c-20 0 -40 5 -58 12h-1v0c-2 1 -5 2 -8 2s-6 -1 -9 -2l-56 -22l12 63c0 4 -1 7 -3 10v0zM242 400
c96 0 174 -76 174 -168c0 -33 -11 -64 -28 -90c-1 -1 -1 -2 -2 -3v0c-2 -4 -3 -8 -3 -12l17 -74l-69 26c-3 1 -6 2 -10 2c-3 0 -6 -1 -9 -2v0l-2 -1c-8 -3 -16 -5 -24 -7c-14 -4 -29 -6 -44 -6c-96 0 -173 75 -173 167c0 12 1 24 3 35c16 76 86 133 170 133z" />
    <glyph glyph-name="ion-checkmark-circled" unicode="&#xf120;" 
d="M224 416c124 0 224 -100 224 -224s-100 -224 -224 -224s-224 100 -224 224s100 224 224 224zM339 267c1 1 1 2 1 3s0 3 -1 4l-31 24c-1 1 -3 1 -4 1s-2 0 -3 -1l-111 -143s-44 42 -45 43s-4 3 -6 3s-3 -2 -4 -3l-25 -25l-1 -1c-1 -1 -1 -3 -1 -4s0 -2 1 -3l2 -1
s78 -75 79 -76s3 -3 5 -3s4 2 5 3z" />
    <glyph glyph-name="ion-checkmark-round" unicode="&#xf121;" horiz-adv-x="416" 
d="M400 376c17 -13 22 -39 9 -57l-207 -302c-13 -18 -37 -22 -54 -9s-137 147 -137 147c-15 16 -15 42 1 58s40 15 55 -2l99 -107l180 263c13 18 37 22 54 9z" />
    <glyph glyph-name="ion-checkmark" unicode="&#xf122;" horiz-adv-x="416" 
d="M414 338c1 -2 2 -4 2 -6s-1 -4 -2 -6l-249 -320c-2 -2 -5 -6 -9 -6s-8 3 -10 5s-141 136 -141 136l-3 3c-1 2 -2 4 -2 6s1 3 2 5l2 2c14 15 42 44 44 46s4 6 8 6s8 -4 10 -6s80 -78 80 -78l200 257c2 2 4 2 6 2s5 -1 7 -2z" />
    <glyph glyph-name="ion-chevron-down" unicode="&#xf123;" 
d="M224 150v0v0l174 167c4 4 12 4 16 0l31 -30c4 -4 4 -12 0 -16l-213 -204c-2 -2 -5 -3 -8 -3s-6 1 -8 3l-213 204c-4 4 -4 12 0 16l31 30c4 4 12 4 16 0z" />
    <glyph glyph-name="ion-chevron-left" unicode="&#xf124;" horiz-adv-x="256" 
d="M86 192l167 -174c4 -4 4 -12 0 -16l-30 -31c-4 -4 -12 -4 -16 0l-204 213c-2 2 -3 5 -3 8s1 6 3 8l204 213c4 4 12 3 16 -1l30 -30c4 -4 4 -12 0 -16l-167 -174v0v0z" />
    <glyph glyph-name="ion-chevron-right" unicode="&#xf125;" horiz-adv-x="256" 
d="M170 192v0v0l-167 174c-4 4 -4 12 0 16l30 30c4 4 12 5 16 1l204 -213c2 -2 3 -5 3 -8s-1 -6 -3 -8l-204 -213c-4 -4 -12 -4 -16 0l-30 31c-4 4 -4 12 0 16z" />
    <glyph glyph-name="ion-chevron-up" unicode="&#xf126;" 
d="M224 234l-174 -167c-4 -4 -12 -4 -16 0l-31 30c-4 4 -4 12 0 16l213 204c2 2 5 3 8 3s6 -1 8 -3l213 -204c4 -4 4 -12 0 -16l-31 -30c-4 -4 -12 -4 -16 0l-174 167v0v0z" />
    <glyph glyph-name="ion-clipboard" unicode="&#xf127;" horiz-adv-x="352" 
d="M80 288c2 20 10 35 28 40l1 1c12 3 21 7 21 20v21c0 26 21 46 46 46s46 -20 46 -46v-21c0 -13 9 -18 21 -21h2c18 -5 25 -20 27 -40h-192zM176 384c-8 0 -13 -6 -13 -14s5 -14 13 -14s14 6 14 14s-6 14 -14 14zM325 384c15 0 27 -12 27 -28v-360c0 -16 -12 -28 -27 -28
h-149h-148c-15 0 -28 12 -28 28v360c0 16 13 28 28 28h73v-13c0 -11 -9 -19 -19 -19h-37c-7 0 -12 -6 -12 -13v-327c0 -6 5 -12 11 -12h265c6 0 11 6 11 12v327c0 7 -5 13 -12 13h-37c-10 0 -20 8 -20 19v13h74zM64 224v32h112v-32h-112zM64 32v32h160v-32h-160zM64 96v32
h129v-32h-129zM64 160v32h208v-32h-208z" />
    <glyph glyph-name="ion-clock" unicode="&#xf26e;" 
d="M224 416c124 0 224 -100 224 -224s-100 -224 -224 -224s-224 100 -224 224s100 224 224 224zM360 56c10 10 19 21 26 33l-27 16l8 14l27 -16c13 25 21 52 22 81h-32v16h32c-1 29 -9 56 -22 81l-27 -16l-8 14l27 16c-7 12 -16 23 -26 33s-21 19 -33 26l-16 -27l-14 8
l16 27c-25 13 -52 21 -81 22v-32h-16v32c-29 -1 -56 -9 -81 -22l16 -27l-14 -8l-16 27c-12 -7 -23 -16 -33 -26s-19 -21 -26 -33l27 -16l-8 -14l-27 16c-13 -25 -21 -52 -22 -81h32v-16h-32c1 -29 9 -56 22 -81l27 16l8 -14l-27 -16c7 -12 16 -23 26 -33s21 -19 33 -26
l16 27l14 -8l-16 -27c25 -13 52 -21 81 -22v32h16v-32c29 1 56 9 81 22l-16 27l14 8l16 -27c12 7 23 16 33 26zM368 207v-32h-117c-6 -9 -16 -15 -27 -15c-18 0 -32 14 -32 32c0 12 6 22 16 28v68h32v-68c5 -3 9 -8 12 -13h116z" />
    <glyph glyph-name="ion-close-circled" unicode="&#xf128;" 
d="M224 415c124 0 224 -100 224 -224s-100 -224 -224 -224s-224 100 -224 224s100 224 224 224zM332 116l-75 75l76 75c3 3 3 9 0 12l-22 21c-2 2 -4 3 -6 3s-3 -1 -5 -3l-76 -74l-76 74c-2 2 -3 3 -5 3s-4 -1 -6 -3l-21 -21c-3 -3 -3 -9 0 -12l76 -75l-76 -76
c-2 -1 -2 -3 -2 -5s0 -4 2 -6l21 -22c2 -2 4 -2 6 -2s4 0 6 2l75 76l76 -75c2 -2 3 -3 5 -3s4 1 6 3l21 21c2 1 3 4 3 6s-1 4 -3 6z" />
    <glyph glyph-name="ion-close-round" unicode="&#xf129;" horiz-adv-x="384" 
d="M374 61c14 -14 14 -37 0 -51s-37 -14 -51 0l-131 131l-131 -131c-14 -14 -36 -14 -50 0s-14 37 0 51l130 131l-130 131c-14 14 -14 37 0 51s36 14 50 0l131 -131l131 131c14 14 37 14 51 0s14 -37 0 -51l-131 -131z" />
    <glyph glyph-name="ion-close" unicode="&#xf12a;" horiz-adv-x="384" 
d="M380 61c3 -3 4 -6 4 -10s-1 -7 -4 -10l-38 -37c-3 -3 -5 -4 -9 -4s-7 1 -10 4l-131 131l-131 -131c-3 -3 -5 -4 -9 -4s-7 1 -10 4l-38 37c-3 3 -4 6 -4 10s1 7 4 10l132 131l-132 130c-5 5 -5 15 0 20l37 38c3 2 6 4 10 4s7 -1 10 -4l131 -130l131 130c3 2 6 4 10 4
s7 -1 10 -4l37 -38c5 -5 5 -14 0 -19l-132 -130z" />
    <glyph glyph-name="ion-closed-captioning" unicode="&#xf317;" horiz-adv-x="512" 
d="M0 384h512v-384h-512v384zM464 192c0 27 0 44 -4 80s-23 56 -59 60s-91 4 -138 4h-7h-7c-47 0 -102 0 -138 -4s-55 -24 -59 -60s-4 -53 -4 -80s2 -47 4 -80s19 -56 59 -60s96 -4 145 -4s105 0 145 4s57 27 59 60s4 53 4 80zM372 164v4h53c0 -27 -7 -48 -19 -62
s-32 -21 -61 -21c-14 0 -26 2 -36 5s-18 9 -25 17s-12 19 -15 33s-5 30 -5 51s3 39 7 53s9 25 17 33s17 14 27 17s22 5 34 5c25 0 44 -7 57 -21s19 -37 19 -62h-52v1c0 20 -12 33 -27 33s-25 -11 -28 -30c0 0 -2 -11 -2 -29s2 -28 2 -28c1 -17 12 -29 27 -29s27 10 27 29v1z
M195 164v4h53c0 -27 -7 -48 -19 -62s-32 -21 -61 -21c-14 0 -26 2 -36 5s-18 9 -25 17s-12 19 -15 33s-5 30 -5 51s3 39 7 53s9 25 17 33s17 14 27 17s22 5 34 5c25 0 44 -7 57 -21s19 -37 19 -62h-52v1c0 20 -12 33 -27 33s-25 -11 -28 -30c0 0 -2 -11 -2 -29s2 -28 2 -28
c1 -17 12 -29 27 -29s27 10 27 29v1z" />
    <glyph glyph-name="ion-cloud" unicode="&#xf12b;" 
d="M366 215c45 0 82 -38 82 -84s-37 -83 -82 -83v0h-276c-49 0 -90 41 -90 91c0 40 26 74 61 86c5 29 29 51 59 51c10 0 18 -3 26 -7c19 40 59 67 105 67c64 0 115 -53 115 -118v-3z" />
    <glyph glyph-name="ion-code-download" unicode="&#xf26f;" 
d="M299 164l-63 -63v0l-1 -1v0l-2 -1v0l-1 -1v0l-2 -1v0h-1v0h-1c-1 0 -3 -1 -4 -1s-3 1 -4 1h-1v0h-1v0l-2 1v0l-1 1v0c-1 1 -2 1 -3 2v0l-63 63c-6 6 -6 17 0 23s18 6 24 0l35 -34v118c0 9 7 17 16 17s16 -8 16 -17v-118l35 34c6 6 18 6 24 0s6 -17 0 -23zM136 56
c-6 0 -12 2 -17 7l-112 112c-9 9 -9 25 0 34l112 112c9 9 25 9 34 0s9 -25 0 -34l-95 -95l95 -95c9 -9 9 -25 0 -34c-5 -5 -11 -7 -17 -7zM312 56c-6 0 -12 2 -17 7c-9 9 -9 25 0 34l95 95l-95 95c-9 9 -9 25 0 34s25 9 34 0l112 -112c9 -9 9 -25 0 -34l-112 -112
c-5 -5 -11 -7 -17 -7z" />
    <glyph glyph-name="ion-code-working" unicode="&#xf270;" 
d="M128 192c0 16 8 24 24 24s24 -8 24 -24s-8 -24 -24 -24s-24 8 -24 24zM200 192c0 16 8 24 24 24s24 -8 24 -24s-8 -24 -24 -24s-24 8 -24 24zM272 192c0 16 8 24 24 24s24 -8 24 -24s-8 -24 -24 -24s-24 8 -24 24zM136 56c-7 0 -12 2 -17 7l-112 112c-5 5 -7 10 -7 17
s2 12 7 17l112 112c5 5 10 7 17 7s12 -2 17 -7s7 -10 7 -17s-2 -12 -7 -17l-95 -95l95 -95c5 -5 7 -10 7 -17s-2 -12 -7 -17s-10 -7 -17 -7zM312 56c-7 0 -12 2 -17 7s-7 10 -7 17s2 12 7 17l95 95l-95 95c-5 5 -7 10 -7 17s2 12 7 17s10 7 17 7s12 -2 17 -7l112 -112
c5 -5 7 -10 7 -17s-2 -12 -7 -17l-112 -112c-5 -5 -10 -7 -17 -7z" />
    <glyph glyph-name="ion-code" unicode="&#xf271;" 
d="M136 56c-6 0 -12 2 -17 7l-112 112c-9 9 -9 25 0 34l112 112c9 9 25 9 34 0s9 -25 0 -34l-95 -95l95 -95c9 -9 9 -25 0 -34c-5 -5 -11 -7 -17 -7zM312 56c-6 0 -12 2 -17 7c-9 9 -9 25 0 34l95 95l-95 95c-9 9 -9 25 0 34s25 9 34 0l112 -112c9 -9 9 -25 0 -34l-112 -112
c-5 -5 -11 -7 -17 -7z" />
    <glyph glyph-name="ion-coffee" unicode="&#xf272;" horiz-adv-x="384" 
d="M319 191c37 -7 65 -40 65 -79c0 -20 -8 -39 -21 -54c-15 -17 -37 -26 -61 -26c-8 0 -17 1 -25 3c-6 1 -10 3 -15 5c-11 -15 -23 -25 -32 -33v0c-5 -5 -12 -7 -19 -7h-102c-7 0 -14 2 -19 7v0c-17 15 -41 36 -62 86s-28 91 -28 111s3 20 16 20h101c-5 17 -37 19 -37 46
c0 17 15 32 28 37c-2 -8 -3 -14 -3 -21c0 -19 39 -30 39 -53c0 -3 0 -6 -1 -9h56c1 5 2 10 2 14c0 36 -56 36 -56 84c0 28 21 55 47 62c-4 -14 -9 -23 -9 -35c0 -32 57 -50 57 -88c0 -13 -5 -25 -12 -37h76c13 0 16 0 16 -20c0 -4 0 -8 -1 -13zM302 64c33 0 50 25 50 48
s-17 43 -39 47c-4 -19 -11 -42 -21 -66c-4 -9 -8 -17 -12 -25c6 -3 13 -4 22 -4z" />
    <glyph glyph-name="ion-compass" unicode="&#xf273;" 
d="M224 416c124 0 224 -100 224 -224s-100 -224 -224 -224s-224 100 -224 224c0 39 10 76 27 108c-16 12 -27 30 -27 52c0 35 29 64 64 64c22 0 40 -11 52 -27c32 17 69 27 108 27zM32 352c0 -10 5 -20 13 -26c13 17 28 32 45 45c-6 8 -16 13 -26 13c-18 0 -32 -14 -32 -32z
M360 56c36 36 56 85 56 136s-20 100 -56 136s-85 56 -136 56s-100 -20 -136 -56s-56 -85 -56 -136s20 -100 56 -136s85 -56 136 -56s100 20 136 56zM320 320c0 0 -54 -130 -72 -152s-120 -104 -120 -104s54 132 72 152s120 104 120 104z" />
    <glyph glyph-name="ion-compose" unicode="&#xf12c;" horiz-adv-x="384" 
d="M379 348c7 -7 7 -18 0 -25l-32 -31l-55 55l31 32c7 7 18 7 25 0zM282 338l55 -55l-177 -173l-64 -14l14 64zM320 192l32 32v-201c0 -13 -10 -23 -23 -23h-306c-13 0 -23 10 -23 23v306c0 13 10 23 23 23h201l-32 -32h-149c-6 0 -11 -5 -11 -10v-268s4 -10 10 -10h269
s9 5 9 10v150z" />
    <glyph glyph-name="ion-connection-bars" unicode="&#xf274;" horiz-adv-x="352" 
d="M0 32v64h64v-64h-64zM96 32v128h64v-128h-64zM192 32v224h64v-224h-64zM288 32v320h64v-320h-64z" />
    <glyph glyph-name="ion-contrast" unicode="&#xf275;" 
d="M224 416c124 0 224 -100 224 -224s-100 -224 -224 -224s-224 100 -224 224s100 224 224 224zM360 56c36 36 56 85 56 136s-20 100 -56 136s-85 56 -136 56v-384c51 0 100 20 136 56z" />
    <glyph glyph-name="ion-crop" unicode="&#xf3c1;" 
d="M320 -32v48h64v-48h-64zM384 96h64v-64h-384v256h-64v64h64v64h64v-320h192v192h-176v64h240v-256z" />
    <glyph glyph-name="ion-cube" unicode="&#xf318;" 
d="M435 280c7 0 13 -6 13 -12v-183c0 -9 -6 -17 -14 -22v-1l-175 -92v-1c-2 -1 -4 -1 -6 -1c-7 0 -13 6 -13 12v185c0 9 5 17 13 22v0l3 2l172 89l2 1c2 1 3 1 5 1zM422 329c0 0 8 -3 8 -9c0 -7 -8 -11 -8 -11l-183 -97l-2 -1c-4 -2 -8 -3 -13 -3s-9 1 -13 3l-2 1l-183 96
s-8 5 -8 12c0 6 8 9 8 9l181 82s11 5 17 5s17 -5 17 -5zM195 187c8 -5 13 -13 13 -22v-185c0 -6 -6 -12 -13 -12c-2 0 -4 1 -6 2v0l-175 92v1c-8 5 -14 13 -14 22v183c0 6 6 12 13 12c2 0 4 0 5 -1l2 -1l171 -89z" />
    <glyph glyph-name="ion-disc" unicode="&#xf12d;" 
d="M224 289c54 0 97 -43 97 -97s-43 -97 -97 -97s-97 43 -97 97s43 97 97 97zM224 148c24 0 44 20 44 44s-20 44 -44 44s-44 -20 -44 -44s20 -44 44 -44zM224 416c124 0 224 -100 224 -224s-100 -224 -224 -224s-224 100 -224 224s100 224 224 224zM224 69
c68 0 123 55 123 123s-55 123 -123 123s-123 -55 -123 -123s55 -123 123 -123z" />
    <glyph glyph-name="ion-document-text" unicode="&#xf12e;" horiz-adv-x="288" 
d="M286 279c1 -3 2 -6 2 -10v-245c0 -13 -10 -24 -22 -24h-243c-12 0 -23 11 -23 24v336c0 13 11 24 23 24h160c3 0 6 0 9 -2c2 -1 5 -3 7 -5l84 -92c2 -2 2 -4 3 -6zM48 269v-10c0 -1 1 -3 3 -3h71c2 0 3 2 3 3v10c0 2 -1 3 -3 3h-71c-2 0 -3 -1 -3 -3zM48 141v-10
c0 -1 1 -3 3 -3h123c2 0 2 2 2 3v10c0 2 0 3 -2 3h-123c-2 0 -3 -1 -3 -3zM208 67v10c0 2 0 3 -2 3h-155c-2 0 -3 -1 -3 -3v-10c0 -1 1 -3 3 -3h155c2 0 2 2 2 3zM240 195v10c0 2 0 3 -2 3h-187c-2 0 -3 -1 -3 -3v-10c0 -1 1 -3 3 -3h187c2 0 2 2 2 3zM193 270h60l-71 78
v-66c0 -6 5 -12 11 -12z" />
    <glyph glyph-name="ion-document" unicode="&#xf12f;" horiz-adv-x="288" 
d="M287 279c1 -3 1 -5 1 -9v-244c0 -13 -9 -26 -21 -26h-243c-12 0 -24 13 -24 26v335c0 13 12 23 24 23h160c3 0 6 0 9 -2c2 -1 5 -2 7 -4l83 -92c2 -2 3 -4 4 -7zM193 337v-63h58zM32 32h224v210h-67c-15 0 -28 13 -28 28v82h-129v-320z" />
    <glyph glyph-name="ion-drag" unicode="&#xf130;" horiz-adv-x="512" 
d="M0 272v32h512v-32h-512zM0 176v32h512v-32h-512zM0 80v32h512v-32h-512z" />
    <glyph glyph-name="ion-earth" unicode="&#xf276;" 
d="M325 322c2 -4 7 -12 3 -15c-3 -2 -10 -2 -13 5s0 11 -5 9s-7 3 -6 4c1 2 3 3 5 4c0 2 -4 8 2 7c4 -1 12 -10 14 -14zM344 277v0v0zM403 251c0 0 -2 0 0 0v0zM224 416c124 0 224 -100 224 -224s-100 -224 -224 -224s-224 100 -224 224s100 224 224 224zM141 19l8 -4
c3 -1 6 -2 10 -3c14 -5 28 -8 43 -10c28 -3 56 -1 83 8c15 5 30 11 43 20c6 4 6 16 10 24c8 16 -2 33 12 47c12 14 4 19 4 34c0 10 8 18 4 29c-1 4 -7 -3 -9 1c-5 7 -21 1 -28 2c-13 2 -24 14 -33 23c-5 5 0 20 1 26c4 15 0 33 19 38c5 1 5 9 10 11c5 1 10 3 15 4
c9 1 17 -2 26 -2c10 0 14 -5 22 -11c7 -6 13 -3 22 -5c7 0 0 5 -2 8c-3 2 -6 2 -8 2c-16 4 -23 22 -36 30c-6 3 -9 2 -11 0c-1 -1 1 -12 1 -12c-1 -3 -10 -4 -13 -5c-9 -2 -29 17 -15 22c4 1 27 5 24 15c-3 6 2 13 -5 14c-8 1 -7 7 -15 8c-5 1 -5 11 -5 14c0 9 2 6 9 7
c-17 11 -37 19 -57 24c-1 -3 -5 -12 -8 -12c-5 -1 -6 0 -9 -3c-9 -10 -16 -28 -25 -7c-4 11 5 19 2 28h-6h-3c6 -12 -5 -18 -8 -19c-8 0 -10 5 -17 4c-4 -1 -7 4 -11 2s-13 -8 -14 -12c-3 -12 6 -13 14 -6c6 6 17 12 25 6c6 -5 5 -9 5 -14s-1 -18 -9 -16c-4 1 -7 6 -11 3
c-8 -7 -18 -6 -29 -9c-10 -2 -16 -6 -25 -9c-8 -3 -11 -4 -12 -12c0 -2 0 -14 -3 -15c-5 -2 -8 22 -22 20c-12 -1 -30 -13 -25 -28c2 -5 28 -3 10 -14c-2 -1 2 -17 2 -20c1 -8 13 -18 21 -10c6 6 6 5 14 2c15 -8 33 -15 45 -27c6 -6 9 -24 17 -28c9 -5 19 -5 26 -14
c6 -7 -2 -19 -8 -23c-4 -2 -12 -24 -16 -29c-2 -4 -12 -6 -16 -7c-3 0 -7 -9 -9 -11c-7 -7 -8 -13 -17 -19c-18 -12 -22 -23 -18 -44c2 -8 5 -13 11 -16zM100 46l2 -2c7 -6 15 -11 23 -16c-21 21 -23 49 -21 78l3 24c1 3 -4 7 -4 11c0 10 0 5 -8 13c-4 4 -10 11 -12 17
c-7 16 1 30 10 43c9 14 -7 20 -10 32c-1 6 -7 6 -6 12c1 7 -4 5 -9 9c-12 8 -1 20 -7 26c-43 -70 -36 -162 16 -224c1 -1 0 -1 1 -2h1c3 -4 6 -8 9 -11s7 -6 10 -9z" />
    <glyph glyph-name="ion-easel" unicode="&#xf3c2;" 
d="M48 112v192h352v-192h-352zM432 352c9 0 16 -7 16 -16v-256c0 -9 -7 -16 -16 -16h-416c-9 0 -16 7 -16 16v256c0 9 7 16 16 16h416zM416 96v224h-384v-224h384zM48 -32l29 80h31l-28 -80h-32zM239 416l17 -48h-64l17 48h30zM340 48h31l29 -80h-32zM208 0v48h32v-48h-32z
" />
    <glyph glyph-name="ion-edit" unicode="&#xf2bf;" 
d="M381 259l-250 -251l-91 91l251 250zM440 360c12 -12 11 -32 -2 -45l-45 -45l-91 91l45 45c13 13 33 14 45 2zM32 85l85 -85l-117 -32z" />
    <glyph glyph-name="ion-egg" unicode="&#xf277;" horiz-adv-x="320" 
d="M160 416c64 0 160 -133 160 -257s-64 -191 -160 -191s-160 67 -160 191s96 257 160 257z" />
    <glyph glyph-name="ion-eject" unicode="&#xf131;" horiz-adv-x="320" 
d="M303 128h-286v0c-10 0 -17 7 -17 16c0 3 1 5 3 8l138 191c5 5 11 9 19 9s14 -4 19 -9l138 -190c2 -3 3 -6 3 -9c0 -9 -7 -16 -17 -16v0zM308 96c7 0 12 -5 12 -12v-40c0 -7 -5 -12 -12 -12h-296c-7 0 -12 5 -12 12v40c0 7 5 12 12 12h296z" />
    <glyph glyph-name="ion-email-unread" unicode="&#xf3c3;" horiz-adv-x="480" 
d="M352 288c0 43 21 64 64 64s64 -21 64 -64s-21 -64 -64 -64s-64 21 -64 64zM209 288h127c0 -17 5 -33 15 -47c-6 -3 -14 -8 -22 -12s-16 -8 -23 -12s-14 -8 -22 -12s-15 -8 -21 -11s-11 -6 -16 -9s-9 -5 -12 -7s-4 -3 -5 -3c-6 -3 -13 -4 -21 -4s-15 1 -21 4
c-1 1 -15 8 -42 23s-54 29 -81 44s-43 23 -46 25c-7 4 -12 8 -13 11c-1 4 -1 6 1 8s6 2 11 2h191zM277 175c18 11 45 30 83 56c16 -15 34 -23 56 -23v-155c0 -2 -1 -4 -2 -7s-3 -5 -5 -7s-4 -4 -7 -5s-6 -2 -8 -2h-185h-185c-5 0 -11 2 -16 7s-8 9 -8 14v205c0 6 3 8 9 5
c2 -1 11 -7 26 -17s32 -22 53 -36s39 -26 53 -35l-83 -93c-2 -2 -2 -4 -1 -5c2 -1 4 -1 6 1l98 83c16 -10 25 -16 27 -17c6 -3 13 -4 21 -4s15 1 21 4c2 1 11 7 27 17l98 -83c2 -2 5 -2 6 -1s0 3 -2 5z" />
    <glyph glyph-name="ion-email" unicode="&#xf132;" horiz-adv-x="416" 
d="M19 299c-4 2 -11 7 -13 11c-3 8 1 10 12 10h191h191c11 0 15 -2 12 -10c-2 -4 -9 -9 -13 -11c-11 -6 -163 -89 -169 -92s-12 -4 -21 -4s-15 1 -21 4s-158 86 -169 92zM408 295c9 4 8 -1 8 -5v-205c0 -9 -12 -21 -22 -21h-185h-185c-10 0 -24 12 -24 21v205s0 9 9 5
c8 -4 83 -56 132 -88l-83 -93c-2 -2 -2 -4 -1 -5s4 -1 6 1l98 83c15 -10 25 -16 27 -17c8 -4 14 -4 21 -4s13 0 21 4c2 1 12 7 27 17l98 -83c2 -2 5 -2 6 -1s0 3 -2 5l-82 93c49 32 123 84 131 88z" />
    <glyph glyph-name="ion-erlenmeyer-flask-bubbles" unicode="&#xf3c4;" horiz-adv-x="384" 
d="M382 21c2 -4 3 -10 0 -14s-8 -7 -13 -7h-177h-178c-5 0 -9 3 -12 7s-2 10 0 14l118 199v150c0 8 6 14 14 14s15 -6 15 -14v-80c4 3 10 5 16 5c15 0 27 -12 27 -27s-12 -26 -27 -26c-6 0 -12 2 -16 5v-31c0 -2 -1 -4 -2 -6l-35 -59h72c-15 6 -26 20 -26 37
c0 23 19 42 43 42c15 0 27 -8 35 -19c-1 2 -1 3 -1 5v154c0 8 6 14 14 14s15 -6 15 -14v-150zM218 151h53l-31 54c2 -5 3 -11 3 -17c0 -17 -10 -31 -25 -37zM201 319c-12 0 -22 9 -22 21s10 21 22 21s22 -9 22 -21s-10 -21 -22 -21z" />
    <glyph glyph-name="ion-erlenmeyer-flask" unicode="&#xf3c5;" horiz-adv-x="384" 
d="M375 52c6 -9 9 -20 9 -32c0 -28 -16 -52 -63 -52h-258c-47 0 -63 24 -63 52c0 12 3 23 9 32l49 73l49 77c13 20 21 44 21 70v92s-14 34 -16 43c-2 8 1 9 17 9h126c16 0 18 -1 16 -9c-2 -9 -15 -22 -15 -42v-93c0 -26 6 -50 19 -70zM345 7c3 3 7 8 7 14c0 5 -2 10 -4 14
l-101 150c-16 26 -23 56 -23 87v112h-64v-112c0 -32 -9 -62 -25 -87l-99 -150c-2 -4 -4 -9 -4 -14c0 -6 3 -11 6 -14c4 -4 12 -7 25 -7h258c13 0 20 3 24 7zM325 37c1 -2 3 -6 3 -8c0 -7 -6 -15 -14 -15h-244c-7 0 -14 6 -14 14c0 3 1 6 3 8l81 124h103l82 -124v1zM238 106
c2 -1 4 -2 6 -2s3 0 5 2c1 2 3 4 3 6s-1 4 -3 6c-1 2 -3 2 -5 2s-4 0 -6 -2c-1 -2 -2 -4 -2 -6s0 -4 2 -6zM285 47c4 2 4 7 2 11l-23 36c-1 2 -4 4 -7 4c-2 0 -3 0 -4 -1c-4 -2 -4 -7 -2 -11l23 -36c1 -2 5 -4 7 -4c1 0 3 0 4 1z" />
    <glyph glyph-name="ion-eye-disabled" unicode="&#xf306;" 
d="M344 290c41 -27 76 -66 104 -100c-51 -54 -124 -135 -224 -135c-36 0 -65 8 -92 22l-77 -77l-23 23l71 71c-36 25 -68 61 -103 98c78 85 142 137 224 137c34 0 64 -9 92 -23l77 78l23 -23zM134 192c0 -19 6 -36 16 -51l27 27c-4 7 -5 15 -5 24c0 29 23 53 52 53h8
c-5 -6 -8 -13 -8 -21c0 -3 0 -5 1 -8l51 50c-15 11 -33 17 -52 17c-49 0 -90 -41 -90 -91zM224 101c49 0 90 41 90 91c0 19 -6 37 -16 52l-50 -51c3 -1 5 -1 8 -1c8 0 14 3 20 7v-7c0 -29 -23 -53 -52 -53c-9 0 -17 2 -24 6l-28 -27c15 -11 33 -17 52 -17z" />
    <glyph glyph-name="ion-eye" unicode="&#xf133;" 
d="M224 320c99 0 172 -70 224 -129c-51 -50 -124 -127 -224 -127s-157 60 -224 128c78 79 142 128 224 128zM224 101c49 0 90 41 90 91s-41 91 -90 91s-90 -41 -90 -91s41 -91 90 -91zM224 224c0 -18 14 -32 32 -32c8 0 14 3 20 7v-7c0 -29 -23 -53 -52 -53s-52 24 -52 53
s23 53 52 53h8c-5 -6 -8 -13 -8 -21z" />
    <glyph glyph-name="ion-female" unicode="&#xf278;" horiz-adv-x="256" 
d="M160 164v-68h64v-64h-64v-64h-64v64h-64v64h64v68c-55 14 -96 64 -96 124c0 71 57 128 128 128s128 -57 128 -128c0 -60 -41 -110 -96 -124zM128 208c44 0 80 36 80 80s-36 80 -80 80s-80 -36 -80 -80s36 -80 80 -80z" />
    <glyph glyph-name="ion-filing" unicode="&#xf134;" horiz-adv-x="384" 
d="M317 319c12 0 19 0 19 -20v-28h-288v28c0 20 8 20 20 20h249zM269 352c13 0 19 -1 19 -19h-192c0 18 7 19 20 19h153zM368 278c13 -8 17 -17 15 -41l-17 -184c-4 -21 -16 -21 -24 -21h-300c-8 0 -20 0 -24 21l-17 185c-3 26 1 31 15 40l15 10v-32h321v32z" />
    <glyph glyph-name="ion-film-marker" unicode="&#xf135;" horiz-adv-x="416" 
d="M400 240c9 0 16 -7 16 -15v-210c0 -8 -7 -15 -16 -15h-384c-9 0 -16 7 -16 15v210c0 8 6 14 13 15c-2 2 -3 4 -4 7l-9 45c-2 8 5 16 13 18l370 74c8 2 16 -4 18 -12l9 -46c2 -8 -4 -16 -12 -18l-342 -68h344zM257 46l-20 58l51 36h-62l-20 58l-19 -58h-63l51 -36l-19 -58
l50 36z" />
    <glyph glyph-name="ion-fireball" unicode="&#xf319;" horiz-adv-x="320" 
d="M297 210c14 -24 23 -52 23 -82c0 -33 -10 -63 -26 -88v0v0c-29 -43 -78 -72 -134 -72c-17 0 -32 1 -46 7s-25 13 -33 25c-11 16 -17 28 -21 52c-6 -25 2 -48 9 -60c-43 26 -69 71 -69 125v4c5 78 65 109 90 151c8 14 13 30 10 48c11 -9 15 -25 15 -39
c0 -16 -3 -29 -3 -29c4 8 7 18 9 31c6 35 2 85 -37 132l-1 1s7 0 18 -3c95 -16 169 -91 184 -186c2 -12 3 -23 3 -35c0 -16 -2 -32 -5 -47c10 23 13 43 14 55v10z" />
    <glyph glyph-name="ion-flag" unicode="&#xf279;" horiz-adv-x="384" 
d="M362 266c0 0 12 2 22 6c0 -16 -7 -32 -9 -36c-28 -50 -99 -123 -181 -84c-65 31 -92 30 -117 24c-1 0 -2 -1 -3 -1c-3 -1 -15 -5 -26 -1v197c0 16 14 31 33 35c39 7 106 5 148 -74c39 -74 97 -72 133 -66zM24 416c4 0 8 -4 8 -8v-432c0 -4 -4 -8 -8 -8h-16
c-4 0 -8 4 -8 8v432c0 4 4 8 8 8h16z" />
    <glyph glyph-name="ion-flame" unicode="&#xf31a;" horiz-adv-x="256" 
d="M1 128c-11 109 72 224 159 288c-26 -145 97 -142 96 -288c-1 -120 -105 -160 -128 -160s-114 26 -127 160zM88 80c0 -44 40 -80 40 -80s41 36 41 80s-41 80 -41 80s-40 -36 -40 -80z" />
    <glyph glyph-name="ion-flash-off" unicode="&#xf136;" 
d="M115 -4c-69 38 -115 112 -115 196c0 124 100 224 224 224c24 0 47 -4 68 -11c2 -1 3 -1 5 -2c12 -4 24 -9 35 -15v0c69 -38 116 -112 116 -196c0 -124 -100 -224 -224 -224c-24 0 -47 4 -68 11c-2 1 -3 1 -5 2c-12 4 -24 8 -35 14zM86 291c-20 -28 -32 -62 -32 -99
c0 -65 36 -121 90 -150c6 -3 13 -7 19 -9c2 -1 3 -1 5 -2c9 -3 19 -5 29 -7c9 -2 18 -2 27 -2c37 0 71 12 99 32l-52 53l36 40l55 -54c20 28 32 62 32 99c0 66 -37 123 -91 151c-6 3 -12 6 -18 8c-2 1 -3 1 -5 2c-9 3 -19 5 -29 7c-9 2 -18 2 -27 2c-37 0 -72 -12 -100 -32
l53 -52l-36 -41zM178 58l38 113h-85l139 155l-38 -113h85z" />
    <glyph glyph-name="ion-flash" unicode="&#xf137;" horiz-adv-x="320" 
d="M0 160l224 256l-51 -192h147l-224 -256l51 192h-147z" />
    <glyph glyph-name="ion-folder" unicode="&#xf139;" horiz-adv-x="384" 
d="M366 256c18 0 19 -7 18 -18l-12 -186c-1 -11 -3 -20 -21 -20h-317c-18 0 -20 9 -21 20l-13 184c-1 11 0 20 18 20h348zM362 305l2 -33h-344c0 6 4 46 6 63c2 18 8 17 25 17h75c28 0 23 0 37 -15c16 -18 19 -17 41 -17h143c11 0 15 -3 15 -15z" />
    <glyph glyph-name="ion-fork-repo" unicode="&#xf2c0;" horiz-adv-x="320" 
d="M320 368v-64h-48v-48h-64v48h-48v64h48v48h64v-48h48zM208 208h64v-5v0c0 -43 -7 -70 -38 -95c-23 -19 -51 -20 -75 -22c-9 -1 -18 -2 -26 -3c-6 -1 -13 -5 -20 -10c9 -11 15 -25 15 -41c0 -35 -29 -64 -64 -64s-64 29 -64 64c0 24 13 44 32 55v210c-19 11 -32 31 -32 55
c0 35 29 64 64 64s64 -29 64 -64c0 -24 -13 -44 -32 -55v-160c8 4 18 7 27 9c11 2 21 2 31 3c17 1 33 3 40 9c10 8 14 11 14 50zM64 384c-18 0 -32 -14 -32 -32s14 -32 32 -32s32 14 32 32s-14 32 -32 32zM64 0c18 0 32 14 32 32s-14 32 -32 32s-32 -14 -32 -32
s14 -32 32 -32z" />
    <glyph glyph-name="ion-fork" unicode="&#xf27a;" horiz-adv-x="128" 
d="M78 299v0v0v0zM128 282c0 -26 -15 -48 -37 -58c-12 -6 -11 -11 -11 -11s16 -200 16 -213s-3 -18 -9 -24s-15 -8 -23 -8v0v0c-8 0 -16 2 -22 8s-10 13 -10 24s16 213 16 213s0 6 -11 11c-22 10 -37 32 -37 58c0 43 15 93 24 134h8v-117c0 -6 3 -11 9 -11s9 4 10 10v1
l9 117h8l10 -117v-1c1 -6 3 -10 9 -10s9 5 9 11v117h8v0c9 -40 24 -91 24 -134z" />
    <glyph glyph-name="ion-forward" unicode="&#xf13a;" horiz-adv-x="384" 
d="M224 150c-102 0 -171 -9 -224 -102c0 0 37 208 224 208v80l160 -144l-160 -134v92z" />
    <glyph glyph-name="ion-funnel" unicode="&#xf31b;" 
d="M224 416c124 0 224 -36 224 -80c0 -8 -3 -15 -9 -22v0c-35 -43 -151 -179 -151 -218v-4v-83v0c0 -23 -29 -41 -64 -41s-64 18 -64 41v0v87c0 39 -117 177 -149 216v0c-7 8 -11 16 -11 24c0 44 100 80 224 80zM224 288c92 0 176 22 176 48s-83 48 -176 48
s-176 -22 -176 -48s84 -48 176 -48z" />
    <glyph glyph-name="ion-gear-a" unicode="&#xf13d;" horiz-adv-x="384" 
d="M347 192c0 -24 15 -43 37 -56c-4 -13 -10 -26 -16 -38c-25 6 -45 -3 -62 -20s-22 -37 -16 -62c-12 -6 -25 -12 -38 -16c-13 22 -36 37 -60 37s-47 -15 -60 -37c-13 4 -27 10 -39 16c6 25 2 45 -15 62s-37 21 -62 15c-6 12 -12 26 -16 39c22 13 37 36 37 60s-15 43 -37 56
c4 13 9 26 16 38c25 -6 45 3 62 20s21 37 15 62c12 6 26 12 39 16c13 -22 36 -37 60 -37s47 15 60 37c13 -4 27 -10 39 -16c-6 -25 -2 -45 15 -62s37 -26 62 -20c6 -12 12 -25 16 -38c-22 -13 -37 -32 -37 -56zM192 94c54 0 98 44 98 98s-44 98 -98 98s-98 -44 -98 -98
s44 -98 98 -98z" />
    <glyph glyph-name="ion-gear-b" unicode="&#xf13e;" horiz-adv-x="384" 
d="M384 154h-44c-4 -14 -10 -27 -17 -39l32 -32l-54 -54l-33 32c-12 -7 -24 -11 -38 -15v-46h-76v46c-13 4 -26 8 -38 15l-33 -32l-54 54l32 32c-7 12 -13 25 -17 39h-44v76h43c4 14 9 29 16 41l-30 30l54 54l29 -29c13 8 27 13 42 17v41h76v-41c15 -4 29 -9 42 -17l29 29
l54 -54l-30 -30c7 -12 13 -27 16 -41h43v-76zM192 138c30 0 54 24 54 54s-24 54 -54 54s-54 -24 -54 -54s24 -54 54 -54z" />
    <glyph glyph-name="ion-grid" unicode="&#xf13f;" horiz-adv-x="320" 
d="M64 295c0 -4 -3 -7 -7 -7h-50c-4 0 -7 3 -7 7v50c0 4 3 7 7 7h50c4 0 7 -3 7 -7v-50zM192 295c0 -4 -3 -7 -7 -7h-50c-4 0 -7 3 -7 7v50c0 4 3 7 7 7h50c4 0 7 -3 7 -7v-50zM320 295c0 -4 -3 -7 -7 -7h-50c-4 0 -7 3 -7 7v50c0 4 3 7 7 7h50c4 0 7 -3 7 -7v-50zM64 167
c0 -4 -3 -7 -7 -7h-50c-4 0 -7 3 -7 7v50c0 4 3 7 7 7h50c4 0 7 -3 7 -7v-50zM192 167c0 -4 -3 -7 -7 -7h-50c-4 0 -7 3 -7 7v50c0 4 3 7 7 7h50c4 0 7 -3 7 -7v-50zM320 167c0 -4 -3 -7 -7 -7h-50c-4 0 -7 3 -7 7v50c0 4 3 7 7 7h50c4 0 7 -3 7 -7v-50zM64 39
c0 -4 -3 -7 -7 -7h-50c-4 0 -7 3 -7 7v50c0 4 3 7 7 7h50c4 0 7 -3 7 -7v-50zM192 39c0 -4 -3 -7 -7 -7h-50c-4 0 -7 3 -7 7v50c0 4 3 7 7 7h50c4 0 7 -3 7 -7v-50zM320 39c0 -4 -3 -7 -7 -7h-50c-4 0 -7 3 -7 7v50c0 4 3 7 7 7h50c4 0 7 -3 7 -7v-50z" />
    <glyph glyph-name="ion-hammer" unicode="&#xf27b;" horiz-adv-x="320" 
d="M314 416c3 0 6 -3 6 -6v-84c0 -3 -3 -6 -6 -6h-52c-3 0 -6 3 -6 6v14c-6 5 -16 9 -22 7c-7 -2 -23 -13 -30 -25s-6 -28 -6 -66l8 -2c5 -1 7 -6 7 -9v-70c0 -95 11 -201 11 -201c0 -3 -3 -6 -6 -6h-84c-3 0 -6 3 -6 6c0 0 11 106 11 201v70c0 3 3 8 7 9l7 2
c0 43 -5 58 -22 74c-18 16 -41 19 -63 17s-51 -35 -58 -45s-10 2 -10 11c1 16 22 60 72 81s91 22 102 22s27 -1 38 -3s16 -18 26 -18c7 0 14 5 18 9v6c0 3 3 6 6 6h52z" />
    <glyph glyph-name="ion-happy-outline" unicode="&#xf3c6;" 
d="M355 158c8 -4 11 -13 7 -21c-24 -46 -78 -73 -138 -73c-62 0 -118 29 -139 74c-4 8 0 17 8 21c2 1 5 1 7 1c6 0 11 -3 14 -9c16 -34 60 -55 110 -55c49 0 92 21 110 56c3 5 8 8 14 8c3 0 5 -1 7 -2zM381 217c5 -7 4 -17 -4 -22c-3 -2 -6 -3 -10 -3c-5 0 -11 2 -14 6
s-7 10 -17 10s-14 -6 -17 -10s-9 -6 -14 -6c-4 0 -7 1 -10 3c-8 6 -9 15 -3 22c11 14 23 23 44 23s35 -9 45 -23zM157 217c5 -7 4 -17 -4 -22c-3 -2 -6 -3 -10 -3c-5 0 -11 2 -14 6s-7 10 -17 10s-14 -6 -17 -10s-9 -6 -14 -6c-4 0 -7 1 -10 3c-8 6 -9 15 -3 22
c11 14 23 23 44 23s35 -9 45 -23zM224 416c124 0 224 -100 224 -224s-100 -224 -224 -224s-224 100 -224 224s100 224 224 224zM360 56c36 36 56 85 56 136s-20 100 -56 136s-85 56 -136 56s-100 -20 -136 -56s-56 -85 -56 -136s20 -100 56 -136s85 -56 136 -56
s100 20 136 56z" />
    <glyph glyph-name="ion-happy" unicode="&#xf31c;" 
d="M224 416c124 0 224 -100 224 -224s-100 -224 -224 -224s-224 100 -224 224s100 224 224 224zM71 195c3 -2 6 -3 10 -3c5 0 11 2 14 6s7 10 17 10s14 -6 17 -10s9 -6 14 -6c4 0 7 1 10 3c8 5 9 15 4 22c-10 14 -24 23 -45 23s-33 -9 -44 -23c-6 -7 -5 -16 3 -22zM362 137
c4 8 1 17 -7 21c-2 1 -4 2 -7 2c-6 0 -11 -3 -14 -8c-18 -35 -61 -56 -110 -56c-50 0 -94 21 -110 55c-3 6 -8 9 -14 9c-2 0 -5 0 -7 -1c-8 -4 -12 -13 -8 -21c21 -45 77 -74 139 -74c60 0 114 27 138 73zM377 195c8 5 9 15 4 22c-10 14 -24 23 -45 23s-33 -9 -44 -23
c-6 -7 -5 -16 3 -22c3 -2 6 -3 10 -3c5 0 11 2 14 6s7 10 17 10s14 -6 17 -10s9 -6 14 -6c4 0 7 1 10 3z" />
    <glyph glyph-name="ion-headphone" unicode="&#xf140;" horiz-adv-x="384" 
d="M383 210c3 -51 -3 -130 -13 -162c-20 -67 -40 -80 -72 -80s-58 27 -58 59v106c0 33 23 59 53 59c18 0 34 -9 44 -24c0 0 11 7 13 22s4 34 -5 64s-21 19 -36 38c-2 3 -5 7 -8 10l-10 10c-2 2 -3 3 -5 4c-11 9 -21 17 -34 23c-19 9 -39 13 -60 13s-42 -4 -61 -13
c-13 -6 -22 -14 -33 -23c-2 -1 -3 -2 -5 -4l-10 -10s-6 -7 -8 -10c-15 -19 -27 -8 -36 -38c-9 -31 -7 -49 -5 -64s13 -22 13 -22c10 15 26 24 44 24c30 0 53 -27 53 -59v-106c0 -32 -26 -59 -58 -59s-52 13 -72 80c-10 32 -16 111 -13 162c3 60 22 108 56 145v0
c8 8 15 16 24 23s19 13 29 18c25 13 53 20 82 20s57 -7 82 -20c10 -5 19 -11 28 -18s17 -15 25 -23v0c34 -37 53 -85 56 -145z" />
    <glyph glyph-name="ion-heart-broken" unicode="&#xf31d;" horiz-adv-x="416" 
d="M181 160c0 -36 -2 -71 4 -107c2 -10 2 -20 2 -31l-153 159c-45 47 -45 124 0 171c40 41 103 43 144 3c-2 -15 -3 -31 -3 -46c-18 -14 -40 -21 -56 -39l11 7c17 11 15 8 35 14c3 1 8 3 11 5c0 -1 -1 -5 -1 -6c1 -20 11 -39 15 -60c0 -5 1 -10 -1 -15c-8 -17 -7 -37 -8 -55
zM274 147c8 -18 23 -29 38 -39l-104 -108l-17 18c0 13 -4 26 -4 38c-2 48 10 94 21 142v0c1 -1 2 -1 3 -1c30 -6 52 -24 63 -50zM382 352c46 -47 46 -124 0 -171l-68 -70c-28 24 -42 54 -65 81c-12 13 -26 23 -41 32c-3 13 -8 26 -11 39c-3 12 14 21 16 31c3 12 3 26 3 39
l19 19c40 42 107 42 147 0z" />
    <glyph glyph-name="ion-heart" unicode="&#xf141;" horiz-adv-x="416" 
d="M382 352c46 -47 46 -124 0 -171l-174 -181l-174 181c-46 47 -46 124 0 171c40 42 107 42 147 0l27 -28l28 28c40 42 106 42 146 0z" />
    <glyph glyph-name="ion-help-buoy" unicode="&#xf27c;" 
d="M224 416c124 0 224 -100 224 -224s-100 -224 -224 -224s-224 100 -224 224s100 224 224 224zM402 264c-10 24 -23 45 -42 64s-41 32 -65 42l-19 -61c14 -6 27 -15 38 -26s21 -24 27 -38zM224 96c53 0 96 43 96 96s-43 96 -96 96s-96 -43 -96 -96s43 -96 96 -96zM88 328
c-19 -19 -32 -41 -42 -65l61 -19c6 14 15 27 26 38s24 21 38 27l-19 61c-24 -10 -45 -23 -64 -42zM46 120c10 -24 23 -45 42 -64s41 -32 65 -42l19 61c-14 6 -27 15 -38 26s-21 24 -27 38zM360 56c19 19 32 41 42 65l-61 19c-6 -14 -15 -27 -26 -38s-24 -21 -38 -27l19 -61
c24 10 45 23 64 42z" />
    <glyph glyph-name="ion-help-circled" unicode="&#xf142;" 
d="M224 416c124 0 224 -100 224 -224s-100 -224 -224 -224s-224 100 -224 224s100 224 224 224zM244 89c1 18 -12 31 -29 31c-16 0 -30 -11 -30 -29s12 -30 28 -30c17 0 31 10 31 28zM293 217c7 10 12 22 12 36c0 23 -9 40 -25 52c-17 13 -37 18 -62 18
c-19 0 -34 -4 -47 -13c-19 -13 -28 -34 -28 -68h49c0 9 -1 19 4 27s13 15 26 15s19 -3 25 -11c5 -7 8 -15 8 -23c0 -7 -4 -14 -8 -20c-2 -4 -6 -7 -10 -10c0 0 -26 -15 -35 -30c-7 -11 -9 -24 -10 -41c0 -1 0 -4 4 -4h39s5 3 5 4c0 6 1 15 2 19c2 7 6 12 12 17l14 9
c12 9 21 17 25 23z" />
    <glyph glyph-name="ion-help" unicode="&#xf143;" horiz-adv-x="256" 
d="M217 371c25 -19 39 -46 39 -83c0 -22 -8 -42 -19 -57c-7 -9 -21 -21 -40 -36l-21 -14c-10 -8 -17 -18 -20 -28c-2 -6 -3 -19 -3 -29c0 -2 -1 -6 -7 -6h-62c-7 0 -7 3 -7 5c1 26 4 49 15 66c15 23 57 48 57 48c6 5 11 9 15 15c7 10 12 21 12 32c0 13 -3 26 -11 36
c-10 12 -21 18 -41 18s-32 -11 -40 -24s-7 -29 -7 -43h-77c0 54 14 88 44 108c20 14 45 20 75 20c39 0 70 -7 98 -28zM114 78c27 -1 47 -20 46 -48s-22 -46 -49 -45c-26 1 -46 19 -45 47s22 47 48 46z" />
    <glyph glyph-name="ion-home" unicode="&#xf144;" horiz-adv-x="384" 
d="M384 160h-48v-160h-96v128h-96v-128h-96v160h-48l192 224z" />
    <glyph glyph-name="ion-icecream" unicode="&#xf27d;" horiz-adv-x="320" 
d="M32 192h256l-128 -224zM307 275c8 -5 13 -13 13 -23c0 -16 -14 -28 -30 -28h-4h-252h-4c-16 0 -30 13 -30 28c0 10 6 18 14 23c1 0 1 2 2 2c4 3 7 7 8 12v1c-2 6 -2 12 -2 18c0 42 34 76 76 76c8 0 16 -2 23 -4c-3 -12 -4 -31 -4 -31c2 15 11 29 11 29c18 23 46 38 77 38
c53 0 96 -43 96 -96c0 -11 -2 -21 -5 -30v-1c0 -4 4 -9 8 -12c1 0 2 -2 3 -2z" />
    <glyph glyph-name="ion-image" unicode="&#xf147;" 
d="M336 224c-26 0 -48 22 -48 48s22 48 48 48s48 -22 48 -48s-22 -48 -48 -48zM420 384c16 0 28 -12 28 -28v-328c0 -16 -12 -28 -28 -28h-392c-16 0 -28 12 -28 28v328c0 16 12 28 28 28h392zM317 186l99 -106v260c0 7 -6 12 -13 12h-358c-7 0 -12 -5 -13 -12v-260l126 152
c4 4 10 8 17 8s13 -2 17 -7l54 -59l4 -4c3 -2 7 -4 11 -4s8 2 12 5l18 16c4 3 8 5 13 5s10 -2 13 -6z" />
    <glyph glyph-name="ion-images" unicode="&#xf148;" 
d="M426 308c13 -1 23 -12 22 -24l-14 -263c-1 -13 -12 -22 -25 -21l-330 16c-13 1 -23 10 -22 23l2 46l-15 -1c-12 -1 -22 7 -23 18l-21 236c-1 11 7 21 19 22l296 24c12 1 22 -7 23 -18l5 -54zM71 302c1 12 11 22 24 22l219 -11l-2 31h-1v1c-1 5 -5 8 -10 8l-261 -22
c-5 0 -10 -4 -10 -9v0v-1l16 -178l18 25zM405 66l10 198v1v0c0 6 -5 10 -11 10l-58 3l-29 2l-204 9c-6 0 -11 -4 -12 -9v0v-1l-3 -63l-7 -128v-7l6 7l102 109c4 4 8 6 14 6s11 -3 14 -7l43 -49l3 -3c2 -2 6 -4 10 -4s5 1 9 3l17 12c4 3 7 4 11 4s9 -2 11 -5l27 -33zM341 186
c-20 0 -35 15 -35 35s16 35 35 35c20 0 35 -16 35 -35s-16 -35 -35 -35z" />
    <glyph glyph-name="ion-information-circled" unicode="&#xf149;" 
d="M448 195c2 -124 -97 -225 -221 -227s-225 97 -227 221s97 225 221 227s225 -97 227 -221zM224 336c-18 0 -32 -14 -32 -32s14 -32 32 -32s32 14 32 32s-14 32 -32 32zM268 53v11h-22v172h-66v-12h22v-160h-22v-11h88z" />
    <glyph glyph-name="ion-information" unicode="&#xf14a;" horiz-adv-x="128" 
d="M96 0h32v-16h-128v16h32v240h-32v16h96v-256zM64 304c-27 0 -48 21 -48 48s21 48 48 48s48 -21 48 -48s-21 -48 -48 -48z" />
    <glyph glyph-name="ion-ionic" unicode="&#xf14b;" horiz-adv-x="416" 
d="M376 315c25 -34 40 -77 40 -123c0 -115 -93 -208 -208 -208s-208 93 -208 208s93 208 208 208c46 0 89 -15 123 -40c5 3 11 5 18 5c18 0 32 -14 32 -32c0 -7 -2 -13 -5 -18zM344 56c18 18 31 38 41 61c10 24 15 49 15 75s-5 51 -15 75c-6 13 -13 26 -21 38
c-4 -2 -10 -4 -15 -4c-18 0 -32 14 -32 32c0 5 2 11 4 15c-12 8 -25 15 -38 21c-24 10 -49 15 -75 15s-51 -5 -75 -15c-23 -10 -43 -23 -61 -41s-31 -38 -41 -61c-10 -24 -15 -49 -15 -75s5 -51 15 -75c10 -23 23 -43 41 -61s38 -31 61 -41c24 -10 49 -15 75 -15s51 5 75 15
c23 10 43 23 61 41zM112 192c0 64 32 96 96 96s96 -32 96 -96s-32 -96 -96 -96s-96 32 -96 96z" />
    <glyph glyph-name="ion-ios-alarm-outline" unicode="&#xf3c7;" horiz-adv-x="404" 
d="M384 256l-54 52l-9 -9c35 -32 57 -79 57 -130c0 -44 -16 -83 -43 -114l36 -45l-12 -10l-35 43c-32 -30 -75 -49 -122 -49v0v0c-47 0 -90 19 -122 49l-35 -43l-12 10l36 45c-27 31 -43 71 -43 115c0 51 22 97 57 129l-9 9l-54 -52c-12 14 -20 32 -20 52c0 44 35 80 80 82
h5c20 0 39 -7 54 -18l-54 -52l11 -11c26 19 56 32 90 35v0c0 8 8 16 16 16s15 -8 15 -16v0c34 -3 65 -16 91 -35l11 11l-54 52c15 11 34 18 54 18h5c45 -2 80 -38 80 -82c0 -20 -8 -38 -20 -52zM22 280l91 89c-9 5 -19 7 -32 6c-37 -2 -65 -32 -65 -67c0 -10 2 -19 6 -28z
M362 172c0 88 -72 158 -160 158s-160 -70 -160 -158s72 -158 160 -158s160 70 160 158zM291 369l91 -89c4 9 6 18 6 28c0 35 -28 65 -65 67c-13 1 -23 -1 -32 -6zM202 288h16v-144h-112v16h96v128z" />
    <glyph glyph-name="ion-ios-alarm" unicode="&#xf3c8;" horiz-adv-x="404" 
d="M385 256l-55 52l-9 -9c35 -32 57 -79 57 -130c0 -44 -16 -83 -43 -114l37 -45l-13 -10l-35 43c-32 -30 -75 -49 -122 -49v0v0c-47 0 -90 19 -122 49l-35 -43l-12 10l36 45c-27 31 -43 70 -43 114c0 51 22 98 57 130l-9 9l-54 -52c-12 14 -20 32 -20 52c0 44 35 80 80 82
h5c20 0 39 -7 54 -18l-54 -53l11 -10c26 19 56 32 90 35v0c0 8 8 16 16 16s15 -8 15 -16v0c34 -3 65 -16 91 -35l11 11l-54 52c15 11 34 18 54 18h5c45 -2 80 -38 80 -82c0 -20 -7 -38 -19 -52zM218 144v144h-16v-128h-96v-16h112z" />
    <glyph glyph-name="ion-ios-albums-outline" unicode="&#xf3c9;" 
d="M432 304h-416v-288h416v288zM448 320v0v-320h-448v320h448zM40 336v16h368v-16h-368zM72 368v16h304v-16h-304z" />
    <glyph glyph-name="ion-ios-albums" unicode="&#xf3ca;" 
d="M448 320v0v-320h-448v320h448zM40 336v16h368v-16h-368zM72 368v16h304v-16h-304z" />
    <glyph glyph-name="ion-ios-americanfootball-outline" unicode="&#xf3cb;" horiz-adv-x="416" 
d="M331 315c112 -112 81 -327 81 -327s-26 -4 -65 -4c-73 0 -189 12 -262 85c-112 112 -81 327 -81 327s26 4 65 4c73 0 189 -12 262 -85zM17 383c-2 -19 -5 -60 0 -107c1 -8 2 -16 3 -23l127 127c-25 3 -51 5 -78 5v0v0c-22 0 -41 -1 -52 -2zM96 80c30 -30 72 -53 124 -66
c10 -3 20 -5 31 -7l142 142c-4 22 -10 44 -17 63c-14 37 -32 68 -56 92c-30 30 -72 53 -124 66c-10 3 -20 5 -31 7l-142 -142c4 -22 10 -44 17 -63c14 -37 32 -68 56 -92zM399 1c2 19 5 60 0 107c-1 8 -2 16 -3 23l-127 -127c25 -3 51 -5 78 -5c22 0 41 1 52 2zM259 130
l-28 -29l-12 12l29 28l-23 23l-28 -29l-12 12l29 28l-23 23l-28 -29l-12 12l29 28l-23 23l-28 -29l-12 12l29 28l-22 23l-29 -29l-11 12l67 67l12 -11l-29 -29l23 -22l28 29l12 -12l-29 -28l23 -23l28 29l12 -12l-29 -28l23 -23l28 29l12 -12l-29 -28l22 -23l29 29l12 -12
l-29 -28l22 -23l29 29l11 -12l-67 -67l-12 11l29 29z" />
    <glyph glyph-name="ion-ios-americanfootball" unicode="&#xf3cc;" horiz-adv-x="416" 
d="M331 315c112 -112 81 -327 81 -327s-26 -4 -65 -4c-73 0 -189 12 -262 85c-112 112 -81 327 -81 327s26 4 65 4c73 0 189 -12 262 -85zM20 253l3 -18l142 142l-18 3zM219 113l12 -12l28 29l23 -22l-29 -29l12 -11l67 67l-11 12l-29 -29l-22 23l29 28l-12 12l-28 -29
l-23 23l29 28l-12 12l-28 -29l-23 23l29 28l-12 12l-28 -29l-23 23l29 28l-12 12l-28 -29l-23 22l29 29l-12 11l-67 -67l11 -12l29 29l22 -23l-29 -28l12 -12l28 29l23 -23l-29 -28l12 -12l28 29l23 -23l-29 -28l12 -12l28 29l23 -23zM269 4l127 127l-3 18l-142 -142z" />
    <glyph glyph-name="ion-ios-analytics-outline" unicode="&#xf3cd;" 
d="M224 400c-28 0 -55 -5 -81 -16c-25 -10 -47 -26 -66 -45s-35 -41 -45 -66c-11 -26 -16 -53 -16 -81s5 -55 16 -81c10 -25 26 -47 45 -66s41 -35 66 -45c26 -11 53 -16 81 -16s55 5 81 16c25 10 47 26 66 45s35 41 45 66c11 26 16 53 16 81s-5 55 -16 81
c-10 25 -26 47 -45 66s-41 35 -66 45c-26 11 -53 16 -81 16zM224 416v0c124 0 224 -100 224 -224s-100 -224 -224 -224s-224 100 -224 224s100 224 224 224zM76 128c-25 0 -41 18 -42 19c-3 3 -2 9 1 12s8 2 11 -1c1 -1 15 -17 36 -14c12 2 27 26 38 42c4 6 9 12 12 16
c17 21 34 23 45 21c24 -3 45 -28 54 -50c7 -18 18 -28 32 -29c15 -1 31 11 43 30c1 2 3 4 4 7c9 17 24 43 52 43c31 0 52 -35 53 -36c2 -4 1 -9 -3 -11s-9 -1 -11 3c0 0 -5 8 -12 15c-6 6 -16 13 -27 13c-18 0 -29 -19 -38 -35c-1 -3 -3 -5 -4 -7c-15 -25 -36 -40 -58 -38
c-20 1 -36 15 -46 39s-28 39 -41 41c-11 1 -21 -4 -31 -16c-3 -4 -6 -9 -10 -15c-14 -20 -31 -45 -50 -48c-3 0 -5 -1 -8 -1z" />
    <glyph glyph-name="ion-ios-analytics" unicode="&#xf3ce;" 
d="M224 416c124 0 224 -100 224 -224c0 -13 -1 -25 -3 -37c-1 -6 -2 -12 -3 -17c-24 -98 -113 -170 -218 -170c-122 0 -221 98 -224 219v5c0 9 1 17 2 26c13 111 107 198 222 198zM431 168c1 8 1 16 1 24c0 28 -5 55 -16 81c-10 25 -26 47 -45 66s-41 35 -66 45
c-26 11 -53 16 -81 16s-55 -5 -81 -16c-25 -10 -47 -26 -66 -45s-35 -41 -45 -66c-11 -26 -16 -53 -16 -81v0c14 -21 29 -34 29 -34h1v-1c1 -1 15 -16 36 -13c12 2 27 26 38 42c4 6 9 12 12 16c17 21 34 23 45 21c24 -3 45 -27 54 -50c7 -18 18 -28 32 -29c15 -1 31 9 43 29
c1 2 3 4 4 7c9 17 24 44 52 44c31 0 52 -35 53 -36c3 -4 9 -12 16 -20z" />
    <glyph glyph-name="ion-ios-arrow-back" unicode="&#xf3cf;" horiz-adv-x="192" 
d="M192 320l-127 -128l127 -128l-32 -32l-160 160v0v0l160 160z" />
    <glyph glyph-name="ion-ios-arrow-down" unicode="&#xf3d0;" horiz-adv-x="320" 
d="M301 288l19 -21l-160 -171l-160 171l19 21l141 -150z" />
    <glyph glyph-name="ion-ios-arrow-forward" unicode="&#xf3d1;" horiz-adv-x="192" 
d="M0 320l32 32l160 -160v0v0l-160 -160l-32 32l127 128z" />
    <glyph glyph-name="ion-ios-arrow-left" unicode="&#xf3d2;" horiz-adv-x="192" 
d="M192 333l-150 -141l150 -141l-21 -19l-171 160l171 160z" />
    <glyph glyph-name="ion-ios-arrow-right" unicode="&#xf3d3;" horiz-adv-x="192" 
d="M0 333l21 19l171 -160l-171 -160l-21 19l150 141z" />
    <glyph glyph-name="ion-ios-arrow-thin-down" unicode="&#xf3d4;" horiz-adv-x="192" 
d="M190 126c2 -2 2 -4 2 -6s0 -4 -2 -6c0 0 -87 -79 -88 -80s-3 -2 -6 -2s-5 1 -6 2s-88 80 -88 80c-3 3 -3 9 0 12s9 3 12 0l74 -67v285c0 4 4 8 8 8s8 -4 8 -8v-285l74 67c3 3 9 3 12 0z" />
    <glyph glyph-name="ion-ios-arrow-thin-left" unicode="&#xf3d5;" horiz-adv-x="320" 
d="M94 98c-2 -2 -4 -2 -6 -2s-4 0 -6 2c0 0 -79 87 -80 88s-2 3 -2 6s1 5 2 6s80 88 80 88c3 3 9 3 12 0s3 -9 0 -12l-67 -74h285c4 0 8 -4 8 -8s-4 -8 -8 -8h-285l67 -74c3 -3 3 -9 0 -12z" />
    <glyph glyph-name="ion-ios-arrow-thin-right" unicode="&#xf3d6;" horiz-adv-x="320" 
d="M226 98c-3 3 -3 9 0 12l67 74h-285c-4 0 -8 4 -8 8s4 8 8 8h285l-67 74c-3 3 -3 9 0 12s9 3 12 0c0 0 79 -87 80 -88s2 -3 2 -6s-1 -5 -2 -6s-80 -88 -80 -88c-2 -2 -4 -2 -6 -2s-4 0 -6 2z" />
    <glyph glyph-name="ion-ios-arrow-thin-up" unicode="&#xf3d7;" horiz-adv-x="192" 
d="M190 258c-3 -3 -9 -3 -12 0l-74 67v-285c0 -4 -4 -8 -8 -8s-8 4 -8 8v285l-74 -67c-3 -3 -9 -3 -12 0s-3 9 0 12c0 0 87 79 88 80s3 2 6 2s5 -1 6 -2s88 -80 88 -80c2 -2 2 -4 2 -6s0 -4 -2 -6z" />
    <glyph glyph-name="ion-ios-arrow-up" unicode="&#xf3d8;" horiz-adv-x="320" 
d="M301 96l-141 150l-141 -150l-19 21l160 171l160 -171z" />
    <glyph glyph-name="ion-ios-at-outline" unicode="&#xf3d9;" horiz-adv-x="255" 
d="M236 127v1h19l-3 -6c-3 -6 -13 -19 -22 -27s-18 -14 -28 -20s-21 -10 -32 -13s-23 -5 -34 -5c-16 0 -33 3 -49 8s-30 13 -43 24c-12 11 -26 29 -34 46c-7 16 -10 33 -10 58c0 18 4 38 11 55c7 16 17 30 29 42s27 21 43 28c15 6 33 9 53 9c16 0 32 -3 46 -8
c15 -5 28 -12 39 -22s17 -21 24 -35c6 -13 8 -26 8 -44c0 -14 -2 -28 -7 -40s-9 -20 -17 -30c-8 -9 -13 -15 -23 -21c-11 -6 -20 -9 -29 -9c-8 0 -15 2 -20 7c-3 2 -5 6 -6 9c-6 -6 -11 -10 -17 -12c-10 -3 -18 -4 -26 -4s-15 1 -21 4s-12 7 -17 12s-8 11 -11 18
s-5 14 -5 22c0 12 3 24 7 36v2c4 11 5 16 13 26c8 11 17 19 28 26s24 11 38 11c12 0 21 -3 31 -9c7 -4 12 -10 16 -16l6 17h18l-38 -102c-2 -5 -4 -10 -5 -14s-1 -7 -1 -10c0 -2 1 -4 3 -5s4 -2 8 -2c6 0 11 2 20 7c8 4 12 9 19 17c6 8 10 14 14 25s6 23 6 35
c0 15 -2 25 -7 36c-6 13 -10 22 -19 30s-20 15 -33 20s-27 7 -42 7c-19 0 -35 -3 -48 -9c-15 -6 -27 -14 -37 -24c-11 -10 -19 -23 -25 -37c-6 -15 -10 -32 -10 -48c0 -22 2 -36 8 -49c6 -15 17 -31 28 -41s24 -18 38 -23s30 -7 46 -7c10 0 20 1 30 4s18 6 27 11
s17 11 24 18s14 13 19 21zM147 154c4 5 8 12 11 20l21 57c-2 5 -4 10 -7 13c-3 4 -6 6 -10 8c-1 0 -1 1 -2 1c-3 2 -5 3 -9 4c-5 1 -9 2 -13 2c-10 0 -19 -3 -28 -9s-17 -13 -23 -22c-5 -8 -7 -11 -10 -20c0 -1 -1 -3 -1 -4c-4 -11 -5 -20 -5 -30c0 -6 1 -11 3 -16
s5 -9 8 -13s7 -6 12 -8s9 -3 15 -3c4 0 9 1 14 2c4 1 8 2 12 5s8 7 12 13z" />
    </font>
</defs>
</svg>
