<svg xmlns="http://www.w3.org/2000/svg" xmlns:xlink="http://www.w3.org/1999/xlink" width="48" height="48" version="1.1" viewBox="0 0 48 48"><title>illustration/comments</title><g id="illustration/comments" fill="none" fill-rule="evenodd" stroke="none" stroke-width="1"><path id="Path" fill="#96D07C" d="M2.52730803,17.9196415 C2.44329744,17.9745167 2.36370847,18.000488 2.29303375,18.000488 C2.1197031,18.000488 2,17.8443588 2,17.5752855 L2,4 C2,1.790861 3.790861,3.23296945e-13 6,3.23296945e-13 L33.9995117,3.23296945e-13 C36.2086507,3.23296945e-13 37.9995117,1.790861 37.9995117,4 L37.9995117,9.999512 C37.9995117,12.208651 36.2086507,13.999512 33.9995117,13.999512 L8,13.999512 C7.83499225,13.999512 7.6723181,13.9895206 7.51254954,13.9701099 L2.52730803,17.9196415 Z"/><path id="Path" fill="#73E1E0" d="M7.51066,44.9703679 L2.52730803,47.9186655 C2.44329744,47.9735407 2.36370847,47.999512 2.29303375,47.999512 C2.1197031,47.999512 2,47.8433828 2,47.5743095 L2,35 C2,32.790861 3.790861,31 6,31 L26,31 C28.209139,31 30,32.790861 30,35 L30,41 C30,43.209139 28.209139,45 26,45 L8,45 C7.8343417,45 7.67103544,44.9899297 7.51066,44.9703679 Z"/><path id="Path" fill="#FFD476" d="M46,19.5 L46,33.0747975 C46,33.3438708 45.8802969,33.5 45.7069663,33.5 C45.6362915,33.5 45.5567026,33.4740287 45.472692,33.4191535 L40.4887103,29.4704446 C40.3285371,29.489956 40.1654415,29.5 40,29.5 L18,29.5 C15.790861,29.5 14,27.709139 14,25.5 L14,19.5 C14,17.290861 15.790861,15.5 18,15.5 L42,15.5 C44.209139,15.5 46,17.290861 46,19.5 Z"/></g></svg>