<svg xmlns="http://www.w3.org/2000/svg" xmlns:xlink="http://www.w3.org/1999/xlink" width="48" height="48" version="1.1" viewBox="0 0 48 48"><title>illustration/direction</title><g id="illustration/direction" fill="none" fill-rule="evenodd" stroke="none" stroke-width="1"><path id="Combined-Shape" fill="#FFD476" d="M23.4917015,33.6030641 L2.93840258,31.4321033 C2.38917316,31.3740904 1.99096346,30.8818233 2.04897631,30.3325939 C2.0747515,30.0885705 2.18934861,29.8625419 2.37095722,29.6975265 L34.2609105,0.721285325 C34.6696614,0.349881049 35.3021022,0.38015648 35.6735064,0.788907393 C35.9232621,1.06377731 36.0001133,1.45442096 35.8730901,1.80341447 L24.5364357,32.9506164 C24.3793473,33.3822133 23.9484565,33.6513092 23.4917015,33.6030641 L23.4917015,33.6030641 Z"/><path id="Combined-Shape-Copy" fill="#FFC445" d="M24.3163597,33.2881029 C24.0306575,33.0138462 23.9337246,32.5968232 24.069176,32.2246735 L35.091923,1.9399251 C35.2266075,1.56988243 35.5659249,1.31333613 35.9586669,1.28460955 C36.5094802,1.24432106 36.9886628,1.65818318 37.0289513,2.20899647 L40.2437557,46.1609256 C40.2644355,46.4436546 40.1641446,46.7218752 39.9678293,46.9263833 C39.5853672,47.3248067 38.9523344,47.3377458 38.5539111,46.9552837 L24.3163597,33.2881029 L24.3163597,33.2881029 Z"/></g></svg>