<svg xmlns="http://www.w3.org/2000/svg" xmlns:xlink="http://www.w3.org/1999/xlink" width="48" height="48" version="1.1" viewBox="0 0 48 48"><title>illustration/plugin</title><g id="illustration/plugin" fill="none" fill-rule="evenodd" stroke="none" stroke-width="1"><path id="Combined-Shape" fill="#79C9FC" d="M26,15.3994248 C26,15.4091303 26,15.4188459 26,15.4285714 L26,21.4694881 C25.8463595,21.4969567 25.6941676,21.51275 25.5873784,21.51275 C25.4974117,21.51275 25.4230979,21.4768034 25.377756,21.4206259 L25.2660784,21.2822603 L25.1317423,21.1657666 C24.2436317,20.3956144 23.100098,19.9633214 21.895551,19.9633214 C19.2039137,19.9633214 17,22.1075558 17,24.7804643 C17,27.4533728 19.2039137,29.5976071 21.895551,29.5976071 C23.1972122,29.5976071 24.3149423,29.2878193 25.1231445,28.3613697 C25.4542273,27.9818463 25.568273,27.9073214 25.5873784,27.9073214 C25.681532,27.9073214 25.8352452,27.9239643 26,27.9524591 L26,32.5714286 C26,32.5811541 26,32.5908697 26,32.6005752 L26,33 C26,35.209139 24.209139,37 22,37 L4,37 C1.790861,37 0,35.209139 0,33 L0,15 C0,12.790861 1.790861,11 4,11 L22,11 C24.209139,11 26,12.790861 26,15 L26,15.3994248 Z"/><path id="Path" fill="#87E6E5" d="M27.9998779,32.5714286 C27.9998779,33.3604068 28.6572726,34 29.4682101,34 L46.5315458,34 C47.3424832,34 47.9998779,33.3604068 47.9998779,32.5714286 L47.9998779,15.4285714 C47.9998779,14.6395932 47.3424832,14 46.5315458,14 L29.4682101,14 C28.6572726,14 27.9998779,14.6395932 27.9998779,15.4285714 L27.9998779,21.8355216 C27.9334367,22.2650514 27.8567585,22.6454496 27.746391,22.8084643 C27.4245309,23.2838571 26.2402709,23.51275 25.5873784,23.51275 C24.8705773,23.51275 24.2322714,23.1857725 23.8214379,22.6767605 C23.3096996,22.2329909 22.6349941,21.9633214 21.895551,21.9633214 C20.2963823,21.9633214 19,23.2245992 19,24.7804643 C19,26.3363293 20.2963823,27.5976071 21.895551,27.5976071 C22.5398535,27.5976071 23.2399343,27.477727 23.6160247,27.0466112 C24.1396029,26.4464286 24.7367044,25.9073214 25.5873784,25.9073214 C26.2402709,25.9073214 27.5912951,26.1766031 27.8226692,26.6116071 C27.8819199,26.7230038 27.9403239,26.921677 27.9998779,27.1556219 L27.9998779,32.5714286 Z"/></g></svg>