<svg xmlns="http://www.w3.org/2000/svg" xmlns:xlink="http://www.w3.org/1999/xlink" width="48" height="48" version="1.1" viewBox="0 0 48 48"><title>illustration/stackalt</title><g id="illustration/stackalt" fill="none" fill-rule="evenodd" stroke="none" stroke-width="1"><path id="Combined-Shape" fill="#FFAE00" d="M23.8628277,0 L23.8628277,48 L3.32291648,36.2491883 L3.32155653,11.9499781 L23.8628277,0 Z M23.8670509,0 L44.408322,11.9499781 L44.4069621,36.2491883 L23.8670509,48 L23.8670509,0 Z" opacity=".196"/><path id="Rectangle-46-Copy-3" fill="#66BF3C" d="M15.8232279,19.1155258 L24.7368455,21.4714881 C29.6053842,22.7582937 33.4077423,26.5606518 34.694548,31.4291905 L37.0505103,40.3428082 C37.6150232,42.4786032 36.3412474,44.6676353 34.2054524,45.2321482 C33.5569474,45.4035549 32.87575,45.4091235 32.2245294,45.2483418 L23.3459013,43.0562718 C18.2976962,41.809906 14.3561301,37.8683399 13.1097642,32.8201348 L10.9176943,23.9415066 C10.3881737,21.7967682 11.6975664,19.6288529 13.8423049,19.0993322 C14.4935255,18.9385505 15.1747229,18.9441191 15.8232279,19.1155258 Z" opacity=".5" transform="translate(23.999997, 32.166058) rotate(-45.000000) translate(-23.999997, -32.166058)"/><path id="Rectangle-46-Copy-2" fill="#FFAE00" d="M15.8232279,11.2216893 L24.7368455,13.5776516 C29.6053842,14.8644572 33.4077423,18.6668153 34.694548,23.5353541 L37.0505103,32.4489717 C37.6150232,34.5847667 36.3412474,36.7737988 34.2054524,37.3383117 C33.5569474,37.5097184 32.87575,37.515287 32.2245294,37.3545053 L23.3459013,35.1624353 C18.2976962,33.9160695 14.3561301,29.9745034 13.1097642,24.9262983 L10.9176943,16.0476701 C10.3881737,13.9029317 11.6975664,11.7350164 13.8423049,11.2054957 C14.4935255,11.044714 15.1747229,11.0502826 15.8232279,11.2216893 Z" opacity=".5" transform="translate(23.999997, 24.272222) rotate(-45.000000) translate(-23.999997, -24.272222)"/><path id="Rectangle-46-Copy" fill="#FC521F" d="M15.8232279,3.32785281 L24.7368455,5.68381509 C29.6053842,6.97062075 33.4077423,10.7729788 34.694548,15.6415176 L37.0505103,24.5551352 C37.6150232,26.6909302 36.3412474,28.8799623 34.2054524,29.4444752 C33.5569474,29.6158819 32.87575,29.6214505 32.2245294,29.4606688 L23.3459013,27.2685988 C18.2976962,26.022233 14.3561301,22.0806669 13.1097642,17.0324618 L10.9176943,8.15383364 C10.3881737,6.00909519 11.6975664,3.84117987 13.8423049,3.31165925 C14.4935255,3.15087753 15.1747229,3.15644615 15.8232279,3.32785281 Z" opacity=".5" transform="translate(23.999997, 16.378385) rotate(-45.000000) translate(-23.999997, -16.378385)"/></g></svg>