<svg xmlns="http://www.w3.org/2000/svg" width="800" height="800" preserveAspectRatio="xMidYMid meet" version="1.0" viewBox="0 0 600 600"><metadata>Created by potrace 1.15, written by Peter Selinger 2001-2017</metadata><g fill="#006400" stroke="none"><path d="M0 3000 l0 -3000 3000 0 3000 0 0 3000 0 3000 -3000 0 -3000 0 0 -3000z m1565 1504 c13 -8 28 -29 34 -46 16 -46 -6 -83 -142 -226 -143 -152 -228 -268 -301 -411 -122 -241 -176 -471 -176 -761 0 -319 54 -567 180 -825 75 -154 157 -269 299 -418 118 -125 157 -186 145 -232 -8 -34 -59 -75 -93 -75 -83 0 -215 113 -367 316 -199 264 -305 511 -366 851 -20 112 -23 161 -22 383 0 239 1 263 26 381 66 306 188 557 396 816 176 217 305 301 387 247z m2840 -3 c64 -29 145 -102 236 -211 287 -347 421 -684 460 -1158 41 -503 -98 -959 -414 -1352 -137 -171 -269 -280 -337 -280 -29 0 -77 27 -90 49 -29 54 -7 92 137 243 168 176 267 319 344 497 194 452 178 1048 -40 1496 -85 174 -168 288 -343 472 -49 51 -93 104 -98 118 -22 57 -5 106 45 133 28 16 54 14 100 -7z m-1729 -165 c162 -43 314 -169 383 -317 38 -82 48 -118 91 -344 25 -128 48 -187 84 -210 45 -30 114 3 129 62 7 33 -10 100 -44 167 -16 33 -29 67 -29 78 0 56 115 -21 230 -153 161 -187 217 -361 208 -644 -6 -162 -29 -250 -100 -369 -73 -123 -291 -316 -357 -316 -18 0 -51 24 -51 37 0 3 28 35 61 71 122 133 168 222 176 340 8 121 -31 247 -100 320 -17 17 -39 32 -49 32 -16 0 -16 -3 -4 -38 7 -20 17 -56 21 -80 6 -39 4 -45 -28 -77 -32 -32 -40 -35 -92 -35 -112 0 -130 32 -121 210 6 118 5 128 -17 175 -39 81 -133 165 -184 165 -26 0 -32 -33 -10 -47 32 -20 47 -58 47 -123 0 -101 -32 -155 -152 -260 -153 -134 -188 -194 -188 -324 0 -174 84 -328 208 -383 39 -17 52 -28 50 -41 -6 -30 -70 -19 -171 30 -161 78 -280 190 -356 338 -53 101 -74 185 -75 300 -1 159 38 253 240 576 178 286 221 392 212 531 -7 109 -81 238 -159 279 -30 15 -39 48 -16 57 24 10 113 6 163 -7z m1435 -2395 c32 -32 39 -46 39 -77 0 -51 -18 -83 -59 -111 l-34 -23 -1049 0 c-1143 0 -1080 -3 -1127 56 -14 18 -21 41 -21 72 0 38 5 50 39 83 l39 39 1067 0 1067 0 39 -39z" transform="translate(0.000000,600.000000) scale(0.100000,-0.100000)"/></g></svg>