<?xml version="1.0" standalone="no"?>
<!DOCTYPE svg PUBLIC "-//W3C//DTD SVG 1.1//EN" "http://www.w3.org/Graphics/SVG/1.1/DTD/svg11.dtd" >
<svg xmlns="http://www.w3.org/2000/svg">
<metadata></metadata>
<defs>
<font id="mothproofscriptregular" horiz-adv-x="296" >
<font-face units-per-em="1000" ascent="800" descent="-200" />
<missing-glyph horiz-adv-x="323" />
<glyph horiz-adv-x="1000" />
<glyph horiz-adv-x="1000" />
<glyph unicode="&#xd;" horiz-adv-x="1000" />
<glyph unicode=" "  horiz-adv-x="323" />
<glyph unicode="&#x09;" horiz-adv-x="323" />
<glyph unicode="&#xa0;" horiz-adv-x="323" />
<glyph unicode="!" horiz-adv-x="333" d="M305 797l-89 -599l-152 2l-6 597h247zM202 -1q-40 -2 -82 0q-49 2 -70 49q-16 35 -7 63q9 31 46 32q48 1 83 0q50 -2 68 -43q11 -25 11 -45q0 -54 -49 -56z" />
<glyph unicode="&#x22;" horiz-adv-x="498" d="M177 587q-39 -25 -85 -43l-83 9q55 29 77 57q-6 -2 -12 -2q-24 0 -27 22q3 34 26 58t57 29q28 4 91 1q19 -1 29.5 -14.5t6.5 -31.5q-9 -39 -80 -85zM397 587q-39 -25 -85 -43l-83 9q55 29 77 57q-6 -2 -12 -2q-24 0 -27 22q3 34 26 58t57 29q28 4 91 1q19 -1 29.5 -14.5 t6.5 -31.5q-9 -39 -80 -85z" />
<glyph unicode="#" horiz-adv-x="670" d="M629 443q-10 73 -57 73q-13 0 -51 -18q1 2 20 47q14 33 13 47q-2 22 -19.5 40.5t-39.5 18.5q-29 0 -58 -13q-35 -15 -39 -39q-5 -31 5 -67q-1 -6 -6 -43h-64q1 9 19 54q14 35 13 48q-2 23 -33 41q-27 16 -52 16q-24 0 -50 -22.5t-30 -46.5q-1 -8 5.5 -28t12.5 -26 q0 1 -1 2q-2 -15 -6 -38q-10 0 -37.5 9.5t-41.5 9.5q-30 0 -52.5 -33t-19.5 -63q3 -26 21 -45.5t43 -19.5q20 0 57 20q-5 -36 -10 -76q-21 2 -40 7q-12 2 -18 2q-28 0 -51.5 -17t-29.5 -44q-2 -9 -1 -16q1 -25 17 -50q18 -29 41 -29q11 0 63 26q-21 -62 -19 -81 q2 -23 18.5 -40.5t38.5 -17.5q26 0 53 16.5t31 40.5q3 20 1 43l-4 40l60 3q0 -22 1 -31q-23 -33 -22 -58t28 -39q22 -12 49 -12t54.5 24t25.5 51q-1 18 -20 48q6 14 6 19q11 0 33 -11.5t32 -11.5q30 0 58 40q25 37 24 69q-1 23 -19.5 37.5t-42.5 14.5q-20 0 -56 -16 q5 26 12 73q9 0 26.5 -3.5t26.5 -3.5q32 0 59 24t23 55zM372 367l-16 -73l-66 -2q2 11 16 76q37 0 66 -1z" />
<glyph unicode="$" horiz-adv-x="574" d="M266 -167v118q-89 12 -160 50q-88 47 -88 110q0 30 10 54q48 117 54 117h18q11 -84 92.5 -150.5t167.5 -66.5q47 0 47 41q0 23 -18 43q-3 4 -37 34q-76 37 -198 108q-91 53 -91 137q0 69 65 138q53 56 127 93v113h94v-80q27 5 46 5q64 0 101 -39.5t37 -104.5 q0 -47 -59 -110.5t-106 -63.5q0 15 6 43.5t6 43.5v21q0 7 -1 14v6q-50 64 -106 64q-77 0 -77 -71q0 -58 92 -109q48 -25 170 -92q92 -52 92 -121v-4q-62 -180 -190 -218v-123h-94z" />
<glyph unicode="%" horiz-adv-x="876" d="M536 704l-84 -706l-98 20l59 404q4 0 -13 -1l-17 -1q-27 -112 -121 -133l-105 -1q-41 0 -79 48q-33 41 -45 86t-12 96q0 47 14 86q29 81 101 91h102q48 0 86 -43q33 -37 47 -88h-1q11 -30 13 -71h23q6 0 11 8l34 223zM877 210v-12q0 -97 -49 -153q-35 -40 -120 -40 q-16 0 -48 4h-4q-40 5 -74 43h1q-62 70 -62 187q0 63 25 109q29 54 86 66h99q49 0 86 -38q32 -33 47 -84q13 -44 13 -82zM724 326q-5 2 -16 2q-40 0 -63 -79q-7 -24 -7 -51q0 -70 36 -106q10 -7 22 -7q38 0 61 76v-1q8 32 8 58q0 28 -9 59q-12 41 -32 49zM228 602h1 q-19 22 -34 22q-13 0 -21 -23q-3 -9 -3 -17q0 -32 22 -57q35 -40 64 -40h2q3 12 3 25q0 50 -34 90zM223 376q17 13 25 39q-30 1 -61 28q-29 21 -51 56q-1 -8 -1 -22q0 -32 10 -63q17 -53 45 -53q16 0 34 15h-1z" />
<glyph unicode="&#x26;" horiz-adv-x="808" d="M400 770q76 0 130 -54q103 -21 164 -153q21 -46 21 -93q0 -78 -59 -159l-172 -8q42 82 42 155q0 90 -60 162q-34 41 -88 41q-52 0 -92 -48q-32 -38 -48 -96q-7 -25 -7 -49q0 -71 47 -138.5t114 -94.5q-66 -17 -124 -59q-14 -10 -27 -28q-13 -26 -1 -46q28 -45 151 -45 q121 0 228 37l9 78h145l-14 -261h-151l11 139q-71 -47 -159 -48q-131 -2 -216 1q-62 2 -92 12q-40 13 -70 45q-33 36 -33 75q0 42 46 77q38 28 86 38q-147 104 -147 242q0 38 14 76q45 122 171 149q82 53 181 53z" />
<glyph unicode="'" horiz-adv-x="239" d="M214 655q2 -61 -90 -110l-89 9q39 29 41 57q-4 -2 -9 -2q-26 0 -40 22q-20 32 -12 56q10 29 56 34q8 1 72 -2q26 -1 46.5 -19.5t24.5 -44.5z" />
<glyph unicode="(" horiz-adv-x="381" d="M323 779q-114 -136 -114 -359q0 -160 64 -297q8 -16 39 -107q29 -84 48 -111l-124 -11q-41 48 -87 150q-2 4 -62 151q-53 129 -53 245q0 123 73 253q40 71 81 119z" />
<glyph unicode=")" horiz-adv-x="381" d="M58 785q114 -136 114 -359q0 -160 -64 -297q-8 -16 -39 -107q-29 -84 -48 -111l124 -11q41 48 87 150q2 4 62 151q53 129 53 245q0 123 -73 253q-40 71 -81 119z" />
<glyph unicode="*" horiz-adv-x="570" d="M398 468l122 -70q18 -11 18 -17q0 -4 -11 -11q-18 -11 -39 -11q-39 0 -144 61q0 25 2 -97q0 -15 -10 -15q-5 0 -22 6q-64 22 -69 77q-3 31 -2 37q-82 -22 -93 -22q-40 0 -83 34q-15 12 -15 18t16 11q52 17 124 37q-69 43 -128 83q-17 12 -17 19q0 9 23 15q18 5 31 5 q37 0 79 -26q21 -13 60 -38q0 38 10 110q2 15 14 15q8 0 23 -7q71 -34 66 -82q-4 -38 -4 -58q42 9 78 9q54 0 92 -34q11 -10 11 -16q0 -8 -15 -10t-117 -23z" />
<glyph unicode="+" horiz-adv-x="398" d="M201 36q-25 0 -50 13q-30 15 -30 38v51h-34q-28 3 -47 26.5t-19 52.5q0 31 21.5 59t51.5 28h25v44q3 28 26.5 47t52.5 19q31 0 59 -21.5t28 -51.5v-39q25 0 40 -1q29 -2 44 -45q5 -14 5 -39t-13 -50q-15 -30 -38 -30q-19 0 -37 1q0 -45 -1 -51q-9 -51 -84 -51z" />
<glyph unicode="," horiz-adv-x="288" d="M207 -21q-3 -2 -75 -41q-57 -31 -60 -38l-50 1q22 13 54 51q26 31 36 50q-6 -2 -11 -2q-26 0 -30 22q-6 32 13.5 57t51.5 30q27 4 91 1q19 -1 32 -14t13 -32q0 -43 -65 -85z" />
<glyph unicode="-" horiz-adv-x="499" d="M409 145l-306 -2q-31 4 -56 43q-5 8 -5 21q0 34 16 60q19 30 51 30h98l202 -1q24 0 37 -32q10 -25 10 -53q0 -18 -15 -42t-32 -24z" />
<glyph unicode="." horiz-adv-x="284" d="M246 77q0 -28 -20.5 -51.5t-48.5 -25.5q-11 -1 -90 0q-20 0 -35.5 16t-15.5 36q0 27 25.5 52.5t52.5 25.5h86q20 0 33 -16t13 -37z" />
<glyph unicode="/" horiz-adv-x="570" d="M564 772l-423 -772l-135 24l431 776z" />
<glyph unicode="0" horiz-adv-x="610" d="M577 377q0 138 -50 232q-63 119 -189 119q-107 0 -169 -56q-54 -47 -93 -154q-41 -110 -41 -198q0 -137 64 -221q71 -93 204 -93q110 0 164.5 43t83.5 150q26 95 26 178zM397 387q0 -77 -1 -100q-2 -46 -26 -102q-30 -70 -69 -70q-36 0 -62 56q-21 45 -23 86q-1 21 -1 85 q0 57 1 85q2 55 28 116q32 75 78 75q45 0 74 -131v-16q1 -32 1 -34v-50z" />
<glyph unicode="1" horiz-adv-x="488" d="M147 20q0 19 35.5 63.5t35.5 66.5v379q-39 0 -90 -28q-11 -6 -80 -51l-10 -1q-15 0 -19 10q-2 5 -2 25q0 77 83.5 157t160.5 80q3 0 27 -1q17 -3 50 -30l40 -40q9 -9 15 -20v-553q38 0 44 -1q22 -6 22 -32q0 -4 -1 -14q-17 -30 -30 -30h-270q-11 0 -11 20z" />
<glyph unicode="2" horiz-adv-x="596" d="M61 31q0 48 29 107q25 51 62 92q86 95 170 170q21 34 21 70q0 38 -12 65q-15 36 -48 36q-50 0 -73 -54q-10 -37 -28 -97q-4 -13 -38 -23q-30 -9 -47 -8l-15 1q-43 10 -50 20q-1 12 -1 16q0 113 57 185q62 80 172 80q120 0 202 -77t82 -196v-42q-2 -13 -14.5 -37 t-17.5 -29l-170 -170q-7 -7 -20 -40v-5q0 -16 31 -16q32 0 70 56t69 56q71 0 71 -86q0 -45 -19 -73q-22 -33 -65 -33q-25 0 -76 6t-76 6q-36 0 -107.5 -7t-107.5 -7q-51 0 -51 34z" />
<glyph unicode="3" horiz-adv-x="574" d="M134 20q-101 59 -101 210q0 87 21 116q25 35 105 35q68 0 85 -11q1 -1 1 -4v-3q-1 -2 -1 -3q-31 -99 -31 -142q0 -97 61 -138q7 -1 9 -1q52 0 52 79q0 55 -21 82q-4 5 -33 28q-19 15 -19 33q0 17 2 19q51 48 63 70q17 31 17 95q0 38 -11 70q-16 46 -45 46q-4 0 -14 -1 q-35 -17 -41 -61q-8 -59 -12 -68q-18 -32 -84 -32q-29 0 -38 2q-18 4 -35 19v18q0 6 -1 12v5q0 89 65 152.5t154 63.5q106 0 179.5 -68.5t73.5 -174.5q0 -80 -51 -168q51 -66 51 -145q0 -97 -66 -131q-48 -25 -157 -25h-34q-16 0 -24 1q-63 8 -120 20z" />
<glyph unicode="4" horiz-adv-x="591" d="M250 25q0 20 30 38q41 24 51 37q28 35 28 140h-350q0 18 12 40l200 360q41 51 119 51q102 0 102 -26q0 -2 -1 -5q-25 -57 -85 -160q-61 -107 -85 -160h90l20 160q0 10 10 20q23 30 30 30h110l20 -20v-490q0 -6 -12.5 -23t-17.5 -17h-260q-11 0 -11 25z" />
<glyph unicode="5" horiz-adv-x="706" d="M33 220v12q1 11 1 18v20q2 22 31 44q24 19 49 26q81 23 150 30q10 1 29 1q18 0 54.5 -4.5t54.5 -4.5q0 29 -54 46q-41 13 -79 13q-62 0 -125 -21l-30 -10l-12 -1q0 44 2 71q9 122 20 210q11 25 38 33q16 2 54 8l75 12q48 8 78 8q34 0 80 -18q56 -22 56 -48t-25 -26 q-14 0 -45 6.5t-47 5.5l-14 -1q-32 -8 -60 -20q-21 -9 -21 -70v-5q1 -5 1 -10v-15q18 -6 40 -10q108 -19 147.5 -42.5t112.5 -107.5q13 -15 20 -20h72q0 -61 -52 -70q1 -21 1 -41q0 -137 -81 -193q-67 -47 -210 -47q-311 0 -311 221zM203 195q0 -55 35.5 -90t90.5 -35 q58 0 94 50q32 44 32 105q0 50 -11 55q-23 4 -50 10q-45 10 -40 10l-4 1h-10h-19q-3 0 -27 -1q-18 -3 -60 -30q-31 -20 -31 -75z" />
<glyph unicode="6" horiz-adv-x="649" d="M33 358q0 322 321 372q3 0 15 1q15 1 40 0q6 0 15 -1q60 -10 120 -30q21 -11 21 -25q0 -20 -89 -35l-122 -20q-26 -9 -52 -36t-26 -52q19 0 57.5 4.5t57.5 4.5q115 0 174 -89q50 -75 50 -197q0 -136 -71 -198q-67 -58 -205 -58h-26q-10 0 -19 1q-108 12 -160 59 q-48 44 -80 151q-21 70 -21 148zM223 320q0 -84 11 -127q18 -70 70 -103h8q6 -1 7 -1q22 0 35 11q71 59 71 170q0 84 -19 127q-29 64 -102 64q-51 0 -62 -7q-14 -9 -18 -54v-33q0 2 -1 -29v-18z" />
<glyph unicode="7" horiz-adv-x="580" d="M221 44l1 16l131 526q0 34 -76 34q-49 0 -84 -21q-42 -25 -42 -70q0 -58 33 -83q27 -20 88 -26v-5q0 -38 -30 -55h-20q-7 0 -14 -1h-6q-87 0 -134.5 49.5t-47.5 136.5q0 39 2 55q23 101 284 101q52 0 66 -1q69 -5 150 -20q31 -11 31 -35v-7q-1 -7 -1 -8 q-56 -223 -140 -540q-12 -43 -20 -60q-16 -31 -85 -31q-89 0 -86 45z" />
<glyph unicode="8" horiz-adv-x="659" d="M34 246q0 123 131 205q-37 32 -51 54q-20 31 -20 71q0 79 76 117q58 29 146 29h29q12 0 20 -1q22 -3 110 -30q81 -25 81 -141q0 -63 -51 -99q121 -33 121 -218q0 -184 -131 -212q-75 -16 -110 -20h-23q-9 0 -20 -1h-12q-36 0 -55 1q-158 8 -209 111q-32 64 -32 134z M234 231q0 -151 81 -151q17 0 30 11q71 59 71 170q0 53 -19 87q-24 43 -72 43q-18 0 -30 -10q-38 -32 -51 -66q-10 -28 -10 -84zM264 569q0 -98 51 -98q71 0 71 103q0 78 -66 78q-56 0 -56 -83z" />
<glyph unicode="9" horiz-adv-x="649" d="M615 372q0 -322 -321 -372q2 0 -15 -1q-15 -1 -40 0q-6 0 -15 1q-60 10 -120 30q-13 7 -20 20q0 2 -1 5q0 20 89 35l122 20q26 9 52 36t26 52q-19 0 -57.5 -4.5t-57.5 -4.5q-115 0 -174 89q-50 75 -50 197q0 136 71 198q67 58 205 58h26q10 0 19 -1q108 -12 160 -59 q48 -44 80 -151q21 -70 21 -148zM425 410q0 84 -11 127q-18 70 -70 103q-2 0 -7 1h-8q-22 0 -35 -11q-71 -59 -71 -170q0 -191 121 -191q52 0 62 7q14 9 18 54q1 11 1 33v47z" />
<glyph unicode=":" horiz-adv-x="292" d="M249 80q0 -28 -20.5 -51.5t-48.5 -25.5q-11 -1 -90 0q-20 0 -35.5 16t-15.5 36q0 27 25.5 52.5t52.5 25.5h86q20 0 33 -16t13 -37zM249 444q0 -28 -20.5 -51.5t-48.5 -25.5q-11 -1 -90 0q-20 0 -35.5 16t-15.5 36q0 27 25.5 52.5t52.5 25.5h86q20 0 33 -16t13 -37z" />
<glyph unicode=";" horiz-adv-x="286" d="M253 446q0 -28 -20.5 -52.5t-48.5 -24.5h-89q-20 0 -36 16t-16 36q0 27 25.5 52.5t52.5 25.5h86q20 0 33 -16t13 -37zM190 -21q-36 -26 -77 -43l-85 9q52 30 67 57q-6 -2 -11 -2q-26 0 -30 22q-6 32 13.5 57t51.5 30q27 4 91 1q19 -1 32 -14t13 -32q0 -38 -65 -85z" />
<glyph unicode="&#x3c;" />
<glyph unicode="=" horiz-adv-x="476" d="M408 287h-319q-22 5 -39 21.5t-17 37.5q0 17 18 40q16 27 43 27h64l251 -1q11 -3 35 -39q3 -6 3 -22q0 -19 -15 -43q-10 -21 -24 -21zM408 412zM400 93h-320q-21 5 -38 21.5t-17 37.5q0 17 18 40q16 27 43 27h64l251 -1q11 -3 35 -39q3 -6 3 -22q0 -19 -15 -43 q-10 -21 -24 -21zM400 218z" />
<glyph unicode="&#x3e;" />
<glyph unicode="?" horiz-adv-x="660" d="M329 817q61 0 117 -42q81 -29 131 -114q47 -80 47 -171q0 -82 -53 -130q-35 -31 -129 -70q-23 -9 -30 -38q-7 -27 8 -63h-145q-16 0 -27 32q-10 28 -8 46q8 68 69 90q68 25 110 87q30 45 30 93q0 31 -13 64q-43 109 -118 109q-29 0 -54 -17q-58 -39 -58 -114 q0 -34 12 -76h-115q-14 0 -23 23q-18 46 -18 89q0 48 22 91q35 69 103 79q64 32 142 32zM422 22q-9 -20 -31 -21q-31 -2 -63 0q-38 2 -55 46q-12 31 -6 58t36 28q47 2 63 1q38 -2 54.5 -39.5t1.5 -72.5z" />
<glyph unicode="@" horiz-adv-x="766" d="M739 266q-7 115 -76 186q-36 38 -112 73q-43 20 -106 20q-15 0 -46 -1.5t-46 -1.5q-48 0 -111.5 -28.5t-95.5 -63.5q-65 -71 -86 -113q-27 -53 -35 -137q-3 -28 5 -70q50 -270 322 -270q21 0 47 1q19 -9 54 -16q36 2 60.5 22.5t18.5 55.5q-11 61 -84 61q-15 0 -33 -5 l-35 -10q-90 1 -151 39q-70 44 -85 128q-5 26 -3 44q16 174 175 240q53 22 83 22q69 0 94 -6q46 -11 90 -52q32 -30 45 -104q7 -39 -1 -65q-9 -47 -55 -88q-6 -8 -16 -8q-9 0 -9 7l19 200q1 5 0 9q-14 53 -50 53q-43 0 -60 -20q-51 23 -69 23q-31 0 -74 -20t-64 -43 q-56 -63 -56 -140q0 -104 61 -145q40 -27 121 -24q33 1 75 26q33 -45 98 -45q24 0 56 12.5t51 27.5q32 26 58 79q12 25 20 71t6 76zM435 255q0 -1 1 -5q3 -16 -7 -94q-49 -28 -68 -28q-45 0 -51 40q-2 15 -1 31q2 25 10 37l28 28q9 9 38 9q37 0 50 -18z" />
<glyph unicode="A" horiz-adv-x="833" d="M189 173q77 161 200 400q49 96 95 134q15 13 145 86q19 11 38 23q23 12 42 12v-15q-45 -34 -60 -80q-11 -34 -11 -102q0 -197 101 -418q5 -11 47 -68q34 -46 34 -66q0 -46 -48 -69q-37 -18 -89 -18q-63 0 -107 100q-10 24 -47 151q-11 -6 -103 -37q-86 -29 -87 -33 l-50 -150q-6 -10 -20 -20l-230 -160q-17 -12 -32 -12q0 22 30 58q37 45 42 54q54 103 100 200q7 15 10 30zM459 493q-7 -3 -39 -84t-32 -96h111q2 0 6 8.5t4 11.5q0 14 -22 85.5t-28 74.5z" />
<glyph unicode="B" horiz-adv-x="690" d="M150 561l-10 10q-9 9 -21 -6q-25 -31 -32 -37q-27 -22 -67 -22v15q0 14 60 110q18 29 65 37l75 13q68 27 140 70h14q0 -26 -24 -50q74 3 130 0q141 -8 141 -90q0 -50 -91 -150v-10q131 -82 131 -205q0 -105 -98 -187q-94 -79 -201 -79q-26 0 -76.5 11t-76.5 11 q-14 0 -45 -17.5t-46 -17.5q0 12 2 14l10 20q20 67 20 80v480zM309 230q0 -139 106 -139q48 0 83 21q42 25 42 69q0 66 -69 123t-136 57h-5q-21 -64 -21 -131zM309 521q0 -91 26 -91q33 0 74.5 35.5t41.5 68.5q0 42 -33 66q-29 21 -73 21q-36 0 -36 -100z" />
<glyph unicode="C" horiz-adv-x="567" d="M27 321q0 156 114 286q119 134 273 134q61 0 88 -27.5t27 -88.5q0 -74 -51 -147q-35 -51 -110 -118q-8 -7 -21 -9l-13 -3q0 21 22.5 69t22.5 73q0 47 -19 80q-23 40 -67 40q-56 0 -85 -95q-21 -68 -21 -136q0 -73 27 -133q35 -77 100 -77q51 0 115 58q20 18 89 93h20v-20 q0 -7 -100 -190q-61 -111 -168 -111q-123 0 -188 104q-55 87 -55 218z" />
<glyph unicode="D" horiz-adv-x="808" d="M193 362q0 112 -11 188q-1 0 -2 1h-3q-27 0 -84.5 -72t-71.5 -72q0 41 18 84q10 21 33 79l20 60q8 19 152.5 86.5t173.5 67.5q0 -15 -20 -40t-20 -48q168 0 279 -77q126 -88 126 -249q0 -155 -118 -263t-274 -108q-26 0 -77.5 6t-77.5 6q-13 0 -37.5 -7t-37.5 -7 q0 23 9 62q10 45 12 61q11 102 11 242zM381 601q-29 0 -29 -11v-420q0 -23 51 -39q39 -12 69 -12q160 0 160 186q0 105 -72 197q-77 99 -179 99z" />
<glyph unicode="E" horiz-adv-x="714" d="M179 4q-18 0 -52.5 -6.5t-52.5 -6.5q0 19 13 47q19 40 20 45q20 68 21 218l1 132q1 73 -22 130q-5 13 -23 13q-6 0 -19 -2t-19 -2q-20 0 -20 21q0 41 130 116q123 71 164 71q0 -23 -6 -37l-17 -40v-10q3 -7 10 -10h50q2 0 34 -1h16q48 0 145 6.5t145 6.5v-12 q0 -4 -20.5 -24t-29.5 -26q-63 -47 -120 -80h-30q-10 0 -20 -1h-10q-28 0 -85 4.5t-85 4.5v-147q23 0 66.5 9t63.5 10q68 3 206 3q0 -32 -78 -69q-68 -32 -108 -34q-92 -4 -150 -10q2 -33 2 -68q0 -34 -2 -72l-10 -30q2 6 2 -20q66 0 197 11t197 11q0 -36 -121 -110 q-117 -72 -160 -72q-38 0 -111.5 15.5t-111.5 15.5z" />
<glyph unicode="F" horiz-adv-x="635" d="M130 279q0 199 -11 304q-3 11 -24 11q-12 0 -34.5 -6t-34.5 -6q0 51 128 125q121 70 176 70q0 -42 -21 -74q99 -11 213 -11q27 0 79.5 11t79.5 11q0 -28 -18 -47q-8 -8 -44 -34q-84 -60 -90 -60h-230v-169q3 0 10 -1h10q-6 0 80 5l86 5q65 4 65 -31t-59 -64 q-52 -26 -91 -26q-15 0 -43.5 5.5t-43.5 5.5q-14 0 -14 -34v-16l20 -156q0 -39 -97 -93q-42 -23 -133 -71h-12q0 19 13 46q16 33 19 44q17 57 20 127q1 22 1 129z" />
<glyph unicode="G" horiz-adv-x="654" d="M379 17v8q-1 6 -1 7q-45 -50 -71 -67q-37 -24 -89 -24q-98 0 -150 97q-41 77 -41 187q0 184 109 329q119 158 297 158q48 0 84 -23q42 -26 42 -72q0 -41 -34 -95q-4 -7 -57 -80q-15 -12 -36 -12q0 153 -108 153q-89 0 -124 -81q-23 -54 -23 -158q0 -71 20 -147 q28 -106 79 -106q41 0 72 35t31 77q0 50 -61 50q-18 0 -51 -16.5t-51 -16.5q0 107 96 148q64 28 187 28q22 0 65.5 -1.5t65.5 -1.5q0 -22 -28 -66q-30 -47 -34 -65q-15 -67 -20 -230q-26 -31 -95 -86q-83 -66 -117 -66q0 24 21.5 68.5t21.5 68.5z" />
<glyph unicode="H" horiz-adv-x="636" d="M93 373q0 89 -1 105q-3 48 -20 102q-9 14 -20 30l-1 11q0 22 211 90q21 0 21 -16q0 -5 -10 -18t-11 -17q-11 -141 -11 -202q0 -4 1 -28l10 -10h15q6 0 13 -1h8q63 0 77 6q28 12 28 60q0 27 -11 80.5t-11 80.5q0 31 94 70q85 35 129 35q0 -34 -16 -100.5t-16 -100.5v-490 l-20 -20l-140 -60q-62 -34 -82 -34q0 21 17 52q21 39 25 52q30 107 30 246q0 14 -28 14h-22q-70 0 -90 -10l-15 -10v-270l-85 -50q-31 -21 -63 -41q-38 -23 -70 -23q0 27 19 77q21 55 24 77q18 129 20 200q1 34 1 113z" />
<glyph unicode="I" horiz-adv-x="277" d="M255 729q0 -2 -1 -5t-1 -5l-10 -20q-7 -13 -20 -50v-470q10 -47 10 -70v-6q0 -24 -92 -90t-121 -66q0 29 21.5 85.5t21.5 86.5v500q11 10 40 30q101 69 120 80h32z" />
<glyph unicode="J" horiz-adv-x="585" d="M4 -190q0 30 50.5 78t80.5 48q11 0 42.5 -15.5t47.5 -15.5q47 0 79 62q22 43 31 98q17 105 20 180q1 25 1 115q0 17 2.5 49.5t2.5 49.5q0 99 -66 106v5q0 37 113 105q108 65 151 65q0 -18 -14 -43q-17 -31 -20 -42q-10 -38 -10 -50v-39q0 3 -1 -35v-22q0 -52 6 -156 t6 -156q0 -161 -144 -285q-139 -119 -302 -119q-52 0 -66 3q-6 2 -9 9q0 2 -1 5z" />
<glyph unicode="K" horiz-adv-x="705" d="M81 378q0 42 -11 125.5t-11 125.5q0 46 84 89q75 38 128 38q0 -30 -11 -89t-11 -89q0 -123 11 -166q97 87 190 180q69 69 100 84q42 20 142 20q0 -20 -49 -53q-16 -10 -63 -41q-97 -91 -180 -180v-5q0 -40 50 -127q40 -67 80 -118l120 -150q11 -14 11 -30t-11 -20h-5 q-6 -1 -12 -1h-18q-161 0 -295 201l-60 90q-3 7 -10 10v-240q0 -35 -88 -85q-84 -47 -124 -47q0 34 14 91q16 64 18 91q10 120 10 160l1 20v39v77z" />
<glyph unicode="L" horiz-adv-x="588" d="M152 0q-20 0 -58.5 -12t-58.5 -12q0 24 14 67q16 51 19 66q11 64 11 245v78l-1 77q0 22 -20 64.5t-20 60.5v5q73 52 109 71q66 35 122 35q0 -38 -15 -108q-15 -73 -16 -108q-4 -158 0 -370l-30 -50h10q14 0 42.5 5.5t42.5 5.5q34 0 102.5 -11t102.5 -11q12 0 36 6t36 6 l-2 -11q-19 -58 -80 -95q-56 -35 -120 -35q-38 0 -113 15.5t-113 15.5z" />
<glyph unicode="M" horiz-adv-x="870" d="M116 303q0 148 -1 164t-21 62.5t-20 53.5q0 22 107 71q101 46 132 46q0 -146 112 -342q8 -14 20 -20q8 19 29 51q26 39 31 49q23 43 70 130q16 29 123 64q98 32 143 32q0 -21 -21 -36q-29 -21 -35 -30q-30 -46 -30 -174q0 -53 10.5 -158t10.5 -158q0 -41 -3 -59 q-6 -36 -28 -51q-82 -58 -102 -70q-69 -41 -113 -41q0 17 12 31q18 21 23 30q31 58 31 166q0 122 -11 254q-5 -8 -71 -180q-58 -151 -74 -151q-45 0 -145 161q-28 44 -50 90h-9q0 -45 9.5 -135.5t9.5 -135.5q0 -8 -101.5 -76t-120.5 -68q0 26 32 81q36 61 40 84 q11 60 11 265z" />
<glyph unicode="N" horiz-adv-x="679" d="M117 398q0 109 -11 138l-40 60q-1 7 -1 10q0 29 94 58q75 23 107 23h10q9 -1 10 -1q30 -155 160 -350q7 -13 20 -20q11 52 11 152q0 23 -11 69t-11 69q0 30 80 59q69 25 112 25q0 -18 -8 -38q-11 -29 -13 -36q-11 -49 -11 -166q0 -54 6 -162.5t6 -162.5q0 -45 -48 -87.5 t-93 -42.5q-23 0 -51 21q-24 17 -39 40l-160 235v-225q-36 -30 -80 -60q-14 -10 -90 -60q-18 -12 -32 -12q0 22 23 70q25 54 29 72q31 156 31 322z" />
<glyph unicode="O" horiz-adv-x="656" d="M33 199q0 1 -1 48l-1 47q-3 160 97 289q106 136 270 136q113 0 175 -113q50 -91 50 -212q0 -159 -79 -283q-91 -143 -241 -143q-95 0 -174 68.5t-96 162.5zM333 129q10 -1 35 -11q22 -10 35 -10q17 0 40 11q51 82 51 164q0 103 -37 179q-48 98 -140 98q-34 0 -47 -31 q-2 -10 -16 -62q-10 -38 -31 -48q-8 3 -10 10q-10 29 -10 60q-21 -30 -21 -108q0 -128 151 -252z" />
<glyph unicode="P" horiz-adv-x="756" d="M199 491q-36 0 -72 -38l-57 -73q-29 -37 -51 -37q0 16 4 32l20 81q11 46 40 79q41 47 168 122q134 79 184 79q0 -8 -6 -23.5t-6 -22.5v-5q56 11 121 11q71 0 122 -27q60 -31 77 -94v-9q1 -11 1 -21v-30q0 -173 -187 -303q-91 -63 -179 -77v-160q-43 -53 -113 -114 q-89 -78 -134 -78q0 16 18 42q21 31 24 40q28 86 30 220l-2 203zM383 575v-280q0 -15 30 -24q23 -7 44 -7q127 0 127 166q0 176 -163 176q-7 0 -28 -1z" />
<glyph unicode="Q" horiz-adv-x="706" d="M622 -160q-134 69 -220 110q-30 14 -44 17.5t-46 3.5q-22 0 -62.5 -17.5t-60.5 -17.5q0 12 11.5 32t11.5 32q0 11 -25 23l-35 17q-68 62 -94.5 118.5t-26.5 146.5q0 163 97 293q106 143 264 143q125 0 185 -124q46 -95 46 -232q0 -69 -34.5 -143t-86.5 -122 q67 -46 158 -106q180 -118 344 -118q0 -31 -101 -57q-78 -20 -114 -20q-86 0 -167 21zM302 170q35 3 90 0q8 0 24.5 -5t25.5 -5q27 0 46 65q15 51 15 84q0 125 -63 200q-67 81 -189 81q-37 0 -61 -76q-19 -60 -19 -104q0 -74 37 -134q28 -46 94 -106z" />
<glyph unicode="R" horiz-adv-x="798" d="M49 -104q112 109 142 293q15 92 15 335q-38 0 -75 -39q-9 -10 -56 -73q-29 -39 -49 -39q0 115 53 184q27 35 165.5 113.5t177.5 78.5q0 -13 -10.5 -36t-10.5 -36q21 0 61.5 10t61.5 10q63 0 104.5 -39t41.5 -102q0 -68 -42 -117q-21 -24 -99 -83q-8 -6 -10 -10l30 -60 l230 -310v-32q-177 0 -340 212q-8 12 -30 43.5t-40 46.5l-15 -10v-160q0 -29 -142 -113q-136 -81 -163 -81v14zM398 607q-29 0 -29 -51v-222q56 0 91 59q30 50 30 110q0 40 -26.5 72t-65.5 32z" />
<glyph unicode="S" horiz-adv-x="617" d="M26 118q0 33 13 66q9 34 19 68q13 40 38 40h23q12 -85 96 -150q81 -64 168 -64q43 0 43 35q0 28 -46 66l-3 4q-3 2 -5 3l1 -1q-46 19 -204 107q-97 54 -97 139q0 100 126 189q116 82 222 82q67 0 107 -40t40 -107q0 -49 -65.5 -113t-115.5 -64q0 15 6.5 45.5t6.5 45.5v8 q-1 6 -1 11v19q-50 60 -104 60q-75 0 -75 -65q0 -41 53 -79q37 -26 126 -68q85 -41 125 -71q62 -47 62 -99v-6q-34 -93 -96 -154q-73 -72 -162 -72q-82 0 -182 42q-119 50 -119 123z" />
<glyph unicode="T" horiz-adv-x="672" d="M239 328q0 108 -10 243v-1q-5 17 -29 17h-4q-31 0 -93 -11t-93 -11q0 87 77 112q58 10 145 27q26 5 96 43q91 49 160 49q0 -18 -17 -39t-17 -28q0 -23 17 -25l138 -19q19 -3 38 -36q16 -31 16 -53q0 -21 -10 -27q-6 -4 -30 -4h-4q-32 0 -96 11t-96 11h-5q-17 0 -17 -9 q0 -3 1 -6q-8 -59 -10 -139q-1 -41 -1 -173q0 -148 1 -174q-9 -46 -83 -82q-65 -32 -115 -32q0 24 12 62v-1q29 87 29 295z" />
<glyph unicode="U" horiz-adv-x="663" d="M416 55v13q-1 10 -1 12q-119 -141 -222 -141q-113 0 -118 201q-4 160 0 360q-3 12 -22.5 31.5t-19.5 33.5q0 39 120 99q114 57 164 57q0 -27 -18 -75q-21 -55 -24 -76q-21 -153 -21 -262q0 -63 9 -121q14 -89 42 -89q8 0 10 2q101 126 101 345v28q0 9 -1 18v9l-18 24 q-13 17 -13 27q0 24 107 83q103 58 136 58q0 -54 -16.5 -161.5t-16.5 -161.5q0 -37 6 -109.5t6 -109.5v-25q0 -9 -1 -17v-8q-22 -31 -91 -101q-78 -79 -99 -79h-21q0 23 11 67.5t11 67.5z" />
<glyph unicode="V" horiz-adv-x="630" d="M22 548q0 41 100 108q97 65 143 65q0 -16 -11 -46.5t-11 -46.5q0 -105 110 -350l59 123q33 66 67 131q86 166 189 166h5q11 -5 11 -15v-2q-1 -2 -1 -3q-179 -333 -260 -610q-34 -39 -107 -102q-81 -70 -101 -70q0 238 -122 522q-5 12 -42 63q-29 40 -29 67z" />
<glyph unicode="W" horiz-adv-x="847" d="M35 535v15q0 72 64 126t137 54q0 -14 -6 -42t-6 -42q0 -98 61 -261q51 31 80 210q30 38 79 68q55 34 97 34q0 -224 54 -302q18 14 34 42q8 16 26 48q42 73 60 99q39 58 77 84q46 31 108 31q0 -23 -35 -64q-48 -68 -60 -90q-65 -117 -100 -240q-7 -29 -40 -159 q-17 -42 -120 -121q-42 -32 -60 -40l-10 -1l-10 1q-3 80 -24 183l-36 177q-1 0 -2 1h-3q-10 0 -15 -11q-6 -35 -22 -125q-29 -150 -128 -205q-44 -25 -60 -30l-10 -1l-10 1q-53 347 -120 560z" />
<glyph unicode="X" horiz-adv-x="823" d="M308 348v8q-1 6 -1 7q-34 37 -70 70l-44 26q-26 19 -26 39q0 42 95 106q90 60 130 60h8q6 -1 7 -1q13 -91 40 -150q3 -6 10 -10q2 0 5 -1q18 0 76 53q79 72 121 100q80 53 154 53q0 -25 -42 -51l-54 -34q-22 -20 -114 -110q-96 -94 -96 -100v-30q26 -40 80 -120 q10 -15 32 -28t39 -13q19 0 49.5 52t51.5 52q0 -20 -12 -47q-6 -13 -20 -46q-17 -45 -56 -144q-48 -88 -116 -88q-47 0 -103 92q-14 23 -65 130q-30 -20 -50 -81q-23 -69 -40 -89q-51 -60 -127 -121q-101 -81 -153 -81v12q0 9 31 73q27 56 39 77q49 87 130 200q19 24 70 90 q21 27 21 45z" />
<glyph unicode="Y" horiz-adv-x="720" d="M196 131q0 2 -1 56l-1 54q-48 158 -100 220q-3 3 -40 31q-32 24 -32 33q0 29 104.5 105t138.5 76q0 -17 -6 -50t-6 -50v-40q1 -10 11 -35q47 -118 50 -120l20 -20q87 150 151 216q105 107 229 107v-13q-333 -277 -330 -660q-20 -66 -98 -112l-132 -78h-23q0 16 18 41 q22 30 25 39q17 51 21 98q1 12 1 102z" />
<glyph unicode="Z" horiz-adv-x="833" d="M525 555h-5q-10 0 -30 -5.5t-30 -5.5q-18 0 -52.5 10.5t-52.5 10.5h-10q-57 -13 -110 -30q-15 -9 -37 -61q-19 -45 -46 -45q0 98 59.5 177t153.5 99q121 -3 280 0q20 0 60 11t61 11q0 -71 -106 -173q-12 -11 -165 -139l-150 -125q-73 -61 -140 -135h10q64 28 80 32 q33 9 86 9q45 0 135.5 -5.5t135.5 -5.5q28 0 84.5 21t78.5 21v-22q-39 -41 -80 -80q-78 -74 -110 -96q-66 -45 -133 -45q-51 0 -149 25.5t-148 25.5q-31 0 -93.5 -31t-78.5 -31q0 115 101 231q56 65 202 174q141 106 199 177z" />
<glyph unicode="[" />
<glyph unicode="\" horiz-adv-x="570" d="M6 772l423 -772l135 24l-431 776z" />
<glyph unicode="]" />
<glyph unicode="^" />
<glyph unicode="_" />
<glyph unicode="`" horiz-adv-x="321" d="M214 725v6q1 7 1 14v20q4 5 19 13q12 6 12 17q0 -2 -1 10l-78 55q-56 36 -93 36q-19 0 -19 -26q0 -92 120 -225q54 -60 60 -60h23q0 21 -22 68.5t-22 71.5z" />
<glyph unicode="a" horiz-adv-x="579" d="M32 175q0 103 53.5 185.5t147.5 124.5q40 18 109 21q84 4 111 9l60 20q3 0 6 1h6q0 -19 -21 -42q-27 -29 -31 -39q-18 -38 -20 -58q-1 -8 -1 -58v-61q0 -54 26 -54q2 0 5 1l50 40q3 1 17 3q0 -62 -43 -156q-50 -109 -104 -109q-14 0 -20 2q-74 51 -110 160 q-27 -53 -57 -103q-40 -68 -93 -68q-91 0 -91 181zM172 254q0 -61 35 -61q30 0 65 80q32 73 32 114q-81 0 -106.5 -26t-25.5 -107z" />
<glyph unicode="b" horiz-adv-x="541" d="M76 339q0 49 -13 145t-13 145q0 45 90 108q85 60 132 60q0 -31 -20.5 -87.5t-21.5 -85.5q-2 -38 3 -95q6 -71 6 -96q19 0 76.5 29.5t84.5 29.5q126 0 126 -153q0 -133 -85 -233q-90 -105 -221 -105q-12 0 -35.5 5.5t-35.5 5.5q-20 0 -58 -16.5t-58 -16.5q0 22 12 65 q10 34 20 67q11 68 11 228zM310 362q-23 0 -49 -19.5t-26 -41.5v-170q12 -6 30 -10h10q53 0 84 48q27 41 27 97q0 39 -18 65q-21 31 -58 31z" />
<glyph unicode="c" horiz-adv-x="455" d="M27 186q0 120 89 233q95 120 213 120q41 0 70 -23t29 -63v-5q-20 -61 -80 -140q-53 -70 -60 -70h-22q0 17 11 50t11 50q0 29 -18.5 50t-46.5 21q-42 0 -57 -39q-9 -24 -9 -75q0 -61 32 -96q26 -28 89 -51l15 -1q2 0 15 1l70 30q4 1 6 1q15 0 15 -31q0 -49 -79 -107 q-75 -54 -127 -54q-54 0 -65 11l-80 80q-21 21 -21 108z" />
<glyph unicode="d" horiz-adv-x="621" d="M12 197q0 239 321 323q15 4 15 10v140q0 36 103 83q92 42 132 42v-15q-93 -65 -93 -271q0 -19 1 -55.5t1 -55.5q0 -76 1 -98q5 -111 40 -111q9 0 25.5 6.5t25.5 6.5q0 -72 -39 -133q-44 -70 -112 -70q-36 0 -55 27q-8 11 -28 56q-16 36 -37 48q-21 -16 -51 -54.5 t-47 -51.5q-31 -25 -67 -25q-60 0 -101 71q-35 61 -35 127zM172 295q0 -146 51 -155q38 -6 72 100q29 90 29 132q0 21 -10 26q-6 3 -30 3q-90 0 -111 -51v-27q0 -9 -1 -19v-9z" />
<glyph unicode="e" horiz-adv-x="479" d="M28 187q0 125 95.5 219.5t220.5 94.5q47 0 66.5 -18t19.5 -64q0 -66 -75 -122q-63 -38 -126 -77l-10 -10q0 -2 -1 -5q0 -16 23 -34q19 -15 38 -21h5q30 0 92 46.5t75 46.5q0 -85 -88 -164.5t-174 -79.5q-75 0 -120 58q-41 53 -41 130zM209 380q-36 -49 -36 -103 q20 0 48.5 30.5t28.5 51.5q0 22 -26 22h-7q-7 -1 -8 -1z" />
<glyph unicode="f" horiz-adv-x="472" d="M457 300q-38 0 -151 9v-5q-6 0 -35 -1l-10 -10v-130h-4q0 -65 1 -79q-9 -46 -83 -82q-65 -32 -115 -32q0 24 12 62v-1q25 75 28 254q-45 30 -109 58v23q29 0 60 7q5 1 15 8.5t10 11.5v290q0 4 18 32q12 20 27 38q27 28 46 35.5t59 7.5q79 0 144 -88q59 -80 59 -165h-28 l-100 100q-4 4 -20 4q-35 0 -35 -78q0 7 2 -35l1 -21q0 -28 2 -60l10 -10q5 1 38 -1v1h3q2 -1 2.5 -1t1.5 -1h5v-2q35 -15 87 -60q59 -51 59 -79z" />
<glyph unicode="g" horiz-adv-x="581" d="M10 -202q0 12 2 15q43 73 130 150l10 1q8 0 22 -26q21 -39 31 -50q24 -26 62 -26q51 0 76 58q19 43 19 102q0 61 -10 131q-1 0 -2 1h-3q-17 0 -46 -39q-51 -67 -56 -73q-36 -39 -68 -39q-126 0 -126 170q0 112 62 203q64 95 169 127q45 -1 95 -1q51 0 105 1l60 10 q-2 0 12 1q0 -36 -22 -51q-21 -61 -21 -141q0 -39 6 -117.5t6 -117.5q0 -107 -11 -154q-4 -16 -14 -24l-26 -16q-84 -69 -152 -101q-86 -40 -178 -40q-59 0 -77 3q-55 9 -55 43zM181 273q0 -34 10 -62q14 -39 41 -39q28 0 71 79q40 73 40 102q0 -2 -1 10l-5 3q-30 18 -59 18 q-97 0 -97 -111z" />
<glyph unicode="h" horiz-adv-x="572" d="M82 635q-13 33 -20 70l-1 12q0 2 1 8l180 80h32q0 -53 -11.5 -157.5t-11.5 -157.5v-16q1 -29 1 -27v-32l10 -10q57 44 94 61q51 24 108 24q0 -25 -11.5 -72.5t-11.5 -72.5q0 -54 21 -120q5 -16 20 -20q12 5 20 10q10 9 31 25q10 8 30 8q0 -88 -34 -157q-43 -88 -122 -88 q-6 0 -17.5 1t-17.5 1q-57 42 -77 140q-11 54 -13 160q-30 -36 -30 -106v-114q-9 -69 -77.5 -120t-139.5 -51q0 36 23.5 105.5t23.5 105.5v510z" />
<glyph unicode="i" horiz-adv-x="396" d="M91 318q-13 0 -38.5 -10.5t-38.5 -10.5q0 63 106 131q98 63 163 63q0 -21 -32 -91v-37q0 -1 -1 -26v-12q0 -62 1 -75q3 -40 10 -40h20l110 70q2 1 5 1q16 0 16 -47q0 -58 -94.5 -146.5t-153.5 -88.5q-73 0 -73 81v238zM162 640v20q0 7 -1 14v6q-2 3 -19 13q-12 7 -12 17 q0 -2 1 10l78 55q56 36 93 36q19 0 19 -26q0 -92 -120 -225q-54 -60 -60 -60h-23q0 21 22 68.5t22 71.5z" />
<glyph unicode="j" horiz-adv-x="437" d="M144 -58q-2 -37 9 -85q14 -64 37 -64h3q1 1 2 1q16 54 20 124q2 34 2 127q0 89 -2 99l-9 106q-2 24 -27 74.5t-25 49.5q0 32 95 83q91 49 129 49q0 -19 -7.5 -56t-7.5 -56q0 -36 2 -40v-84q0 -34 5.5 -101.5t5.5 -101.5q0 -283 -181 -383q-58 -32 -86 -32q-95 0 -95 243 q0 118 41 159l98 98q-3 -83 -9 -210zM235 594q0 18 -15.5 38t-15.5 27q0 1 1 3v2q62 43 86 56q55 30 97 30q0 -114 -93 -216q-64 -70 -70 -70h-32q0 21 21 64t21 66z" />
<glyph unicode="k" horiz-adv-x="558" d="M91 407q0 31 -21 200q-1 12 -11 39t-10 42q0 22 98 68q93 44 125 44q0 -15 -2 -23q-31 -126 -31 -220v-8q1 -9 1 -17v-25q3 -7 10 -10q2 0 5 -1l62 46q62 46 105 46q79 0 79 -49q0 -38 -29 -75q-17 -22 -54 -54q-29 -25 -29 -32q0 -24 18 -65q21 -47 44 -47q14 0 44 24 t48 24q0 -73 -39 -154q-45 -94 -109 -94q-83 0 -155 171v-120q-8 -14 -20 -30q-3 -7 -10 -10q-111 -85 -160 -120h-22q0 21 19.5 75t22.5 75q21 137 21 300zM250 417q-7 -20 -10 -40v-7q-1 -6 -1 -7q22 0 59 26.5t32 47.5q-1 5 -8.5 12.5t-11.5 7.5q-7 0 -33 -20z" />
<glyph unicode="l" horiz-adv-x="408" d="M24 336q0 137 75 258q73 118 195 186q3 0 10 1t10 1q32 0 48 -40q12 -29 12 -67q0 -101 -54 -193q-33 -56 -126 -162v-15q0 -37 10 -74q14 -52 40 -52q17 0 30 11q45 39 80 80h19q0 -95 -49 -176q-57 -95 -150 -95q-82 0 -123 142q-27 94 -27 195zM219 622q-10 0 -23 -71 q-15 -82 -15 -161h13q13 0 28 64q13 56 13 78q0 63 -11 88q-2 2 -5 2z" />
<glyph unicode="m" horiz-adv-x="906" d="M82 258q0 37 -1 45q-1 12 -11 37.5t-10 34.5q0 27 95 85.5t128 58.5q0 -23 -11 -67t-11 -67v-10q28 7 77 57q43 44 82 44q35 0 54 -27q13 -18 27 -64h10q137 122 262 122q0 -22 -16.5 -67.5t-16.5 -68.5q0 -35 8 -91q11 -76 28 -76q2 0 5 1q12 7 42 24q36 20 59 20 q0 -72 -52 -154q-58 -91 -124 -91q-80 0 -114 105q-22 68 -22 171q0 23 1 45q-12 -15 -20 -40q-31 -97 -50 -190q-26 -50 -80.5 -80.5t-112.5 -30.5q0 35 22 109.5t22 112.5q0 51 -1 61q-3 30 -20 58q-2 2 -10 2q-30 0 -57 -122q-20 -90 -23 -150q-6 -11 -20 -20 q-24 -15 -75.5 -47t-94.5 -43q-3 0 -6 -1h-7q0 20 13 46q17 35 20 45q10 39 10 50l1 16v32v125z" />
<glyph unicode="n" horiz-adv-x="599" d="M107 191q0 2 -1 20q-13 70 -30 140q-2 6 -22 12.5t-20 17.5q0 20 91 65q88 45 116 45h5q14 -5 20 -10v-90h10q38 32 92 62q68 38 103 38h5q11 -5 11 -15q0 -19 -20.5 -61t-20.5 -64q0 -60 2 -73q9 -58 43 -58q29 0 33 37l6 62q9 43 31 43h3q1 -1 2 -1q11 -41 11 -106 q0 -79 -47 -157q-54 -89 -126 -89q-71 0 -99 106q-10 38 -19 156q-18 -7 -25 -95q-1 -15 -5 -105q-9 -40 -92 -93q-79 -51 -123 -51q0 19 16.5 46t18.5 38l20 130l10 30z" />
<glyph unicode="o" horiz-adv-x="529" d="M30 214q0 125 77 222q82 105 204 105q99 0 148 -70q43 -61 43 -163q0 -111 -67 -205q-74 -104 -184 -104q-82 0 -151.5 67t-69.5 148zM169 297q0 -84 112 -177h13q10 -1 12 -1q35 0 52 37q13 28 13 68q0 69 -22 123q-31 75 -89 75q-25 0 -38 -36q-4 -19 -14 -57 q-9 -32 -39 -32z" />
<glyph unicode="p" horiz-adv-x="549" d="M79 200v65q0 2 -1 44v21q-21 31 -21 50q0 29 96 78q91 46 128 46q0 -12 -10 -32q-11 -23 -13 -32h3q1 -1 2 -1q-34 0 43.5 30.5t96.5 30.5q68 0 106 -69q30 -55 30 -127q0 -119 -72 -208q-78 -96 -194 -96h-5q-17 3 -30 10q-11 -48 -29 -124q-15 -61 -71 -106 q-75 -60 -90 -60h-13q0 45 13 116q18 100 20 114q11 94 11 250zM298 351q-21 0 -39 -10q-21 -12 -21 -31v-140q0 -32 37 -57q34 -23 68 -23q26 0 43 51q12 36 12 69q0 50 -25 92q-28 49 -75 49z" />
<glyph unicode="q" horiz-adv-x="588" d="M296 62v25q0 9 -1 17v8q-21 -25 -61 -71q-35 -40 -79 -40q-61 0 -99 72q-32 60 -32 127q0 99 70 191q76 100 171 101h190l80 20q2 0 5 1h5v-11q-65 -61 -80 -150q4 -119 0 -230q-2 -61 -20 -108q-11 -29 -50 -102v-9q47 0 141.5 6.5t141.5 6.5q0 -22 -96 -85 q-87 -57 -117 -69q-134 6 -190 -10q-12 -3 -39 -28t-43 -25q0 25 25 63q33 49 37 60q41 97 41 240zM153 287q0 -116 47 -116q27 0 68 78q38 73 38 108v8q-1 6 -1 7q-30 7 -60 10h-5q-64 0 -85 -40q0 -9 -1 -27.5t-1 -27.5z" />
<glyph unicode="r" horiz-adv-x="438" d="M36 15v5l10 30q2 7 10 40v290q-7 20 -10 40v20q55 33 120 70q60 34 80 34v-53h10q9 -1 10 -1l90 10q57 -12 80 -20v-20q-102 -9 -190 -120l-10 -30q-10 -15 -15 -20v-190l-155 -100l-10 -1q-20 0 -20 16z" />
<glyph unicode="s" horiz-adv-x="427" d="M385 174q0 62 -71 106q-92 58 -84 107q4 23 33 48q34 24 43 31q21 18 24 34q5 28 -38 28q-71 0 -153 -55q-89 -60 -89 -128q0 -48 58 -87q70 -47 70 -100q0 -61 -74 -102q-45 -25 -50 -48q-6 -30 58 -30q90 0 175 52q98 59 98 144z" />
<glyph unicode="t" horiz-adv-x="573" d="M21 427v23q97 43 150 90l100 90h20v-130l10 -10q29 -1 36 -1q38 0 113 6.5t113 6.5q0 -30 -65 -85q-57 -48 -87 -57q-15 -4 -60 -8t-60 -2l-10 -10q-2 -6 -2 -60q0 -9 -1.5 -28t-1.5 -28q0 -78 35 -78q16 0 20 4l100 100h28q0 -85 -59 -165q-65 -88 -144 -88 q-40 0 -58.5 7.5t-46.5 35.5q-8 8 -26.5 36t-18.5 34v290q0 4 -10 11.5t-15 8.5q-32 7 -60 7z" />
<glyph unicode="u" horiz-adv-x="617" d="M267 102q-8 0 -10 -2q-45 -45 -62 -58q-43 -33 -79 -33q-34 0 -59 48q-21 41 -21 77q0 35 20 102t20 102q-7 0 -20.5 -5t-20.5 -5q0 52 81 94q27 14 121 48h10q11 -5 11 -15q0 -3 -1 -5q-41 -97 -41 -166q0 -59 11 -84q50 28 50 180q35 47 95.5 81t116.5 34 q0 -31 -21.5 -99.5t-21.5 -102.5q0 -94 36 -94q16 0 52.5 31.5t54.5 31.5q0 -75 -53 -164q-59 -99 -129 -99q-33 0 -63 27q-13 12 -44 49q-22 27 -33 27z" />
<glyph unicode="v" horiz-adv-x="595" d="M91 351q-13 0 -38 -16.5t-37 -16.5v52q0 15 91 91q95 80 125 80q24 0 51 -106q29 -113 53 -125q30 24 80 103q56 88 85 120q53 58 110 58q46 0 46 -16v-2q-1 -2 -1 -3q-84 -90 -140 -170q-24 -34 -59 -157q-30 -104 -81 -143q-130 -100 -140 -100h-20q0 54 -10.5 91 t-39.5 139q-33 121 -75 121z" />
<glyph unicode="w" horiz-adv-x="777" d="M380 248q-16 -6 -26 -55q-12 -63 -14 -65q-10 -21 -67.5 -65.5t-77.5 -44.5h-5q-15 95 -29 171q-22 123 -51 139q-13 7 -47 9q-30 1 -41 12q-17 16 -17 66q22 0 34 -14t16 -14q26 0 86 66t90 66q19 0 29 -21l60 -130q2 0 4 -1q10 0 52.5 61t68.5 61h3q1 -1 2 -1 q62 -55 100 -140l10 -2q12 0 20 22q63 96 100 150q23 33 106 33q0 -30 -30 -73q-41 -59 -46 -70q-41 -92 -70 -250q-25 -32 -88.5 -81t-91.5 -79h-20q-10 178 -60 250z" />
<glyph unicode="x" horiz-adv-x="651" d="M215 286q0 14 -25.5 44t-25.5 45q0 38 44 82.5t82 44.5q22 0 44 -28q13 -16 31 -43h20l109 82q66 50 133 50q0 -12 -12 -22q-45 -37 -100.5 -83t-89.5 -97q0 -2 -1 -5q0 -30 34 -58.5t65 -28.5q17 0 48.5 17.5t44.5 17.5q0 -68 -53 -136q-29 -37 -108 -107l-10 -1 q-50 0 -150 111h-10q-39 -67 -123 -139q-95 -82 -159 -82q0 63 80 161l122 150q7 7 10 20v5z" />
<glyph unicode="y" horiz-adv-x="615" d="M-27 -179q0 34 31 70q13 15 46 49q40 41 44 41h20q73 -210 180 -210q39 0 61 34q19 29 19 71v15q-13 120 -30 240q-22 -15 -48 -55q-30 -46 -43 -59q-28 -27 -67 -27q-37 0 -58 48q-15 35 -15 80q0 34 4 100.5t4 100.5q-21 0 -97 -68h-15q0 70 113 150q107 76 185 76 q0 -25 -17 -79t-17 -82v-57q-1 -5 -1 -1q3 -49 22 -57q39 28 49 93q11 73 31 97q155 111 223 111q0 -15 -23 -41q-27 -30 -30 -40q-21 -65 -21 -139q0 -39 6 -115.5t6 -115.5q0 -118 -11 -180q-4 -12 -10 -20q-68 -89 -128 -129q-78 -52 -173 -52q-67 0 -147 41 q-93 48 -93 110z" />
<glyph unicode="z" horiz-adv-x="877" d="M433 417h-5q-13 0 -37.5 -5.5t-37.5 -5.5q-18 0 -52.5 6t-52.5 6q-101 0 -150 -91q-17 -32 -25 -32t-24.5 33t-16.5 44q0 2 1 5l57 103q11 21 39 27q99 22 124 30q121 -3 280 0q20 0 60 11t61 11q0 -70 -165 -225q-42 -39 -236 -217l10 -1q19 0 58 16.5t59 16.5 q41 0 121.5 -16.5t121.5 -16.5q39 0 125 36.5t115 36.5v-22q0 -6 -80 -80q-91 -84 -160 -100h-14q-29 -1 -31 -1h-45q-44 0 -130 16t-130 16q-36 0 -102.5 -31.5t-80.5 -31.5q0 138 125 259q61 56 218 203z" />
<glyph unicode="{" />
<glyph unicode="|" />
<glyph unicode="}" />
<glyph unicode="~" />
<glyph unicode="&#xa1;" />
<glyph unicode="&#xa2;" />
<glyph unicode="&#xa3;" />
<glyph unicode="&#xa4;" horiz-adv-x="654" d="M396 188h-92q31 -41 79 -41q51 0 115 58q20 18 89 93h20v-20q0 -7 -100 -190q-61 -111 -168 -111q-93 0 -154 61q-56 55 -77 150h-32q-21 5 -38 21.5t-17 37.5q0 17 18 40q16 27 43 27h14q2 36 10 68h-21q-22 5 -39 21.5t-17 37.5q0 17 18 40q16 27 43 27h2h22l43 -1 q54 92 136 149q91 63 190 63q61 0 88 -27.5t27 -88.5q0 -154 -54 -154q-30 0 -103.5 69.5t-78.5 69.5q-52 0 -81 -81h124q11 -3 35 -39q3 -6 3 -22q0 -19 -15 -43q-10 -21 -24 -21h-147q-1 -10 -1 -25q0 -20 3 -44h138q11 -3 35 -39q3 -6 3 -22q0 -19 -15 -43 q-10 -21 -24 -21z" />
<glyph unicode="&#xa5;" />
<glyph unicode="&#xa6;" />
<glyph unicode="&#xa7;" />
<glyph unicode="&#xa8;" horiz-adv-x="469" d="M198 620q-9 -20 -31 -21q-31 -2 -63 0q-38 2 -55 46q-12 31 -6 58t36 28q47 2 63 1q38 -2 54.5 -39.5t1.5 -72.5zM418 621q-9 -20 -31 -21q-31 -2 -63 0q-38 2 -55 46q-12 31 -6 58t36 28q47 2 63 1q38 -2 54.5 -39.5t1.5 -72.5z" />
<glyph unicode="&#xa9;" horiz-adv-x="577" d="M229 278q15 -45 36 -106q6 -13 14 -15h15q11 3 13 15q15 29 36 106v-82q9 32 36 118l29 86q7 12 13 13q20 13 44 30q14 8 42 42q6 12 6 17q-3 0 -10 -1t-10 -1q-18 -5 -43 -15h-327q-18 6 -44 15l-19 2q0 -11 6 -17q16 -24 39 -40l46 -32q7 -1 14 -13q0 6 28 -86l36 -118 v82zM231 371q0 5 3 8q24 -16 24 -26v-16q-9 2 -15 9q-12 9 -12 12v13zM342 379q1 -1 1 -21q0 -12 -27 -21v15q0 5 8 12q6 4 12 9z" />
<glyph unicode="&#xaa;" />
<glyph unicode="&#xab;" />
<glyph unicode="&#xac;" />
<glyph unicode="&#xad;" horiz-adv-x="499" d="M409 145l-306 -2q-31 4 -56 43q-5 8 -5 21q0 34 16 60q19 30 51 30h98l202 -1q24 0 37 -32q10 -25 10 -53q0 -18 -15 -42t-32 -24z" />
<glyph unicode="&#xae;" />
<glyph unicode="&#xaf;" />
<glyph unicode="&#xb0;" />
<glyph unicode="&#xb1;" />
<glyph unicode="&#xb2;" />
<glyph unicode="&#xb3;" />
<glyph unicode="&#xb4;" horiz-adv-x="330" d="M120 725v20q0 7 -1 14v6q-2 3 -19 13q-12 7 -12 17q0 -2 1 10l78 55q56 36 93 36q19 0 19 -26q0 -92 -120 -225q-54 -60 -60 -60h-23q0 21 22 68.5t22 71.5z" />
<glyph unicode="&#xb6;" />
<glyph unicode="&#xb7;" />
<glyph unicode="&#xb8;" horiz-adv-x="278" d="M108 0h58l-40 -66q13 4 38 4q96 0 96 -76q0 -59 -35 -81q-27 -18 -89 -18q-58 0 -89 14v40h61q17 0 34.5 11.5t17.5 27.5q0 17 -18 28q-15 8 -34 8v108z" />
<glyph unicode="&#xb9;" />
<glyph unicode="&#xba;" />
<glyph unicode="&#xbb;" />
<glyph unicode="&#xbc;" />
<glyph unicode="&#xbd;" />
<glyph unicode="&#xbe;" />
<glyph unicode="&#xbf;" />
<glyph unicode="&#xc0;" horiz-adv-x="833" d="M189 173q77 161 200 400q49 96 95 134q15 13 145 86q19 11 38 23q23 12 42 12v-15q-45 -34 -60 -80q-11 -34 -11 -102q0 -197 101 -418q5 -11 47 -68q34 -46 34 -66q0 -46 -48 -69q-37 -18 -89 -18q-63 0 -107 100q-10 24 -47 151q-11 -6 -103 -37q-86 -29 -87 -33 l-50 -150q-6 -10 -20 -20l-230 -160q-17 -12 -32 -12q0 22 30 58q37 45 42 54q54 103 100 200q7 15 10 30zM459 493q-7 -3 -39 -84t-32 -96h111q2 0 6 8.5t4 11.5q0 14 -22 85.5t-28 74.5zM493 930v6q1 7 1 14v20q4 5 19 13q12 6 12 17q0 -2 -1 10l-78 55q-56 36 -93 36 q-19 0 -19 -26q0 -92 120 -225q54 -60 60 -60h23q0 21 -22 68.5t-22 71.5z" />
<glyph unicode="&#xc1;" horiz-adv-x="833" d="M189 173q77 161 200 400q49 96 95 134q15 13 145 86q19 11 38 23q23 12 42 12v-15q-45 -34 -60 -80q-11 -34 -11 -102q0 -197 101 -418q5 -11 47 -68q34 -46 34 -66q0 -46 -48 -69q-37 -18 -89 -18q-63 0 -107 100q-10 24 -47 151q-11 -6 -103 -37q-86 -29 -87 -33 l-50 -150q-6 -10 -20 -20l-230 -160q-17 -12 -32 -12q0 22 30 58q37 45 42 54q54 103 100 200q7 15 10 30zM459 493q-7 -3 -39 -84t-32 -96h111q2 0 6 8.5t4 11.5q0 14 -22 85.5t-28 74.5zM513 925v20q0 7 -1 14v6q-2 3 -19 13q-12 7 -12 17q0 -2 1 10l78 55q56 36 93 36 q19 0 19 -26q0 -92 -120 -225q-54 -60 -60 -60h-23q0 21 22 68.5t22 71.5z" />
<glyph unicode="&#xc2;" horiz-adv-x="833" d="M189 173q77 161 200 400q49 96 95 134q15 13 145 86q19 11 38 23q23 12 42 12v-15q-45 -34 -60 -80q-11 -34 -11 -102q0 -197 101 -418q5 -11 47 -68q34 -46 34 -66q0 -46 -48 -69q-37 -18 -89 -18q-63 0 -107 100q-10 24 -47 151q-11 -6 -103 -37q-86 -29 -87 -33 l-50 -150q-6 -10 -20 -20l-230 -160q-17 -12 -32 -12q0 22 30 58q37 45 42 54q54 103 100 200q7 15 10 30zM459 493q-7 -3 -39 -84t-32 -96h111q2 0 6 8.5t4 11.5q0 14 -22 85.5t-28 74.5zM717 986q28 -13 57 -41q42 -41 67 -72q7 -9 2 -17q-16 -24 -67 -24q-53 0 -81 19 l-52 50l-51 -48q-26 -19 -81 -19q-50 0 -66 24q-5 8 1 17q33 49 84 87q60 43 111 43q50 0 76 -19z" />
<glyph unicode="&#xc3;" />
<glyph unicode="&#xc4;" horiz-adv-x="833" d="M189 173q77 161 200 400q49 96 95 134q15 13 145 86q19 11 38 23q23 12 42 12v-15q-45 -34 -60 -80q-11 -34 -11 -102q0 -197 101 -418q5 -11 47 -68q34 -46 34 -66q0 -46 -48 -69q-37 -18 -89 -18q-63 0 -107 100q-10 24 -47 151q-11 -6 -103 -37q-86 -29 -87 -33 l-50 -150q-6 -10 -20 -20l-230 -160q-17 -12 -32 -12q0 22 30 58q37 45 42 54q54 103 100 200q7 15 10 30zM459 493q-7 -3 -39 -84t-32 -96h111q2 0 6 8.5t4 11.5q0 14 -22 85.5t-28 74.5zM633 853q-9 -20 -31 -21q-31 -2 -63 0q-38 2 -55 46q-12 31 -6 58t36 28q47 2 63 1 q38 -2 54.5 -39.5t1.5 -72.5zM853 854q-9 -20 -31 -21q-31 -2 -63 0q-38 2 -55 46q-12 31 -6 58t36 28q47 2 63 1q38 -2 54.5 -39.5t1.5 -72.5z" />
<glyph unicode="&#xc5;" />
<glyph unicode="&#xc6;" />
<glyph unicode="&#xc7;" horiz-adv-x="567" d="M27 321q0 156 114 286q119 134 273 134q61 0 88 -27.5t27 -88.5q0 -74 -51 -147q-35 -51 -110 -118q-8 -7 -21 -9l-13 -3q0 21 22.5 69t22.5 73q0 47 -19 80q-23 40 -67 40q-56 0 -85 -95q-21 -68 -21 -136q0 -73 27 -133q35 -77 100 -77q51 0 115 58q20 18 89 93h20v-20 q0 -8 -100 -190q-52 -95 -140 -109l-37 -62q13 4 38 4q96 0 96 -76q0 -59 -35 -81q-27 -18 -89 -18q-58 0 -89 14v40h61q17 0 34.5 11.5t17.5 27.5q0 17 -18 28q-15 8 -34 8v103q-111 12 -168 115q-48 85 -48 206z" />
<glyph unicode="&#xc8;" horiz-adv-x="714" d="M179 4q-18 0 -52.5 -6.5t-52.5 -6.5q0 19 13 47q19 40 20 45q20 68 21 218l1 132q1 73 -22 130q-5 13 -23 13q-6 0 -19 -2t-19 -2q-20 0 -20 21q0 41 130 116q123 71 164 71q0 -23 -6 -37l-17 -40v-10q3 -7 10 -10h50q2 0 34 -1h16q48 0 145 6.5t145 6.5v-12 q0 -4 -20.5 -24t-29.5 -26q-63 -47 -120 -80h-30q-10 0 -20 -1h-10q-28 0 -85 4.5t-85 4.5v-147q23 0 66.5 9t63.5 10q68 3 206 3q0 -32 -78 -69q-68 -32 -108 -34q-92 -4 -150 -10q2 -33 2 -68q0 -34 -2 -72l-10 -30q2 6 2 -20q66 0 197 11t197 11q0 -36 -121 -110 q-117 -72 -160 -72q-38 0 -111.5 15.5t-111.5 15.5zM428 926v6q1 7 1 14v20q4 5 19 13q12 6 12 17q0 -2 -1 10l-78 55q-56 36 -93 36q-19 0 -19 -26q0 -92 120 -225q54 -60 60 -60h23q0 21 -22 68.5t-22 71.5z" />
<glyph unicode="&#xc9;" horiz-adv-x="714" d="M179 4q-18 0 -52.5 -6.5t-52.5 -6.5q0 19 13 47q19 40 20 45q20 68 21 218l1 132q1 73 -22 130q-5 13 -23 13q-6 0 -19 -2t-19 -2q-20 0 -20 21q0 41 130 116q123 71 164 71q0 -23 -6 -37l-17 -40v-10q3 -7 10 -10h50q2 0 34 -1h16q48 0 145 6.5t145 6.5v-12 q0 -4 -20.5 -24t-29.5 -26q-63 -47 -120 -80h-30q-10 0 -20 -1h-10q-28 0 -85 4.5t-85 4.5v-147q23 0 66.5 9t63.5 10q68 3 206 3q0 -32 -78 -69q-68 -32 -108 -34q-92 -4 -150 -10q2 -33 2 -68q0 -34 -2 -72l-10 -30q2 6 2 -20q66 0 197 11t197 11q0 -36 -121 -110 q-117 -72 -160 -72q-38 0 -111.5 15.5t-111.5 15.5zM419 932v20q0 7 -1 14v6q-2 3 -19 13q-12 7 -12 17q0 -2 1 10l78 55q56 36 93 36q19 0 19 -26q0 -92 -120 -225q-54 -60 -60 -60h-23q0 21 22 68.5t22 71.5z" />
<glyph unicode="&#xca;" horiz-adv-x="714" d="M179 4q-18 0 -52.5 -6.5t-52.5 -6.5q0 19 13 47q19 40 20 45q20 68 21 218l1 132q1 73 -22 130q-5 13 -23 13q-6 0 -19 -2t-19 -2q-20 0 -20 21q0 41 130 116q123 71 164 71q0 -23 -6 -37l-17 -40v-10q3 -7 10 -10h50q2 0 34 -1h16q48 0 145 6.5t145 6.5v-12 q0 -4 -20.5 -24t-29.5 -26q-63 -47 -120 -80h-30q-10 0 -20 -1h-10q-28 0 -85 4.5t-85 4.5v-147q23 0 66.5 9t63.5 10q68 3 206 3q0 -32 -78 -69q-68 -32 -108 -34q-92 -4 -150 -10q2 -33 2 -68q0 -34 -2 -72l-10 -30q2 6 2 -20q66 0 197 11t197 11q0 -36 -121 -110 q-117 -72 -160 -72q-38 0 -111.5 15.5t-111.5 15.5zM440 947q28 -13 57 -41q42 -41 67 -72q7 -9 2 -17q-16 -24 -67 -24q-53 0 -81 19l-52 50l-51 -48q-26 -19 -81 -19q-50 0 -66 24q-5 8 1 17q33 49 84 87q60 43 111 43q50 0 76 -19z" />
<glyph unicode="&#xcb;" />
<glyph unicode="&#xcc;" />
<glyph unicode="&#xcd;" />
<glyph unicode="&#xce;" />
<glyph unicode="&#xcf;" />
<glyph unicode="&#xd0;" />
<glyph unicode="&#xd1;" />
<glyph unicode="&#xd2;" horiz-adv-x="656" d="M33 199q0 1 -1 48l-1 47q-3 160 97 289q106 136 270 136q113 0 175 -113q50 -91 50 -212q0 -159 -79 -283q-91 -143 -241 -143q-95 0 -174 68.5t-96 162.5zM333 129q10 -1 35 -11q22 -10 35 -10q17 0 40 11q51 82 51 164q0 103 -37 179q-48 98 -140 98q-34 0 -47 -31 q-2 -10 -16 -62q-10 -38 -31 -48q-8 3 -10 10q-10 29 -10 60q-21 -30 -21 -108q0 -128 151 -252zM420 925v6q1 7 1 14v20q4 5 19 13q12 6 12 17q0 -2 -1 10l-78 55q-56 36 -93 36q-19 0 -19 -26q0 -92 120 -225q54 -60 60 -60h23q0 21 -22 68.5t-22 71.5z" />
<glyph unicode="&#xd3;" horiz-adv-x="656" d="M33 199q0 1 -1 48l-1 47q-3 160 97 289q106 136 270 136q113 0 175 -113q50 -91 50 -212q0 -159 -79 -283q-91 -143 -241 -143q-95 0 -174 68.5t-96 162.5zM333 129q10 -1 35 -11q22 -10 35 -10q17 0 40 11q51 82 51 164q0 103 -37 179q-48 98 -140 98q-34 0 -47 -31 q-2 -10 -16 -62q-10 -38 -31 -48q-8 3 -10 10q-10 29 -10 60q-21 -30 -21 -108q0 -128 151 -252zM374 932v20q0 7 -1 14v6q-2 3 -19 13q-12 7 -12 17q0 -2 1 10l78 55q56 36 93 36q19 0 19 -26q0 -92 -120 -225q-54 -60 -60 -60h-23q0 21 22 68.5t22 71.5z" />
<glyph unicode="&#xd4;" horiz-adv-x="656" d="M33 199q0 1 -1 48l-1 47q-3 160 97 289q106 136 270 136q113 0 175 -113q50 -91 50 -212q0 -159 -79 -283q-91 -143 -241 -143q-95 0 -174 68.5t-96 162.5zM333 129q10 -1 35 -11q22 -10 35 -10q17 0 40 11q51 82 51 164q0 103 -37 179q-48 98 -140 98q-34 0 -47 -31 q-2 -10 -16 -62q-10 -38 -31 -48q-8 3 -10 10q-10 29 -10 60q-21 -30 -21 -108q0 -128 151 -252zM490 929q28 -13 57 -41q42 -41 67 -72q7 -9 2 -17q-16 -24 -67 -24q-53 0 -81 19l-52 50l-51 -48q-26 -19 -81 -19q-50 0 -66 24q-5 8 1 17q33 49 84 87q60 43 111 43 q50 0 76 -19z" />
<glyph unicode="&#xd5;" />
<glyph unicode="&#xd6;" horiz-adv-x="656" d="M33 199q0 1 -1 48l-1 47q-3 160 97 289q106 136 270 136q113 0 175 -113q50 -91 50 -212q0 -159 -79 -283q-91 -143 -241 -143q-95 0 -174 68.5t-96 162.5zM333 129q10 -1 35 -11q22 -10 35 -10q17 0 40 11q51 82 51 164q0 103 -37 179q-48 98 -140 98q-34 0 -47 -31 q-2 -10 -16 -62q-10 -38 -31 -48q-8 3 -10 10q-10 29 -10 60q-21 -30 -21 -108q0 -128 151 -252zM317 822q-9 -20 -31 -21q-31 -2 -63 0q-38 2 -55 46q-12 31 -6 58t36 28q47 2 63 1q38 -2 54.5 -39.5t1.5 -72.5zM537 823q-9 -20 -31 -21q-31 -2 -63 0q-38 2 -55 46 q-12 31 -6 58t36 28q47 2 63 1q38 -2 54.5 -39.5t1.5 -72.5z" />
<glyph unicode="&#xd7;" />
<glyph unicode="&#xd8;" />
<glyph unicode="&#xd9;" horiz-adv-x="663" d="M416 55v13q-1 10 -1 12q-119 -141 -222 -141q-113 0 -118 201q-4 160 0 360q-3 12 -22.5 31.5t-19.5 33.5q0 39 120 99q114 57 164 57q0 -27 -18 -75q-21 -55 -24 -76q-21 -153 -21 -262q0 -63 9 -121q14 -89 42 -89q8 0 10 2q101 126 101 345v28q0 9 -1 18v9l-18 24 q-13 17 -13 27q0 24 107 83q103 58 136 58q0 -54 -16.5 -161.5t-16.5 -161.5q0 -37 6 -109.5t6 -109.5v-25q0 -9 -1 -17v-8q-22 -31 -91 -101q-78 -79 -99 -79h-21q0 23 11 67.5t11 67.5zM441 928v6q1 7 1 14v20q4 5 19 13q12 6 12 17q0 -2 -1 10l-78 55q-56 36 -93 36 q-19 0 -19 -26q0 -92 120 -225q54 -60 60 -60h23q0 21 -22 68.5t-22 71.5z" />
<glyph unicode="&#xda;" horiz-adv-x="663" d="M416 55v13q-1 10 -1 12q-119 -141 -222 -141q-113 0 -118 201q-4 160 0 360q-3 12 -22.5 31.5t-19.5 33.5q0 39 120 99q114 57 164 57q0 -27 -18 -75q-21 -55 -24 -76q-21 -153 -21 -262q0 -63 9 -121q14 -89 42 -89q8 0 10 2q101 126 101 345v28q0 9 -1 18v9l-18 24 q-13 17 -13 27q0 24 107 83q103 58 136 58q0 -54 -16.5 -161.5t-16.5 -161.5q0 -37 6 -109.5t6 -109.5v-25q0 -9 -1 -17v-8q-22 -31 -91 -101q-78 -79 -99 -79h-21q0 23 11 67.5t11 67.5zM415 923v20q0 7 -1 14v6q-2 3 -19 13q-12 7 -12 17q0 -2 1 10l78 55q56 36 93 36 q19 0 19 -26q0 -92 -120 -225q-54 -60 -60 -60h-23q0 21 22 68.5t22 71.5z" />
<glyph unicode="&#xdb;" horiz-adv-x="663" d="M416 55v13q-1 10 -1 12q-119 -141 -222 -141q-113 0 -118 201q-4 160 0 360q-3 12 -22.5 31.5t-19.5 33.5q0 39 120 99q114 57 164 57q0 -27 -18 -75q-21 -55 -24 -76q-21 -153 -21 -262q0 -63 9 -121q14 -89 42 -89q8 0 10 2q101 126 101 345v28q0 9 -1 18v9l-18 24 q-13 17 -13 27q0 24 107 83q103 58 136 58q0 -54 -16.5 -161.5t-16.5 -161.5q0 -37 6 -109.5t6 -109.5v-25q0 -9 -1 -17v-8q-22 -31 -91 -101q-78 -79 -99 -79h-21q0 23 11 67.5t11 67.5zM483 938q28 -13 57 -41q42 -41 67 -72q7 -9 2 -17q-16 -24 -67 -24q-53 0 -81 19 l-52 50l-51 -48q-26 -19 -81 -19q-50 0 -66 24q-5 8 1 17q33 49 84 87q60 43 111 43q50 0 76 -19z" />
<glyph unicode="&#xdc;" horiz-adv-x="663" d="M416 55v13q-1 10 -1 12q-119 -141 -222 -141q-113 0 -118 201q-4 160 0 360q-3 12 -22.5 31.5t-19.5 33.5q0 39 120 99q114 57 164 57q0 -27 -18 -75q-21 -55 -24 -76q-21 -153 -21 -262q0 -63 9 -121q14 -89 42 -89q8 0 10 2q101 126 101 345v28q0 9 -1 18v9l-18 24 q-13 17 -13 27q0 24 107 83q103 58 136 58q0 -54 -16.5 -161.5t-16.5 -161.5q0 -37 6 -109.5t6 -109.5v-25q0 -9 -1 -17v-8q-22 -31 -91 -101q-78 -79 -99 -79h-21q0 23 11 67.5t11 67.5zM316 823q-9 -20 -31 -21q-31 -2 -63 0q-38 2 -55 46q-12 31 -6 58t36 28q47 2 63 1 q38 -2 54.5 -39.5t1.5 -72.5zM536 824q-9 -20 -31 -21q-31 -2 -63 0q-38 2 -55 46q-12 31 -6 58t36 28q47 2 63 1q38 -2 54.5 -39.5t1.5 -72.5z" />
<glyph unicode="&#xdd;" />
<glyph unicode="&#xde;" />
<glyph unicode="&#xdf;" />
<glyph unicode="&#xe0;" horiz-adv-x="579" d="M32 175q0 103 53.5 185.5t147.5 124.5q40 18 109 21q84 4 111 9l60 20q3 0 6 1h6q0 -19 -21 -42q-27 -29 -31 -39q-18 -38 -20 -58q-1 -8 -1 -58v-61q0 -54 26 -54q2 0 5 1l50 40q3 1 17 3q0 -62 -43 -156q-50 -109 -104 -109q-14 0 -20 2q-74 51 -110 160 q-27 -53 -57 -103q-40 -68 -93 -68q-91 0 -91 181zM172 254q0 -61 35 -61q30 0 65 80q32 73 32 114q-81 0 -106.5 -26t-25.5 -107zM325 729v6q1 7 1 14v20q4 5 19 13q12 6 12 17q0 -2 -1 10l-78 55q-56 36 -93 36q-19 0 -19 -26q0 -92 120 -225q54 -60 60 -60h23 q0 21 -22 68.5t-22 71.5z" />
<glyph unicode="&#xe1;" horiz-adv-x="579" d="M32 175q0 103 53.5 185.5t147.5 124.5q40 18 109 21q84 4 111 9l60 20q3 0 6 1h6q0 -19 -21 -42q-27 -29 -31 -39q-18 -38 -20 -58q-1 -8 -1 -58v-61q0 -54 26 -54q2 0 5 1l50 40q3 1 17 3q0 -62 -43 -156q-50 -109 -104 -109q-14 0 -20 2q-74 51 -110 160 q-27 -53 -57 -103q-40 -68 -93 -68q-91 0 -91 181zM172 254q0 -61 35 -61q30 0 65 80q32 73 32 114q-81 0 -106.5 -26t-25.5 -107zM309 729v20q0 7 -1 14v6q-2 3 -19 13q-12 7 -12 17q0 -2 1 10l78 55q56 36 93 36q19 0 19 -26q0 -92 -120 -225q-54 -60 -60 -60h-23 q0 21 22 68.5t22 71.5z" />
<glyph unicode="&#xe2;" horiz-adv-x="579" d="M32 175q0 103 53.5 185.5t147.5 124.5q40 18 109 21q84 4 111 9l60 20q3 0 6 1h6q0 -19 -21 -42q-27 -29 -31 -39q-18 -38 -20 -58q-1 -8 -1 -58v-61q0 -54 26 -54q2 0 5 1l50 40q3 1 17 3q0 -62 -43 -156q-50 -109 -104 -109q-14 0 -20 2q-74 51 -110 160 q-27 -53 -57 -103q-40 -68 -93 -68q-91 0 -91 181zM172 254q0 -61 35 -61q30 0 65 80q32 73 32 114q-81 0 -106.5 -26t-25.5 -107zM385 745q28 -13 57 -41q42 -41 67 -72q7 -9 2 -17q-16 -24 -67 -24q-53 0 -81 19l-52 50l-51 -48q-26 -19 -81 -19q-50 0 -66 24q-5 8 1 17 q33 49 84 87q60 43 111 43q50 0 76 -19z" />
<glyph unicode="&#xe3;" />
<glyph unicode="&#xe4;" horiz-adv-x="579" d="M32 175q0 103 53.5 185.5t147.5 124.5q40 18 109 21q84 4 111 9l60 20q3 0 6 1h6q0 -19 -21 -42q-27 -29 -31 -39q-18 -38 -20 -58q-1 -8 -1 -58v-61q0 -54 26 -54q2 0 5 1l50 40q3 1 17 3q0 -62 -43 -156q-50 -109 -104 -109q-14 0 -20 2q-74 51 -110 160 q-27 -53 -57 -103q-40 -68 -93 -68q-91 0 -91 181zM172 254q0 -61 35 -61q30 0 65 80q32 73 32 114q-81 0 -106.5 -26t-25.5 -107zM267 615q-9 -20 -31 -21q-31 -2 -63 0q-38 2 -55 46q-12 31 -6 58t36 28q47 2 63 1q38 -2 54.5 -39.5t1.5 -72.5zM487 616q-9 -20 -31 -21 q-31 -2 -63 0q-38 2 -55 46q-12 31 -6 58t36 28q47 2 63 1q38 -2 54.5 -39.5t1.5 -72.5z" />
<glyph unicode="&#xe5;" />
<glyph unicode="&#xe6;" />
<glyph unicode="&#xe7;" horiz-adv-x="455" d="M27 186q0 120 89 233q95 120 213 120q41 0 70 -23t29 -63v-5q-20 -61 -80 -140q-53 -70 -60 -70h-22q0 17 11 50t11 50q0 29 -18.5 50t-46.5 21q-42 0 -57 -39q-9 -24 -9 -75q0 -61 32 -96q26 -28 89 -51l15 -1q2 0 15 1l70 30q4 1 6 1q15 0 15 -31q0 -46 -73 -101 q-66 -50 -117 -58l-36 -61q13 4 38 4q96 0 96 -76q0 -59 -35 -81q-27 -18 -89 -18q-58 0 -89 14v40h61q17 0 34.5 11.5t17.5 27.5q0 17 -18 28q-15 8 -34 8v102q-21 4 -27 10l-80 80q-21 21 -21 108z" />
<glyph unicode="&#xe8;" horiz-adv-x="479" d="M28 187q0 125 95.5 219.5t220.5 94.5q47 0 66.5 -18t19.5 -64q0 -66 -75 -122q-63 -38 -126 -77l-10 -10q0 -2 -1 -5q0 -16 23 -34q19 -15 38 -21h5q30 0 92 46.5t75 46.5q0 -85 -88 -164.5t-174 -79.5q-75 0 -120 58q-41 53 -41 130zM209 380q-36 -49 -36 -103 q20 0 48.5 30.5t28.5 51.5q0 22 -26 22h-7q-7 -1 -8 -1zM303 724v6q1 7 1 14v20q4 5 19 13q12 6 12 17q0 -2 -1 10l-78 55q-56 36 -93 36q-19 0 -19 -26q0 -92 120 -225q54 -60 60 -60h23q0 21 -22 68.5t-22 71.5z" />
<glyph unicode="&#xe9;" horiz-adv-x="479" d="M28 187q0 125 95.5 219.5t220.5 94.5q47 0 66.5 -18t19.5 -64q0 -66 -75 -122q-63 -38 -126 -77l-10 -10q0 -2 -1 -5q0 -16 23 -34q19 -15 38 -21h5q30 0 92 46.5t75 46.5q0 -85 -88 -164.5t-174 -79.5q-75 0 -120 58q-41 53 -41 130zM209 380q-36 -49 -36 -103 q20 0 48.5 30.5t28.5 51.5q0 22 -26 22h-7q-7 -1 -8 -1zM245 718v20q0 7 -1 14v6q-2 3 -19 13q-12 7 -12 17q0 -2 1 10l78 55q56 36 93 36q19 0 19 -26q0 -92 -120 -225q-54 -60 -60 -60h-23q0 21 22 68.5t22 71.5z" />
<glyph unicode="&#xea;" horiz-adv-x="479" d="M28 187q0 125 95.5 219.5t220.5 94.5q47 0 66.5 -18t19.5 -64q0 -66 -75 -122q-63 -38 -126 -77l-10 -10q0 -2 -1 -5q0 -16 23 -34q19 -15 38 -21h5q30 0 92 46.5t75 46.5q0 -85 -88 -164.5t-174 -79.5q-75 0 -120 58q-41 53 -41 130zM209 380q-36 -49 -36 -103 q20 0 48.5 30.5t28.5 51.5q0 22 -26 22h-7q-7 -1 -8 -1zM345 740q28 -13 57 -41q42 -41 67 -72q7 -9 2 -17q-16 -24 -67 -24q-53 0 -81 19l-52 50l-51 -48q-26 -19 -81 -19q-50 0 -66 24q-5 8 1 17q33 49 84 87q60 43 111 43q50 0 76 -19z" />
<glyph unicode="&#xeb;" />
<glyph unicode="&#xec;" />
<glyph unicode="&#xed;" />
<glyph unicode="&#xee;" />
<glyph unicode="&#xef;" horiz-adv-x="396" d="M91 318q-13 0 -38.5 -10.5t-38.5 -10.5q0 63 106 131q98 63 163 63q0 -21 -32 -91v-37q0 -1 -1 -26v-12q0 -62 1 -75q3 -40 10 -40h20l110 70q2 1 5 1q16 0 16 -47q0 -58 -94.5 -146.5t-153.5 -88.5q-73 0 -73 81v238zM165 599q-9 -20 -31 -21q-31 -2 -63 0q-38 2 -55 46 q-12 31 -6 58t36 28q47 2 63 1q38 -2 54.5 -39.5t1.5 -72.5zM385 600q-9 -20 -31 -21q-31 -2 -63 0q-38 2 -55 46q-12 31 -6 58t36 28q47 2 63 1q38 -2 54.5 -39.5t1.5 -72.5z" />
<glyph unicode="&#xf0;" />
<glyph unicode="&#xf1;" />
<glyph unicode="&#xf2;" horiz-adv-x="529" d="M30 214q0 125 77 222q82 105 204 105q99 0 148 -70q43 -61 43 -163q0 -111 -67 -205q-74 -104 -184 -104q-82 0 -151.5 67t-69.5 148zM169 297q0 -84 112 -177h13q10 -1 12 -1q35 0 52 37q13 28 13 68q0 69 -22 123q-31 75 -89 75q-25 0 -38 -36q-4 -19 -14 -57 q-9 -32 -39 -32zM300 733v6q1 7 1 14v20q4 5 19 13q12 6 12 17q0 -2 -1 10l-78 55q-56 36 -93 36q-19 0 -19 -26q0 -92 120 -225q54 -60 60 -60h23q0 21 -22 68.5t-22 71.5z" />
<glyph unicode="&#xf3;" horiz-adv-x="529" d="M30 214q0 125 77 222q82 105 204 105q99 0 148 -70q43 -61 43 -163q0 -111 -67 -205q-74 -104 -184 -104q-82 0 -151.5 67t-69.5 148zM169 297q0 -84 112 -177h13q10 -1 12 -1q35 0 52 37q13 28 13 68q0 69 -22 123q-31 75 -89 75q-25 0 -38 -36q-4 -19 -14 -57 q-9 -32 -39 -32zM322 724v20q0 7 -1 14v6q-2 3 -19 13q-12 7 -12 17q0 -2 1 10l78 55q56 36 93 36q19 0 19 -26q0 -92 -120 -225q-54 -60 -60 -60h-23q0 21 22 68.5t22 71.5z" />
<glyph unicode="&#xf4;" horiz-adv-x="529" d="M30 214q0 125 77 222q82 105 204 105q99 0 148 -70q43 -61 43 -163q0 -111 -67 -205q-74 -104 -184 -104q-82 0 -151.5 67t-69.5 148zM169 297q0 -84 112 -177h13q10 -1 12 -1q35 0 52 37q13 28 13 68q0 69 -22 123q-31 75 -89 75q-25 0 -38 -36q-4 -19 -14 -57 q-9 -32 -39 -32zM395 742q28 -13 57 -41q42 -41 67 -72q7 -9 2 -17q-16 -24 -67 -24q-53 0 -81 19l-52 50l-51 -48q-26 -19 -81 -19q-50 0 -66 24q-5 8 1 17q33 49 84 87q60 43 111 43q50 0 76 -19z" />
<glyph unicode="&#xf5;" />
<glyph unicode="&#xf6;" horiz-adv-x="529" d="M30 214q0 125 77 222q82 105 204 105q99 0 148 -70q43 -61 43 -163q0 -111 -67 -205q-74 -104 -184 -104q-82 0 -151.5 67t-69.5 148zM169 297q0 -84 112 -177h13q10 -1 12 -1q35 0 52 37q13 28 13 68q0 69 -22 123q-31 75 -89 75q-25 0 -38 -36q-4 -19 -14 -57 q-9 -32 -39 -32zM241 620q-9 -20 -31 -21q-31 -2 -63 0q-38 2 -55 46q-12 31 -6 58t36 28q47 2 63 1q38 -2 54.5 -39.5t1.5 -72.5zM461 621q-9 -20 -31 -21q-31 -2 -63 0q-38 2 -55 46q-12 31 -6 58t36 28q47 2 63 1q38 -2 54.5 -39.5t1.5 -72.5z" />
<glyph unicode="&#xf7;" />
<glyph unicode="&#xf8;" />
<glyph unicode="&#xf9;" horiz-adv-x="617" d="M267 102q-8 0 -10 -2q-45 -45 -62 -58q-43 -33 -79 -33q-34 0 -59 48q-21 41 -21 77q0 35 20 102t20 102q-7 0 -20.5 -5t-20.5 -5q0 52 81 94q27 14 121 48h10q11 -5 11 -15q0 -3 -1 -5q-41 -97 -41 -166q0 -59 11 -84q50 28 50 180q35 47 95.5 81t116.5 34 q0 -31 -21.5 -99.5t-21.5 -102.5q0 -94 36 -94q16 0 52.5 31.5t54.5 31.5q0 -75 -53 -164q-59 -99 -129 -99q-33 0 -63 27q-13 12 -44 49q-22 27 -33 27zM308 727v6q1 7 1 14v20q4 5 19 13q12 6 12 17q0 -2 -1 10l-78 55q-56 36 -93 36q-19 0 -19 -26q0 -92 120 -225 q54 -60 60 -60h23q0 21 -22 68.5t-22 71.5z" />
<glyph unicode="&#xfa;" horiz-adv-x="617" d="M267 102q-8 0 -10 -2q-45 -45 -62 -58q-43 -33 -79 -33q-34 0 -59 48q-21 41 -21 77q0 35 20 102t20 102q-7 0 -20.5 -5t-20.5 -5q0 52 81 94q27 14 121 48h10q11 -5 11 -15q0 -3 -1 -5q-41 -97 -41 -166q0 -59 11 -84q50 28 50 180q35 47 95.5 81t116.5 34 q0 -31 -21.5 -99.5t-21.5 -102.5q0 -94 36 -94q16 0 52.5 31.5t54.5 31.5q0 -75 -53 -164q-59 -99 -129 -99q-33 0 -63 27q-13 12 -44 49q-22 27 -33 27zM325 727v20q0 7 -1 14v6q-2 3 -19 13q-12 7 -12 17q0 -2 1 10l78 55q56 36 93 36q19 0 19 -26q0 -92 -120 -225 q-54 -60 -60 -60h-23q0 21 22 68.5t22 71.5z" />
<glyph unicode="&#xfb;" horiz-adv-x="617" d="M267 102q-8 0 -10 -2q-45 -45 -62 -58q-43 -33 -79 -33q-34 0 -59 48q-21 41 -21 77q0 35 20 102t20 102q-7 0 -20.5 -5t-20.5 -5q0 52 81 94q27 14 121 48h10q11 -5 11 -15q0 -3 -1 -5q-41 -97 -41 -166q0 -59 11 -84q50 28 50 180q35 47 95.5 81t116.5 34 q0 -31 -21.5 -99.5t-21.5 -102.5q0 -94 36 -94q16 0 52.5 31.5t54.5 31.5q0 -75 -53 -164q-59 -99 -129 -99q-33 0 -63 27q-13 12 -44 49q-22 27 -33 27zM387 739q28 -13 57 -41q42 -41 67 -72q7 -9 2 -17q-16 -24 -67 -24q-53 0 -81 19l-52 50l-51 -48q-26 -19 -81 -19 q-50 0 -66 24q-5 8 1 17q33 49 84 87q60 43 111 43q50 0 76 -19z" />
<glyph unicode="&#xfc;" horiz-adv-x="617" d="M267 102q-8 0 -10 -2q-45 -45 -62 -58q-43 -33 -79 -33q-34 0 -59 48q-21 41 -21 77q0 35 20 102t20 102q-7 0 -20.5 -5t-20.5 -5q0 52 81 94q27 14 121 48h10q11 -5 11 -15q0 -3 -1 -5q-41 -97 -41 -166q0 -59 11 -84q50 28 50 180q35 47 95.5 81t116.5 34 q0 -31 -21.5 -99.5t-21.5 -102.5q0 -94 36 -94q16 0 52.5 31.5t54.5 31.5q0 -75 -53 -164q-59 -99 -129 -99q-33 0 -63 27q-13 12 -44 49q-22 27 -33 27zM254 611q-9 -20 -31 -21q-31 -2 -63 0q-38 2 -55 46q-12 31 -6 58t36 28q47 2 63 1q38 -2 54.5 -39.5t1.5 -72.5z M474 612q-9 -20 -31 -21q-31 -2 -63 0q-38 2 -55 46q-12 31 -6 58t36 28q47 2 63 1q38 -2 54.5 -39.5t1.5 -72.5z" />
<glyph unicode="&#xfd;" />
<glyph unicode="&#xfe;" />
<glyph unicode="&#xff;" />
<glyph unicode="&#x152;" />
<glyph unicode="&#x153;" />
<glyph unicode="&#x178;" />
<glyph unicode="&#x2c6;" horiz-adv-x="454" d="M291 738q28 -13 57 -41q42 -41 67 -72q7 -9 2 -17q-16 -24 -67 -24q-53 0 -81 19l-52 50l-51 -48q-26 -19 -81 -19q-50 0 -66 24q-5 8 1 17q33 49 84 87q60 43 111 43q50 0 76 -19z" />
<glyph unicode="&#x2dc;" />
<glyph unicode="&#x2000;" horiz-adv-x="551" />
<glyph unicode="&#x2001;" horiz-adv-x="1103" />
<glyph unicode="&#x2002;" horiz-adv-x="551" />
<glyph unicode="&#x2003;" horiz-adv-x="1103" />
<glyph unicode="&#x2004;" horiz-adv-x="367" />
<glyph unicode="&#x2005;" horiz-adv-x="275" />
<glyph unicode="&#x2006;" horiz-adv-x="183" />
<glyph unicode="&#x2007;" horiz-adv-x="183" />
<glyph unicode="&#x2008;" horiz-adv-x="137" />
<glyph unicode="&#x2009;" horiz-adv-x="220" />
<glyph unicode="&#x200a;" horiz-adv-x="61" />
<glyph unicode="&#x2010;" horiz-adv-x="499" d="M409 145l-306 -2q-31 4 -56 43q-5 8 -5 21q0 34 16 60q19 30 51 30h98l202 -1q24 0 37 -32q10 -25 10 -53q0 -18 -15 -42t-32 -24z" />
<glyph unicode="&#x2011;" horiz-adv-x="499" d="M409 145l-306 -2q-31 4 -56 43q-5 8 -5 21q0 34 16 60q19 30 51 30h98l202 -1q24 0 37 -32q10 -25 10 -53q0 -18 -15 -42t-32 -24z" />
<glyph unicode="&#x2012;" horiz-adv-x="499" d="M409 145l-306 -2q-31 4 -56 43q-5 8 -5 21q0 34 16 60q19 30 51 30h98l202 -1q24 0 37 -32q10 -25 10 -53q0 -18 -15 -42t-32 -24z" />
<glyph unicode="&#x2013;" />
<glyph unicode="&#x2014;" />
<glyph unicode="&#x2018;" />
<glyph unicode="&#x2019;" />
<glyph unicode="&#x201a;" />
<glyph unicode="&#x201c;" />
<glyph unicode="&#x201d;" />
<glyph unicode="&#x201e;" />
<glyph unicode="&#x2022;" />
<glyph unicode="&#x2026;" />
<glyph unicode="&#x202f;" horiz-adv-x="220" />
<glyph unicode="&#x2039;" />
<glyph unicode="&#x203a;" />
<glyph unicode="&#x205f;" horiz-adv-x="275" />
<glyph unicode="&#x2122;" />
<glyph unicode="&#xe000;" horiz-adv-x="565" d="M0 565h565v-565h-565v565z" />
</font>
</defs>
</svg>
