<?xml version="1.0" encoding="UTF-8" standalone="no"?>
<!-- Created with Inkscape (http://www.inkscape.org/) -->

<svg
   xmlns:dc="http://purl.org/dc/elements/1.1/"
   xmlns:cc="http://creativecommons.org/ns#"
   xmlns:rdf="http://www.w3.org/1999/02/22-rdf-syntax-ns#"
   xmlns:svg="http://www.w3.org/2000/svg"
   xmlns="http://www.w3.org/2000/svg"
   xmlns:sodipodi="http://sodipodi.sourceforge.net/DTD/sodipodi-0.dtd"
   xmlns:inkscape="http://www.inkscape.org/namespaces/inkscape"
   id="svg2"
   version="1.1"
   inkscape:version="0.48.4 r9939"
   width="640"
   height="640"
   xml:space="preserve"
   sodipodi:docname="logo.svg"
   inkscape:export-filename="/home/marijn/src/js/codemirror/doc/logo.png"
   inkscape:export-xdpi="16.601332"
   inkscape:export-ydpi="16.601332"><metadata
     id="metadata8"><rdf:RDF><cc:Work
         rdf:about=""><dc:format>image/svg+xml</dc:format><dc:type
           rdf:resource="http://purl.org/dc/dcmitype/StillImage" /><dc:title></dc:title></cc:Work></rdf:RDF></metadata><defs
     id="defs6"><clipPath
       clipPathUnits="userSpaceOnUse"
       id="clipPath16"><path
         d="M 0,512 512,512 512,0 0,0 0,512 z"
         id="path18" /></clipPath><clipPath
       clipPathUnits="userSpaceOnUse"
       id="clipPath40"><path
         d="m 435.607,369.899 31.242,0 0,-64.782 -31.242,0 0,64.782 z"
         id="path42" /></clipPath><clipPath
       clipPathUnits="userSpaceOnUse"
       id="clipPath56"><path
         d="m 421.796,349.477 39.074,0 0,-88.423 -39.074,0 0,88.423 z"
         id="path58" /></clipPath></defs><sodipodi:namedview
     pagecolor="#ffffff"
     bordercolor="#666666"
     borderopacity="1"
     objecttolerance="10"
     gridtolerance="10"
     guidetolerance="10"
     inkscape:pageopacity="0"
     inkscape:pageshadow="2"
     inkscape:window-width="1600"
     inkscape:window-height="875"
     id="namedview4"
     showgrid="false"
     showguides="true"
     inkscape:guide-bbox="true"
     inkscape:zoom="0.52149125"
     inkscape:cx="303.572"
     inkscape:cy="574.48012"
     inkscape:window-x="0"
     inkscape:window-y="25"
     inkscape:window-maximized="0"
     inkscape:current-layer="g10" /><g
     id="g10"
     inkscape:groupmode="layer"
     inkscape:label="2014-10_codeMirror_logo_vectors"
     transform="matrix(1.25,0,0,-1.25,0,640)"><path
       inkscape:connector-curvature="0"
       id="path22"
       style="fill:#ffffff;fill-opacity:1;fill-rule:nonzero;stroke:none"
       d="m 233.97976,469.37438 c 0,0 7.01353,-14.94848 -2.94916,-31.42373 -4.97925,-8.23417 -130.50847,-34.94915 -179.50847,-102.94915 -30,-47 -76,-183 71,-273 66,-34 94,-33 94,-33 0,0 -44,31 -16,52 28,21 69,31 80,60 13,-10 34,-31 54,-29 -2,13 -7,18 9,20 16,2 24,2 24,2 0,0 -15,12 -32,13 -17,1 -49,34 -48,48 21,12 48,32 64,26 16,-6 32,-16 35,-25 0,-6 -3,-16 10,-8 13,8 10,13 15,24 5,11 6,13 -5,22 -11,9 -37,30 -58,24 -21,-6 -65,-23 -87,-2 9,20 23,52 16,74 13,10 28,21 30,39 15,2 47,11 41,27 -6,16 -48.59322,87.16949 -113.59322,73.16949"
       sodipodi:nodetypes="cscccsccscscscsssscccsc" /><path
       inkscape:connector-curvature="0"
       id="path26"
       style="fill:#ffffff;fill-opacity:1;fill-rule:nonzero;stroke:none"
       d="m 441.52213,306.0015 c 11,29 29,78 12,80 -17,2 -36,-44 -41,-56 -5,-12 -25,-72 -14,-80 11,-8 43,56 43,56" /><path
       inkscape:connector-curvature="0"
       id="path30"
       style="fill:#da687d;fill-opacity:1;fill-rule:nonzero;stroke:none"
       d="m 348.52213,384.0015 c 3.13,4.919 5.82086,0.64508 -7.67914,-0.35492 -13.5,-1 -29.62196,-5.18461 -32.38899,-11.04836 -5.19174,-11.00208 -6.93187,-38.09672 -26.43187,-44.09672 -1,-7 0,-23 27.5,-26 27.5,-3 28.5,15 44.5,14.5 16,-0.5 14.5,5.5 9,10 -5.5,4.5 -24.5,35 -24.5,45 0,10 6.5,6.5 10,12"
       sodipodi:nodetypes="csscssssc" /><path
       inkscape:connector-curvature="0"
       id="path34"
       style="fill:#da687d;fill-opacity:1;fill-rule:nonzero;stroke:none"
       d="m 103.02213,82.502 c 0,0 -8.5,22.5 16.5,34.5 25,12 47.5,2.5 52,-6 4.5,-8.5 -7.5,-42.5 -50.5,-43 -10.5,8.5 -18,14.5 -18,14.5" /><g
       id="g38"
       transform="translate(-21.47687,0)" /><g
       id="g44"
       transform="translate(-21.47687,0)"><g
         style="opacity:0.69999701"
         id="g46"
         clip-path="url(#clipPath40)"><g
           id="g48"
           transform="translate(466.2583,369.8384)"><path
             inkscape:connector-curvature="0"
             id="path50"
             style="fill:#da687d;fill-opacity:1;fill-rule:evenodd;stroke:none"
             d="M 0,0 C 0.423,-1.569 0.298,-3.199 0.255,-4.838 0.213,-6.452 0.062,-8.15 -0.349,-9.801 c 0.106,-0.377 -0.082,-0.814 -0.018,-1.201 -0.41,-0.515 -0.194,-0.903 -0.284,-1.354 0.661,-0.674 1.522,-1.313 1.152,-2.162 -0.259,-0.596 -0.874,-0.706 -1.464,-0.995 -0.389,-1.403 -0.709,-3.099 -1.028,-4.649 -0.097,-0.476 -0.044,-1.051 -0.187,-1.485 -0.334,-1.01 -0.691,-1.978 -0.971,-3.09 -0.237,-0.945 0.034,-2.689 -1.063,-2.811 -0.423,-1.049 -0.663,-1.841 -1.165,-2.83 -0.286,-0.163 -0.452,0.106 -0.692,0.009 -0.305,-0.348 -0.294,-0.823 -0.577,-1.114 -0.222,-0.229 -0.503,-0.163 -0.665,-0.385 -0.363,-0.5 -0.266,-1.24 -0.523,-1.902 -0.468,-0.4 -0.862,-0.905 -1.147,-1.478 -0.588,-1.179 -0.698,-2.681 -1.591,-3.593 -0.28,-0.286 -0.761,-0.365 -1.011,-0.647 -0.238,-0.269 -0.455,-0.665 -0.689,-0.98 -0.338,-0.452 -0.669,-1.045 -0.972,-1.583 -1.004,-1.787 -2.383,-3.71 -3.301,-5.664 -0.173,-0.369 -0.199,-0.805 -0.364,-1.165 -0.381,-0.827 -0.943,-1.579 -1.257,-2.333 -0.516,-1.239 -1.31,-3.339 -2.538,-4.42 -0.149,-0.131 -0.473,-0.254 -0.606,-0.414 -0.179,-0.215 -0.136,-0.568 -0.32,-0.808 -0.086,-0.113 -0.4,-0.164 -0.537,-0.302 -0.208,-0.211 -0.306,-0.481 -0.479,-0.639 -0.426,-0.388 -1.015,-0.555 -1.381,-0.959 -0.277,-0.306 -0.397,-0.743 -0.692,-1.127 -0.318,-0.413 -0.761,-0.784 -1.09,-1.202 -0.994,-1.264 -1.38,-2.8 -2.702,-3.396 -0.393,-0.178 -0.88,-0.12 -1.291,-0.241 -0.374,0.344 -0.078,0.818 -0.163,1.164 -0.055,0.222 -0.285,0.382 -0.346,0.583 -0.143,0.474 -0.347,1.336 -0.34,1.878 0.007,0.538 0.305,0.971 0.375,1.612 0.061,0.549 -0.137,1.246 -0.177,1.856 -0.021,0.306 0.064,0.624 0.059,0.956 -0.008,0.533 -0.066,0.801 0.008,1.442 0.086,0.743 -0.074,1.462 -0.171,2.152 0.342,1.705 0.531,3.008 1.09,4.919 0.258,0.881 0.721,2.367 1.18,3.346 0.886,1.895 1.64,3.964 2.6,5.945 0.319,0.656 0.825,1.196 1.139,1.852 0.182,0.381 0.211,0.828 0.395,1.215 1.617,3.398 3.877,6.233 5.565,9.731 1.399,2.859 2.88,5.418 4.745,8.545 0.842,1.415 1.568,2.917 2.434,4.086 0.66,0.891 1.632,2.413 2.334,3.916 0.278,0.596 0.269,1.073 1.005,1.102 0.758,0.948 1.326,2.018 2.119,2.824 0.2,0.202 0.51,0.303 0.733,0.498 0.26,0.228 0.383,0.57 0.638,0.778 0.541,0.441 1.432,0.832 2.035,1.659 0.16,0.22 0.229,0.451 0.406,0.682 0.414,0.539 1.191,1.866 1.81,2.013 C -0.241,0.085 -0.126,0.061 0,0" /></g></g></g><g
       id="g54"
       transform="translate(-21.47687,0)" /><g
       id="g60"
       transform="translate(-21.47687,0)"><g
         style="opacity:0.69999701"
         id="g62"
         clip-path="url(#clipPath56)"><g
           id="g64"
           transform="translate(459.8965,349.4487)"><path
             inkscape:connector-curvature="0"
             id="path66"
             style="fill:#da687d;fill-opacity:1;fill-rule:evenodd;stroke:none"
             d="m 0,0 c 0.688,-1.936 0.765,-4.106 0.935,-6.266 -0.019,-2.14 -0.168,-4.579 -0.715,-6.943 0.098,-0.492 -0.155,-1.108 -0.109,-1.623 -0.519,-0.752 -0.295,-1.25 -0.438,-1.876 0.718,-0.835 1.666,-1.609 1.155,-2.836 -0.37,-0.846 -1.118,-1.037 -1.845,-1.479 -0.64,-1.905 -1.226,-4.263 -1.846,-6.305 -0.187,-0.635 -0.212,-1.395 -0.447,-1.977 -0.547,-1.362 -1.111,-2.656 -1.597,-4.101 -0.416,-1.238 -0.356,-3.498 -1.652,-3.689 -0.61,-1.355 -0.978,-2.373 -1.674,-3.651 -0.35,-0.217 -0.512,0.119 -0.801,-0.013 -0.392,-0.456 -0.442,-1.063 -0.795,-1.445 -0.269,-0.298 -0.585,-0.226 -0.785,-0.514 -0.449,-0.651 -0.386,-1.58 -0.723,-2.425 -0.282,-0.266 -0.546,-0.564 -0.784,-0.888 -0.119,-0.162 -0.233,-0.33 -0.337,-0.505 l -0.153,-0.266 -0.072,-0.136 -0.034,-0.069 -0.003,-0.004 0,-10e-4 c 0.099,0.238 0.028,0.066 0.05,0.119 l -10e-4,-0.002 -0.001,-10e-4 -0.004,-0.01 -0.008,-0.019 -0.016,-0.037 c -0.697,-1.635 -0.851,-3.63 -1.895,-4.955 -0.335,-0.421 -0.872,-0.577 -1.142,-0.971 -0.259,-0.375 -0.491,-0.912 -0.746,-1.347 -0.366,-0.625 -0.722,-1.432 -1.046,-2.164 -1.085,-2.456 -2.571,-5.274 -3.572,-8.03 -0.188,-0.523 -0.205,-1.106 -0.385,-1.617 -0.422,-1.173 -1.022,-2.273 -1.394,-3.342 -0.626,-1.753 -1.474,-4.727 -3.01,-6.377 -0.182,-0.2 -0.567,-0.415 -0.732,-0.65 -0.22,-0.315 -0.191,-0.786 -0.42,-1.137 -0.106,-0.164 -0.475,-0.275 -0.642,-0.48 -0.254,-0.313 -0.383,-0.69 -0.594,-0.926 -0.503,-0.581 -1.23,-0.865 -1.714,-1.438 -0.365,-0.435 -0.562,-1.029 -0.958,-1.568 -0.426,-0.578 -0.991,-1.104 -1.428,-1.683 -0.65,-0.928 -1.251,-1.786 -1.828,-2.608 -0.592,-0.813 -1.215,-1.514 -2.047,-1.884 -0.495,-0.219 -1.042,-0.12 -1.539,-0.256 -0.353,0.473 0.086,1.071 0.061,1.524 -0.018,0.288 -0.25,0.504 -0.28,0.766 -0.07,0.615 -0.141,1.712 -0.035,2.387 0.099,0.676 0.548,1.191 0.712,2.005 0.125,0.708 -0.034,1.591 -0.025,2.359 0.004,0.387 0.13,0.791 0.153,1.206 0.038,0.668 -0.008,0.999 0.13,1.795 0.163,0.922 -0.034,1.854 -0.121,2.709 0.426,2.191 0.686,3.806 1.265,6.362 0.273,1.176 0.786,3.104 1.265,4.488 0.472,1.315 0.904,2.681 1.347,4.063 0.445,1.4 0.906,2.841 1.424,4.249 0.347,0.939 0.896,1.734 1.274,2.728 0.213,0.565 0.249,1.192 0.465,1.767 0.475,1.25 0.99,2.514 1.541,3.656 0.553,1.123 1.13,2.228 1.711,3.336 l 0.938,1.807 c 0.326,0.58 0.653,1.161 0.981,1.745 0.649,1.172 1.283,2.367 1.886,3.609 1.027,1.966 2.073,3.828 3.188,5.725 1.116,1.844 2.324,3.757 3.629,5.817 1.158,1.853 2.248,3.825 3.357,5.355 0.827,1.167 2.173,3.163 3.042,5.126 0.342,0.78 0.349,1.38 1.197,1.482 0.907,1.274 1.649,2.697 2.452,3.773 0.214,0.276 0.563,0.445 0.808,0.722 0.286,0.323 0.408,0.762 0.693,1.065 0.582,0.653 1.672,1.277 2.21,2.569 0.151,0.332 0.198,0.653 0.368,1.006 0.397,0.822 1.098,2.779 1.78,3.145 C -0.284,0.044 -0.151,0.044 0,0" /></g></g></g><path
       inkscape:connector-curvature="0"
       id="path70"
       style="fill:#ffffff;fill-opacity:1;fill-rule:nonzero;stroke:none"
       d="m 416.68863,327.0015 c 0,0 -8,-30.667 -4.667,-56 0.667,8 4.667,56 4.667,56" /><path
       inkscape:connector-curvature="0"
       id="path74"
       style="fill:#ffffff;fill-opacity:1;fill-rule:nonzero;stroke:none"
       d="m 426.18913,347.7256 c -0.61,2.147 -4.597,-59.478 -3.432,-61.636 1.166,-2.159 7.147,48.575 3.432,61.636" /><path
       inkscape:connector-curvature="0"
       id="path78"
       style="fill:#2d2b2c;fill-opacity:1;fill-rule:nonzero;stroke:none"
       d="m 235.24913,465.60369 c 0,0 4.667,-26.6198 -38.667,-40.6198 -43.333,-14 -103.0605,-25.98239 -147.0605,-78.64939 -44.0000004,-52.666 -52.0000004,-139.999 -22,-197.333 30,-57.333 103.333,-128.667 235.333,-128.667 132,0 236.85312,101.50582 236.85312,171.50582 0,36.667 -20.1469,28.4918 -27.11433,-5.90828 C 466.30468,154.88286 408.18863,39.0015 262.18863,39.0015 c -146,0 -220.667,88.667 -230,164.667 -9.334,76 11.898969,141.46925 88.56597,180.80225 76.667,39.334 125.32039,23.66435 114.65339,80.99735"
       sodipodi:nodetypes="cssssssscsc" /><path
       inkscape:connector-curvature="0"
       id="path82"
       style="fill:#2d2b2c;fill-opacity:1;fill-rule:nonzero;stroke:none"
       d="m 198.85713,260.335 c 0,0 -8.667,-40.001 -50.667,-59.333 -42,-19.334 -60,-30 -66,-63.334 16,26.666 62.667,32 88.667,58 26,26 28,64.667 28,64.667" /><path
       inkscape:connector-curvature="0"
       id="path86"
       style="fill:#2d2b2c;fill-opacity:1;fill-rule:nonzero;stroke:none"
       d="m 210.19013,353.0015 c 0,0 36,-46.667 78.667,-24 42.666,22.667 20.667,75.333 20,78.667 -0.667,3.333 4.666,-58.667 -27.334,-69.334 -32,-10.666 -71.333,14.667 -71.333,14.667" /><path
       inkscape:connector-curvature="0"
       id="path90"
       style="fill:#2d2b2c;fill-opacity:1;fill-rule:nonzero;stroke:none"
       d="m 116.18913,74.3359 c 0,0 22.666,-1.334 39.333,17.332 16.667,18.668 7.334,48 34.667,58.668 27.333,10.666 46,4 46,4 0,0 -48.667,-6.668 -52.667,-34.668 -4,-28 -10.666,-40.666 -21.333,-49.332 -10.667,-8.668 -24.667,-10 -24.667,-10 l -21.333,14 z" /><path
       inkscape:connector-curvature="0"
       id="path94"
       style="fill:#2d2b2c;fill-opacity:1;fill-rule:nonzero;stroke:none"
       d="m 219.02213,219.502 c 0,0 40.523,6.783 59,48 15.167,33.833 5,63 5,63 l -20.5,-3 c 0,0 8.5,-24.5 2,-46.5 -6.5,-22 -21.5,-47.5 -45.5,-61.5" /><path
       inkscape:connector-curvature="0"
       id="path98"
       style="fill:#2d2b2c;fill-opacity:1;fill-rule:nonzero;stroke:none"
       d="m 437.13303,313.1621 c -14.461,-36.13 -35.773,-62.068 -38.265,-60.674 -4.494,2.513 -0.358,34.036 14.104,70.166 14.46,36.13 32.432,63.635 39.104,61.014 6.672,-2.621 -0.483,-34.376 -14.943,-70.506 m 20.999,72.506 c -16.442,8.934 -36.644,-24.449 -53.276,-63.334 -16.633,-38.885 -18.542,-70.229 -5.759,-75.836 17.092,-7.496 33.127,22.285 49.759,61.17 16.632,38.885 24,70 9.276,78" /><path
       inkscape:connector-curvature="0"
       id="path102"
       style="fill:#2d2b2c;fill-opacity:1;fill-rule:nonzero;stroke:none"
       d="m 159.52163,189.668 c 0,0 10.331,-31.037 62,-24.666 48.667,6 69.59,24.744 99.333,43.334 21.334,13.332 20,7.332 22.667,6.666 2.667,-0.666 14.667,-8 27.333,-6.666 0.667,-6.668 -5.999,-1.334 -8.666,-7.334 -1.333,-4 10.12,-22.824 26.666,-20 27.334,4.666 19.667,16 25.001,28.666 5.333,12.666 9,19.334 -17.667,37.334 -20.667,18.666 -32,13.999 -42,13.999 -10,0 -36,-13.999 -54,-10.666 -18,3.333 -29.334,10 -29.334,10 l -11.999,-13.333 c 0,0 21.999,-16.666 47.333,-10.666 25.333,6 44.001,25.332 66.001,15.332 22,-10 26.282,-16.701 32.999,-21.666 7.667,-5.668 8.333,-11.666 3,-17 -5.334,-5.334 0.001,-9.334 -3.332,-15.334 -3.334,-6 -20,-8.666 -20,-8.666 0,0 18.273,23.477 -4,25.332 -16,1.334 -26,22.668 -48.667,11.334 -32.55,-16.277 -78.668,-44 -110.668,-47.332 -31.193,-3.248 -42.667,6.666 -50.667,25.332 -9.333,-8 -11.333,-14 -11.333,-14" /><path
       inkscape:connector-curvature="0"
       id="path106"
       style="fill:#2d2b2c;fill-opacity:1;fill-rule:nonzero;stroke:none"
       d="m 274.18863,183.002 c 0,0 22.667,-12 16,-38 -6.667,-26 -36.667,-44 -56,-52.668 -19.333,-8.666 -33.743,-20.127 -19.333,-27.332 12,-6 18.667,9.334 36,12 17.333,2.666 32.667,-4 34,-14 -7.334,4 -12.667,4 -12.667,4 0,0 6,-4 6.667,-10.668 0.666,-6.666 -0.667,-3.332 -4.667,-3.332 -10,0 -11.333,8.666 -20,7.332 -22,-2 -23.333,-11.334 -35.333,-12.666 -12,-1.334 -32,5.334 -29.334,20.666 2.667,15.334 23.334,26 42.667,34 19.333,8 48.667,33.334 44.667,56 -4,22.668 -21.334,18 -21.334,18 l 18.667,6.668 z" /><path
       inkscape:connector-curvature="0"
       id="path110"
       style="fill:#2d2b2c;fill-opacity:1;fill-rule:nonzero;stroke:none"
       d="m 331.02213,371.7515 c 0,0 9.5,-4.75 15.5,-28.75 4,-8.667 9.333,-15.667 14,-17.667 4.667,-2 -2,-4 -5.333,-3.333 -3.334,0.667 -10.334,3.667 -15,-0.333 -4.667,-4 -16,-14.667 -32,-12 -16,2.666 -29.667,12.833 -29.667,12.833 0,0 6,-26.5 41.667,-24.833 24.721,1.155 19.333,14 36,16.666 16.666,2.667 14.893,11.089 11.333,18 -5.667,11 -23.333,13.667 -25.333,45.834 -2,3.333 -14.5,-0.417 -11.167,-6.417" /><path
       inkscape:connector-curvature="0"
       id="path114"
       style="fill:#2d2b2c;fill-opacity:1;fill-rule:nonzero;stroke:none"
       d="m 388.01383,204.4707 c 1.506,-1.477 -11.825,-31.469 -11.825,-31.469 0,0 -2.667,-7.334 -9.814,-4.75 -7.311,2.645 -5.413,7.948 -5.413,7.948 l 17.026,30.837 c 0,0 9.353,-1.906 10.026,-2.566" /><path
       inkscape:connector-curvature="0"
       id="path118"
       style="fill:#2d2b2c;fill-opacity:1;fill-rule:nonzero;stroke:none"
       d="m 406.74623,247.168 c -0.667,-2 -3.333,-10 -3.333,-10 l -10.891,8.334 2.891,6.332 11.333,-4.666 z" /><path
       inkscape:connector-curvature="0"
       id="path122"
       style="fill:#2d2b2c;fill-opacity:1;fill-rule:nonzero;stroke:none"
       d="m 284.85563,189.002 c -2,-7.334 23.333,-50.002 40.667,-47.334 17.333,2.666 19.999,-2.668 14.666,-6 -5.333,-3.334 -14.666,-4.668 -13.333,-9.334 1.333,-4.666 5,-9.334 -3.667,-8 -8.666,1.334 -26.333,10.668 -37,28.668 -3.333,-10.668 -4.666,-14 -4.666,-14 0,0 34,-35.334 68.666,-20.668 -6,4.668 -22.666,3.334 -8.666,11.334 14,8 24.666,10.666 31.333,-2 3.333,0.666 3.333,30 -40.667,28 -15.333,2 -36,32 -36,47.334 -4,-4 -9.333,-0.666 -11.333,-8" /><path
       inkscape:connector-curvature="0"
       id="path126"
       style="fill:#2d2b2c;fill-opacity:1;fill-rule:nonzero;stroke:none"
       d="m 420.44553,336.5015 c 0,0 -8.75,-26.286 -5.104,-48 0.729,6.857 5.104,48 5.104,48" /><path
       inkscape:connector-curvature="0"
       id="path130"
       style="fill:#2d2b2c;fill-opacity:1;fill-rule:nonzero;stroke:none"
       d="m 429.40543,352.0503 c -0.444,1.66 -4.07,-45.761 -3.203,-47.435 0.868,-1.673 5.909,37.339 3.203,47.435" /><path
       inkscape:connector-curvature="0"
       id="path134"
       style="fill:#2d2b2c;fill-opacity:1;fill-rule:nonzero;stroke:none"
       d="m 312.85513,378.335 c 0,0 37.667,3.333 31,18.333 -20.105,45.239 -58.333,71.667 -129,69 40,16 74.00021,14.00025 106.667,-14 16.33311,-13.99988 23.89324,-31.04069 29.74979,-44.08296 9.34044,-20.80074 6.58914,-22.74696 -3.74979,-28.58304 -12.56847,-7.0946 -34.191,-2.57 -34.667,-0.667"
       sodipodi:nodetypes="cccsssc" /><path
       inkscape:connector-curvature="0"
       id="path138"
       style="fill:#2d2b2c;fill-opacity:1;fill-rule:nonzero;stroke:none"
       d="m 316.7084,372.58242 c 0,0 10.36415,-7.13802 18.50215,-1.32602 3.74086,3.84884 6.23323,5.95026 -4.37137,5.51213 l -12.90479,0.52875 c -8.94116,1.82452 -8.7647,-0.93753 -1.22599,-4.71486 z"
       sodipodi:nodetypes="ccccc" /></g></svg>