<svg xmlns="http://www.w3.org/2000/svg" xmlns:xlink="http://www.w3.org/1999/xlink" width="48" height="48" version="1.1" viewBox="0 0 48 48"><title>illustration/flow</title><g id="illustration/flow" fill="none" fill-rule="evenodd" stroke="none" stroke-width="1"><path id="Combined-Shape" fill="#79C9FC" fill-rule="nonzero" d="M30,29 C32.7614237,29 35,26.7614237 35,24 C35,14.6111593 27.3888407,7 18,7 C8.61115925,7 1,14.6111593 1,24 C1,33.3888407 8.61115925,41 18,41 C19.3333404,41 20.6447683,40.8466238 21.9154603,40.5471706 C19.5096374,39.3319645 17.5510566,37.8612875 16.0456579,36.1314815 C14.1063138,33.9030427 12.769443,31.0725999 12.0293806,27.6556449 C11.360469,26.565281 11,25.3082308 11,24 C11,20.1340068 14.1340068,17 18,17 C21.8659932,17 25,20.1340068 25,24 C25,26.125 27.7040312,29 30,29 Z"/><path id="Combined-Shape-Copy" fill="#FFC445" fill-rule="nonzero" d="M42,29 C44.7614237,29 47,26.7614237 47,24 C47,14.6111593 39.3888407,7 30,7 C20.6111593,7 13,14.6111593 13,24 C13,33.3888407 20.6111593,41 30,41 C31.3333404,41 32.6447683,40.8466238 33.9154603,40.5471706 C31.5096374,39.3319645 29.4051056,37.9781963 28.0456579,36.1314815 C26.0625,33.4375 23,27.1875 23,24 C23,20.1340068 26.1340068,17 30,17 C33.8659932,17 37,20.1340068 37,24 C37.02301,26.3435241 39.7040312,29 42,29 Z" transform="translate(30.000000, 24.000000) scale(-1, -1) translate(-30.000000, -24.000000)"/></g></svg>